<svg width="281" height="178" viewBox="0 0 281 178" fill="none" xmlns="http://www.w3.org/2000/svg">
<rect width="281" height="49.3146" rx="10.2351" fill="url(#paint0_radial_2166_2408)"/>
<circle cx="26.1746" cy="24.3121" r="5.52275" fill="white"/>
<circle cx="26.5182" cy="24.6571" r="10.3552" stroke="white" stroke-width="0.690344"/>
<path d="M45.8457 28.1572V20.0064H47.2972L49.7089 25.444H49.8876L52.2882 20.0064H53.7509V28.1572H52.6567V21.2011L52.7348 21.2234L50.4235 26.4712H49.0837L46.7612 21.2234L46.8506 21.2011V28.1572H45.8457ZM56.2511 28.1572V22.1948H57.323V28.1572H56.2511ZM55.3355 23.0434V22.1948H57.323V23.0434H55.3355ZM56.5526 21.2346C56.3144 21.2346 56.1357 21.1713 56.0166 21.0448C55.905 20.9182 55.8491 20.7582 55.8491 20.5646C55.8491 20.3711 55.905 20.2111 56.0166 20.0845C56.1357 19.958 56.3144 19.8947 56.5526 19.8947C56.7908 19.8947 56.9657 19.958 57.0773 20.0845C57.1964 20.2111 57.256 20.3711 57.256 20.5646C57.256 20.7582 57.1964 20.9182 57.0773 21.0448C56.9657 21.1713 56.7908 21.2346 56.5526 21.2346ZM59.3955 28.1572V22.1948H60.2441V24.7517H60.1101C60.1101 24.1637 60.1883 23.6687 60.3446 23.2667C60.5083 22.8573 60.754 22.5484 61.0815 22.34C61.409 22.1241 61.8222 22.0162 62.3209 22.0162H62.3655C63.1174 22.0162 63.6719 22.2506 64.0292 22.7196C64.394 23.1886 64.5763 23.8659 64.5763 24.7517V28.1572H63.5044V24.5284C63.5044 24.0669 63.3742 23.6984 63.1136 23.423C62.8531 23.1402 62.4958 22.9987 62.0417 22.9987C61.5728 22.9987 61.1932 23.1439 60.9029 23.4342C60.6126 23.7245 60.4674 24.1116 60.4674 24.5954V28.1572H59.3955ZM68.86 28.2242C68.4134 28.2242 68.0263 28.1609 67.6988 28.0344C67.3787 27.9079 67.1293 27.692 66.9507 27.3868C66.7795 27.0742 66.6939 26.6536 66.6939 26.1251V20.386H67.7211V26.2591C67.7211 26.5792 67.8067 26.8285 67.9779 27.0072C68.1565 27.1784 68.4059 27.264 68.726 27.264H69.7756V28.2242H68.86ZM65.6666 22.9987V22.1948H69.7756V22.9987H65.6666ZM73.9885 28.1572V20.0064H75.775L79.9175 27.1747H80.2748L80.0514 27.3756V20.0064H81.101V28.1572H79.2922L75.1498 20.9889H74.7925L75.0158 20.788V28.1572H73.9885ZM83.464 28.1572V20.0064H84.5582V28.1572H83.464ZM84.3349 24.5284V23.5458L87.8297 23.5347V24.5173L84.3349 24.5284ZM84.3349 20.9889V20.0064H88.0196V20.9889H84.3349ZM91.4065 28.1572V20.7656H92.5007V28.1572H91.4065ZM88.9277 20.9889V20.0064H94.9795V20.9889H88.9277ZM101.582 28.3582C101.06 28.3582 100.603 28.2689 100.208 28.0902C99.8137 27.9116 99.4787 27.6771 99.2033 27.3868C98.9353 27.0891 98.7306 26.7578 98.5892 26.3931C98.4552 26.0283 98.3882 25.6561 98.3882 25.2765V25.0755C98.3882 24.6959 98.4589 24.3237 98.6003 23.959C98.7418 23.5868 98.9502 23.2555 99.2256 22.9652C99.501 22.6675 99.836 22.433 100.23 22.2618C100.625 22.0832 101.075 21.9938 101.582 21.9938C102.088 21.9938 102.538 22.0832 102.933 22.2618C103.327 22.433 103.662 22.6675 103.937 22.9652C104.213 23.2555 104.421 23.5868 104.563 23.959C104.704 24.3237 104.775 24.6959 104.775 25.0755V25.2765C104.775 25.6561 104.704 26.0283 104.563 26.3931C104.429 26.7578 104.224 27.0891 103.949 27.3868C103.681 27.6771 103.349 27.9116 102.955 28.0902C102.56 28.2689 102.103 28.3582 101.582 28.3582ZM101.582 27.398C102.028 27.398 102.408 27.3012 102.72 27.1077C103.04 26.9067 103.282 26.6387 103.446 26.3037C103.617 25.9688 103.703 25.5929 103.703 25.176C103.703 24.7517 103.617 24.3721 103.446 24.0371C103.275 23.7022 103.029 23.4379 102.709 23.2444C102.397 23.0508 102.021 22.9541 101.582 22.9541C101.15 22.9541 100.774 23.0508 100.454 23.2444C100.134 23.4379 99.8881 23.7022 99.7169 24.0371C99.5457 24.3721 99.4601 24.7517 99.4601 25.176C99.4601 25.5929 99.542 25.9688 99.7057 26.3037C99.8769 26.6387 100.119 26.9067 100.431 27.1077C100.752 27.3012 101.135 27.398 101.582 27.398ZM106.38 28.1572V22.1948H107.229V24.7517H107.095C107.095 24.1637 107.173 23.6687 107.329 23.2667C107.493 22.8573 107.739 22.5484 108.066 22.34C108.394 22.1241 108.807 22.0162 109.306 22.0162H109.35C110.102 22.0162 110.657 22.2506 111.014 22.7196C111.379 23.1886 111.561 23.8659 111.561 24.7517V28.1572H110.489V24.5284C110.489 24.0669 110.359 23.6984 110.098 23.423C109.838 23.1402 109.481 22.9987 109.027 22.9987C108.558 22.9987 108.178 23.1439 107.888 23.4342C107.597 23.7245 107.452 24.1116 107.452 24.5954V28.1572H106.38ZM116.063 30.3903V22.1948H116.911V24.7741L116.711 24.7517C116.748 24.1116 116.882 23.5905 117.112 23.1886C117.351 22.7791 117.66 22.4777 118.039 22.2841C118.419 22.0906 118.832 21.9938 119.279 21.9938C119.71 21.9938 120.101 22.0757 120.451 22.2395C120.808 22.4032 121.113 22.6266 121.367 22.9094C121.62 23.1923 121.813 23.5198 121.947 23.892C122.081 24.2642 122.148 24.6587 122.148 25.0755V25.2765C122.148 25.6934 122.077 26.0879 121.936 26.4601C121.795 26.8322 121.594 27.1598 121.333 27.4426C121.08 27.7255 120.775 27.9488 120.417 28.1126C120.068 28.2763 119.681 28.3582 119.256 28.3582C118.832 28.3582 118.426 28.2652 118.039 28.0791C117.652 27.893 117.332 27.5915 117.079 27.1747C116.826 26.7578 116.681 26.2107 116.644 25.5333L117.135 26.4266V30.3903H116.063ZM119.089 27.4203C119.491 27.4203 119.841 27.3273 120.138 27.1412C120.436 26.9476 120.667 26.6834 120.831 26.3484C120.994 26.006 121.076 25.6152 121.076 25.176C121.076 24.7294 120.994 24.3386 120.831 24.0036C120.667 23.6687 120.436 23.4081 120.138 23.222C119.841 23.0285 119.491 22.9317 119.089 22.9317C118.731 22.9317 118.4 23.0136 118.095 23.1774C117.79 23.3337 117.544 23.5645 117.358 23.8697C117.179 24.1674 117.09 24.5284 117.09 24.9527V25.4663C117.09 25.8757 117.183 26.2256 117.369 26.5159C117.555 26.8062 117.801 27.0295 118.106 27.1858C118.411 27.3421 118.739 27.4203 119.089 27.4203ZM126.508 28.3582C125.987 28.3582 125.529 28.2689 125.134 28.0902C124.74 27.9116 124.405 27.6771 124.13 27.3868C123.862 27.0891 123.657 26.7578 123.515 26.3931C123.381 26.0283 123.314 25.6561 123.314 25.2765V25.0755C123.314 24.6959 123.385 24.3237 123.527 23.959C123.668 23.5868 123.876 23.2555 124.152 22.9652C124.427 22.6675 124.762 22.433 125.157 22.2618C125.551 22.0832 126.002 21.9938 126.508 21.9938C127.014 21.9938 127.464 22.0832 127.859 22.2618C128.253 22.433 128.588 22.6675 128.864 22.9652C129.139 23.2555 129.348 23.5868 129.489 23.959C129.63 24.3237 129.701 24.6959 129.701 25.0755V25.2765C129.701 25.6561 129.63 26.0283 129.489 26.3931C129.355 26.7578 129.15 27.0891 128.875 27.3868C128.607 27.6771 128.276 27.9116 127.881 28.0902C127.487 28.2689 127.029 28.3582 126.508 28.3582ZM126.508 27.398C126.954 27.398 127.334 27.3012 127.647 27.1077C127.967 26.9067 128.209 26.6387 128.372 26.3037C128.544 25.9688 128.629 25.5929 128.629 25.176C128.629 24.7517 128.544 24.3721 128.372 24.0371C128.201 23.7022 127.956 23.4379 127.636 23.2444C127.323 23.0508 126.947 22.9541 126.508 22.9541C126.076 22.9541 125.7 23.0508 125.38 23.2444C125.06 23.4379 124.814 23.7022 124.643 24.0371C124.472 24.3721 124.386 24.7517 124.386 25.176C124.386 25.5929 124.468 25.9688 124.632 26.3037C124.803 26.6387 125.045 26.9067 125.358 27.1077C125.678 27.3012 126.061 27.398 126.508 27.398ZM131.374 28.1572V20.0064H132.445V28.1572H131.374ZM130.547 20.8549V20.0064H132.445V20.8549H130.547ZM134.099 30.4797V29.5194H134.959C135.212 29.5194 135.424 29.4859 135.596 29.4189C135.774 29.3594 135.919 29.2552 136.031 29.1063C136.15 28.9574 136.247 28.7602 136.321 28.5145L138.197 22.1948H139.247L137.259 28.7937C137.14 29.1882 136.973 29.5083 136.757 29.7539C136.541 30.007 136.277 30.1894 135.964 30.301C135.659 30.4201 135.302 30.4797 134.892 30.4797H134.099ZM135.919 28.0232V27.13H137.215V28.0232H135.919ZM135.808 28.0232L133.675 22.1948H134.769L136.813 28.0232H135.808ZM142.754 30.4797C142.479 30.4797 142.199 30.4685 141.917 30.4462C141.641 30.4238 141.377 30.3941 141.124 30.3568V29.4524C141.392 29.4897 141.671 29.5194 141.961 29.5418C142.259 29.5715 142.538 29.5864 142.799 29.5864C143.342 29.5864 143.774 29.512 144.094 29.3631C144.421 29.2217 144.656 28.9946 144.797 28.682C144.946 28.3768 145.021 27.9823 145.021 27.4985V26.3596L145.378 25.511C145.356 26.1139 145.229 26.6164 144.998 27.0183C144.767 27.4129 144.466 27.7106 144.094 27.9116C143.729 28.1051 143.323 28.2019 142.877 28.2019C142.46 28.2019 142.077 28.1237 141.727 27.9674C141.384 27.8037 141.087 27.5803 140.833 27.2975C140.588 27.0146 140.394 26.6908 140.253 26.3261C140.119 25.9539 140.052 25.5631 140.052 25.1537V24.9527C140.052 24.5359 140.123 24.1488 140.264 23.7915C140.405 23.4267 140.603 23.1104 140.856 22.8424C141.109 22.5744 141.41 22.366 141.76 22.2171C142.117 22.0683 142.508 21.9938 142.933 21.9938C143.431 21.9938 143.87 22.1018 144.25 22.3176C144.63 22.5261 144.927 22.835 145.143 23.2444C145.367 23.6463 145.489 24.1413 145.512 24.7294L145.199 24.7406V22.1948H146.048V27.4538C146.048 28.1684 145.936 28.7453 145.713 29.1845C145.497 29.6311 145.147 29.9586 144.663 30.167C144.187 30.3755 143.55 30.4797 142.754 30.4797ZM143.078 27.2193C143.435 27.2193 143.759 27.1412 144.049 26.9848C144.347 26.8285 144.581 26.6052 144.753 26.3149C144.931 26.0172 145.021 25.6636 145.021 25.2542V24.7406C145.021 24.3386 144.927 23.9999 144.741 23.7245C144.563 23.4491 144.328 23.2407 144.038 23.0992C143.748 22.9578 143.431 22.8871 143.089 22.8871C142.702 22.8871 142.359 22.9764 142.062 23.1551C141.764 23.3337 141.533 23.5868 141.369 23.9143C141.206 24.2344 141.124 24.614 141.124 25.0532C141.124 25.4924 141.206 25.8757 141.369 26.2033C141.541 26.5308 141.771 26.7839 142.062 26.9625C142.359 27.1337 142.698 27.2193 143.078 27.2193ZM150.78 28.3582C150.259 28.3582 149.801 28.2689 149.406 28.0902C149.012 27.9116 148.677 27.6771 148.402 27.3868C148.134 27.0891 147.929 26.7578 147.787 26.3931C147.653 26.0283 147.586 25.6561 147.586 25.2765V25.0755C147.586 24.6959 147.657 24.3237 147.799 23.959C147.94 23.5868 148.148 23.2555 148.424 22.9652C148.699 22.6675 149.034 22.433 149.429 22.2618C149.823 22.0832 150.274 21.9938 150.78 21.9938C151.286 21.9938 151.736 22.0832 152.131 22.2618C152.525 22.433 152.86 22.6675 153.136 22.9652C153.411 23.2555 153.62 23.5868 153.761 23.959C153.902 24.3237 153.973 24.6959 153.973 25.0755V25.2765C153.973 25.6561 153.902 26.0283 153.761 26.3931C153.627 26.7578 153.422 27.0891 153.147 27.3868C152.879 27.6771 152.548 27.9116 152.153 28.0902C151.759 28.2689 151.301 28.3582 150.78 28.3582ZM150.78 27.398C151.226 27.398 151.606 27.3012 151.919 27.1077C152.239 26.9067 152.481 26.6387 152.644 26.3037C152.816 25.9688 152.901 25.5929 152.901 25.176C152.901 24.7517 152.816 24.3721 152.644 24.0371C152.473 23.7022 152.228 23.4379 151.908 23.2444C151.595 23.0508 151.219 22.9541 150.78 22.9541C150.348 22.9541 149.972 23.0508 149.652 23.2444C149.332 23.4379 149.086 23.7022 148.915 24.0371C148.744 24.3721 148.658 24.7517 148.658 25.176C148.658 25.5929 148.74 25.9688 148.904 26.3037C149.075 26.6387 149.317 26.9067 149.63 27.1077C149.95 27.3012 150.333 27.398 150.78 27.398ZM155.579 28.1572V22.1948H156.427V24.7517H156.293C156.293 24.1637 156.371 23.6687 156.528 23.2667C156.691 22.8573 156.937 22.5484 157.265 22.34C157.592 22.1241 158.005 22.0162 158.504 22.0162H158.549C159.3 22.0162 159.855 22.2506 160.212 22.7196C160.577 23.1886 160.759 23.8659 160.759 24.7517V28.1572H159.687V24.5284C159.687 24.0669 159.557 23.6984 159.297 23.423C159.036 23.1402 158.679 22.9987 158.225 22.9987C157.756 22.9987 157.376 23.1439 157.086 23.4342C156.796 23.7245 156.65 24.1116 156.65 24.5954V28.1572H155.579ZM162.43 25.511V24.5954H166.584V25.511H162.43ZM168.347 28.1572V22.1948H169.196V24.7517H169.062C169.062 24.1711 169.136 23.6798 169.285 23.2779C169.441 22.8685 169.672 22.5558 169.977 22.34C170.282 22.1241 170.669 22.0162 171.138 22.0162H171.183C171.652 22.0162 172.039 22.1241 172.344 22.34C172.657 22.5558 172.888 22.8685 173.037 23.2779C173.185 23.6798 173.26 24.1711 173.26 24.7517H172.947C172.947 24.1711 173.025 23.6798 173.182 23.2779C173.338 22.8685 173.569 22.5558 173.874 22.34C174.187 22.1241 174.577 22.0162 175.046 22.0162H175.091C175.56 22.0162 175.951 22.1241 176.263 22.34C176.576 22.5558 176.807 22.8685 176.956 23.2779C177.112 23.6798 177.19 24.1711 177.19 24.7517V28.1572H176.118V24.5173C176.118 24.0334 175.999 23.6612 175.761 23.4007C175.523 23.1327 175.191 22.9987 174.767 22.9987C174.328 22.9987 173.974 23.1402 173.706 23.423C173.438 23.6984 173.304 24.0855 173.304 24.5842V28.1572H172.233V24.5173C172.233 24.0334 172.113 23.6612 171.875 23.4007C171.637 23.1327 171.306 22.9987 170.882 22.9987C170.442 22.9987 170.089 23.1402 169.821 23.423C169.553 23.6984 169.419 24.0855 169.419 24.5842V28.1572H168.347ZM182.759 28.1572V26.3707H182.581V24.3051C182.581 23.8957 182.473 23.5868 182.257 23.3784C182.048 23.1699 181.739 23.0657 181.33 23.0657C181.099 23.0657 180.861 23.0695 180.615 23.0769C180.37 23.0843 180.135 23.0918 179.912 23.0992C179.689 23.1067 179.495 23.1178 179.331 23.1327V22.1948C179.495 22.1799 179.666 22.1688 179.845 22.1613C180.031 22.1464 180.221 22.139 180.414 22.139C180.608 22.1315 180.794 22.1278 180.973 22.1278C181.583 22.1278 182.082 22.2023 182.469 22.3511C182.856 22.4926 183.143 22.727 183.329 23.0546C183.515 23.3821 183.608 23.825 183.608 24.3833V28.1572H182.759ZM180.805 28.3135C180.359 28.3135 179.972 28.2391 179.644 28.0902C179.324 27.9339 179.075 27.7106 178.896 27.4203C178.725 27.13 178.639 26.7801 178.639 26.3707C178.639 25.9464 178.732 25.5929 178.918 25.31C179.112 25.0271 179.391 24.815 179.756 24.6736C180.12 24.5247 180.56 24.4503 181.073 24.4503H182.692V25.2542H181.029C180.597 25.2542 180.266 25.3584 180.035 25.5668C179.804 25.7752 179.689 26.0432 179.689 26.3707C179.689 26.6983 179.804 26.9625 180.035 27.1635C180.266 27.3645 180.597 27.465 181.029 27.465C181.282 27.465 181.524 27.4203 181.754 27.331C181.985 27.2342 182.175 27.0779 182.324 26.862C182.48 26.6387 182.566 26.3335 182.581 25.9464L182.871 26.3707C182.834 26.795 182.729 27.1523 182.558 27.4426C182.394 27.7255 182.164 27.9414 181.866 28.0902C181.576 28.2391 181.222 28.3135 180.805 28.3135ZM185.865 28.1572V22.1948H186.937V28.1572H185.865ZM184.95 23.0434V22.1948H186.937V23.0434H184.95ZM186.167 21.2346C185.929 21.2346 185.75 21.1713 185.631 21.0448C185.519 20.9182 185.463 20.7582 185.463 20.5646C185.463 20.3711 185.519 20.2111 185.631 20.0845C185.75 19.958 185.929 19.8947 186.167 19.8947C186.405 19.8947 186.58 19.958 186.692 20.0845C186.811 20.2111 186.87 20.3711 186.87 20.5646C186.87 20.7582 186.811 20.9182 186.692 21.0448C186.58 21.1713 186.405 21.2346 186.167 21.2346ZM189.01 28.1572V22.1948H189.858V24.7517H189.724C189.724 24.1637 189.803 23.6687 189.959 23.2667C190.123 22.8573 190.368 22.5484 190.696 22.34C191.023 22.1241 191.436 22.0162 191.935 22.0162H191.98C192.732 22.0162 193.286 22.2506 193.644 22.7196C194.008 23.1886 194.191 23.8659 194.191 24.7517V28.1572H193.119V24.5284C193.119 24.0669 192.988 23.6984 192.728 23.423C192.467 23.1402 192.11 22.9987 191.656 22.9987C191.187 22.9987 190.807 23.1439 190.517 23.4342C190.227 23.7245 190.082 24.1116 190.082 24.5954V28.1572H189.01ZM196.152 28.1572V22.1948H197V24.7517H196.866C196.866 24.1637 196.945 23.6687 197.101 23.2667C197.265 22.8573 197.51 22.5484 197.838 22.34C198.165 22.1241 198.578 22.0162 199.077 22.0162H199.122C199.874 22.0162 200.428 22.2506 200.786 22.7196C201.15 23.1886 201.333 23.8659 201.333 24.7517V28.1572H200.261V24.5284C200.261 24.0669 200.13 23.6984 199.87 23.423C199.609 23.1402 199.252 22.9987 198.798 22.9987C198.329 22.9987 197.949 23.1439 197.659 23.4342C197.369 23.7245 197.224 24.1116 197.224 24.5954V28.1572H196.152ZM205.828 28.3582C205.307 28.3582 204.857 28.2689 204.477 28.0902C204.098 27.9116 203.789 27.6771 203.551 27.3868C203.312 27.0891 203.134 26.7578 203.015 26.3931C202.903 26.0283 202.847 25.6561 202.847 25.2765V25.0755C202.847 24.6885 202.903 24.3126 203.015 23.9478C203.134 23.5831 203.312 23.2555 203.551 22.9652C203.789 22.6675 204.09 22.433 204.455 22.2618C204.827 22.0832 205.263 21.9938 205.761 21.9938C206.409 21.9938 206.941 22.1353 207.358 22.4181C207.782 22.6935 208.095 23.0508 208.296 23.49C208.504 23.9292 208.609 24.3982 208.609 24.8969V25.377H203.316V24.5731H207.827L207.581 25.0085C207.581 24.5842 207.514 24.2195 207.38 23.9143C207.246 23.6017 207.046 23.3598 206.778 23.1886C206.51 23.0173 206.171 22.9317 205.761 22.9317C205.337 22.9317 204.984 23.0285 204.701 23.222C204.425 23.4156 204.217 23.6798 204.075 24.0148C203.941 24.3498 203.874 24.7368 203.874 25.176C203.874 25.6003 203.941 25.9837 204.075 26.3261C204.217 26.661 204.433 26.929 204.723 27.13C205.013 27.3235 205.382 27.4203 205.828 27.4203C206.297 27.4203 206.677 27.3161 206.967 27.1077C207.265 26.8992 207.444 26.6573 207.503 26.3819H208.508C208.426 26.7913 208.263 27.1449 208.017 27.4426C207.771 27.7404 207.462 27.9674 207.09 28.1237C206.718 28.28 206.297 28.3582 205.828 28.3582ZM212.453 28.2242C212.006 28.2242 211.619 28.1609 211.292 28.0344C210.972 27.9079 210.722 27.692 210.544 27.3868C210.373 27.0742 210.287 26.6536 210.287 26.1251V20.386H211.314V26.2591C211.314 26.5792 211.4 26.8285 211.571 27.0072C211.75 27.1784 211.999 27.264 212.319 27.264H213.369V28.2242H212.453ZM209.26 22.9987V22.1948H213.369V22.9987H209.26Z" fill="white"/>
<rect y="64.2019" width="281" height="49.3146" rx="10.2351" fill="white" fill-opacity="0.07"/>
<circle cx="25.5875" cy="88.859" r="10.3552" stroke="url(#paint1_radial_2166_2408)" stroke-width="0.690344"/>
<path d="M44.915 92.3591V84.1636H46.0092V92.3591H44.915ZM49.9507 92.3591L47.2486 88.7303H48.5326L51.2794 92.3591H49.9507ZM45.5961 89.4114V88.44H47.7845C48.127 88.44 48.421 88.3693 48.6666 88.2279C48.9123 88.0864 49.1021 87.8929 49.2361 87.6473C49.3701 87.3942 49.437 87.1076 49.437 86.7875C49.437 86.4674 49.3701 86.1846 49.2361 85.9389C49.1021 85.6858 48.9123 85.4886 48.6666 85.3472C48.421 85.1983 48.127 85.1238 47.7845 85.1238H45.5961V84.1636H47.5836C48.1791 84.1636 48.7001 84.2529 49.1467 84.4316C49.5934 84.6102 49.9395 84.8856 50.1851 85.2578C50.4308 85.63 50.5536 86.1101 50.5536 86.6982V86.8768C50.5536 87.4649 50.4271 87.945 50.174 88.3172C49.9283 88.6894 49.5822 88.9648 49.1356 89.1434C48.6964 89.3221 48.1791 89.4114 47.5836 89.4114H45.5961ZM55.0023 92.5601C54.4812 92.5601 54.0309 92.4708 53.6513 92.2921C53.2716 92.1135 52.9627 91.879 52.7245 91.5887C52.4863 91.291 52.3077 90.9597 52.1886 90.595C52.0769 90.2302 52.0211 89.858 52.0211 89.4784V89.2774C52.0211 88.8904 52.0769 88.5145 52.1886 88.1497C52.3077 87.785 52.4863 87.4574 52.7245 87.1671C52.9627 86.8694 53.2642 86.6349 53.6289 86.4637C54.0011 86.2851 54.4366 86.1957 54.9353 86.1957C55.5829 86.1957 56.1151 86.3372 56.532 86.62C56.9563 86.8954 57.2689 87.2527 57.4699 87.6919C57.6783 88.1311 57.7825 88.6001 57.7825 89.0988V89.5789H52.49V88.775H57.0009L56.7553 89.2104C56.7553 88.7862 56.6883 88.4214 56.5543 88.1162C56.4203 87.8036 56.2193 87.5617 55.9514 87.3905C55.6834 87.2192 55.3447 87.1336 54.9353 87.1336C54.511 87.1336 54.1574 87.2304 53.8746 87.424C53.5992 87.6175 53.3907 87.8817 53.2493 88.2167C53.1153 88.5517 53.0483 88.9387 53.0483 89.3779C53.0483 89.8022 53.1153 90.1856 53.2493 90.528C53.3907 90.8629 53.6066 91.1309 53.8969 91.3319C54.1872 91.5254 54.5557 91.6222 55.0023 91.6222C55.4712 91.6222 55.8509 91.518 56.1412 91.3096C56.4389 91.1011 56.6176 90.8592 56.6771 90.5838H57.682C57.6002 90.9932 57.4364 91.3468 57.1907 91.6445C56.9451 91.9423 56.6362 92.1693 56.264 92.3256C55.8918 92.482 55.4712 92.5601 55.0023 92.5601ZM63.8712 94.5922V90.5838L64.2954 89.7352C64.2731 90.3828 64.1428 90.9151 63.9047 91.3319C63.6665 91.7487 63.3575 92.0577 62.9779 92.2586C62.6057 92.4596 62.1963 92.5601 61.7497 92.5601C61.3254 92.5601 60.9346 92.4782 60.5773 92.3145C60.2275 92.1507 59.9223 91.9237 59.6617 91.6334C59.4087 91.3431 59.2114 91.0118 59.07 90.6396C58.9285 90.26 58.8578 89.858 58.8578 89.4338V89.2328C58.8578 88.8085 58.9285 88.414 59.07 88.0492C59.2114 87.6845 59.4124 87.3644 59.6729 87.089C59.9334 86.8061 60.2423 86.5865 60.5996 86.4302C60.9569 86.2739 61.3552 86.1957 61.7944 86.1957C62.3005 86.1957 62.7434 86.3037 63.1231 86.5195C63.5101 86.7354 63.8153 87.048 64.0386 87.4574C64.2619 87.8669 64.3848 88.3656 64.4071 88.9536H64.0945V86.3967H64.943V94.5922H63.8712ZM61.9395 91.5775C62.3043 91.5775 62.6355 91.4957 62.9332 91.3319C63.231 91.1681 63.4692 90.9337 63.6478 90.6285C63.8265 90.3158 63.9158 89.9511 63.9158 89.5342V89.0206C63.9158 88.6112 63.8228 88.2651 63.6367 87.9822C63.458 87.6919 63.2161 87.4723 62.9109 87.3235C62.6132 87.1671 62.2894 87.089 61.9395 87.089C61.5376 87.089 61.184 87.182 60.8788 87.3681C60.581 87.5542 60.3466 87.8185 60.1754 88.1609C60.0116 88.4958 59.9297 88.8866 59.9297 89.3333C59.9297 89.7799 60.0153 90.1744 60.1865 90.5168C60.3577 90.8518 60.5959 91.1123 60.9011 91.2984C61.2063 91.4845 61.5524 91.5775 61.9395 91.5775ZM69.0682 92.5378C68.361 92.5378 67.8177 92.307 67.438 91.8455C67.0584 91.384 66.8686 90.7178 66.8686 89.8469V86.3856H67.9405V90.059C67.9405 90.528 68.067 90.8964 68.3201 91.1644C68.5732 91.4249 68.9156 91.5552 69.3473 91.5552C69.794 91.5552 70.1587 91.4138 70.4416 91.1309C70.7244 90.8406 70.8659 90.4461 70.8659 89.9474V86.3856H71.9378V92.3591H71.0892V89.8022H71.2232C71.2232 90.3903 71.145 90.889 70.9887 91.2984C70.8324 91.7004 70.5979 92.0093 70.2852 92.2251C69.9801 92.4336 69.5893 92.5378 69.1129 92.5378H69.0682ZM76.5483 92.5601C76.0273 92.5601 75.5769 92.4708 75.1973 92.2921C74.8177 92.1135 74.5088 91.879 74.2706 91.5887C74.0324 91.291 73.8537 90.9597 73.7346 90.595C73.623 90.2302 73.5671 89.858 73.5671 89.4784V89.2774C73.5671 88.8904 73.623 88.5145 73.7346 88.1497C73.8537 87.785 74.0324 87.4574 74.2706 87.1671C74.5088 86.8694 74.8102 86.6349 75.175 86.4637C75.5472 86.2851 75.9826 86.1957 76.4813 86.1957C77.129 86.1957 77.6612 86.3372 78.078 86.62C78.5023 86.8954 78.815 87.2527 79.0159 87.6919C79.2244 88.1311 79.3286 88.6001 79.3286 89.0988V89.5789H74.0361V88.775H78.547L78.3013 89.2104C78.3013 88.7862 78.2343 88.4214 78.1004 88.1162C77.9664 87.8036 77.7654 87.5617 77.4974 87.3905C77.2294 87.2192 76.8908 87.1336 76.4813 87.1336C76.0571 87.1336 75.7035 87.2304 75.4206 87.424C75.1452 87.6175 74.9368 87.8817 74.7953 88.2167C74.6614 88.5517 74.5944 88.9387 74.5944 89.3779C74.5944 89.8022 74.6614 90.1856 74.7953 90.528C74.9368 90.8629 75.1526 91.1309 75.443 91.3319C75.7333 91.5254 76.1017 91.6222 76.5483 91.6222C77.0173 91.6222 77.3969 91.518 77.6872 91.3096C77.985 91.1011 78.1636 90.8592 78.2232 90.5838H79.2281C79.1462 90.9932 78.9824 91.3468 78.7368 91.6445C78.4911 91.9423 78.1822 92.1693 77.81 92.3256C77.4379 92.482 77.0173 92.5601 76.5483 92.5601ZM82.8045 92.5378C82.0229 92.5378 81.4162 92.3703 80.9845 92.0353C80.5602 91.7004 80.3406 91.2426 80.3257 90.662H81.3306C81.3455 90.8927 81.4609 91.1123 81.6767 91.3207C81.9 91.5217 82.276 91.6222 82.8045 91.6222C83.2809 91.6222 83.6456 91.5292 83.8987 91.3431C84.1518 91.1495 84.2783 90.9151 84.2783 90.6396C84.2783 90.394 84.1853 90.2042 83.9992 90.0702C83.8131 89.9288 83.5116 89.8357 83.0948 89.7911L82.4472 89.7241C81.8814 89.6645 81.4199 89.497 81.0626 89.2216C80.7053 88.9387 80.5267 88.5442 80.5267 88.0381C80.5267 87.6584 80.6235 87.3346 80.817 87.0667C81.0105 86.7912 81.2785 86.5828 81.6209 86.4414C81.9633 86.2925 82.3578 86.2181 82.8045 86.2181C83.4744 86.2181 84.0178 86.3669 84.4346 86.6647C84.8515 86.9624 85.0673 87.4053 85.0822 87.9934H84.0773C84.0699 87.7552 83.9582 87.5542 83.7424 87.3905C83.5339 87.2192 83.2213 87.1336 82.8045 87.1336C82.3876 87.1336 82.0713 87.2192 81.8554 87.3905C81.6395 87.5617 81.5316 87.7775 81.5316 88.0381C81.5316 88.2614 81.606 88.44 81.7549 88.574C81.9112 88.708 82.1643 88.7936 82.5142 88.8308L83.1618 88.8978C83.8019 88.9648 84.3155 89.1434 84.7026 89.4338C85.0897 89.7166 85.2832 90.1186 85.2832 90.6396C85.2832 91.0118 85.1753 91.3431 84.9594 91.6334C84.751 91.9162 84.4607 92.1395 84.0885 92.3033C83.7163 92.4596 83.2883 92.5378 82.8045 92.5378ZM89.1591 92.4261C88.7125 92.4261 88.3255 92.3629 87.9979 92.2363C87.6778 92.1098 87.4285 91.8939 87.2498 91.5887C87.0786 91.2761 86.993 90.8555 86.993 90.327V84.5879H88.0203V90.461C88.0203 90.7811 88.1059 91.0304 88.2771 91.2091C88.4557 91.3803 88.7051 91.4659 89.0252 91.4659H90.0747V92.4261H89.1591ZM85.9658 87.2006V86.3967H90.0747V87.2006H85.9658ZM96.6325 92.5601C96.0072 92.5601 95.4787 92.4336 95.047 92.1805C94.6152 91.92 94.2877 91.5813 94.0644 91.1644C93.8411 90.7476 93.7294 90.3047 93.7294 89.8357H94.779C94.779 90.1781 94.8534 90.4833 95.0023 90.7513C95.1586 91.0193 95.3745 91.2314 95.6499 91.3877C95.9253 91.544 96.2529 91.6222 96.6325 91.6222C97.0047 91.6222 97.3285 91.5478 97.6039 91.3989C97.8868 91.2426 98.1063 91.0304 98.2627 90.7625C98.419 90.487 98.4971 90.1781 98.4971 89.8357C98.4971 89.4933 98.419 89.1844 98.2627 88.909C98.1138 88.6336 97.8979 88.414 97.6151 88.2502C97.3396 88.0864 97.0121 88.0046 96.6325 88.0046C96.3571 88.0046 96.0779 88.0529 95.7951 88.1497C95.5122 88.239 95.2852 88.3693 95.114 88.5405H94.1314L94.5445 84.2083H98.8209V85.1238H95.1698L95.4378 84.7554L95.1251 87.9152L94.8348 87.8147C95.0507 87.5989 95.3112 87.4277 95.6164 87.3011C95.9291 87.1746 96.2826 87.1113 96.6771 87.1113C97.3024 87.1113 97.8272 87.2416 98.2515 87.5021C98.6758 87.7552 98.9959 88.0864 99.2117 88.4958C99.435 88.8978 99.5467 89.3184 99.5467 89.7576V89.9139C99.5467 90.3531 99.435 90.7773 99.2117 91.1867C98.9884 91.5887 98.6572 91.92 98.218 92.1805C97.7863 92.4336 97.2578 92.5601 96.6325 92.5601ZM104.214 92.5601C103.604 92.5601 103.083 92.4559 102.651 92.2475C102.227 92.0316 101.881 91.7413 101.613 91.3766C101.352 91.0118 101.163 90.5913 101.043 90.1149C100.924 89.631 100.865 89.1211 100.865 88.5852V87.9822C100.865 87.2304 100.98 86.553 101.211 85.9501C101.449 85.3472 101.814 84.8708 102.305 84.5209C102.804 84.1636 103.44 83.985 104.214 83.985C104.989 83.985 105.621 84.1636 106.113 84.5209C106.604 84.8708 106.965 85.3472 107.196 85.9501C107.434 86.553 107.553 87.2304 107.553 87.9822V88.5852C107.553 89.1211 107.493 89.631 107.374 90.1149C107.255 90.5913 107.062 91.0118 106.794 91.3766C106.533 91.7413 106.191 92.0316 105.766 92.2475C105.342 92.4559 104.825 92.5601 104.214 92.5601ZM104.214 91.5775C104.989 91.5775 105.554 91.317 105.912 90.796C106.276 90.2674 106.459 89.4338 106.459 88.2949C106.459 87.1039 106.273 86.2516 105.9 85.738C105.536 85.2243 104.974 84.9675 104.214 84.9675C103.448 84.9675 102.878 85.2243 102.506 85.738C102.141 86.2516 101.959 87.0964 101.959 88.2725C101.959 89.4189 102.141 90.2563 102.506 90.7848C102.871 91.3133 103.44 91.5775 104.214 91.5775ZM114.528 92.3591C113.888 92.3591 113.345 92.2549 112.898 92.0465C112.451 91.8306 112.109 91.5292 111.871 91.1421C111.64 90.7476 111.525 90.2861 111.525 89.7576H112.529C112.529 90.0106 112.589 90.2674 112.708 90.528C112.835 90.7885 113.043 91.0081 113.333 91.1867C113.624 91.358 114.022 91.4436 114.528 91.4436C115.198 91.4436 115.693 91.3021 116.013 91.0193C116.341 90.7364 116.504 90.4126 116.504 90.0479C116.504 89.6906 116.359 89.3928 116.069 89.1546C115.779 88.9164 115.358 88.7713 114.807 88.7192L114.07 88.6522C113.356 88.5852 112.786 88.3693 112.362 88.0046C111.938 87.6398 111.726 87.1188 111.726 86.4414C111.726 85.9724 111.837 85.5742 112.061 85.2467C112.291 84.9117 112.611 84.6549 113.021 84.4762C113.438 84.2976 113.925 84.2083 114.483 84.2083C115.042 84.2083 115.522 84.3088 115.924 84.5097C116.333 84.7033 116.65 84.9899 116.873 85.3695C117.096 85.7417 117.208 86.192 117.208 86.7205H116.203C116.203 86.4525 116.143 86.1995 116.024 85.9613C115.905 85.7156 115.719 85.5146 115.466 85.3583C115.22 85.202 114.893 85.1238 114.483 85.1238C114.119 85.1238 113.806 85.1834 113.546 85.3025C113.292 85.4142 113.095 85.5705 112.954 85.7714C112.82 85.9724 112.753 86.1957 112.753 86.4414C112.753 86.7615 112.868 87.0406 113.099 87.2788C113.33 87.5096 113.683 87.6473 114.16 87.6919L114.897 87.7589C115.693 87.8334 116.329 88.0678 116.806 88.4623C117.29 88.8494 117.532 89.3779 117.532 90.0479C117.532 90.5094 117.409 90.9151 117.163 91.2649C116.918 91.6073 116.571 91.8753 116.125 92.0688C115.678 92.2624 115.146 92.3591 114.528 92.3591ZM114.048 93.7995V92.1693H115.008V93.7995H114.048ZM114.003 84.7554V83.1252H114.964V84.7554H114.003ZM119.367 92.3591V84.2083H120.461V92.3591H119.367ZM120.238 92.3591V91.3766H124.19V92.3591H120.238ZM120.238 88.708V87.7254H123.844V88.708H120.238ZM120.238 85.1908V84.2083H124.078V85.1908H120.238ZM129.288 92.5601C128.552 92.5601 127.93 92.4187 127.424 92.1358C126.925 91.8455 126.545 91.4436 126.285 90.9299C126.032 90.4089 125.905 89.8059 125.905 89.1211V84.2083H127V89.2551C127 89.7092 127.085 90.1111 127.256 90.461C127.435 90.8034 127.695 91.0714 128.038 91.2649C128.38 91.4584 128.797 91.5552 129.288 91.5552C129.78 91.5552 130.193 91.4622 130.528 91.2761C130.87 91.0825 131.127 90.8146 131.298 90.4722C131.477 90.1223 131.566 89.7166 131.566 89.2551V84.2083H132.66V89.1211C132.66 89.8059 132.534 90.4089 132.281 90.9299C132.028 91.4436 131.652 91.8455 131.153 92.1358C130.654 92.4187 130.033 92.5601 129.288 92.5601ZM134.872 92.3591V84.1636H135.966V92.3591H134.872ZM139.908 92.3591L137.206 88.7303H138.49L141.236 92.3591H139.908ZM135.553 89.4114V88.44H137.741C138.084 88.44 138.378 88.3693 138.624 88.2279C138.869 88.0864 139.059 87.8929 139.193 87.6473C139.327 87.3942 139.394 87.1076 139.394 86.7875C139.394 86.4674 139.327 86.1846 139.193 85.9389C139.059 85.6858 138.869 85.4886 138.624 85.3472C138.378 85.1983 138.084 85.1238 137.741 85.1238H135.553V84.1636H137.54C138.136 84.1636 138.657 84.2529 139.104 84.4316C139.55 84.6102 139.896 84.8856 140.142 85.2578C140.388 85.63 140.511 86.1101 140.511 86.6982V86.8768C140.511 87.4649 140.384 87.945 140.131 88.3172C139.885 88.6894 139.539 88.9648 139.093 89.1434C138.653 89.3221 138.136 89.4114 137.54 89.4114H135.553ZM142.69 92.3591V84.2083H143.784V92.3591H142.69ZM143.561 92.3591V91.3766H147.514V92.3591H143.561ZM143.561 88.708V87.7254H147.167V88.708H143.561ZM143.561 85.1908V84.2083H147.402V85.1908H143.561ZM154.516 92.5601C153.995 92.5601 153.537 92.4708 153.143 92.2921C152.748 92.1135 152.413 91.879 152.138 91.5887C151.87 91.291 151.665 90.9597 151.524 90.595C151.39 90.2302 151.323 89.858 151.323 89.4784V89.2774C151.323 88.8978 151.393 88.5256 151.535 88.1609C151.676 87.7887 151.885 87.4574 152.16 87.1671C152.435 86.8694 152.77 86.6349 153.165 86.4637C153.559 86.2851 154.01 86.1957 154.516 86.1957C155.022 86.1957 155.472 86.2851 155.867 86.4637C156.262 86.6349 156.596 86.8694 156.872 87.1671C157.147 87.4574 157.356 87.7887 157.497 88.1609C157.639 88.5256 157.709 88.8978 157.709 89.2774V89.4784C157.709 89.858 157.639 90.2302 157.497 90.595C157.363 90.9597 157.158 91.291 156.883 91.5887C156.615 91.879 156.284 92.1135 155.889 92.2921C155.495 92.4708 155.037 92.5601 154.516 92.5601ZM154.516 91.5999C154.963 91.5999 155.342 91.5031 155.655 91.3096C155.975 91.1086 156.217 90.8406 156.381 90.5056C156.552 90.1707 156.637 89.7948 156.637 89.3779C156.637 88.9536 156.552 88.574 156.381 88.239C156.209 87.9041 155.964 87.6398 155.644 87.4463C155.331 87.2527 154.955 87.156 154.516 87.156C154.084 87.156 153.708 87.2527 153.388 87.4463C153.068 87.6398 152.823 87.9041 152.651 88.239C152.48 88.574 152.395 88.9536 152.395 89.3779C152.395 89.7948 152.476 90.1707 152.64 90.5056C152.811 90.8406 153.053 91.1086 153.366 91.3096C153.686 91.5031 154.069 91.5999 154.516 91.5999ZM159.315 92.3591V86.3967H160.163V88.9536H160.029C160.029 88.3656 160.107 87.8706 160.264 87.4686C160.428 87.0592 160.673 86.7503 161.001 86.5419C161.328 86.326 161.741 86.2181 162.24 86.2181H162.285C163.037 86.2181 163.591 86.4525 163.948 86.9215C164.313 87.3905 164.496 88.0678 164.496 88.9536V92.3591H163.424V88.7303C163.424 88.2688 163.293 87.9003 163.033 87.6249C162.772 87.3421 162.415 87.2006 161.961 87.2006C161.492 87.2006 161.112 87.3458 160.822 87.6361C160.532 87.9264 160.387 88.3135 160.387 88.7973V92.3591H159.315ZM171.253 94.6816C170.977 94.6816 170.698 94.6704 170.415 94.6481C170.14 94.6257 169.876 94.596 169.623 94.5587V93.6543C169.891 93.6916 170.17 93.7213 170.46 93.7437C170.758 93.7734 171.037 93.7883 171.297 93.7883C171.841 93.7883 172.273 93.7139 172.593 93.565C172.92 93.4236 173.155 93.1965 173.296 92.8839C173.445 92.5787 173.519 92.1842 173.519 91.7004V90.5615L173.877 89.7129C173.854 90.3158 173.728 90.8183 173.497 91.2202C173.266 91.6148 172.965 91.9125 172.593 92.1135C172.228 92.307 171.822 92.4038 171.376 92.4038C170.959 92.4038 170.575 92.3256 170.226 92.1693C169.883 92.0056 169.585 91.7822 169.332 91.4994C169.087 91.2165 168.893 90.8927 168.752 90.528C168.618 90.1558 168.551 89.765 168.551 89.3556V89.1546C168.551 88.7378 168.621 88.3507 168.763 87.9934C168.904 87.6287 169.102 87.3123 169.355 87.0443C169.608 86.7763 169.909 86.5679 170.259 86.4191C170.616 86.2702 171.007 86.1957 171.431 86.1957C171.93 86.1957 172.369 86.3037 172.749 86.5195C173.129 86.728 173.426 87.0369 173.642 87.4463C173.866 87.8482 173.988 88.3433 174.011 88.9313L173.698 88.9425V86.3967H174.547V91.6557C174.547 92.3703 174.435 92.9472 174.212 93.3864C173.996 93.833 173.646 94.1605 173.162 94.3689C172.686 94.5774 172.049 94.6816 171.253 94.6816ZM171.577 91.4212C171.934 91.4212 172.258 91.3431 172.548 91.1867C172.846 91.0304 173.08 90.8071 173.251 90.5168C173.43 90.2191 173.519 89.8655 173.519 89.4561V88.9425C173.519 88.5405 173.426 88.2018 173.24 87.9264C173.062 87.651 172.827 87.4426 172.537 87.3011C172.247 87.1597 171.93 87.089 171.588 87.089C171.201 87.089 170.858 87.1783 170.561 87.357C170.263 87.5356 170.032 87.7887 169.868 88.1162C169.705 88.4363 169.623 88.8159 169.623 89.2551C169.623 89.6943 169.705 90.0776 169.868 90.4052C170.039 90.7327 170.27 90.9858 170.561 91.1644C170.858 91.3356 171.197 91.4212 171.577 91.4212ZM176.532 92.3591V86.3967H177.381V88.9536H177.247C177.247 88.3656 177.325 87.8706 177.481 87.4686C177.645 87.0592 177.89 86.7503 178.218 86.5419C178.545 86.326 178.959 86.2181 179.457 86.2181H179.502C180.254 86.2181 180.808 86.4525 181.166 86.9215C181.53 87.3905 181.713 88.0678 181.713 88.9536V92.3591H180.641V88.7303C180.641 88.2688 180.511 87.9003 180.25 87.6249C179.99 87.3421 179.632 87.2006 179.178 87.2006C178.709 87.2006 178.33 87.3458 178.039 87.6361C177.749 87.9264 177.604 88.3135 177.604 88.7973V92.3591H176.532ZM186.421 92.5601C185.9 92.5601 185.442 92.4708 185.047 92.2921C184.653 92.1135 184.318 91.879 184.042 91.5887C183.774 91.291 183.57 90.9597 183.428 90.595C183.294 90.2302 183.227 89.858 183.227 89.4784V89.2774C183.227 88.8978 183.298 88.5256 183.439 88.1609C183.581 87.7887 183.789 87.4574 184.065 87.1671C184.34 86.8694 184.675 86.6349 185.07 86.4637C185.464 86.2851 185.915 86.1957 186.421 86.1957C186.927 86.1957 187.377 86.2851 187.772 86.4637C188.166 86.6349 188.501 86.8694 188.777 87.1671C189.052 87.4574 189.26 87.7887 189.402 88.1609C189.543 88.5256 189.614 88.8978 189.614 89.2774V89.4784C189.614 89.858 189.543 90.2302 189.402 90.595C189.268 90.9597 189.063 91.291 188.788 91.5887C188.52 91.879 188.189 92.1135 187.794 92.2921C187.4 92.4708 186.942 92.5601 186.421 92.5601ZM186.421 91.5999C186.867 91.5999 187.247 91.5031 187.56 91.3096C187.88 91.1086 188.122 90.8406 188.285 90.5056C188.457 90.1707 188.542 89.7948 188.542 89.3779C188.542 88.9536 188.457 88.574 188.285 88.239C188.114 87.9041 187.869 87.6398 187.548 87.4463C187.236 87.2527 186.86 87.156 186.421 87.156C185.989 87.156 185.613 87.2527 185.293 87.4463C184.973 87.6398 184.727 87.9041 184.556 88.239C184.385 88.574 184.299 88.9536 184.299 89.3779C184.299 89.7948 184.381 90.1707 184.545 90.5056C184.716 90.8406 184.958 91.1086 185.271 91.3096C185.591 91.5031 185.974 91.5999 186.421 91.5999ZM193.173 92.5378C192.392 92.5378 191.785 92.3703 191.353 92.0353C190.929 91.7004 190.71 91.2426 190.695 90.662H191.7C191.714 90.8927 191.83 91.1123 192.046 91.3207C192.269 91.5217 192.645 91.6222 193.173 91.6222C193.65 91.6222 194.015 91.5292 194.268 91.3431C194.521 91.1495 194.647 90.9151 194.647 90.6396C194.647 90.394 194.554 90.2042 194.368 90.0702C194.182 89.9288 193.881 89.8357 193.464 89.7911L192.816 89.7241C192.25 89.6645 191.789 89.497 191.432 89.2216C191.074 88.9387 190.896 88.5442 190.896 88.0381C190.896 87.6584 190.992 87.3346 191.186 87.0667C191.38 86.7912 191.647 86.5828 191.99 86.4414C192.332 86.2925 192.727 86.2181 193.173 86.2181C193.843 86.2181 194.387 86.3669 194.804 86.6647C195.22 86.9624 195.436 87.4053 195.451 87.9934H194.446C194.439 87.7552 194.327 87.5542 194.111 87.3905C193.903 87.2192 193.59 87.1336 193.173 87.1336C192.757 87.1336 192.44 87.2192 192.224 87.3905C192.008 87.5617 191.901 87.7775 191.901 88.0381C191.901 88.2614 191.975 88.44 192.124 88.574C192.28 88.708 192.533 88.7936 192.883 88.8308L193.531 88.8978C194.171 88.9648 194.685 89.1434 195.072 89.4338C195.459 89.7166 195.652 90.1186 195.652 90.6396C195.652 91.0118 195.544 91.3431 195.328 91.6334C195.12 91.9162 194.83 92.1395 194.457 92.3033C194.085 92.4596 193.657 92.5378 193.173 92.5378ZM197.496 92.3591V86.3967H198.568V92.3591H197.496ZM196.58 87.2453V86.3967H198.568V87.2453H196.58ZM197.797 85.4365C197.559 85.4365 197.381 85.3732 197.262 85.2467C197.15 85.1201 197.094 84.9601 197.094 84.7665C197.094 84.573 197.15 84.413 197.262 84.2864C197.381 84.1599 197.559 84.0966 197.797 84.0966C198.036 84.0966 198.211 84.1599 198.322 84.2864C198.441 84.413 198.501 84.573 198.501 84.7665C198.501 84.9601 198.441 85.1201 198.322 85.2467C198.211 85.3732 198.036 85.4365 197.797 85.4365ZM202.594 92.5378C201.813 92.5378 201.206 92.3703 200.774 92.0353C200.35 91.7004 200.13 91.2426 200.116 90.662H201.121C201.135 90.8927 201.251 91.1123 201.467 91.3207C201.69 91.5217 202.066 91.6222 202.594 91.6222C203.071 91.6222 203.436 91.5292 203.689 91.3431C203.942 91.1495 204.068 90.9151 204.068 90.6396C204.068 90.394 203.975 90.2042 203.789 90.0702C203.603 89.9288 203.302 89.8357 202.885 89.7911L202.237 89.7241C201.671 89.6645 201.21 89.497 200.853 89.2216C200.495 88.9387 200.317 88.5442 200.317 88.0381C200.317 87.6584 200.413 87.3346 200.607 87.0667C200.8 86.7912 201.068 86.5828 201.411 86.4414C201.753 86.2925 202.148 86.2181 202.594 86.2181C203.264 86.2181 203.808 86.3669 204.225 86.6647C204.641 86.9624 204.857 87.4053 204.872 87.9934H203.867C203.86 87.7552 203.748 87.5542 203.532 87.3905C203.324 87.2192 203.011 87.1336 202.594 87.1336C202.178 87.1336 201.861 87.2192 201.645 87.3905C201.429 87.5617 201.321 87.7775 201.321 88.0381C201.321 88.2614 201.396 88.44 201.545 88.574C201.701 88.708 201.954 88.7936 202.304 88.8308L202.952 88.8978C203.592 88.9648 204.105 89.1434 204.493 89.4338C204.88 89.7166 205.073 90.1186 205.073 90.6396C205.073 91.0118 204.965 91.3431 204.749 91.6334C204.541 91.9162 204.251 92.1395 203.878 92.3033C203.506 92.4596 203.078 92.5378 202.594 92.5378ZM206.336 89.7129V88.7973H210.49V89.7129H206.336ZM212.253 92.3591V86.3967H213.102V88.9536H212.968C212.968 88.373 213.042 87.8817 213.191 87.4798C213.347 87.0704 213.578 86.7577 213.883 86.5419C214.188 86.326 214.575 86.2181 215.044 86.2181H215.089C215.558 86.2181 215.945 86.326 216.25 86.5419C216.563 86.7577 216.794 87.0704 216.943 87.4798C217.091 87.8817 217.166 88.373 217.166 88.9536H216.853C216.853 88.373 216.931 87.8817 217.088 87.4798C217.244 87.0704 217.475 86.7577 217.78 86.5419C218.093 86.326 218.483 86.2181 218.952 86.2181H218.997C219.466 86.2181 219.857 86.326 220.169 86.5419C220.482 86.7577 220.713 87.0704 220.862 87.4798C221.018 87.8817 221.096 88.373 221.096 88.9536V92.3591H220.024V88.7192C220.024 88.2353 219.905 87.8631 219.667 87.6026C219.429 87.3346 219.098 87.2006 218.673 87.2006C218.234 87.2006 217.88 87.3421 217.612 87.6249C217.345 87.9003 217.211 88.2874 217.211 88.7862V92.3591H216.139V88.7192C216.139 88.2353 216.02 87.8631 215.781 87.6026C215.543 87.3346 215.212 87.2006 214.788 87.2006C214.348 87.2006 213.995 87.3421 213.727 87.6249C213.459 87.9003 213.325 88.2874 213.325 88.7862V92.3591H212.253ZM226.665 92.3591V90.5726H226.487V88.507C226.487 88.0976 226.379 87.7887 226.163 87.5803C225.954 87.3718 225.645 87.2676 225.236 87.2676C225.005 87.2676 224.767 87.2714 224.521 87.2788C224.276 87.2862 224.041 87.2937 223.818 87.3011C223.595 87.3086 223.401 87.3197 223.237 87.3346V86.3967C223.401 86.3818 223.572 86.3707 223.751 86.3632C223.937 86.3483 224.127 86.3409 224.32 86.3409C224.514 86.3334 224.7 86.3297 224.879 86.3297C225.489 86.3297 225.988 86.4042 226.375 86.553C226.762 86.6945 227.049 86.9289 227.235 87.2565C227.421 87.584 227.514 88.0269 227.514 88.5852V92.3591H226.665ZM224.711 92.5154C224.265 92.5154 223.878 92.441 223.55 92.2921C223.23 92.1358 222.981 91.9125 222.802 91.6222C222.631 91.3319 222.545 90.982 222.545 90.5726C222.545 90.1483 222.638 89.7948 222.824 89.5119C223.018 89.2291 223.297 89.0169 223.662 88.8755C224.026 88.7266 224.466 88.6522 224.979 88.6522H226.598V89.4561H224.935C224.503 89.4561 224.172 89.5603 223.941 89.7687C223.71 89.9771 223.595 90.2451 223.595 90.5726C223.595 90.9002 223.71 91.1644 223.941 91.3654C224.172 91.5664 224.503 91.6669 224.935 91.6669C225.188 91.6669 225.43 91.6222 225.66 91.5329C225.891 91.4361 226.081 91.2798 226.23 91.0639C226.386 90.8406 226.472 90.5354 226.487 90.1483L226.777 90.5726C226.74 90.9969 226.635 91.3542 226.464 91.6445C226.3 91.9274 226.07 92.1433 225.772 92.2921C225.482 92.441 225.128 92.5154 224.711 92.5154ZM229.771 92.3591V86.3967H230.843V92.3591H229.771ZM228.856 87.2453V86.3967H230.843V87.2453H228.856ZM230.073 85.4365C229.835 85.4365 229.656 85.3732 229.537 85.2467C229.425 85.1201 229.369 84.9601 229.369 84.7665C229.369 84.573 229.425 84.413 229.537 84.2864C229.656 84.1599 229.835 84.0966 230.073 84.0966C230.311 84.0966 230.486 84.1599 230.598 84.2864C230.717 84.413 230.776 84.573 230.776 84.7665C230.776 84.9601 230.717 85.1201 230.598 85.2467C230.486 85.3732 230.311 85.4365 230.073 85.4365ZM232.916 92.3591V86.3967H233.764V88.9536H233.63C233.63 88.3656 233.709 87.8706 233.865 87.4686C234.029 87.0592 234.274 86.7503 234.602 86.5419C234.929 86.326 235.343 86.2181 235.841 86.2181H235.886C236.638 86.2181 237.192 86.4525 237.55 86.9215C237.914 87.3905 238.097 88.0678 238.097 88.9536V92.3591H237.025V88.7303C237.025 88.2688 236.895 87.9003 236.634 87.6249C236.373 87.3421 236.016 87.2006 235.562 87.2006C235.093 87.2006 234.714 87.3458 234.423 87.6361C234.133 87.9264 233.988 88.3135 233.988 88.7973V92.3591H232.916ZM240.058 92.3591V86.3967H240.906V88.9536H240.772C240.772 88.3656 240.851 87.8706 241.007 87.4686C241.171 87.0592 241.416 86.7503 241.744 86.5419C242.071 86.326 242.485 86.2181 242.983 86.2181H243.028C243.78 86.2181 244.334 86.4525 244.692 86.9215C245.056 87.3905 245.239 88.0678 245.239 88.9536V92.3591H244.167V88.7303C244.167 88.2688 244.037 87.9003 243.776 87.6249C243.515 87.3421 243.158 87.2006 242.704 87.2006C242.235 87.2006 241.856 87.3458 241.565 87.6361C241.275 87.9264 241.13 88.3135 241.13 88.7973V92.3591H240.058ZM249.734 92.5601C249.213 92.5601 248.763 92.4708 248.383 92.2921C248.004 92.1135 247.695 91.879 247.457 91.5887C247.219 91.291 247.04 90.9597 246.921 90.595C246.809 90.2302 246.753 89.858 246.753 89.4784V89.2774C246.753 88.8904 246.809 88.5145 246.921 88.1497C247.04 87.785 247.219 87.4574 247.457 87.1671C247.695 86.8694 247.996 86.6349 248.361 86.4637C248.733 86.2851 249.169 86.1957 249.668 86.1957C250.315 86.1957 250.847 86.3372 251.264 86.62C251.688 86.8954 252.001 87.2527 252.202 87.6919C252.411 88.1311 252.515 88.6001 252.515 89.0988V89.5789H247.222V88.775H251.733L251.487 89.2104C251.487 88.7862 251.42 88.4214 251.287 88.1162C251.153 87.8036 250.952 87.5617 250.684 87.3905C250.416 87.2192 250.077 87.1336 249.668 87.1336C249.243 87.1336 248.89 87.2304 248.607 87.424C248.331 87.6175 248.123 87.8817 247.982 88.2167C247.848 88.5517 247.781 88.9387 247.781 89.3779C247.781 89.8022 247.848 90.1856 247.982 90.528C248.123 90.8629 248.339 91.1309 248.629 91.3319C248.919 91.5254 249.288 91.6222 249.734 91.6222C250.203 91.6222 250.583 91.518 250.873 91.3096C251.171 91.1011 251.35 90.8592 251.409 90.5838H252.414C252.332 90.9932 252.169 91.3468 251.923 91.6445C251.677 91.9423 251.368 92.1693 250.996 92.3256C250.624 92.482 250.203 92.5601 249.734 92.5601ZM256.359 92.4261C255.912 92.4261 255.525 92.3629 255.198 92.2363C254.878 92.1098 254.628 91.8939 254.45 91.5887C254.279 91.2761 254.193 90.8555 254.193 90.327V84.5879H255.22V90.461C255.22 90.7811 255.306 91.0304 255.477 91.2091C255.656 91.3803 255.905 91.4659 256.225 91.4659H257.275V92.4261H256.359ZM253.166 87.2006V86.3967H257.275V87.2006H253.166Z" fill="#ADA8C4"/>
<rect y="128.404" width="281" height="49.3146" rx="10.2351" fill="white" fill-opacity="0.07"/>
<circle cx="25.5875" cy="153.061" r="10.3552" stroke="url(#paint2_radial_2166_2408)" stroke-width="0.690344"/>
<path d="M44.915 156.561V148.366H46.0092V156.561H44.915ZM49.9507 156.561L47.2486 152.932H48.5326L51.2794 156.561H49.9507ZM45.5961 153.614V152.642H47.7845C48.127 152.642 48.421 152.571 48.6666 152.43C48.9123 152.289 49.1021 152.095 49.2361 151.849C49.3701 151.596 49.437 151.31 49.437 150.99C49.437 150.67 49.3701 150.387 49.2361 150.141C49.1021 149.888 48.9123 149.691 48.6666 149.549C48.421 149.4 48.127 149.326 47.7845 149.326H45.5961V148.366H47.5836C48.1791 148.366 48.7001 148.455 49.1467 148.634C49.5934 148.812 49.9395 149.088 50.1851 149.46C50.4308 149.832 50.5536 150.312 50.5536 150.9V151.079C50.5536 151.667 50.4271 152.147 50.174 152.519C49.9283 152.892 49.5822 153.167 49.1356 153.346C48.6964 153.524 48.1791 153.614 47.5836 153.614H45.5961ZM55.0023 156.762C54.4812 156.762 54.0309 156.673 53.6513 156.494C53.2716 156.316 52.9627 156.081 52.7245 155.791C52.4863 155.493 52.3077 155.162 52.1886 154.797C52.0769 154.432 52.0211 154.06 52.0211 153.681V153.48C52.0211 153.093 52.0769 152.717 52.1886 152.352C52.3077 151.987 52.4863 151.66 52.7245 151.369C52.9627 151.072 53.2642 150.837 53.6289 150.666C54.0011 150.487 54.4366 150.398 54.9353 150.398C55.5829 150.398 56.1151 150.539 56.532 150.822C56.9563 151.098 57.2689 151.455 57.4699 151.894C57.6783 152.333 57.7825 152.802 57.7825 153.301V153.781H52.49V152.977H57.0009L56.7553 153.413C56.7553 152.988 56.6883 152.624 56.5543 152.318C56.4203 152.006 56.2193 151.764 55.9514 151.593C55.6834 151.421 55.3447 151.336 54.9353 151.336C54.511 151.336 54.1574 151.433 53.8746 151.626C53.5992 151.82 53.3907 152.084 53.2493 152.419C53.1153 152.754 53.0483 153.141 53.0483 153.58C53.0483 154.004 53.1153 154.388 53.2493 154.73C53.3907 155.065 53.6066 155.333 53.8969 155.534C54.1872 155.728 54.5557 155.824 55.0023 155.824C55.4712 155.824 55.8509 155.72 56.1412 155.512C56.4389 155.303 56.6176 155.061 56.6771 154.786H57.682C57.6002 155.195 57.4364 155.549 57.1907 155.847C56.9451 156.144 56.6362 156.371 56.264 156.528C55.8918 156.684 55.4712 156.762 55.0023 156.762ZM63.8712 158.794V154.786L64.2954 153.937C64.2731 154.585 64.1428 155.117 63.9047 155.534C63.6665 155.951 63.3575 156.26 62.9779 156.461C62.6057 156.662 62.1963 156.762 61.7497 156.762C61.3254 156.762 60.9346 156.68 60.5773 156.517C60.2275 156.353 59.9223 156.126 59.6617 155.836C59.4087 155.545 59.2114 155.214 59.07 154.842C58.9285 154.462 58.8578 154.06 58.8578 153.636V153.435C58.8578 153.011 58.9285 152.616 59.07 152.251C59.2114 151.887 59.4124 151.567 59.6729 151.291C59.9334 151.008 60.2423 150.789 60.5996 150.632C60.9569 150.476 61.3552 150.398 61.7944 150.398C62.3005 150.398 62.7434 150.506 63.1231 150.722C63.5101 150.938 63.8153 151.25 64.0386 151.66C64.2619 152.069 64.3848 152.568 64.4071 153.156H64.0945V150.599H64.943V158.794H63.8712ZM61.9395 155.78C62.3043 155.78 62.6355 155.698 62.9332 155.534C63.231 155.37 63.4692 155.136 63.6478 154.831C63.8265 154.518 63.9158 154.153 63.9158 153.736V153.223C63.9158 152.813 63.8228 152.467 63.6367 152.184C63.458 151.894 63.2161 151.674 62.9109 151.526C62.6132 151.369 62.2894 151.291 61.9395 151.291C61.5376 151.291 61.184 151.384 60.8788 151.57C60.581 151.756 60.3466 152.021 60.1754 152.363C60.0116 152.698 59.9297 153.089 59.9297 153.535C59.9297 153.982 60.0153 154.377 60.1865 154.719C60.3577 155.054 60.5959 155.314 60.9011 155.501C61.2063 155.687 61.5524 155.78 61.9395 155.78ZM69.0682 156.74C68.361 156.74 67.8177 156.509 67.438 156.048C67.0584 155.586 66.8686 154.92 66.8686 154.049V150.588H67.9405V154.261C67.9405 154.73 68.067 155.099 68.3201 155.367C68.5732 155.627 68.9156 155.757 69.3473 155.757C69.794 155.757 70.1587 155.616 70.4416 155.333C70.7244 155.043 70.8659 154.648 70.8659 154.15V150.588H71.9378V156.561H71.0892V154.004H71.2232C71.2232 154.592 71.145 155.091 70.9887 155.501C70.8324 155.903 70.5979 156.211 70.2852 156.427C69.9801 156.636 69.5893 156.74 69.1129 156.74H69.0682ZM76.5483 156.762C76.0273 156.762 75.5769 156.673 75.1973 156.494C74.8177 156.316 74.5088 156.081 74.2706 155.791C74.0324 155.493 73.8537 155.162 73.7346 154.797C73.623 154.432 73.5671 154.06 73.5671 153.681V153.48C73.5671 153.093 73.623 152.717 73.7346 152.352C73.8537 151.987 74.0324 151.66 74.2706 151.369C74.5088 151.072 74.8102 150.837 75.175 150.666C75.5472 150.487 75.9826 150.398 76.4813 150.398C77.129 150.398 77.6612 150.539 78.078 150.822C78.5023 151.098 78.815 151.455 79.0159 151.894C79.2244 152.333 79.3286 152.802 79.3286 153.301V153.781H74.0361V152.977H78.547L78.3013 153.413C78.3013 152.988 78.2343 152.624 78.1004 152.318C77.9664 152.006 77.7654 151.764 77.4974 151.593C77.2294 151.421 76.8908 151.336 76.4813 151.336C76.0571 151.336 75.7035 151.433 75.4206 151.626C75.1452 151.82 74.9368 152.084 74.7953 152.419C74.6614 152.754 74.5944 153.141 74.5944 153.58C74.5944 154.004 74.6614 154.388 74.7953 154.73C74.9368 155.065 75.1526 155.333 75.443 155.534C75.7333 155.728 76.1017 155.824 76.5483 155.824C77.0173 155.824 77.3969 155.72 77.6872 155.512C77.985 155.303 78.1636 155.061 78.2232 154.786H79.2281C79.1462 155.195 78.9824 155.549 78.7368 155.847C78.4911 156.144 78.1822 156.371 77.81 156.528C77.4379 156.684 77.0173 156.762 76.5483 156.762ZM82.8045 156.74C82.0229 156.74 81.4162 156.572 80.9845 156.237C80.5602 155.903 80.3406 155.445 80.3257 154.864H81.3306C81.3455 155.095 81.4609 155.314 81.6767 155.523C81.9 155.724 82.276 155.824 82.8045 155.824C83.2809 155.824 83.6456 155.731 83.8987 155.545C84.1518 155.352 84.2783 155.117 84.2783 154.842C84.2783 154.596 84.1853 154.406 83.9992 154.272C83.8131 154.131 83.5116 154.038 83.0948 153.993L82.4472 153.926C81.8814 153.867 81.4199 153.699 81.0626 153.424C80.7053 153.141 80.5267 152.746 80.5267 152.24C80.5267 151.861 80.6235 151.537 80.817 151.269C81.0105 150.993 81.2785 150.785 81.6209 150.644C81.9633 150.495 82.3578 150.42 82.8045 150.42C83.4744 150.42 84.0178 150.569 84.4346 150.867C84.8515 151.165 85.0673 151.607 85.0822 152.196H84.0773C84.0699 151.957 83.9582 151.756 83.7424 151.593C83.5339 151.421 83.2213 151.336 82.8045 151.336C82.3876 151.336 82.0713 151.421 81.8554 151.593C81.6395 151.764 81.5316 151.98 81.5316 152.24C81.5316 152.464 81.606 152.642 81.7549 152.776C81.9112 152.91 82.1643 152.996 82.5142 153.033L83.1618 153.1C83.8019 153.167 84.3155 153.346 84.7026 153.636C85.0897 153.919 85.2832 154.321 85.2832 154.842C85.2832 155.214 85.1753 155.545 84.9594 155.836C84.751 156.118 84.4607 156.342 84.0885 156.505C83.7163 156.662 83.2883 156.74 82.8045 156.74ZM89.1591 156.628C88.7125 156.628 88.3255 156.565 87.9979 156.438C87.6778 156.312 87.4285 156.096 87.2498 155.791C87.0786 155.478 86.993 155.058 86.993 154.529V148.79H88.0203V154.663C88.0203 154.983 88.1059 155.233 88.2771 155.411C88.4557 155.582 88.7051 155.668 89.0252 155.668H90.0747V156.628H89.1591ZM85.9658 151.403V150.599H90.0747V151.403H85.9658ZM96.6325 156.762C96.0072 156.762 95.4787 156.636 95.047 156.383C94.6152 156.122 94.2877 155.783 94.0644 155.367C93.8411 154.95 93.7294 154.507 93.7294 154.038H94.779C94.779 154.38 94.8534 154.685 95.0023 154.953C95.1586 155.221 95.3745 155.434 95.6499 155.59C95.9253 155.746 96.2529 155.824 96.6325 155.824C97.0047 155.824 97.3285 155.75 97.6039 155.601C97.8868 155.445 98.1063 155.233 98.2627 154.965C98.419 154.689 98.4971 154.38 98.4971 154.038C98.4971 153.695 98.419 153.387 98.2627 153.111C98.1138 152.836 97.8979 152.616 97.6151 152.452C97.3396 152.289 97.0121 152.207 96.6325 152.207C96.3571 152.207 96.0779 152.255 95.7951 152.352C95.5122 152.441 95.2852 152.571 95.114 152.743H94.1314L94.5445 148.41H98.8209V149.326H95.1698L95.4378 148.958L95.1251 152.117L94.8348 152.017C95.0507 151.801 95.3112 151.63 95.6164 151.503C95.9291 151.377 96.2826 151.313 96.6771 151.313C97.3024 151.313 97.8272 151.444 98.2515 151.704C98.6758 151.957 98.9959 152.289 99.2117 152.698C99.435 153.1 99.5467 153.521 99.5467 153.96V154.116C99.5467 154.555 99.435 154.979 99.2117 155.389C98.9884 155.791 98.6572 156.122 98.218 156.383C97.7863 156.636 97.2578 156.762 96.6325 156.762ZM104.214 156.762C103.604 156.762 103.083 156.658 102.651 156.45C102.227 156.234 101.881 155.943 101.613 155.579C101.352 155.214 101.163 154.793 101.043 154.317C100.924 153.833 100.865 153.323 100.865 152.787V152.184C100.865 151.433 100.98 150.755 101.211 150.152C101.449 149.549 101.814 149.073 102.305 148.723C102.804 148.366 103.44 148.187 104.214 148.187C104.989 148.187 105.621 148.366 106.113 148.723C106.604 149.073 106.965 149.549 107.196 150.152C107.434 150.755 107.553 151.433 107.553 152.184V152.787C107.553 153.323 107.493 153.833 107.374 154.317C107.255 154.793 107.062 155.214 106.794 155.579C106.533 155.943 106.191 156.234 105.766 156.45C105.342 156.658 104.825 156.762 104.214 156.762ZM104.214 155.78C104.989 155.78 105.554 155.519 105.912 154.998C106.276 154.47 106.459 153.636 106.459 152.497C106.459 151.306 106.273 150.454 105.9 149.94C105.536 149.426 104.974 149.17 104.214 149.17C103.448 149.17 102.878 149.426 102.506 149.94C102.141 150.454 101.959 151.299 101.959 152.475C101.959 153.621 102.141 154.458 102.506 154.987C102.871 155.515 103.44 155.78 104.214 155.78ZM114.528 156.561C113.888 156.561 113.345 156.457 112.898 156.249C112.451 156.033 112.109 155.731 111.871 155.344C111.64 154.95 111.525 154.488 111.525 153.96H112.529C112.529 154.213 112.589 154.47 112.708 154.73C112.835 154.991 113.043 155.21 113.333 155.389C113.624 155.56 114.022 155.646 114.528 155.646C115.198 155.646 115.693 155.504 116.013 155.221C116.341 154.939 116.504 154.615 116.504 154.25C116.504 153.893 116.359 153.595 116.069 153.357C115.779 153.119 115.358 152.973 114.807 152.921L114.07 152.854C113.356 152.787 112.786 152.571 112.362 152.207C111.938 151.842 111.726 151.321 111.726 150.644C111.726 150.175 111.837 149.776 112.061 149.449C112.291 149.114 112.611 148.857 113.021 148.678C113.438 148.5 113.925 148.41 114.483 148.41C115.042 148.41 115.522 148.511 115.924 148.712C116.333 148.905 116.65 149.192 116.873 149.572C117.096 149.944 117.208 150.394 117.208 150.923H116.203C116.203 150.655 116.143 150.402 116.024 150.163C115.905 149.918 115.719 149.717 115.466 149.56C115.22 149.404 114.893 149.326 114.483 149.326C114.119 149.326 113.806 149.386 113.546 149.505C113.292 149.616 113.095 149.773 112.954 149.974C112.82 150.175 112.753 150.398 112.753 150.644C112.753 150.964 112.868 151.243 113.099 151.481C113.33 151.712 113.683 151.849 114.16 151.894L114.897 151.961C115.693 152.036 116.329 152.27 116.806 152.664C117.29 153.052 117.532 153.58 117.532 154.25C117.532 154.712 117.409 155.117 117.163 155.467C116.918 155.809 116.571 156.077 116.125 156.271C115.678 156.465 115.146 156.561 114.528 156.561ZM114.048 158.002V156.371H115.008V158.002H114.048ZM114.003 148.958V147.327H114.964V148.958H114.003ZM119.367 156.561V148.41H120.461V156.561H119.367ZM120.238 156.561V155.579H124.19V156.561H120.238ZM120.238 152.91V151.928H123.844V152.91H120.238ZM120.238 149.393V148.41H124.078V149.393H120.238ZM129.288 156.762C128.552 156.762 127.93 156.621 127.424 156.338C126.925 156.048 126.545 155.646 126.285 155.132C126.032 154.611 125.905 154.008 125.905 153.323V148.41H127V153.457C127 153.911 127.085 154.313 127.256 154.663C127.435 155.006 127.695 155.274 128.038 155.467C128.38 155.661 128.797 155.757 129.288 155.757C129.78 155.757 130.193 155.664 130.528 155.478C130.87 155.285 131.127 155.017 131.298 154.674C131.477 154.324 131.566 153.919 131.566 153.457V148.41H132.66V153.323C132.66 154.008 132.534 154.611 132.281 155.132C132.028 155.646 131.652 156.048 131.153 156.338C130.654 156.621 130.033 156.762 129.288 156.762ZM134.872 156.561V148.366H135.966V156.561H134.872ZM139.908 156.561L137.206 152.932H138.49L141.236 156.561H139.908ZM135.553 153.614V152.642H137.741C138.084 152.642 138.378 152.571 138.624 152.43C138.869 152.289 139.059 152.095 139.193 151.849C139.327 151.596 139.394 151.31 139.394 150.99C139.394 150.67 139.327 150.387 139.193 150.141C139.059 149.888 138.869 149.691 138.624 149.549C138.378 149.4 138.084 149.326 137.741 149.326H135.553V148.366H137.54C138.136 148.366 138.657 148.455 139.104 148.634C139.55 148.812 139.896 149.088 140.142 149.46C140.388 149.832 140.511 150.312 140.511 150.9V151.079C140.511 151.667 140.384 152.147 140.131 152.519C139.885 152.892 139.539 153.167 139.093 153.346C138.653 153.524 138.136 153.614 137.54 153.614H135.553ZM142.69 156.561V148.41H143.784V156.561H142.69ZM143.561 156.561V155.579H147.514V156.561H143.561ZM143.561 152.91V151.928H147.167V152.91H143.561ZM143.561 149.393V148.41H147.402V149.393H143.561ZM154.516 156.762C153.995 156.762 153.537 156.673 153.143 156.494C152.748 156.316 152.413 156.081 152.138 155.791C151.87 155.493 151.665 155.162 151.524 154.797C151.39 154.432 151.323 154.06 151.323 153.681V153.48C151.323 153.1 151.393 152.728 151.535 152.363C151.676 151.991 151.885 151.66 152.16 151.369C152.435 151.072 152.77 150.837 153.165 150.666C153.559 150.487 154.01 150.398 154.516 150.398C155.022 150.398 155.472 150.487 155.867 150.666C156.262 150.837 156.596 151.072 156.872 151.369C157.147 151.66 157.356 151.991 157.497 152.363C157.639 152.728 157.709 153.1 157.709 153.48V153.681C157.709 154.06 157.639 154.432 157.497 154.797C157.363 155.162 157.158 155.493 156.883 155.791C156.615 156.081 156.284 156.316 155.889 156.494C155.495 156.673 155.037 156.762 154.516 156.762ZM154.516 155.802C154.963 155.802 155.342 155.705 155.655 155.512C155.975 155.311 156.217 155.043 156.381 154.708C156.552 154.373 156.637 153.997 156.637 153.58C156.637 153.156 156.552 152.776 156.381 152.441C156.209 152.106 155.964 151.842 155.644 151.648C155.331 151.455 154.955 151.358 154.516 151.358C154.084 151.358 153.708 151.455 153.388 151.648C153.068 151.842 152.823 152.106 152.651 152.441C152.48 152.776 152.395 153.156 152.395 153.58C152.395 153.997 152.476 154.373 152.64 154.708C152.811 155.043 153.053 155.311 153.366 155.512C153.686 155.705 154.069 155.802 154.516 155.802ZM159.315 156.561V150.599H160.163V153.156H160.029C160.029 152.568 160.107 152.073 160.264 151.671C160.428 151.261 160.673 150.952 161.001 150.744C161.328 150.528 161.741 150.42 162.24 150.42H162.285C163.037 150.42 163.591 150.655 163.948 151.124C164.313 151.593 164.496 152.27 164.496 153.156V156.561H163.424V152.932C163.424 152.471 163.293 152.102 163.033 151.827C162.772 151.544 162.415 151.403 161.961 151.403C161.492 151.403 161.112 151.548 160.822 151.838C160.532 152.129 160.387 152.516 160.387 152.999V156.561H159.315ZM171.253 158.884C170.977 158.884 170.698 158.873 170.415 158.85C170.14 158.828 169.876 158.798 169.623 158.761V157.856C169.891 157.894 170.17 157.923 170.46 157.946C170.758 157.976 171.037 157.99 171.297 157.99C171.841 157.99 172.273 157.916 172.593 157.767C172.92 157.626 173.155 157.399 173.296 157.086C173.445 156.781 173.519 156.386 173.519 155.903V154.764L173.877 153.915C173.854 154.518 173.728 155.02 173.497 155.422C173.266 155.817 172.965 156.115 172.593 156.316C172.228 156.509 171.822 156.606 171.376 156.606C170.959 156.606 170.575 156.528 170.226 156.371C169.883 156.208 169.585 155.984 169.332 155.702C169.087 155.419 168.893 155.095 168.752 154.73C168.618 154.358 168.551 153.967 168.551 153.558V153.357C168.551 152.94 168.621 152.553 168.763 152.196C168.904 151.831 169.102 151.514 169.355 151.246C169.608 150.978 169.909 150.77 170.259 150.621C170.616 150.472 171.007 150.398 171.431 150.398C171.93 150.398 172.369 150.506 172.749 150.722C173.129 150.93 173.426 151.239 173.642 151.648C173.866 152.05 173.988 152.545 174.011 153.133L173.698 153.145V150.599H174.547V155.858C174.547 156.572 174.435 157.149 174.212 157.589C173.996 158.035 173.646 158.363 173.162 158.571C172.686 158.78 172.049 158.884 171.253 158.884ZM171.577 155.623C171.934 155.623 172.258 155.545 172.548 155.389C172.846 155.233 173.08 155.009 173.251 154.719C173.43 154.421 173.519 154.068 173.519 153.658V153.145C173.519 152.743 173.426 152.404 173.24 152.129C173.062 151.853 172.827 151.645 172.537 151.503C172.247 151.362 171.93 151.291 171.588 151.291C171.201 151.291 170.858 151.38 170.561 151.559C170.263 151.738 170.032 151.991 169.868 152.318C169.705 152.638 169.623 153.018 169.623 153.457C169.623 153.896 169.705 154.28 169.868 154.607C170.039 154.935 170.27 155.188 170.561 155.367C170.858 155.538 171.197 155.623 171.577 155.623ZM176.532 156.561V150.599H177.381V153.156H177.247C177.247 152.568 177.325 152.073 177.481 151.671C177.645 151.261 177.89 150.952 178.218 150.744C178.545 150.528 178.959 150.42 179.457 150.42H179.502C180.254 150.42 180.808 150.655 181.166 151.124C181.53 151.593 181.713 152.27 181.713 153.156V156.561H180.641V152.932C180.641 152.471 180.511 152.102 180.25 151.827C179.99 151.544 179.632 151.403 179.178 151.403C178.709 151.403 178.33 151.548 178.039 151.838C177.749 152.129 177.604 152.516 177.604 152.999V156.561H176.532ZM186.421 156.762C185.9 156.762 185.442 156.673 185.047 156.494C184.653 156.316 184.318 156.081 184.042 155.791C183.774 155.493 183.57 155.162 183.428 154.797C183.294 154.432 183.227 154.06 183.227 153.681V153.48C183.227 153.1 183.298 152.728 183.439 152.363C183.581 151.991 183.789 151.66 184.065 151.369C184.34 151.072 184.675 150.837 185.07 150.666C185.464 150.487 185.915 150.398 186.421 150.398C186.927 150.398 187.377 150.487 187.772 150.666C188.166 150.837 188.501 151.072 188.777 151.369C189.052 151.66 189.26 151.991 189.402 152.363C189.543 152.728 189.614 153.1 189.614 153.48V153.681C189.614 154.06 189.543 154.432 189.402 154.797C189.268 155.162 189.063 155.493 188.788 155.791C188.52 156.081 188.189 156.316 187.794 156.494C187.4 156.673 186.942 156.762 186.421 156.762ZM186.421 155.802C186.867 155.802 187.247 155.705 187.56 155.512C187.88 155.311 188.122 155.043 188.285 154.708C188.457 154.373 188.542 153.997 188.542 153.58C188.542 153.156 188.457 152.776 188.285 152.441C188.114 152.106 187.869 151.842 187.548 151.648C187.236 151.455 186.86 151.358 186.421 151.358C185.989 151.358 185.613 151.455 185.293 151.648C184.973 151.842 184.727 152.106 184.556 152.441C184.385 152.776 184.299 153.156 184.299 153.58C184.299 153.997 184.381 154.373 184.545 154.708C184.716 155.043 184.958 155.311 185.271 155.512C185.591 155.705 185.974 155.802 186.421 155.802ZM193.173 156.74C192.392 156.74 191.785 156.572 191.353 156.237C190.929 155.903 190.71 155.445 190.695 154.864H191.7C191.714 155.095 191.83 155.314 192.046 155.523C192.269 155.724 192.645 155.824 193.173 155.824C193.65 155.824 194.015 155.731 194.268 155.545C194.521 155.352 194.647 155.117 194.647 154.842C194.647 154.596 194.554 154.406 194.368 154.272C194.182 154.131 193.881 154.038 193.464 153.993L192.816 153.926C192.25 153.867 191.789 153.699 191.432 153.424C191.074 153.141 190.896 152.746 190.896 152.24C190.896 151.861 190.992 151.537 191.186 151.269C191.38 150.993 191.647 150.785 191.99 150.644C192.332 150.495 192.727 150.42 193.173 150.42C193.843 150.42 194.387 150.569 194.804 150.867C195.22 151.165 195.436 151.607 195.451 152.196H194.446C194.439 151.957 194.327 151.756 194.111 151.593C193.903 151.421 193.59 151.336 193.173 151.336C192.757 151.336 192.44 151.421 192.224 151.593C192.008 151.764 191.901 151.98 191.901 152.24C191.901 152.464 191.975 152.642 192.124 152.776C192.28 152.91 192.533 152.996 192.883 153.033L193.531 153.1C194.171 153.167 194.685 153.346 195.072 153.636C195.459 153.919 195.652 154.321 195.652 154.842C195.652 155.214 195.544 155.545 195.328 155.836C195.12 156.118 194.83 156.342 194.457 156.505C194.085 156.662 193.657 156.74 193.173 156.74ZM197.496 156.561V150.599H198.568V156.561H197.496ZM196.58 151.447V150.599H198.568V151.447H196.58ZM197.797 149.639C197.559 149.639 197.381 149.575 197.262 149.449C197.15 149.322 197.094 149.162 197.094 148.969C197.094 148.775 197.15 148.615 197.262 148.489C197.381 148.362 197.559 148.299 197.797 148.299C198.036 148.299 198.211 148.362 198.322 148.489C198.441 148.615 198.501 148.775 198.501 148.969C198.501 149.162 198.441 149.322 198.322 149.449C198.211 149.575 198.036 149.639 197.797 149.639ZM202.594 156.74C201.813 156.74 201.206 156.572 200.774 156.237C200.35 155.903 200.13 155.445 200.116 154.864H201.121C201.135 155.095 201.251 155.314 201.467 155.523C201.69 155.724 202.066 155.824 202.594 155.824C203.071 155.824 203.436 155.731 203.689 155.545C203.942 155.352 204.068 155.117 204.068 154.842C204.068 154.596 203.975 154.406 203.789 154.272C203.603 154.131 203.302 154.038 202.885 153.993L202.237 153.926C201.671 153.867 201.21 153.699 200.853 153.424C200.495 153.141 200.317 152.746 200.317 152.24C200.317 151.861 200.413 151.537 200.607 151.269C200.8 150.993 201.068 150.785 201.411 150.644C201.753 150.495 202.148 150.42 202.594 150.42C203.264 150.42 203.808 150.569 204.225 150.867C204.641 151.165 204.857 151.607 204.872 152.196H203.867C203.86 151.957 203.748 151.756 203.532 151.593C203.324 151.421 203.011 151.336 202.594 151.336C202.178 151.336 201.861 151.421 201.645 151.593C201.429 151.764 201.321 151.98 201.321 152.24C201.321 152.464 201.396 152.642 201.545 152.776C201.701 152.91 201.954 152.996 202.304 153.033L202.952 153.1C203.592 153.167 204.105 153.346 204.493 153.636C204.88 153.919 205.073 154.321 205.073 154.842C205.073 155.214 204.965 155.545 204.749 155.836C204.541 156.118 204.251 156.342 203.878 156.505C203.506 156.662 203.078 156.74 202.594 156.74ZM206.336 153.915V152.999H210.49V153.915H206.336ZM212.253 156.561V150.599H213.102V153.156H212.968C212.968 152.575 213.042 152.084 213.191 151.682C213.347 151.273 213.578 150.96 213.883 150.744C214.188 150.528 214.575 150.42 215.044 150.42H215.089C215.558 150.42 215.945 150.528 216.25 150.744C216.563 150.96 216.794 151.273 216.943 151.682C217.091 152.084 217.166 152.575 217.166 153.156H216.853C216.853 152.575 216.931 152.084 217.088 151.682C217.244 151.273 217.475 150.96 217.78 150.744C218.093 150.528 218.483 150.42 218.952 150.42H218.997C219.466 150.42 219.857 150.528 220.169 150.744C220.482 150.96 220.713 151.273 220.862 151.682C221.018 152.084 221.096 152.575 221.096 153.156V156.561H220.024V152.921C220.024 152.437 219.905 152.065 219.667 151.805C219.429 151.537 219.098 151.403 218.673 151.403C218.234 151.403 217.88 151.544 217.612 151.827C217.345 152.102 217.211 152.49 217.211 152.988V156.561H216.139V152.921C216.139 152.437 216.02 152.065 215.781 151.805C215.543 151.537 215.212 151.403 214.788 151.403C214.348 151.403 213.995 151.544 213.727 151.827C213.459 152.102 213.325 152.49 213.325 152.988V156.561H212.253ZM226.665 156.561V154.775H226.487V152.709C226.487 152.3 226.379 151.991 226.163 151.782C225.954 151.574 225.645 151.47 225.236 151.47C225.005 151.47 224.767 151.474 224.521 151.481C224.276 151.488 224.041 151.496 223.818 151.503C223.595 151.511 223.401 151.522 223.237 151.537V150.599C223.401 150.584 223.572 150.573 223.751 150.565C223.937 150.55 224.127 150.543 224.32 150.543C224.514 150.536 224.7 150.532 224.879 150.532C225.489 150.532 225.988 150.606 226.375 150.755C226.762 150.897 227.049 151.131 227.235 151.459C227.421 151.786 227.514 152.229 227.514 152.787V156.561H226.665ZM224.711 156.718C224.265 156.718 223.878 156.643 223.55 156.494C223.23 156.338 222.981 156.115 222.802 155.824C222.631 155.534 222.545 155.184 222.545 154.775C222.545 154.35 222.638 153.997 222.824 153.714C223.018 153.431 223.297 153.219 223.662 153.078C224.026 152.929 224.466 152.854 224.979 152.854H226.598V153.658H224.935C224.503 153.658 224.172 153.762 223.941 153.971C223.71 154.179 223.595 154.447 223.595 154.775C223.595 155.102 223.71 155.367 223.941 155.568C224.172 155.769 224.503 155.869 224.935 155.869C225.188 155.869 225.43 155.824 225.66 155.735C225.891 155.638 226.081 155.482 226.23 155.266C226.386 155.043 226.472 154.738 226.487 154.35L226.777 154.775C226.74 155.199 226.635 155.556 226.464 155.847C226.3 156.13 226.07 156.345 225.772 156.494C225.482 156.643 225.128 156.718 224.711 156.718ZM229.771 156.561V150.599H230.843V156.561H229.771ZM228.856 151.447V150.599H230.843V151.447H228.856ZM230.073 149.639C229.835 149.639 229.656 149.575 229.537 149.449C229.425 149.322 229.369 149.162 229.369 148.969C229.369 148.775 229.425 148.615 229.537 148.489C229.656 148.362 229.835 148.299 230.073 148.299C230.311 148.299 230.486 148.362 230.598 148.489C230.717 148.615 230.776 148.775 230.776 148.969C230.776 149.162 230.717 149.322 230.598 149.449C230.486 149.575 230.311 149.639 230.073 149.639ZM232.916 156.561V150.599H233.764V153.156H233.63C233.63 152.568 233.709 152.073 233.865 151.671C234.029 151.261 234.274 150.952 234.602 150.744C234.929 150.528 235.343 150.42 235.841 150.42H235.886C236.638 150.42 237.192 150.655 237.55 151.124C237.914 151.593 238.097 152.27 238.097 153.156V156.561H237.025V152.932C237.025 152.471 236.895 152.102 236.634 151.827C236.373 151.544 236.016 151.403 235.562 151.403C235.093 151.403 234.714 151.548 234.423 151.838C234.133 152.129 233.988 152.516 233.988 152.999V156.561H232.916ZM240.058 156.561V150.599H240.906V153.156H240.772C240.772 152.568 240.851 152.073 241.007 151.671C241.171 151.261 241.416 150.952 241.744 150.744C242.071 150.528 242.485 150.42 242.983 150.42H243.028C243.78 150.42 244.334 150.655 244.692 151.124C245.056 151.593 245.239 152.27 245.239 153.156V156.561H244.167V152.932C244.167 152.471 244.037 152.102 243.776 151.827C243.515 151.544 243.158 151.403 242.704 151.403C242.235 151.403 241.856 151.548 241.565 151.838C241.275 152.129 241.13 152.516 241.13 152.999V156.561H240.058ZM249.734 156.762C249.213 156.762 248.763 156.673 248.383 156.494C248.004 156.316 247.695 156.081 247.457 155.791C247.219 155.493 247.04 155.162 246.921 154.797C246.809 154.432 246.753 154.06 246.753 153.681V153.48C246.753 153.093 246.809 152.717 246.921 152.352C247.04 151.987 247.219 151.66 247.457 151.369C247.695 151.072 247.996 150.837 248.361 150.666C248.733 150.487 249.169 150.398 249.668 150.398C250.315 150.398 250.847 150.539 251.264 150.822C251.688 151.098 252.001 151.455 252.202 151.894C252.411 152.333 252.515 152.802 252.515 153.301V153.781H247.222V152.977H251.733L251.487 153.413C251.487 152.988 251.42 152.624 251.287 152.318C251.153 152.006 250.952 151.764 250.684 151.593C250.416 151.421 250.077 151.336 249.668 151.336C249.243 151.336 248.89 151.433 248.607 151.626C248.331 151.82 248.123 152.084 247.982 152.419C247.848 152.754 247.781 153.141 247.781 153.58C247.781 154.004 247.848 154.388 247.982 154.73C248.123 155.065 248.339 155.333 248.629 155.534C248.919 155.728 249.288 155.824 249.734 155.824C250.203 155.824 250.583 155.72 250.873 155.512C251.171 155.303 251.35 155.061 251.409 154.786H252.414C252.332 155.195 252.169 155.549 251.923 155.847C251.677 156.144 251.368 156.371 250.996 156.528C250.624 156.684 250.203 156.762 249.734 156.762ZM256.359 156.628C255.912 156.628 255.525 156.565 255.198 156.438C254.878 156.312 254.628 156.096 254.45 155.791C254.279 155.478 254.193 155.058 254.193 154.529V148.79H255.22V154.663C255.22 154.983 255.306 155.233 255.477 155.411C255.656 155.582 255.905 155.668 256.225 155.668H257.275V156.628H256.359ZM253.166 151.403V150.599H257.275V151.403H253.166Z" fill="#ADA8C4"/>
<defs>
<radialGradient id="paint0_radial_2166_2408" cx="0" cy="0" r="1" gradientUnits="userSpaceOnUse" gradientTransform="translate(122.376 40.4079) scale(603.169 90.9072)">
<stop stop-color="#C450D5"/>
<stop offset="1" stop-color="#D43E76"/>
</radialGradient>
<radialGradient id="paint1_radial_2166_2408" cx="0" cy="0" r="1" gradientUnits="userSpaceOnUse" gradientTransform="translate(24.2072 95.6942) scale(45.9367 39.4503)">
<stop stop-color="#C450D5"/>
<stop offset="1" stop-color="#D43E76"/>
</radialGradient>
<radialGradient id="paint2_radial_2166_2408" cx="0" cy="0" r="1" gradientUnits="userSpaceOnUse" gradientTransform="translate(24.2072 159.896) scale(45.9367 39.4503)">
<stop stop-color="#C450D5"/>
<stop offset="1" stop-color="#D43E76"/>
</radialGradient>
</defs>
</svg>
