<svg width="48" height="48" viewBox="0 0 48 48" fill="none" xmlns="http://www.w3.org/2000/svg">
<circle cx="24" cy="24" r="23.5" fill="#252134" stroke="url(#paint0_angular_1211_4686)"/>
<path d="M30.8193 22.7812H31.383C31.4788 23.0523 31.6674 23.2808 31.9153 23.4262C32.1633 23.5717 32.4547 23.6248 32.7381 23.5762C33.0215 23.5276 33.2785 23.3804 33.4638 23.1605C33.6491 22.9407 33.7508 22.6625 33.7508 22.375C33.7508 22.0875 33.6491 21.8093 33.4638 21.5895C33.2785 21.3696 33.0215 21.2224 32.7381 21.1738C32.4547 21.1252 32.1633 21.1783 31.9153 21.3238C31.6674 21.4692 31.4788 21.6977 31.383 21.9687H30.897C30.8599 21.5913 30.7267 21.2297 30.5101 20.9184C30.2936 20.6071 30.0009 20.3564 29.6599 20.1904C29.7347 19.9783 29.7765 19.756 29.7839 19.5313H30.5004C30.6081 19.5313 30.7115 19.4884 30.7876 19.4123C30.8638 19.3361 30.9066 19.2327 30.9066 19.125V17.9062H31.383C31.4788 18.1773 31.6674 18.4058 31.9153 18.5512C32.1633 18.6967 32.4547 18.7498 32.7381 18.7012C33.0215 18.6526 33.2785 18.5054 33.4638 18.2855C33.6491 18.0657 33.7508 17.7875 33.7508 17.5C33.7508 17.2125 33.6491 16.9343 33.4638 16.7145C33.2785 16.4946 33.0215 16.3474 32.7381 16.2988C32.4547 16.2502 32.1633 16.3033 31.9153 16.4488C31.6674 16.5942 31.4788 16.8227 31.383 17.0937H30.5004C30.3926 17.0937 30.2893 17.1366 30.2131 17.2127C30.1369 17.2889 30.0941 17.3923 30.0941 17.5V18.7188H29.6579C29.5158 18.3209 29.2622 17.9723 28.9275 17.7145C28.5927 17.4567 28.1909 17.3006 27.7699 17.2649V17.2425C27.7698 16.8057 27.6397 16.3788 27.3961 16.0163C27.1525 15.6537 26.8064 15.372 26.402 15.2069C25.9976 15.0418 25.5532 15.0009 25.1255 15.0894C24.6977 15.178 24.3061 15.3919 24.0004 15.7039C23.6947 15.3919 23.303 15.178 22.8753 15.0894C22.4475 15.0009 22.0031 15.0418 21.5987 15.2069C21.1943 15.372 20.8483 15.6537 20.6046 16.0163C20.361 16.3788 20.2309 16.8057 20.2309 17.2425V17.2649C19.8099 17.3006 19.4081 17.4567 19.0733 17.7145C18.7385 17.9723 18.485 18.3209 18.3428 18.7188H17.9066V17.5C17.9066 17.3923 17.8638 17.2889 17.7876 17.2127C17.7115 17.1366 17.6081 17.0937 17.5004 17.0937H16.6686C16.5727 16.8227 16.3842 16.5942 16.1362 16.4488C15.8882 16.3033 15.5968 16.2502 15.3134 16.2988C15.0301 16.3474 14.773 16.4946 14.5877 16.7145C14.4024 16.9343 14.3008 17.2125 14.3008 17.5C14.3008 17.7875 14.4024 18.0657 14.5877 18.2855C14.773 18.5054 15.0301 18.6526 15.3134 18.7012C15.5968 18.7498 15.8882 18.6967 16.1362 18.5512C16.3842 18.4058 16.5727 18.1773 16.6686 17.9062H17.0941V19.125C17.0941 19.2327 17.1369 19.3361 17.2131 19.4123C17.2893 19.4884 17.3926 19.5313 17.5004 19.5313H18.2169C18.2243 19.756 18.266 19.9783 18.3408 20.1904C17.9999 20.3564 17.7072 20.6071 17.4906 20.9184C17.2741 21.2297 17.1409 21.5913 17.1038 21.9687H16.6686C16.5727 21.6977 16.3842 21.4692 16.1362 21.3238C15.8882 21.1783 15.5968 21.1252 15.3134 21.1738C15.0301 21.2224 14.773 21.3696 14.5877 21.5895C14.4024 21.8093 14.3008 22.0875 14.3008 22.375C14.3008 22.6625 14.4024 22.9407 14.5877 23.1605C14.773 23.3804 15.0301 23.5276 15.3134 23.5762C15.5968 23.6248 15.8882 23.5717 16.1362 23.4262C16.3842 23.2808 16.5727 23.0523 16.6686 22.7812H17.1815C17.2687 23.078 17.4169 23.3533 17.6165 23.5895C17.8161 23.8258 18.0628 24.0178 18.3408 24.1534C18.2206 24.4949 18.1861 24.8607 18.2403 25.2187H17.5004C17.3926 25.2187 17.2893 25.2616 17.2131 25.3377C17.1369 25.4139 17.0941 25.5173 17.0941 25.625V26.8437H16.6686C16.5727 26.5727 16.3842 26.3442 16.1362 26.1988C15.8882 26.0533 15.5968 26.0002 15.3134 26.0488C15.0301 26.0974 14.773 26.2446 14.5877 26.4645C14.4024 26.6843 14.3008 26.9625 14.3008 27.25C14.3008 27.5375 14.4024 27.8157 14.5877 28.0355C14.773 28.2554 15.0301 28.4026 15.3134 28.4512C15.5968 28.4998 15.8882 28.4467 16.1362 28.3012C16.3842 28.1558 16.5727 27.9273 16.6686 27.6562H17.5004C17.6081 27.6562 17.7115 27.6134 17.7876 27.5373C17.8638 27.4611 17.9066 27.3577 17.9066 27.25V26.0312H18.5373C18.7174 26.3267 18.9646 26.5756 19.2588 26.7576C19.5531 26.9396 19.8861 27.0497 20.2309 27.0789V27.1012C20.2309 27.538 20.361 27.9649 20.6046 28.3275C20.8483 28.69 21.1943 28.9718 21.5987 29.1369C22.0031 29.3019 22.4475 29.3428 22.8753 29.2543C23.303 29.1658 23.6947 28.9519 24.0004 28.6399C24.3061 28.9519 24.6977 29.1658 25.1255 29.2543C25.5532 29.3428 25.9976 29.3019 26.402 29.1369C26.8064 28.9718 27.1525 28.69 27.3961 28.3275C27.6397 27.9649 27.7698 27.538 27.7699 27.1012V27.0789C28.1146 27.0497 28.4477 26.9396 28.7419 26.7576C29.0362 26.5756 29.2834 26.3267 29.4634 26.0312H30.0941V27.25C30.0941 27.3577 30.1369 27.4611 30.2131 27.5373C30.2893 27.6134 30.3926 27.6562 30.5004 27.6562H31.383C31.4788 27.9273 31.6674 28.1558 31.9153 28.3012C32.1633 28.4467 32.4547 28.4998 32.7381 28.4512C33.0215 28.4026 33.2785 28.2554 33.4638 28.0355C33.6491 27.8157 33.7508 27.5375 33.7508 27.25C33.7508 26.9625 33.6491 26.6843 33.4638 26.4645C33.2785 26.2446 33.0215 26.0974 32.7381 26.0488C32.4547 26.0002 32.1633 26.0533 31.9153 26.1988C31.6674 26.3442 31.4788 26.5727 31.383 26.8437H30.9066V25.625C30.9066 25.5173 30.8638 25.4139 30.7876 25.3377C30.7115 25.2616 30.6081 25.2187 30.5004 25.2187H29.7605C29.8146 24.8607 29.7801 24.4949 29.6599 24.1534C29.938 24.0178 30.1846 23.8258 30.3843 23.5895C30.5839 23.3533 30.732 23.078 30.8193 22.7812ZM32.5316 21.9687C32.612 21.9687 32.6905 21.9926 32.7573 22.0372C32.8241 22.0819 32.8762 22.1453 32.907 22.2195C32.9377 22.2938 32.9457 22.3755 32.9301 22.4543C32.9144 22.5331 32.8757 22.6054 32.8189 22.6623C32.7621 22.7191 32.6897 22.7578 32.6109 22.7734C32.5321 22.7891 32.4504 22.7811 32.3762 22.7503C32.3019 22.7196 32.2385 22.6675 32.1938 22.6007C32.1492 22.5339 32.1254 22.4553 32.1254 22.375C32.1255 22.2673 32.1684 22.1641 32.2445 22.0879C32.3207 22.0117 32.4239 21.9689 32.5316 21.9687ZM32.5316 17.0937C32.612 17.0937 32.6905 17.1176 32.7573 17.1622C32.8241 17.2069 32.8762 17.2703 32.907 17.3445C32.9377 17.4188 32.9457 17.5005 32.9301 17.5793C32.9144 17.6581 32.8757 17.7304 32.8189 17.7873C32.7621 17.8441 32.6897 17.8828 32.6109 17.8984C32.5321 17.9141 32.4504 17.9061 32.3762 17.8753C32.3019 17.8446 32.2385 17.7925 32.1938 17.7257C32.1492 17.6589 32.1254 17.5803 32.1254 17.5C32.1255 17.3923 32.1684 17.2891 32.2445 17.2129C32.3207 17.1367 32.4239 17.0939 32.5316 17.0937ZM15.5199 17.9062C15.4396 17.9062 15.361 17.8824 15.2942 17.8378C15.2274 17.7931 15.1753 17.7297 15.1446 17.6555C15.1138 17.5812 15.1058 17.4995 15.1215 17.4207C15.1371 17.3419 15.1758 17.2696 15.2326 17.2127C15.2895 17.1559 15.3618 17.1172 15.4407 17.1016C15.5195 17.0859 15.6011 17.0939 15.6754 17.1247C15.7496 17.1554 15.8131 17.2075 15.8577 17.2743C15.9023 17.3411 15.9262 17.4197 15.9262 17.5C15.926 17.6077 15.8832 17.7109 15.807 17.7871C15.7309 17.8633 15.6276 17.9061 15.5199 17.9062ZM15.5199 22.7812C15.4396 22.7812 15.361 22.7574 15.2942 22.7128C15.2274 22.6681 15.1753 22.6047 15.1446 22.5305C15.1138 22.4562 15.1058 22.3745 15.1215 22.2957C15.1371 22.2169 15.1758 22.1446 15.2326 22.0877C15.2895 22.0309 15.3618 21.9922 15.4407 21.9766C15.5195 21.9609 15.6011 21.9689 15.6754 21.9997C15.7496 22.0304 15.8131 22.0825 15.8577 22.1493C15.9023 22.2161 15.9262 22.2947 15.9262 22.375C15.926 22.4827 15.8832 22.5859 15.807 22.6621C15.7309 22.7383 15.6276 22.7811 15.5199 22.7812ZM15.5199 27.6562C15.4396 27.6562 15.361 27.6324 15.2942 27.5878C15.2274 27.5431 15.1753 27.4797 15.1446 27.4055C15.1138 27.3312 15.1058 27.2495 15.1215 27.1707C15.1371 27.0919 15.1758 27.0196 15.2326 26.9627C15.2895 26.9059 15.3618 26.8672 15.4407 26.8516C15.5195 26.8359 15.6011 26.8439 15.6754 26.8747C15.7496 26.9054 15.8131 26.9575 15.8577 27.0243C15.9023 27.0911 15.9262 27.1697 15.9262 27.25C15.926 27.3577 15.8832 27.4609 15.807 27.5371C15.7309 27.6133 15.6276 27.6561 15.5199 27.6562ZM23.5916 27.8568C23.417 28.1256 23.1546 28.3255 22.8492 28.4225C22.5438 28.5196 22.2142 28.5078 21.9165 28.3892C21.6187 28.2706 21.3713 28.0525 21.2163 27.7721C21.0613 27.4916 21.0083 27.166 21.0662 26.8509C21.3087 26.7304 21.5239 26.5616 21.6986 26.3548C21.8732 26.148 22.0037 25.9075 22.0819 25.6484C22.1126 25.5451 22.101 25.4338 22.0497 25.339C21.9983 25.2443 21.9114 25.1738 21.8082 25.1431C21.757 25.1279 21.7034 25.1229 21.6503 25.1284C21.5972 25.134 21.5457 25.1499 21.4988 25.1753C21.4041 25.2266 21.3336 25.3135 21.3029 25.4168C21.2304 25.656 21.0832 25.8657 20.8827 26.0151C20.6823 26.1644 20.4392 26.2456 20.1892 26.2466C20.1765 26.2466 20.1639 26.2476 20.1512 26.2486C19.9291 26.2056 19.7208 26.1089 19.5447 25.967C19.3685 25.825 19.2297 25.6422 19.1405 25.4343C19.0512 25.2264 19.0141 24.9999 19.0324 24.7744C19.0508 24.5489 19.124 24.3314 19.2457 24.1407C19.2811 24.0856 19.3026 24.0228 19.3084 23.9577C19.3143 23.8925 19.3043 23.8269 19.2793 23.7665C19.2543 23.706 19.2151 23.6525 19.1649 23.6105C19.1148 23.5685 19.0552 23.5392 18.9913 23.5252C18.6836 23.4566 18.4084 23.2851 18.2113 23.0391C18.0141 22.793 17.9066 22.4872 17.9066 22.1719C17.9066 21.8566 18.0141 21.5507 18.2113 21.3047C18.4084 21.0587 18.6836 20.8872 18.9913 20.8186C19.0552 20.8045 19.1148 20.7753 19.1649 20.7333C19.2151 20.6912 19.2543 20.6377 19.2793 20.5773C19.3043 20.5168 19.3143 20.4512 19.3084 20.3861C19.3026 20.3209 19.2811 20.2581 19.2457 20.2031C19.124 20.0124 19.0508 19.7948 19.0324 19.5692C19.0141 19.3437 19.0512 19.1171 19.1406 18.9093C19.2299 18.7014 19.3688 18.5185 19.545 18.3766C19.7212 18.2347 19.9295 18.1381 20.1517 18.0952C20.1639 18.0962 20.1765 18.0972 20.1892 18.0972C20.4392 18.0982 20.6823 18.1793 20.8827 18.3287C21.0832 18.478 21.2304 18.6877 21.3029 18.927C21.328 19.0108 21.3794 19.0843 21.4495 19.1367C21.5197 19.189 21.6049 19.2173 21.6924 19.2174C21.7316 19.2173 21.7705 19.2117 21.8082 19.2007C21.9114 19.1699 21.9983 19.0994 22.0496 19.0047C22.1009 18.9099 22.1125 18.7987 22.0819 18.6954C22.0037 18.4362 21.8732 18.1958 21.6986 17.989C21.5239 17.7822 21.3087 17.6133 21.0662 17.4929C21.0083 17.1777 21.0614 16.8522 21.2164 16.5718C21.3714 16.2914 21.6188 16.0733 21.9165 15.9547C22.2142 15.8361 22.5438 15.8243 22.8492 15.9214C23.1546 16.0184 23.4169 16.2183 23.5916 16.4869V27.8568ZM32.5316 26.8437C32.612 26.8437 32.6905 26.8676 32.7573 26.9122C32.8241 26.9569 32.8762 27.0203 32.907 27.0945C32.9377 27.1688 32.9457 27.2505 32.9301 27.3293C32.9144 27.4081 32.8757 27.4804 32.8189 27.5373C32.7621 27.5941 32.6897 27.6328 32.6109 27.6484C32.5321 27.6641 32.4504 27.6561 32.3762 27.6253C32.3019 27.5946 32.2385 27.5425 32.1938 27.4757C32.1492 27.4089 32.1254 27.3303 32.1254 27.25C32.1255 27.1423 32.1684 27.0391 32.2445 26.9629C32.3207 26.8867 32.4239 26.8439 32.5316 26.8437ZM29.0094 23.5252C28.9455 23.5392 28.886 23.5685 28.8358 23.6105C28.7857 23.6525 28.7465 23.706 28.7215 23.7665C28.6965 23.8269 28.6865 23.8925 28.6923 23.9577C28.6982 24.0228 28.7197 24.0856 28.755 24.1407C28.8766 24.3311 28.9498 24.5484 28.9682 24.7737C28.9867 24.9989 28.9498 25.2252 28.8609 25.4329C28.7719 25.6406 28.6336 25.8235 28.4579 25.9655C28.2822 26.1076 28.0744 26.2046 27.8526 26.2481C27.8435 26.2476 27.8349 26.2466 27.8262 26.2466C27.5762 26.2456 27.333 26.1646 27.1325 26.0152C26.9319 25.8658 26.7846 25.6561 26.7121 25.4168C26.6814 25.3135 26.6109 25.2266 26.5161 25.1753C26.4214 25.124 26.3101 25.1124 26.2068 25.1431C26.1035 25.1738 26.0167 25.2443 25.9653 25.339C25.914 25.4338 25.9024 25.5451 25.9331 25.6484C26.0104 25.9048 26.139 26.1429 26.3109 26.3483C26.4829 26.5536 26.6947 26.722 26.9335 26.8432C26.9494 26.9283 26.9574 27.0147 26.9574 27.1012C26.9574 27.4009 26.8603 27.6925 26.6807 27.9323C26.5011 28.1722 26.2486 28.3474 25.961 28.4317C25.6735 28.5159 25.3664 28.5048 25.0857 28.3999C24.805 28.295 24.5659 28.102 24.4041 27.8497V16.494C24.5659 16.2418 24.805 16.0488 25.0857 15.9439C25.3664 15.8389 25.6735 15.8278 25.961 15.9121C26.2486 15.9964 26.5011 16.1716 26.6807 16.4114C26.8603 16.6513 26.9574 16.9429 26.9574 17.2425C26.9574 17.3291 26.9494 17.4154 26.9335 17.5005C26.6947 17.6217 26.4829 17.7901 26.3109 17.9955C26.139 18.2008 26.0104 18.4389 25.9331 18.6954C25.9025 18.7987 25.9141 18.9099 25.9654 19.0047C26.0167 19.0994 26.1035 19.1699 26.2068 19.2007C26.2444 19.2117 26.2834 19.2173 26.3226 19.2174C26.4101 19.2173 26.4953 19.189 26.5654 19.1367C26.6356 19.0843 26.687 19.0108 26.7121 18.927C26.7846 18.6876 26.9319 18.4779 27.1325 18.3286C27.333 18.1792 27.5762 18.0981 27.8262 18.0972C27.8349 18.0972 27.8435 18.0962 27.8526 18.0957C28.0744 18.1391 28.2822 18.2361 28.4579 18.3782C28.6336 18.5203 28.7719 18.7031 28.8609 18.9108C28.9498 19.1186 28.9867 19.3449 28.9682 19.5701C28.9498 19.7953 28.8766 20.0126 28.755 20.2031C28.7197 20.2581 28.6982 20.3209 28.6923 20.3861C28.6865 20.4512 28.6965 20.5168 28.7215 20.5773C28.7465 20.6377 28.7857 20.6912 28.8358 20.7333C28.886 20.7753 28.9455 20.8045 29.0094 20.8186C29.3172 20.8872 29.5923 21.0587 29.7895 21.3047C29.9867 21.5507 30.0941 21.8566 30.0941 22.1719C30.0941 22.4872 29.9867 22.793 29.7895 23.0391C29.5923 23.2851 29.3172 23.4566 29.0094 23.5252Z" fill="white"/>
<path d="M21.6275 21.3997C21.8324 21.138 21.9506 21.0997 21.9732 21.0948C21.9903 21.1081 22.0048 21.1246 22.016 21.1432C22.0144 21.1405 22.0129 21.1377 22.0116 21.1348L22.7383 20.7714C22.7148 20.7246 22.4956 20.3123 22.0266 20.2831C21.676 20.2613 21.3398 20.4577 21.0032 20.88C20.8505 20.7729 20.6908 20.676 20.5254 20.5898C20.4294 20.5444 20.3195 20.5383 20.2192 20.5729C20.1188 20.6075 20.036 20.68 19.9884 20.7749C19.9408 20.8698 19.9323 20.9796 19.9646 21.0807C19.9969 21.1818 20.0676 21.2663 20.1614 21.316C20.4266 21.4581 20.6748 21.63 20.9012 21.8282C21.2029 22.095 21.5624 22.5121 21.5624 22.9844C21.5624 23.0921 21.6052 23.1954 21.6814 23.2716C21.7576 23.3478 21.8609 23.3906 21.9687 23.3906C22.0764 23.3906 22.1798 23.3478 22.256 23.2716C22.3321 23.1954 22.3749 23.0921 22.3749 22.9844C22.3749 22.338 22.0238 21.8008 21.6275 21.3997Z" fill="white"/>
<path d="M36.1875 30.0938H34.9688V15.2656C34.9683 14.8886 34.8184 14.5272 34.5518 14.2607C34.2853 13.9941 33.9239 13.8442 33.5469 13.8438H14.4531C14.0761 13.8442 13.7147 13.9941 13.4482 14.2607C13.1816 14.5272 13.0317 14.8886 13.0312 15.2656V30.0938H11.8125C11.7048 30.0938 11.6014 30.1366 11.5252 30.2127C11.4491 30.2889 11.4062 30.3923 11.4062 30.5V32.7344C11.4067 33.1114 11.5566 33.4728 11.8232 33.7393C12.0897 34.0059 12.4511 34.1558 12.8281 34.1562H35.1719C35.5489 34.1558 35.9103 34.0059 36.1768 33.7393C36.4434 33.4728 36.5933 33.1114 36.5938 32.7344V30.5C36.5938 30.3923 36.5509 30.2889 36.4748 30.2127C36.3986 30.1366 36.2952 30.0938 36.1875 30.0938ZM13.8438 15.2656C13.8439 15.104 13.9081 14.9491 14.0224 14.8349C14.1366 14.7206 14.2915 14.6564 14.4531 14.6562H33.5469C33.7085 14.6564 33.8634 14.7206 33.9776 14.8349C34.0919 14.9491 34.1561 15.104 34.1562 15.2656V30.0938H13.8438V15.2656ZM25.917 30.9062L25.7139 31.7188H22.2861L22.083 30.9062H25.917ZM35.7812 32.7344C35.7811 32.896 35.7169 33.0509 35.6026 33.1651C35.4884 33.2794 35.3335 33.3436 35.1719 33.3438H12.8281C12.6665 33.3436 12.5116 33.2794 12.3974 33.1651C12.2831 33.0509 12.2189 32.896 12.2188 32.7344V30.9062H21.2451L21.5747 32.2235C21.5967 32.3114 21.6474 32.3894 21.7188 32.4452C21.7902 32.5009 21.8782 32.5312 21.9688 32.5312H26.0312C26.1218 32.5312 26.2098 32.5009 26.2812 32.4452C26.3526 32.3894 26.4033 32.3114 26.4253 32.2235L26.7549 30.9062H35.7812V32.7344Z" fill="white"/>
<path d="M28.1613 21.9058C26.8735 22.2277 26.8446 23.4917 26.8441 23.545C26.8429 23.6521 26.7997 23.7545 26.7236 23.8299C26.6476 23.9054 26.5449 23.9479 26.4378 23.9482H26.4358C26.3285 23.9479 26.2257 23.905 26.15 23.8291C26.0742 23.7531 26.0316 23.6502 26.0316 23.543C26.0316 23.0712 26.2311 22.2552 26.8791 21.6783C26.7587 21.4493 26.6176 21.4142 26.5069 21.4107C26.4046 21.41 26.3033 21.4304 26.2093 21.4706C26.1617 21.4944 26.1099 21.5086 26.0568 21.5123C26.0037 21.516 25.9504 21.5092 25.9 21.4923C25.8495 21.4754 25.8029 21.4486 25.7628 21.4136C25.7228 21.3786 25.69 21.336 25.6664 21.2883C25.6185 21.1915 25.6109 21.0796 25.6452 20.9772C25.6796 20.8748 25.7531 20.7902 25.8498 20.7419C26.3068 20.5139 27.1259 20.4702 27.5692 21.2477C27.6975 21.1946 27.8295 21.1511 27.9643 21.1177C28.0164 21.1037 28.0707 21.1002 28.1242 21.1075C28.1776 21.1147 28.2291 21.1325 28.2756 21.1599C28.3221 21.1872 28.3626 21.2236 28.3949 21.2668C28.4272 21.31 28.4506 21.3592 28.4637 21.4115C28.4768 21.4638 28.4793 21.5182 28.4711 21.5715C28.463 21.6249 28.4443 21.676 28.4161 21.722C28.388 21.768 28.3509 21.808 28.3072 21.8395C28.2635 21.8711 28.2139 21.8936 28.1613 21.9058Z" fill="white"/>
<defs>
<radialGradient id="paint0_angular_1211_4686" cx="0" cy="0" r="1" gradientUnits="userSpaceOnUse" gradientTransform="translate(24 24) rotate(90) scale(24)">
<stop offset="0.0993526" stop-color="#FFC876"/>
<stop offset="0.427081" stop-color="#79FFF7"/>
<stop offset="0.718753" stop-color="#9F53FF"/>
<stop offset="1" stop-color="#FF98E2"/>
</radialGradient>
</defs>
</svg>
