<svg width="46" height="46" viewBox="0 0 46 46" fill="none" xmlns="http://www.w3.org/2000/svg">
<path d="M17.0053 39.679C14.9182 39.679 13.2263 37.9871 13.2263 35.9L13.2263 13.2263C13.2263 11.1393 14.9182 9.44738 17.0053 9.44738H18.8947H26.4526H28.3421C30.4292 9.44738 32.1211 11.1393 32.1211 13.2263V35.9C32.1211 37.9871 30.4292 39.679 28.3421 39.679H17.0053Z" fill="#252134"/>
<path d="M26.4526 9.44738H28.3421C30.4292 9.44738 32.1211 11.1393 32.1211 13.2263V35.9C32.1211 37.9871 30.4292 39.679 28.3421 39.679H17.0053C14.9182 39.679 13.2263 37.9871 13.2263 35.9L13.2263 13.2263C13.2263 11.1393 14.9182 9.44738 17.0053 9.44738H18.8947M26.4526 9.44738V9.44738C26.4526 7.36032 24.7607 5.66843 22.6737 5.66843V5.66843C20.5866 5.66843 18.8947 7.36032 18.8947 9.44738V9.44738M26.4526 9.44738H18.8947M18.8947 34.0105H26.4526M18.8947 28.3421H26.4526M18.8947 22.6737H26.4526M18.8947 17.0053H26.4526" stroke="#7ADB78" stroke-width="1.88947" stroke-linecap="round" stroke-linejoin="round"/>
</svg>
