<svg width="40" height="40" viewBox="0 0 40 40" fill="none" xmlns="http://www.w3.org/2000/svg">
<path d="M38.5389 24.391C35.9345 34.8375 25.3533 41.1944 14.9056 38.59C4.46288 35.9856 -1.89476 25.4044 0.710272 14.9585C3.31358 4.51083 13.8941 -1.84736 24.3388 0.75713C34.7858 3.36153 41.1428 13.9439 38.5383 24.391H38.5389Z" fill="#F7931A"/>
<path d="M23.9946 16.8571C23.3914 19.2739 19.6681 18.0461 18.4597 17.745L19.5249 13.4733C20.7332 13.7744 24.6235 14.3361 23.9946 16.8571ZM23.3335 23.7503C22.6717 26.4073 18.1988 24.9715 16.7479 24.6108L17.9228 19.9009C19.3731 20.2629 24.0232 20.9796 23.334 23.7503H23.3335ZM28.2225 16.8955C28.61 14.3009 26.6344 12.906 23.933 11.9755L24.8094 8.46066L22.6692 7.92739L21.8161 11.3496C21.2543 11.2095 20.6765 11.0773 20.1026 10.9462L20.9618 7.50148L18.8235 6.96829L17.9466 10.4819C17.4811 10.3759 17.024 10.271 16.5804 10.1608L16.5828 10.1497L13.6322 9.41306L13.0631 11.6982C13.0631 11.6982 14.6505 12.062 14.617 12.0846C15.4835 12.3009 15.6408 12.8742 15.6139 13.3289L14.6157 17.3331C14.6755 17.3483 14.7528 17.3702 14.8382 17.4043L14.6127 17.3484L13.213 22.9576C13.107 23.2208 12.8382 23.6157 12.2326 23.4658C12.2538 23.4969 10.6774 23.0776 10.6774 23.0776L9.61523 25.5273L12.4001 26.2214C12.9181 26.3512 13.4256 26.487 13.9247 26.615L13.0393 30.1707L15.1764 30.7039L16.0539 27.1866C16.637 27.3451 17.2038 27.4913 17.7583 27.629L16.8845 31.1299L19.024 31.6631L19.9094 28.1147C23.5577 28.8051 26.3017 28.5266 27.4553 25.2275C28.3857 22.5706 27.4095 21.0381 25.49 20.038C26.8879 19.7145 27.9409 18.7949 28.2218 16.8955H28.2225Z" fill="white"/>
<path d="M38.5389 24.391C35.9345 34.8375 25.3533 41.1944 14.9056 38.59C4.46288 35.9856 -1.89476 25.4044 0.710272 14.9585C3.31358 4.51083 13.8941 -1.84736 24.3388 0.75713C34.7858 3.36153 41.1428 13.9439 38.5383 24.391H38.5389Z" fill="#F7931A"/>
<path d="M23.9946 16.8571C23.3914 19.2739 19.6681 18.0461 18.4597 17.745L19.5249 13.4733C20.7332 13.7744 24.6235 14.3361 23.9946 16.8571ZM23.3335 23.7503C22.6717 26.4073 18.1988 24.9715 16.7479 24.6108L17.9228 19.9009C19.3731 20.2629 24.0232 20.9796 23.334 23.7503H23.3335ZM28.2225 16.8955C28.61 14.3009 26.6344 12.906 23.933 11.9755L24.8094 8.46066L22.6692 7.92739L21.8161 11.3496C21.2543 11.2095 20.6765 11.0773 20.1026 10.9462L20.9618 7.50148L18.8235 6.96829L17.9466 10.4819C17.4811 10.3759 17.024 10.271 16.5804 10.1608L16.5828 10.1497L13.6322 9.41306L13.0631 11.6982C13.0631 11.6982 14.6505 12.062 14.617 12.0846C15.4835 12.3009 15.6408 12.8742 15.6139 13.3289L14.6157 17.3331C14.6755 17.3483 14.7528 17.3702 14.8382 17.4043L14.6127 17.3484L13.213 22.9576C13.107 23.2208 12.8382 23.6157 12.2326 23.4658C12.2538 23.4969 10.6774 23.0776 10.6774 23.0776L9.61523 25.5273L12.4001 26.2214C12.9181 26.3512 13.4256 26.487 13.9247 26.615L13.0393 30.1707L15.1764 30.7039L16.0539 27.1866C16.637 27.3451 17.2038 27.4913 17.7583 27.629L16.8845 31.1299L19.024 31.6631L19.9094 28.1147C23.5577 28.8051 26.3017 28.5266 27.4553 25.2275C28.3857 22.5706 27.4095 21.0381 25.49 20.038C26.8879 19.7145 27.9409 18.7949 28.2218 16.8955H28.2225Z" fill="white"/>
</svg>
