<svg width="40" height="40" viewBox="0 0 40 40" fill="none" xmlns="http://www.w3.org/2000/svg">
<path d="M38.8977 24.3903C36.2935 34.8355 25.7136 41.1918 15.2672 38.5876C4.82565 35.9834 -1.53124 25.4035 1.07348 14.959C3.67649 4.51248 14.2557 -1.84496 24.6991 0.759132C35.145 3.36332 41.5012 13.9445 38.8971 24.3903H38.8977Z" fill="#F3BA2F"/>
<path d="M15.2059 17.7092L19.9882 12.9288L24.7725 17.7131L27.5536 14.9301L19.9882 7.3627L12.4229 14.9281L15.2059 17.7092Z" fill="white"/>
<path d="M7.67383 19.6755L10.4549 16.8925L13.238 19.6755L10.4549 22.4565L7.67383 19.6755Z" fill="white"/>
<path d="M15.2059 21.6398L19.9882 26.4221L24.7725 21.6379L27.5556 24.417L19.9901 31.9844L12.4229 24.4228L15.2059 21.6398Z" fill="white"/>
<path d="M26.7334 19.6755L29.5145 16.8926L32.2975 19.6736L29.5145 22.4585L26.7334 19.6755Z" fill="white"/>
<path d="M22.8104 19.6736L19.9885 16.8496L17.9017 18.9365L17.6605 19.1757L17.1665 19.6697L19.9885 22.4897L22.8104 19.6755V19.6736Z" fill="white"/>
<path d="M38.8977 24.3903C36.2935 34.8355 25.7136 41.1918 15.2672 38.5876C4.82565 35.9834 -1.53124 25.4035 1.07348 14.959C3.67649 4.51248 14.2557 -1.84496 24.6991 0.759132C35.145 3.36332 41.5012 13.9445 38.8971 24.3903H38.8977Z" fill="#F3BA2F"/>
<path d="M15.2059 17.7092L19.9882 12.9288L24.7725 17.7131L27.5536 14.9301L19.9882 7.3627L12.4229 14.9281L15.2059 17.7092Z" fill="white"/>
<path d="M7.67383 19.6755L10.4549 16.8925L13.238 19.6755L10.4549 22.4565L7.67383 19.6755Z" fill="white"/>
<path d="M15.2059 21.6398L19.9882 26.4221L24.7725 21.6379L27.5556 24.417L19.9901 31.9844L12.4229 24.4228L15.2059 21.6398Z" fill="white"/>
<path d="M26.7334 19.6755L29.5145 16.8926L32.2975 19.6736L29.5145 22.4585L26.7334 19.6755Z" fill="white"/>
<path d="M22.8104 19.6736L19.9885 16.8496L17.9017 18.9365L17.6605 19.1757L17.1665 19.6697L19.9885 22.4897L22.8104 19.6755V19.6736Z" fill="white"/>
</svg>
