<svg width="617" height="471" viewBox="0 0 617 471" fill="none" xmlns="http://www.w3.org/2000/svg">
<mask id="mask0_2482_2694" style="mask-type:luminance" maskUnits="userSpaceOnUse" x="0" y="0" width="617" height="471">
<path d="M617 0H0V471H617V0Z" fill="white"/>
</mask>
<g mask="url(#mask0_2482_2694)">
<path d="M368.183 176.417L398.002 267.814C400.116 274.317 408.106 276.633 413.366 272.272L502.407 198.613C502.407 198.613 407.786 161.611 407.786 163.632C407.786 165.652 368.183 176.417 368.183 176.417Z" fill="#3F3A52"/>
<path d="M603.15 0.768545C544.985 23.8271 357.293 100.91 286.247 130.103C276.856 133.971 277.422 147.446 287.083 150.525L368.207 176.417L397.929 267.518C399.134 271.189 402.133 273.553 405.5 274.169C408.229 274.686 412.261 200.387 412.261 200.387C412.261 200.387 497.54 263.773 537.979 293.681C547.935 301.046 562.17 295.503 564.529 283.333C576.575 221.105 606.714 65.5097 617.014 12.2978C618.563 4.29137 610.696 -2.26157 603.15 0.743909V0.768545Z" fill="url(#paint0_radial_2482_2694)"/>
<path d="M405.499 274.194C408.229 274.711 412.26 200.411 412.26 200.411L552.36 68.5398C553.319 67.6529 552.164 66.1502 551.057 66.8154L368.183 176.417L397.903 267.518C399.108 271.189 402.107 273.553 405.475 274.17L405.499 274.194Z" fill="#252134"/>
<path d="M0 461.476C75.361 461.169 175.54 424.687 195.661 316.247C203.768 272.492 196.566 225.591 170.457 193.658C137.475 153.307 101.258 190.178 110.172 246.522C124.805 339.071 209.871 387.605 274.507 388.577C332.412 388.577 373.838 341.038 386.815 301.06" stroke="url(#paint1_radial_2482_2694)" stroke-width="1.21324" stroke-miterlimit="10"/>
</g>
<defs>
<radialGradient id="paint0_radial_2482_2694" cx="0" cy="0" r="1" gradientUnits="userSpaceOnUse" gradientTransform="translate(426.579 243.356) scale(724.877 547.487)">
<stop stop-color="#C450D5"/>
<stop offset="1" stop-color="#D43E76"/>
</radialGradient>
<radialGradient id="paint1_radial_2482_2694" cx="0" cy="0" r="1" gradientUnits="userSpaceOnUse" gradientTransform="translate(168.458 410.029) scale(830.301 525.098)">
<stop stop-color="#C450D5"/>
<stop offset="1" stop-color="#D43E76"/>
</radialGradient>
</defs>
</svg>
