<svg width="285" height="168" viewBox="0 0 285 168" fill="none" xmlns="http://www.w3.org/2000/svg">
<path fill-rule="evenodd" clip-rule="evenodd" d="M191.368 15.7896C191.368 15.2031 191.368 14.9098 191.36 14.6619C191.099 6.67959 184.689 0.269463 176.706 0.00811775C176.458 0 176.165 0 175.579 0H165.094C156.605 0 152.361 0 149.118 1.65211C146.266 3.10535 143.947 5.42421 142.494 8.27635C140.842 11.5188 140.842 15.7634 140.842 24.2526V29.0527C140.842 34.9315 140.842 37.871 141.646 40.2407C143.161 44.7031 146.665 48.2071 151.127 49.7219C153.497 50.5263 156.437 50.5263 162.315 50.5263H173.684C179.265 50.5263 183.789 55.0507 183.789 60.6318C183.789 66.2129 179.265 70.7373 173.684 70.7373H140.842C140.842 70.7373 140.842 70.7371 140.842 70.7368C140.842 70.7365 140.842 70.7363 140.841 70.7363H114.568C106.079 70.7363 101.834 70.7363 98.5918 72.3884C95.7396 73.8417 93.4208 76.1605 91.9675 79.0127C90.3154 82.2551 90.3154 86.4997 90.3154 94.9889V97.894C90.3154 105.55 90.3154 109.379 91.6666 112.361C93.1843 115.71 95.8679 118.394 99.2174 119.911C102.199 121.263 106.028 121.263 113.684 121.263H137.052C137.053 121.263 137.053 121.263 137.053 121.263C137.053 121.263 137.053 121.264 137.053 121.264H154.105C155.865 121.264 156.745 121.264 157.486 121.337C164.683 122.045 170.376 127.739 171.085 134.936C171.158 135.677 171.158 136.557 171.158 138.316V142.421C171.158 148.005 171.158 150.796 171.885 153.058C173.38 157.711 177.026 161.357 181.679 162.852C183.941 163.579 186.733 163.579 192.316 163.579H197.432C205.921 163.579 210.166 163.579 213.408 161.927C216.26 160.474 218.579 158.155 220.032 155.303C221.685 152.06 221.685 147.816 221.685 139.326V130.105C221.685 128.346 221.685 127.466 221.612 126.725C220.903 119.528 215.209 113.835 208.012 113.126C207.271 113.053 206.391 113.053 204.632 113.053H203.053C202.76 113.053 202.613 113.053 202.489 113.051C194.312 112.917 187.715 106.32 187.581 98.1428C187.579 98.0188 187.579 97.8723 187.579 97.5791C187.579 97.2859 187.579 97.1393 187.581 97.0153C187.715 88.838 194.312 82.2413 202.489 82.1075C202.613 82.1054 202.76 82.1054 203.053 82.1054H210.947C218.603 82.1054 222.431 82.1054 225.413 80.7544C228.763 79.2367 231.447 76.5529 232.964 73.2031C234.315 70.2212 234.315 66.3932 234.315 58.7373V53.0527C234.315 47.1739 234.315 44.2344 233.511 41.8647C231.996 37.4023 228.492 33.8983 224.03 32.3835C221.66 31.5791 218.721 31.5791 212.842 31.5791H207.158C206.571 31.5791 206.278 31.5791 206.03 31.571C198.048 31.3096 191.638 24.8995 191.376 16.9172C191.368 16.6693 191.368 16.376 191.368 15.7896ZM50.5263 95.3682C50.5263 88.8977 50.5263 85.6624 49.5547 83.0811C48.0171 78.9959 44.7931 75.7719 40.7079 74.2343C38.1266 73.2627 34.8913 73.2627 28.4209 73.2627H24.2526C15.7634 73.2627 11.5188 73.2627 8.27635 74.9148C5.42421 76.368 3.10535 78.6869 1.65211 81.539C0 84.7815 0 89.0261 0 97.5153V107.684C0 108.563 0 109.003 0.0182663 109.375C0.400878 117.162 6.62743 123.388 14.414 123.771C14.7857 123.789 15.2256 123.789 16.1055 123.789C16.9853 123.789 17.4252 123.789 17.797 123.807C25.5835 124.19 31.8101 130.416 32.1927 138.203C32.2109 138.575 32.2109 139.015 32.2109 139.894V145.894C32.2109 152.365 32.2109 155.6 33.1825 158.182C34.7201 162.267 37.9442 165.491 42.0293 167.028C44.6107 168 47.8459 168 54.3164 168H58.4846C66.9738 168 71.2185 168 74.4609 166.348C77.313 164.895 79.6319 162.576 81.0851 159.724C82.7373 156.481 82.7373 152.237 82.7373 143.747V133.579C82.7373 132.699 82.7373 132.259 82.719 131.888C82.3364 124.101 76.1098 117.875 68.3233 117.492C67.9516 117.474 67.5116 117.474 66.6318 117.474C65.7519 117.474 65.312 117.474 64.9403 117.455C57.1537 117.073 50.9272 110.846 50.5446 103.06C50.5263 102.688 50.5263 102.248 50.5263 101.368V95.3682ZM234.315 55.8317C234.315 47.3425 234.315 43.0979 235.968 39.8555C237.421 37.0033 239.74 34.6845 242.592 33.2312C245.834 31.5791 250.079 31.5791 258.568 31.5791H260.589C269.078 31.5791 273.323 31.5791 276.565 33.2312C279.418 34.6845 281.736 37.0033 283.19 39.8555C284.842 43.0979 284.842 47.3425 284.842 55.8317V57.8528C284.842 66.342 284.842 70.5866 283.19 73.8291C281.736 76.6812 279.418 79.0001 276.565 80.4533C273.323 82.1054 269.078 82.1054 260.589 82.1054H258.568C250.079 82.1054 245.834 82.1054 242.592 80.4533C239.74 79.0001 237.421 76.6812 235.968 73.8291C234.315 70.5866 234.315 66.342 234.315 57.8528V55.8317Z" fill="#15131D"/>
</svg>
