<svg width="232" height="214" viewBox="0 0 232 214" fill="none" xmlns="http://www.w3.org/2000/svg">
<path fill-rule="evenodd" clip-rule="evenodd" d="M181.179 16C181.179 7.16344 174.016 0 165.179 0H138.734C129.898 0 122.734 7.16345 122.734 16V42.4446C122.734 51.2811 129.898 58.4446 138.734 58.4446H157.143C165.979 58.4446 173.143 65.608 173.143 74.4446V76.7805C173.143 85.6171 180.306 92.7805 189.143 92.7805H215.587C224.424 92.7805 231.587 85.6171 231.587 76.7805V50.3359C231.587 41.4994 224.424 34.3359 215.587 34.3359H197.179C188.342 34.3359 181.179 27.1725 181.179 18.3359V16ZM9.19708e-06 74.4443C9.19708e-06 65.6078 7.16346 58.4443 16 58.4443H42.4446C51.2812 58.4443 58.4446 65.6078 58.4446 74.4443V92.8535C58.4446 101.69 65.608 108.854 74.4446 108.854H94.3137C103.15 108.854 110.314 116.017 110.314 124.854V151.298C110.314 160.135 103.15 167.298 94.3137 167.298H74.4446C65.608 167.298 58.4446 174.462 58.4446 183.298V197.323C58.4446 206.159 51.2811 213.323 42.4446 213.323H16C7.16345 213.323 0 206.159 0 197.323V170.878C0 162.042 7.16345 154.878 16 154.878H35.8691C44.7057 154.878 51.8691 147.715 51.8691 138.878V132.889C51.8691 124.052 44.7057 116.889 35.8691 116.889H16C7.16345 116.889 9.19708e-06 109.725 9.19708e-06 100.889V74.4443Z" fill="#15131D"/>
</svg>
