<svg width="40" height="40" viewBox="0 0 40 40" fill="none" xmlns="http://www.w3.org/2000/svg">
<mask id="mask0_983_7251" style="mask-type:alpha" maskUnits="userSpaceOnUse" x="0" y="0" width="40" height="40">
<circle cx="19.684" cy="19.6713" r="19.4977" fill="#D9D9D9"/>
</mask>
<g mask="url(#mask0_983_7251)">
<g filter="url(#filter0_di_983_7251)">
<rect x="-16.635" y="-13.5898" width="102.459" height="66.904" fill="#3F3A52"/>
</g>
</g>
<g opacity="0.6">
<mask id="mask1_983_7251" style="mask-type:luminance" maskUnits="userSpaceOnUse" x="13" y="16" width="14" height="8">
<path d="M13.033 16.8513H26.3222V23.8003H13.033V16.8513Z" fill="white"/>
</mask>
<g mask="url(#mask1_983_7251)">
<path d="M19.6782 16.8513L13.0322 19.8739L19.6782 23.8003L26.3215 19.8739L19.6782 16.8513Z" fill="white"/>
</g>
</g>
<g opacity="0.45">
<mask id="mask2_983_7251" style="mask-type:luminance" maskUnits="userSpaceOnUse" x="13" y="8" width="7" height="16">
<path d="M13.033 8.84644H19.6789V23.7998H13.033V8.84644Z" fill="white"/>
</mask>
<g mask="url(#mask2_983_7251)">
<path d="M13.0322 19.8736L19.6782 23.8001V8.84668L13.0322 19.8736Z" fill="white"/>
</g>
</g>
<g opacity="0.8">
<mask id="mask3_983_7251" style="mask-type:luminance" maskUnits="userSpaceOnUse" x="19" y="8" width="8" height="16">
<path d="M19.6746 8.84644H26.3205V23.7998H19.6746V8.84644Z" fill="white"/>
</mask>
<g mask="url(#mask3_983_7251)">
<path d="M19.675 8.84644V23.7998L26.3184 19.8734L19.675 8.84644Z" fill="white"/>
</g>
</g>
<g opacity="0.45">
<mask id="mask4_983_7251" style="mask-type:luminance" maskUnits="userSpaceOnUse" x="13" y="21" width="7" height="10">
<path d="M13.033 21.1328H19.6789V30.4957H13.033V21.1328Z" fill="white"/>
</mask>
<g mask="url(#mask4_983_7251)">
<path d="M13.0322 21.1328L19.6782 30.4957V25.0593L13.0322 21.1328Z" fill="white"/>
</g>
</g>
<g opacity="0.8">
<mask id="mask5_983_7251" style="mask-type:luminance" maskUnits="userSpaceOnUse" x="19" y="21" width="8" height="10">
<path d="M19.6746 21.1328H26.3231V30.4957H19.6746V21.1328Z" fill="white"/>
</mask>
<g mask="url(#mask5_983_7251)">
<path d="M19.675 25.0593V30.4957L26.3236 21.1328L19.675 25.0593Z" fill="white"/>
</g>
</g>
<defs>
<filter id="filter0_di_983_7251" x="-86.8022" y="-68.1644" width="242.793" height="207.239" filterUnits="userSpaceOnUse" color-interpolation-filters="sRGB">
<feFlood flood-opacity="0" result="BackgroundImageFix"/>
<feColorMatrix in="SourceAlpha" type="matrix" values="0 0 0 0 0 0 0 0 0 0 0 0 0 0 0 0 0 0 127 0" result="hardAlpha"/>
<feMorphology radius="7.79636" operator="dilate" in="SourceAlpha" result="effect1_dropShadow_983_7251"/>
<feOffset dy="15.5927"/>
<feGaussianBlur stdDeviation="31.1854"/>
<feComposite in2="hardAlpha" operator="out"/>
<feColorMatrix type="matrix" values="0 0 0 0 0 0 0 0 0 0 0 0 0 0 0 0 0 0 0.08 0"/>
<feBlend mode="normal" in2="BackgroundImageFix" result="effect1_dropShadow_983_7251"/>
<feBlend mode="normal" in="SourceGraphic" in2="effect1_dropShadow_983_7251" result="shape"/>
<feColorMatrix in="SourceAlpha" type="matrix" values="0 0 0 0 0 0 0 0 0 0 0 0 0 0 0 0 0 0 127 0" result="hardAlpha"/>
<feOffset dy="15.5927"/>
<feGaussianBlur stdDeviation="14.2284"/>
<feComposite in2="hardAlpha" operator="arithmetic" k2="-1" k3="1"/>
<feColorMatrix type="matrix" values="0 0 0 0 0.375 0 0 0 0 0.375 0 0 0 0 0.375 0 0 0 0.25 0"/>
<feBlend mode="normal" in2="shape" result="effect2_innerShadow_983_7251"/>
</filter>
</defs>
</svg>
