<svg width="1362" height="576" viewBox="0 0 1362 576" fill="none" xmlns="http://www.w3.org/2000/svg">
<path d="M1362 62.3574C1362 62.3574 983 -77.9468 681 62.3574C379 202.662 0 62.3574 0 62.3574V576H1362V62.3574Z" fill="#15131D"/>
<mask id="mask0_720_265" style="mask-type:alpha" maskUnits="userSpaceOnUse" x="0" y="0" width="1362" height="576">
<path d="M1362 62.3574C1362 62.3574 983 -77.9468 681 62.3574C379 202.662 0 62.3574 0 62.3574V576H1362V62.3574Z" fill="#15131D"/>
</mask>
<g mask="url(#mask0_720_265)">
<g opacity="0.3">
<path d="M-25.9071 232.383C7.2069 186.168 66.9767 174.893 118.231 188.929C140.426 195.01 161.646 204.982 181.988 217.185C208.572 233.085 233.546 252.331 259.155 269.371C311.251 303.97 365.455 327.579 424.164 326.975C469.79 326.576 513.978 320.424 556.07 304.949C587.137 293.611 614.586 273.976 638.585 247.955C649.239 236.312 659.311 223.623 669.132 210.298C688.812 183.533 707.557 155.042 729.082 131.459C753.596 104.618 782.513 84.4572 816.816 81.5077C826.856 80.6028 836.648 80.7675 846.444 82.6384C887.477 90.5509 921.186 125.092 956.039 160.405C971.454 176.052 987.228 191.334 1002.27 204.979C1019.18 220.373 1036.12 233.947 1052.36 245.11C1084.05 266.688 1113.2 281.242 1140.27 280.58C1158.71 280.138 1173.32 271.695 1190.99 261.473C1227.04 240.685 1276.74 205.656 1329.72 169.597C1344.38 159.607 1359.29 149.594 1374.52 139.99C1442.97 96.3966 1516.81 60.7104 1583.77 44.5091" stroke="#B972CE" stroke-width="1.04682" stroke-miterlimit="10"/>
<path d="M-27.0337 225.718C6.91878 180.138 66.4462 168.886 117.88 182.741C140.114 188.707 161.436 198.724 181.738 211.041C208.245 227.169 233.102 246.757 258.377 264.434C309.906 300.354 363.114 326.535 421.867 327.523C467.551 328.33 511.806 324.043 554.348 310.342C585.958 300.163 613.619 281.279 638.089 255.598C648.907 244.159 659.081 231.515 669.106 218.281C689.091 191.652 708.243 163.342 729.997 140.123C754.839 113.691 784.135 94.4848 818.723 93.1044C828.811 92.7454 838.588 93.2969 848.23 95.623C888.845 105.447 921.259 141.378 956.214 176.736C971.629 192.383 987.622 207.369 1003.16 220.581C1020.51 235.383 1037.9 247.978 1054.65 257.662C1087.12 276.577 1116.83 287.444 1142.47 282.735C1160.46 279.473 1173.25 268.122 1189.59 255.604C1223.04 229.725 1271.37 190.808 1324.36 152.657C1338.97 142.121 1354.03 131.653 1369.42 121.593C1438.82 76.5881 1515.25 42.5807 1583.94 30.9489" stroke="#AF77CF" stroke-width="1.04682" stroke-miterlimit="10"/>
<path d="M-28.0209 218.987C6.73115 174.156 66.0938 162.7 117.668 176.486C139.902 182.452 161.263 192.356 181.628 204.832C208.096 221.073 232.759 241.23 257.699 259.545C308.622 296.899 360.734 325.607 419.569 328.074C465.31 330.086 509.633 327.665 552.625 315.737C584.739 306.831 612.754 288.629 637.552 263.357C648.536 252.122 658.875 239.683 669.103 226.539C689.456 200.206 708.851 171.873 731.036 149.108C756.31 123.13 785.779 104.788 820.856 105.067C830.93 105.095 840.615 106.261 850.242 108.974C890.337 120.664 921.661 158.076 956.615 193.434C972.132 209.126 988.304 223.929 1004.18 236.504C1022 250.6 1039.85 262.216 1057.02 270.648C1090.18 286.855 1120.62 293.853 1144.71 285.439C1162.26 279.357 1173.18 265.211 1188.28 250.17C1219.09 219.314 1266.12 176.282 1318.98 136.106C1333.59 124.91 1348.8 113.987 1364.37 103.745C1434.72 57.3279 1513.75 24.9992 1584.16 17.9368" stroke="#A57CD1" stroke-width="1.04682" stroke-miterlimit="10"/>
<path d="M-29.1492 212.324C6.30067 168.198 65.5615 156.696 117.315 170.299C139.588 176.152 161.05 186.101 181.338 198.804C207.728 215.273 232.275 235.772 256.982 254.769C307.337 293.444 358.455 324.725 417.333 328.784C463.132 332.002 507.624 331.491 550.964 321.291C583.582 313.659 611.951 296.138 637.079 271.275C648.227 260.245 658.769 247.896 669.099 234.798C689.758 208.6 709.56 180.448 731.972 158.047C757.537 132.591 787.321 115.045 822.926 116.871C833.048 117.444 842.719 118.997 852.19 122.165C891.868 135.767 922.037 174.5 956.851 209.927C972.33 225.733 988.86 240.172 1005.03 252.223C1023.19 265.68 1041.73 276.294 1059.26 283.315C1093.22 296.859 1124.33 299.83 1146.87 287.711C1163.95 278.536 1173.17 261.799 1186.88 244.304C1215.08 208.357 1260.75 161.437 1313.56 119.009C1328.25 107.199 1343.48 95.8889 1359.31 85.2374C1430.65 37.2941 1512.29 6.91724 1584.46 4.31045" stroke="#9B81D2" stroke-width="1.04682" stroke-miterlimit="10"/>
<path d="M-30.2766 205.66C6.01175 162.169 65.0302 150.691 116.862 164.067C139.275 169.851 160.737 179.8 181.088 192.663C207.44 209.245 231.729 230.154 256.203 249.834C305.952 289.943 356.114 323.682 414.933 329.288C460.79 333.712 505.349 335.066 549.14 326.64C582.261 320.281 610.984 303.441 636.48 278.874C647.793 268.048 658.437 255.745 668.97 242.737C689.935 216.676 710.003 188.773 732.784 166.667C758.678 141.62 788.739 124.984 824.833 128.469C834.94 129.429 844.659 131.528 853.873 135.106C893.032 150.574 922.11 190.788 956.924 226.214C972.504 242.065 989.214 256.322 1005.82 267.781C1024.41 280.647 1043.4 290.281 1061.41 295.937C1096.05 306.772 1127.77 305.556 1148.88 290.05C1165.46 277.896 1172.88 258.524 1185.3 238.619C1210.9 197.581 1255.1 146.728 1308.02 102.253C1322.67 89.8969 1338.09 78.0178 1353.99 67.1386C1426.28 17.7832 1510.52 -10.9148 1584.41 -8.95218" stroke="#9187D4" stroke-width="1.04682" stroke-miterlimit="10"/>
<path d="M-31.2648 198.928C5.82317 156.186 64.6769 144.503 116.649 157.81C139.062 163.594 160.665 173.475 180.977 186.451C207.353 203.307 231.385 224.626 255.525 244.943C304.706 286.373 353.873 322.684 412.736 329.882C458.65 335.511 503.277 338.731 547.518 332.079C581.143 326.992 610.117 310.79 636.045 286.676C647.421 276.01 658.332 263.956 668.966 250.994C690.197 225.182 710.61 197.302 733.682 175.718C760.007 151.126 790.28 135.239 826.864 140.384C837.058 141.777 846.621 144.331 855.782 148.409C894.524 165.789 922.409 207.438 957.184 242.979C972.764 258.83 989.692 272.79 1006.7 283.771C1025.73 296.044 1045.21 304.586 1063.67 308.876C1099.07 317.162 1131.23 311.555 1150.96 292.548C1166.96 277.255 1172.7 255.292 1183.72 232.934C1206.62 186.759 1249.58 131.95 1302.41 85.3363C1317.05 72.321 1332.49 60.055 1348.75 48.8113C1422.03 -2.07011 1508.82 -28.9754 1584.48 -22.5572" stroke="#878CD5" stroke-width="1.04682" stroke-miterlimit="10"/>
<path d="M-32.3904 192.265C5.49721 150.273 64.1473 138.499 116.26 151.738C138.712 157.408 160.417 167.334 180.69 180.424C207.027 197.394 230.904 219.168 254.709 240.123C303.322 282.873 351.456 321.87 410.299 330.502C456.17 337.291 500.965 342.422 545.657 337.543C579.887 333.775 609.113 318.209 635.37 294.504C646.911 284.042 658.026 272.079 668.864 259.207C690.502 233.577 711.22 205.832 734.621 184.658C761.276 160.474 791.826 145.497 828.796 152.257C838.937 154.15 848.587 157.136 857.593 161.669C895.815 180.916 922.609 224.045 957.283 259.541C972.824 275.505 990.111 289.101 1007.41 299.558C1026.88 311.239 1046.81 318.802 1065.74 321.726C1101.83 327.304 1134.39 317.419 1152.9 295.116C1168.23 276.64 1172.33 252.246 1182.11 227.364C1202.37 176.213 1244 117.402 1296.84 68.6953C1311.57 55.0656 1327.06 42.299 1343.4 30.8277C1417.63 -21.4658 1506.97 -46.5785 1584.39 -35.7046" stroke="#7D91D7" stroke-width="1.04682" stroke-miterlimit="10"/>
<path d="M-33.4155 185.646C5.31056 144.289 63.7183 132.539 116.01 145.595C138.603 151.197 160.308 161.123 180.542 174.327C206.801 191.524 230.562 213.639 254.095 235.391C302.102 279.575 349.281 321.031 408.166 331.255C454.095 339.25 499.02 346.405 544.099 343.141C578.833 340.645 608.413 325.761 635.039 302.351C646.783 291.98 657.96 280.177 669.002 267.395C690.907 242.015 711.969 214.292 735.7 193.526C762.786 169.797 793.548 155.571 831.008 163.99C841.236 166.315 850.731 169.756 859.683 174.791C897.527 195.835 923.089 240.513 957.762 276.008C973.405 292.019 990.872 305.432 1008.61 315.297C1028.51 326.386 1049.03 332.901 1068.33 334.414C1105.21 337.329 1138.04 323.235 1155.36 297.522C1169.92 275.816 1172.53 248.923 1180.97 221.746C1198.53 165.458 1238.89 102.805 1291.68 51.8464C1306.36 37.6708 1322.01 24.449 1338.61 12.5677C1413.82 -41.2516 1505.82 -64.5264 1584.97 -49.083" stroke="#7396D8" stroke-width="1.04682" stroke-miterlimit="10"/>
<path d="M-34.5059 178.87C4.91794 138.217 63.2627 126.308 115.593 139.251C138.186 144.852 160.032 154.71 180.29 168.187C206.511 185.498 230.077 208.182 253.315 230.458C300.754 275.962 346.836 319.945 405.765 331.762C451.751 340.962 496.744 349.982 542.273 348.491C577.511 347.269 607.343 333.021 634.4 310.066C646.308 299.899 657.651 288.3 668.794 275.564C691.004 250.319 712.473 222.778 736.432 202.376C763.848 179.056 794.784 165.693 832.835 175.818C843.15 178.575 852.592 182.516 861.389 188.006C898.713 210.917 923.222 256.962 957.755 292.526C973.36 308.65 991.185 321.699 1009.22 331.039C1029.49 341.377 1050.53 347.073 1070.3 347.22C1107.92 347.586 1140.91 329.238 1157.24 299.931C1170.98 275.111 1172.09 245.718 1179.29 216.018C1194.25 154.639 1233.13 88.0532 1286.03 35.0466C1300.71 20.2114 1316.51 6.53435 1333.29 -5.52924C1409.46 -60.7607 1504.05 -82.3566 1584.92 -62.3438" stroke="#699CD9" stroke-width="1.04682" stroke-miterlimit="10"/>
<path d="M-35.5315 172.252C4.69198 132.348 62.8332 120.348 115.343 133.109C137.975 138.597 159.922 148.499 180.142 162.09C206.285 179.629 229.633 202.609 252.638 225.568C299.47 272.507 344.558 319.062 403.467 332.311C449.511 342.717 494.673 353.648 540.551 353.886C576.253 354.05 606.478 340.371 633.864 317.824C645.938 307.862 657.382 296.308 668.831 283.708C691.307 258.713 713.121 231.194 737.409 211.201C765.115 188.403 796.405 175.722 834.906 187.62C845.207 190.764 854.595 195.207 863.338 201.197C900.245 226.019 923.562 273.5 958.095 309.063C973.801 325.232 991.806 338.099 1010.28 346.848C1030.99 356.593 1052.51 361.196 1072.74 359.977C1111.06 357.635 1144.31 335.078 1159.56 302.407C1172.49 274.471 1172.01 242.533 1178.02 210.47C1190.13 144.022 1227.93 73.412 1280.7 18.3811C1295.42 3.04529 1311.28 -11.1323 1328.21 -23.6511C1405.37 -80.4084 1502.52 -100.212 1585.11 -75.6295" stroke="#5FA1DB" stroke-width="1.04682" stroke-miterlimit="10"/>
<path d="M-36.6579 165.588C4.36524 126.433 62.3029 114.342 114.992 126.921C137.765 132.34 159.712 142.243 179.893 155.947C206.06 173.759 229.19 197.035 251.923 220.79C298.188 269.05 342.281 318.177 401.233 333.019C447.335 344.631 492.525 357.541 538.892 359.438C575.2 360.921 605.676 347.878 633.392 325.74C645.631 315.982 657.278 304.519 668.829 291.964C691.611 267.105 713.73 239.722 738.347 220.138C766.485 197.795 798.09 185.91 836.876 199.377C847.264 202.953 856.599 207.895 865.226 214.227C901.613 240.915 923.838 289.877 958.371 325.44C974.077 341.61 992.301 354.18 1011.17 362.45C1032.32 371.603 1054.4 375.273 1074.99 372.643C1114.1 367.638 1147.43 341.054 1161.61 304.631C1173.69 273.694 1171.8 239.029 1176.52 204.556C1185.99 133.132 1222.46 58.5201 1275.17 1.23707C1289.89 -14.7584 1305.9 -29.3913 1323.01 -42.0924C1401.12 -100.262 1500.82 -118.272 1585.22 -89.3484" stroke="#55A6DC" stroke-width="1.04682" stroke-miterlimit="10"/>
<path d="M-37.7476 158.81C4.11391 120.291 61.7462 108.064 114.678 120.619C137.451 126.039 159.436 135.827 179.68 149.691C205.808 167.616 228.745 191.462 251.181 215.741C296.84 265.434 339.977 317.021 398.871 333.41C445.03 346.227 490.249 361.116 537.105 364.673C573.917 367.429 604.645 355.022 632.831 333.225C645.234 323.671 657.047 312.412 668.699 299.903C691.889 275.225 714.312 247.978 739.259 228.803C767.727 206.868 799.647 195.779 838.884 211.02C849.217 215.096 858.499 220.54 867.111 227.258C903.081 255.858 924.012 306.209 958.545 341.773C974.314 358.101 992.755 370.376 1011.96 378.008C1033.54 386.569 1056.11 389.146 1077.17 385.15C1117.03 377.596 1150.53 346.758 1163.67 306.856C1174.89 272.918 1171.65 235.684 1175.02 198.644C1181.89 122.128 1216.88 43.5834 1269.71 -15.7472C1284.42 -32.4024 1300.54 -47.3766 1317.91 -60.4877C1397.01 -120.183 1499.37 -136.356 1585.39 -102.908" stroke="#4BABDE" stroke-width="1.04682" stroke-miterlimit="10"/>
<path d="M-38.7734 152.193C3.78595 114.378 61.3164 102.106 114.326 114.433C137.137 119.739 159.225 129.573 179.532 143.596C205.582 161.749 228.402 185.936 250.465 210.966C295.556 261.98 337.66 316.252 396.636 334.12C442.853 348.142 488.241 364.942 535.344 370.182C572.62 374.325 603.741 362.486 632.358 341.143C644.824 331.749 656.84 320.581 668.798 308.207C692.254 283.779 715.022 256.554 740.299 237.788C769.197 216.308 801.33 205.969 841.056 222.869C851.477 227.378 860.705 233.322 869.06 240.45C904.511 270.916 924.35 322.748 958.844 358.425C974.613 374.754 993.375 386.778 1012.98 393.932C1035 401.9 1058.12 403.543 1079.54 398.137C1120.15 388.033 1153.77 353.054 1165.95 309.447C1176.22 272.462 1171.62 232.66 1173.7 193.21C1177.97 111.603 1211.6 29.1712 1264.37 -32.4114C1279.13 -49.5672 1295.35 -65.1559 1312.8 -78.4946C1392.85 -139.602 1497.8 -154.096 1585.64 -116.033" stroke="#41B1DF" stroke-width="1.04682" stroke-miterlimit="10"/>
<path d="M-39.9014 145.53C3.45765 108.465 60.7846 96.1022 113.935 108.361C136.887 113.598 158.974 123.432 179.242 137.569C205.254 155.836 227.918 180.478 249.647 206.146C294.132 258.594 335.28 315.325 394.196 334.739C440.472 349.968 485.849 368.86 533.48 375.646C571.222 381.176 602.735 369.905 631.682 348.971C644.313 339.781 656.532 328.704 668.592 316.375C692.353 292.083 715.528 265.04 741.032 246.637C770.26 225.566 802.747 215.908 842.884 234.696C853.291 239.592 862.465 246.036 870.767 253.665C905.8 286.043 924.485 339.196 958.941 374.987C974.812 391.361 993.752 403.203 1013.69 409.719C1036.04 417.05 1059.76 417.645 1081.65 410.873C1123.05 398.107 1156.75 359.101 1167.93 311.901C1177.34 271.915 1171.33 229.386 1172.12 187.527C1173.65 100.897 1206.08 14.3954 1258.83 -49.1662C1273.58 -66.9817 1289.92 -82.9119 1307.62 -96.6605C1388.66 -159.294 1496.13 -171.881 1585.74 -129.363" stroke="#37B6E1" stroke-width="1.04682" stroke-miterlimit="10"/>
<path d="M-40.8871 138.798C22.3615 86.7286 112.145 83.704 179.134 131.358C258.118 187.499 304.071 304.05 392.04 335.22C438.373 351.654 483.818 372.412 531.899 380.971C586.936 390.793 628.468 364.581 668.668 324.405C720.272 272.788 768.997 207.96 844.995 246.385C899.905 274.109 916.732 347.148 959.218 391.365C992.81 426.248 1041.84 438.901 1084.03 423.471C1126.23 408.041 1159.98 365.123 1170.19 314.217C1178.75 271.229 1171.28 226.087 1170.83 181.705C1169.44 64.4152 1220.64 -50.9651 1302.63 -115.011C1384.61 -179.056 1494.78 -189.919 1586.01 -142.877" stroke="#2DBBE2" stroke-width="1.04682" stroke-miterlimit="10"/>
<path d="M-39.825 150.807C22.1712 104.472 110.553 103.839 177.46 150.014C210.984 173.068 238.949 206.232 266.74 238.531C295.151 271.762 323.145 304.153 356.82 325.045C367.677 331.714 379.125 337.335 391.296 341.181C437.116 355.682 482.125 374.28 530.158 382.293C584.598 391.456 626.097 367.065 666.14 330.096C675.363 321.617 684.46 312.82 693.62 304.182C720.561 278.816 747.938 255.609 780.389 250.525C798.612 247.626 818.351 250.253 840.433 261.133C894.903 287.744 913.258 355.958 955.202 396.263C960.76 401.622 966.756 406.388 972.983 410.472C1004.12 430.891 1042.68 435.737 1076.81 421.959C1117.73 405.44 1150.61 362.66 1161.08 312.39C1169.97 269.811 1163.91 225.03 1164.47 181.101C1165.44 105.369 1188.15 30.5319 1226.55 -29.4557C1247.08 -61.4765 1272.15 -89.2512 1300.64 -110.913C1352.79 -150.36 1415.89 -168.67 1478.62 -165.254C1514.64 -163.248 1550.51 -153.961 1583.96 -137.232" stroke="#33B4E3" stroke-width="1.04682" stroke-miterlimit="10"/>
<path d="M-38.6602 162.861C21.9817 122.216 109.064 124.019 175.99 168.762C209.606 191.201 237.95 222.567 265.955 252.864C294.658 283.865 322.779 313.821 356.425 332.734C367.234 338.858 378.571 343.774 390.655 347.188C436.063 359.801 480.496 376.307 528.379 383.73C582.083 392.302 623.726 369.548 663.511 335.742C672.743 327.923 681.772 320.013 690.903 312.149C717.615 289.171 744.381 268.446 776.405 264.613C794.458 262.556 814.018 265.365 835.809 275.723C889.799 301.334 909.722 364.608 951.124 401.002C956.634 405.815 962.479 409.99 968.62 413.642C999.159 431.696 1036.54 434.837 1069.56 420.175C1109.22 402.566 1141.19 360.037 1152.01 310.449C1161.33 268.325 1156.43 223.928 1158.25 180.43C1161.06 105.513 1184.97 31.6065 1223.91 -27.2219C1244.88 -58.7884 1270.2 -85.9267 1298.94 -106.952C1351.28 -145.262 1414.18 -162.616 1477.01 -159.155C1513.03 -157.148 1548.74 -148.066 1582.16 -131.61" stroke="#38ADE5" stroke-width="1.04682" stroke-miterlimit="10"/>
<path d="M-37.4962 174.916C21.8932 140.005 107.612 144.086 174.457 187.349C208.102 209.015 236.849 238.856 265.247 266.969C294.304 295.9 322.63 323.194 356.107 340.196C366.906 345.659 378.195 350.03 390.09 352.966C435.087 363.693 479.021 377.879 526.817 384.869C579.963 392.669 621.533 371.849 661.163 341.251C670.264 334.16 679.365 327.069 688.326 320.047C714.771 299.572 741.002 281.099 772.561 278.632C790.381 277.259 809.863 280.295 831.325 290.244C884.874 314.741 906.185 373.259 947.287 405.717C952.749 409.984 958.507 413.727 964.561 416.947C994.5 432.636 1030.71 434.074 1062.72 418.571C1101.17 400.031 1132.18 357.596 1143.35 308.69C1153.04 266.861 1149.5 222.939 1152.33 179.894C1157.07 105.839 1182 32.7714 1221.58 -24.8524C1242.98 -55.9647 1268.55 -82.4665 1297.4 -102.786C1349.94 -139.959 1412.63 -156.358 1475.46 -152.897C1511.34 -150.822 1547.09 -141.853 1580.57 -125.897" stroke="#3EA6E6" stroke-width="1.04682" stroke-miterlimit="10"/>
<path d="M-36.331 186.971C21.8448 157.682 106.123 164.267 172.988 206.098C206.764 227.035 235.851 255.192 264.565 281.348C294.015 308.094 322.405 332.794 355.815 347.932C366.565 352.849 377.704 356.629 389.551 359.019C434.097 367.972 477.494 379.952 525.241 386.397C577.69 393.493 619.327 374.538 658.738 346.988C667.809 340.671 676.881 334.354 685.813 328.105C712.029 310.019 737.688 293.913 768.781 292.812C786.47 292.167 805.656 295.727 826.866 305.039C879.974 328.422 902.712 382.069 943.374 410.661C948.749 414.496 954.459 417.693 960.362 420.322C989.701 433.646 1024.63 433.334 1055.64 416.992C1092.82 397.362 1122.82 355.133 1134.48 306.84C1144.5 265.42 1142.36 221.86 1146.32 179.313C1152.93 105.96 1179.02 33.9374 1219.29 -22.5957C1241.11 -53.2538 1267 -78.9599 1295.94 -98.8477C1348.68 -134.884 1411.2 -150.44 1474.06 -146.706C1509.93 -144.631 1545.51 -135.867 1578.97 -120.184" stroke="#43A0E8" stroke-width="1.04682" stroke-miterlimit="10"/>
<path d="M-35.2297 198.867C21.6935 175.313 104.57 184.289 171.392 224.528C205.159 244.805 234.789 271.369 263.794 295.295C293.498 319.925 322.053 342.077 355.434 355.236C366.175 359.493 377.266 362.727 388.923 364.64C433.059 371.705 475.918 381.48 523.515 387.333C575.368 393.771 617.01 376.522 656.225 352.294C665.306 346.636 674.31 341.206 683.173 335.845C709.059 320.103 734.31 306.568 764.976 306.719C782.534 306.802 801.477 310.385 822.421 319.448C874.972 342.058 899.355 390.538 939.475 415.218C944.802 418.507 950.463 421.159 956.139 423.424C984.736 434.452 1018.63 432.368 1048.54 415.14C1084.55 394.466 1113.57 352.33 1125.55 304.832C1135.9 263.821 1135.12 220.736 1140.14 178.529C1148.68 106.037 1175.88 34.8993 1216.69 -20.4746C1238.95 -50.6785 1265.08 -75.7481 1294.14 -94.9309C1347.07 -129.83 1409.39 -144.43 1472.34 -140.651C1508.08 -138.508 1543.6 -129.903 1577.11 -114.72" stroke="#4999E9" stroke-width="1.04682" stroke-miterlimit="10"/>
<path d="M-34.0655 210.923C21.6052 193.103 103.119 204.357 169.82 243.23C203.616 262.735 233.688 287.66 263.009 309.629C293.106 332.074 321.725 351.633 355.039 362.926C365.77 366.524 376.672 369.28 388.281 370.647C432.005 375.825 474.327 383.394 521.837 388.815C572.992 394.549 614.701 379.166 653.697 357.986C662.749 353.102 671.724 348.446 680.456 343.812C706.113 330.459 730.791 319.291 760.991 320.808C778.317 321.574 797.143 325.499 817.796 334.038C870.008 355.58 895.818 399.19 935.397 419.958C940.675 422.701 946.147 424.875 951.877 426.639C979.874 435.303 1012.59 431.514 1041.49 413.446C1076.23 391.683 1104.35 349.799 1116.69 302.983C1127.37 262.381 1127.89 219.612 1134.12 177.949C1144.5 106.272 1173 36.1105 1214.25 -18.1494C1236.94 -47.8992 1263.33 -72.3322 1292.54 -90.9238C1345.57 -124.731 1407.67 -138.376 1470.73 -134.551C1506.46 -132.408 1541.92 -123.962 1575.45 -109.166" stroke="#4F92EA" stroke-width="1.04682" stroke-miterlimit="10"/>
<path d="M-32.8999 222.976C21.4165 210.846 101.732 224.581 168.351 261.976C202.279 280.752 232.651 304.107 262.366 323.892C292.817 344.266 321.64 361.163 354.785 370.546C365.469 373.598 376.361 375.694 387.781 376.584C431.055 379.988 472.98 385.283 520.238 390.068C570.758 395.257 612.51 381.466 651.311 363.608C660.373 359.383 669.279 355.614 677.943 351.868C703.333 341.018 727.54 332.262 757.212 334.985C774.367 336.593 793.014 340.7 813.376 348.718C865.109 369.259 892.345 407.998 931.523 424.786C936.753 426.983 942.138 428.725 947.678 430.012C975.075 436.311 1006.51 430.773 1034.41 411.865C1067.88 389.012 1095.1 347.379 1107.82 301.132C1118.87 260.824 1120.85 218.577 1128.05 177.207C1140.46 106.437 1169.96 37.1153 1211.86 -15.9401C1234.98 -45.2356 1261.58 -68.9184 1290.94 -86.9188C1344.17 -119.589 1406.06 -132.278 1469.19 -128.294C1504.78 -126.082 1540.17 -117.796 1573.71 -103.387" stroke="#548BEC" stroke-width="1.04682" stroke-miterlimit="10"/>
<path d="M-31.7363 235.032C21.3277 228.637 100.203 244.877 166.817 280.566C200.697 298.797 231.589 320.285 261.619 338.112C292.361 356.257 321.351 370.606 354.428 378.123C365.102 380.516 375.844 382.021 387.177 382.479C429.938 383.95 471.389 387.198 518.598 391.437C568.522 395.967 610.342 384.042 648.924 369.233C657.956 365.782 666.833 362.786 675.467 359.813C700.527 351.307 724.224 345.077 753.469 349.052C770.493 351.388 788.922 355.792 808.955 363.4C860.208 382.942 889.011 416.741 927.647 429.617C932.79 431.382 938.127 432.578 943.479 433.388C970.275 437.322 1000.53 430.08 1027.33 410.287C1059.63 386.389 1085.88 344.85 1098.81 299.352C1110.19 259.454 1113.54 217.681 1121.89 176.696C1136.13 106.742 1166.84 38.3509 1209.28 -13.5453C1232.84 -42.3866 1259.79 -65.3875 1289.15 -82.7282C1342.58 -114.261 1404.27 -125.994 1467.39 -122.011C1502.88 -119.844 1538.28 -111.558 1571.77 -97.6944" stroke="#5A84ED" stroke-width="1.04682" stroke-miterlimit="10"/>
<path d="M-30.6718 247.041C21.1397 246.381 98.6134 265.012 165.248 299.268C199.258 316.77 230.451 336.688 260.874 352.331C291.972 368.405 321.025 380.16 354.074 385.698C364.597 387.499 375.393 388.504 386.576 388.371C428.925 387.955 469.839 388.997 516.859 392.759C566.086 396.585 607.972 386.525 646.296 374.878C655.299 372.201 664.147 369.978 672.752 367.779C697.584 361.662 720.81 357.844 749.486 363.14C766.379 366.204 784.527 370.744 804.333 377.989C855.144 396.417 885.476 425.391 923.571 434.355C928.665 435.574 933.954 436.225 939.117 436.557C965.313 438.126 994.391 429.18 1020.09 408.502C1051.08 383.628 1076.45 342.226 1089.79 297.297C1101.6 257.853 1106.14 216.351 1115.71 175.91C1131.89 106.817 1163.71 39.311 1206.79 -11.3806C1230.77 -39.7677 1257.98 -62.1321 1287.49 -78.8816C1341.12 -109.277 1402.6 -120.055 1465.82 -116.026C1501.27 -113.745 1536.54 -105.777 1570.11 -92.1416" stroke="#607DEE" stroke-width="1.04682" stroke-miterlimit="10"/>
<path d="M-29.5084 259.096C21.0895 264.057 97.1225 285.194 163.675 317.971C197.714 334.699 229.349 352.979 260.088 366.665C291.54 380.668 320.696 389.716 353.678 393.389C364.192 394.531 374.837 394.944 385.933 394.379C427.871 392.075 468.208 391.026 515.219 394.128C563.811 397.409 605.842 388.986 643.87 380.616C652.882 378.598 661.662 377.263 670.097 375.906C694.598 372.132 717.416 370.886 745.564 377.388C762.287 381.294 780.256 386.017 799.77 392.739C850.102 410.167 882.041 434.088 919.555 439.254C924.601 439.927 929.7 440.1 934.878 440.046C960.435 439.364 988.273 428.555 1013.07 407.082C1042.89 381.164 1067.26 339.969 1080.94 295.721C1093.08 256.686 1098.99 215.66 1109.62 175.558C1127.63 107.28 1160.75 40.7504 1204.27 -8.82732C1228.75 -36.601 1256.15 -58.488 1285.88 -74.4872C1339.7 -103.746 1400.97 -113.567 1464.3 -109.493C1499.65 -107.258 1534.81 -99.3351 1568.44 -86.2002" stroke="#6576F0" stroke-width="1.04682" stroke-miterlimit="10"/>
<path d="M-28.3074 271.035C21.038 281.731 95.7082 305.144 162.28 336.488C196.412 352.602 228.387 369.198 259.418 380.654C291.161 392.428 320.482 398.927 353.397 400.735C363.901 401.217 374.498 401.084 385.406 400.042C426.932 395.851 466.732 392.596 513.656 395.266C561.651 397.888 603.75 391.331 641.456 385.964C650.439 384.72 659.127 383.999 667.596 383.575C691.868 382.19 714.075 383.425 741.796 391.178C758.388 395.813 776.138 400.832 795.425 407.19C845.316 423.504 878.681 442.554 915.755 443.853C920.753 443.981 925.766 443.722 930.793 443.076C955.749 440.03 982.41 427.516 1006.1 405.158C1034.65 378.151 1058.15 337.094 1072.15 293.642C1084.66 254.901 1091.93 214.351 1103.67 174.747C1123.66 107.217 1157.85 41.6859 1201.92 -6.73257C1226.83 -34.0521 1254.54 -55.1434 1284.35 -70.7105C1338.38 -98.832 1399.43 -107.698 1462.72 -103.51C1498.03 -101.161 1533.18 -93.5109 1566.67 -80.6942" stroke="#6B70F1" stroke-width="1.04682" stroke-miterlimit="10"/>
<path d="M-27.1398 283.09C20.8513 299.476 94.2215 325.326 160.712 355.191C194.873 370.532 227.25 385.602 258.674 394.874C290.772 404.577 320.259 408.528 353.044 408.311C363.5 408.247 374.048 407.569 384.806 405.935C425.92 399.857 465.144 394.51 511.957 396.475C559.216 398.507 601.42 393.701 638.971 391.542C647.924 391.071 656.582 391.124 664.983 391.587C688.925 392.546 710.724 396.352 737.877 405.427C754.197 410.858 771.87 416.104 790.866 421.94C840.278 437.253 875.21 451.364 911.742 448.752C916.692 448.334 921.617 447.643 926.456 446.519C950.812 441.108 976.194 426.845 998.878 403.647C1026.16 375.55 1048.76 334.745 1063.15 291.861C1075.99 253.529 1084.61 213.454 1097.42 174.19C1119.24 107.475 1154.74 42.9203 1199.34 -4.33897C1224.69 -31.2043 1252.65 -51.6591 1282.57 -66.5212C1336.84 -93.6194 1397.65 -101.416 1461.04 -97.1824C1496.24 -94.8786 1531.29 -87.274 1564.94 -74.9126" stroke="#7069F3" stroke-width="1.04682" stroke-miterlimit="10"/>
<path d="M-26.079 295.1C20.6596 317.22 92.667 345.347 159.036 373.848C193.227 388.415 226.046 401.847 257.786 409.161C290.277 416.679 319.828 418.038 352.545 415.955C362.992 415.232 373.39 413.962 383.959 411.851C424.662 403.885 463.348 396.333 510.074 397.866C556.698 399.353 599.009 396.299 636.238 397.143C645.201 397.332 653.791 398.272 662.061 399.463C685.672 402.766 707.063 409.143 733.688 419.424C749.877 425.583 767.37 431.012 786.036 436.439C835.007 450.639 871.468 459.924 907.498 453.286C912.36 452.436 917.276 451.085 922.027 449.53C945.783 441.753 969.987 425.787 991.668 401.749C1017.79 372.607 1039.37 332.008 1054.12 289.806C1067.39 251.929 1077.21 212.125 1091.24 173.404C1114.99 107.551 1151.59 43.881 1196.74 -2.21906C1222.52 -28.6302 1250.73 -48.4485 1280.8 -62.7194C1335.27 -88.6805 1395.87 -95.521 1459.36 -91.2424C1494.53 -88.8248 1529.44 -81.5384 1563.11 -69.5637" stroke="#7662F4" stroke-width="1.04682" stroke-miterlimit="10"/>
<path d="M-24.9131 307.156C20.573 335.011 91.2804 365.575 157.607 392.483C191.89 406.436 225.048 418.184 257.182 423.314C289.926 428.716 319.642 427.526 352.331 423.465C362.729 422.195 373.118 420.266 383.498 417.677C423.688 407.779 461.9 398.18 508.514 399.008C554.542 399.837 596.92 398.647 633.892 402.654C642.825 403.617 651.386 405.33 659.626 407.295C683.009 412.987 704.06 421.048 729.986 433.377C745.85 440.834 763.217 445.945 781.695 450.894C830.186 464.094 868.151 468.281 903.702 457.89C908.516 456.494 913.243 454.666 917.907 452.678C941.063 442.537 964.09 424.867 984.666 399.943C1009.51 369.712 1030.23 329.251 1045.29 287.845C1058.89 250.377 1070.12 210.934 1085.16 172.667C1110.74 107.629 1148.66 44.9347 1194.29 -0.165225C1220.59 -26.0768 1248.92 -45.19 1279.14 -58.8697C1333.8 -83.6938 1394.2 -89.5784 1457.65 -85.186C1492.72 -82.8137 1527.63 -75.5274 1561.21 -63.9848" stroke="#7C5BF5" stroke-width="1.04682" stroke-miterlimit="10"/>
<path d="M-23.7495 319.211C20.4842 352.801 89.8675 385.527 156.034 411.185C190.385 424.25 224.049 434.519 256.396 437.647C289.533 440.864 319.313 437.081 351.935 431.154C362.324 429.225 372.524 426.819 382.855 423.684C422.672 411.784 460.371 400.253 506.835 400.489C552.126 400.728 594.674 401.449 631.465 408.391C640.369 410.127 648.9 412.614 657.073 415.466C680.125 423.501 700.457 435.044 726.267 447.715C742.116 455.558 759.188 461.193 777.297 465.847C825.348 477.933 864.841 477.295 899.85 462.992C904.616 461.05 909.256 458.79 913.731 456.325C936.247 443.933 958.034 424.399 977.607 398.636C1001.29 367.36 1021 327.106 1036.35 286.222C1050.42 249.094 1062.76 210.15 1079.1 172.199C1106.42 107.932 1145.64 46.2136 1191.91 2.31814C1218.65 -23.1392 1247.33 -41.5707 1277.56 -54.5907C1332.42 -78.2777 1392.54 -83.3656 1456.16 -78.7688C1491.19 -76.2826 1525.98 -69.3147 1559.68 -58.1135" stroke="#8154F7" stroke-width="1.04682" stroke-miterlimit="10"/>
<path d="M-22.6864 331.219C20.2947 370.544 88.2763 405.662 154.502 429.773C188.945 442.224 222.948 450.808 255.689 451.752C289.181 452.898 319.126 446.567 351.656 438.502C361.997 436.027 372.188 432.96 382.33 429.348C421.736 415.561 458.858 401.938 505.313 401.515C549.97 401.209 592.623 403.681 629.054 413.74C637.93 416.25 646.392 419.624 654.574 423.136C677.491 432.946 697.221 447.629 722.501 461.507C738.22 470.078 755.073 476.009 772.891 480.14C820.501 491.112 861.46 485.489 895.991 467.434C900.708 464.946 905.3 462.14 909.688 459.243C931.502 444.441 952.213 423.248 970.783 396.645C993.155 364.394 1012 324.277 1027.7 284.076C1042.1 247.357 1055.84 208.774 1073.21 171.276C1102.45 107.869 1142.88 47.0821 1189.6 4.30055C1216.73 -20.5888 1245.7 -38.4975 1276.08 -50.9263C1331.04 -73.5216 1391.05 -77.6084 1454.77 -72.9662C1489.66 -70.4116 1524.38 -63.6026 1558.1 -52.7882" stroke="#874DF8" stroke-width="1.04682" stroke-miterlimit="10"/>
<path d="M-21.5209 343.274C20.1448 388.174 86.7877 425.842 152.931 448.474C187.404 460.152 221.849 467.098 254.905 466.084C288.688 465.001 318.8 456.121 351.262 446.191C361.594 443.056 371.634 439.399 381.689 435.355C420.684 419.681 457.269 403.851 503.535 402.951C547.595 401.986 590.277 406.438 626.528 419.432C635.413 422.601 643.846 426.749 651.819 431.216C674.352 443.87 693.625 460.579 718.479 475.709C734.027 485.122 750.701 491.235 768.229 494.844C815.398 504.702 857.886 494.254 891.875 472.287C896.544 469.253 901.048 466.015 905.247 462.641C926.461 445.473 945.994 422.577 963.459 395.088C984.562 361.747 1002.53 321.769 1018.55 282.363C1033.28 246.053 1048.39 207.945 1066.91 170.832C1097.99 108.241 1139.69 48.5436 1186.88 6.7622C1214.55 -17.6276 1243.67 -34.9451 1274.26 -46.6235C1329.42 -68.0817 1389.22 -71.2127 1452.94 -66.5705C1487.83 -64.0159 1522.49 -57.366 1556.12 -46.9837" stroke="#8D46F9" stroke-width="1.04682" stroke-miterlimit="10"/>
<path d="M-20.3195 355.213C20.0937 405.849 85.3737 445.794 151.396 467.062C185.898 477.966 220.746 483.387 254.196 480.188C288.333 477.034 318.61 465.607 350.943 453.652C361.226 449.972 371.155 445.609 381.123 441.133C419.643 423.412 455.715 405.65 501.971 404.09C545.397 402.58 588.238 408.283 624.076 424.894C632.893 428.951 641.375 433.645 649.279 439C671.482 453.997 690.308 473.391 714.672 489.614C729.949 499.824 746.482 506.005 763.782 509.25C810.472 518.108 854.464 502.562 887.974 476.842C892.556 473.376 896.91 469.547 901.061 465.627C921.674 446.095 939.928 421.449 956.39 393.12C976.324 358.735 993.289 318.963 1009.7 280.125C1024.86 244.269 1041.17 206.432 1060.91 169.863C1093.92 108.133 1136.82 49.3663 1184.56 8.74411C1212.66 -15.1915 1242.09 -31.7134 1272.78 -42.9598C1328.13 -63.2809 1387.72 -65.456 1451.51 -60.6547C1486.25 -58.0316 1520.85 -51.541 1554.63 -41.6139" stroke="#9240FB" stroke-width="1.04682" stroke-miterlimit="10"/>
<path d="M-19.1546 367.269C20.0061 423.639 83.8844 465.976 149.966 485.696C184.56 495.986 219.786 499.609 253.552 494.454C288.083 489.115 318.424 475.094 350.689 461.274C360.861 456.889 370.804 452.14 380.622 447.072C418.731 427.464 454.328 407.655 500.333 405.459C543.123 403.404 585.877 411.427 621.651 430.632C630.477 435.348 638.789 440.884 646.727 447.172C668.74 464.445 686.916 486.433 710.853 503.908C725.96 514.96 742.314 521.323 759.284 524.16C805.533 531.904 850.952 511.486 884.022 481.9C888.555 477.889 892.823 473.627 896.785 469.23C916.798 447.333 933.874 420.983 949.231 391.769C967.896 356.294 984.056 316.819 1000.72 278.618C1016.35 243.102 1033.91 205.695 1054.67 169.579C1089.52 108.665 1133.69 50.9879 1181.91 11.3658C1210.5 -11.9564 1240.12 -28.0008 1270.92 -38.5422C1326.47 -57.7262 1385.86 -58.9456 1449.74 -54.0989C1484.39 -51.5211 1518.89 -45.0758 1552.68 -35.5355" stroke="#9839FC" stroke-width="1.04682" stroke-miterlimit="10"/>
<path d="M-18.0918 379.277C19.8164 441.382 82.293 486.11 148.292 504.352C182.916 513.868 218.545 515.966 252.704 508.626C287.488 501.172 317.994 484.602 350.231 468.804C360.354 463.872 370.187 458.418 379.918 452.918C417.513 431.377 452.597 409.636 498.592 406.78C540.709 404.294 583.467 414.023 619.061 436.163C627.857 441.653 636.14 447.963 643.947 454.978C665.668 474.481 683.359 499.268 706.806 517.836C721.743 529.729 737.956 536.162 754.597 538.589C800.444 545.105 847.289 519.817 879.88 486.479C884.366 481.921 888.585 477.114 892.46 472.284C911.833 448.136 927.772 419.968 942.125 389.915C959.622 353.395 974.812 314.013 991.79 276.607C1007.75 241.501 1026.68 204.569 1048.59 168.838C1085.41 108.671 1130.75 52.0382 1179.41 13.53C1208.43 -9.33801 1238.31 -24.746 1269.25 -34.6962C1325 -52.7431 1384.18 -53.0066 1448.07 -48.16C1482.67 -45.4684 1517.15 -39.296 1550.86 -30.1877" stroke="#9D32FE" stroke-width="1.04682" stroke-miterlimit="10"/>
<path d="M-16.9265 391.334C39.0116 494.764 152.108 550.231 251.958 522.848C287.136 513.209 317.706 494.046 349.876 476.382C399.383 449.132 439.247 412.346 496.891 407.99C548.655 404.032 602.511 423.16 641.372 462.879C662.864 484.77 679.943 512.039 702.963 531.858C764.177 584.413 847.364 533.355 888.16 475.615C929.79 416.805 951.124 341.879 982.785 274.828C1026.53 181.959 1098.26 75.4604 1176.88 15.8115C1259.57 -46.8702 1346.93 -49.6631 1446.38 -41.8308C1480.88 -39.1845 1515.26 -33.0575 1549.08 -24.2906" stroke="#A32BFF" stroke-width="1.04682" stroke-miterlimit="10"/>
</g>
</g>
</svg>
