<svg width="204" height="204" viewBox="0 0 204 204" fill="none" xmlns="http://www.w3.org/2000/svg">
<path d="M156.195 29.2433L155.459 28.6164L154.709 28.0021L153.947 27.4003L153.173 26.812L152.386 26.2365L151.589 25.6751L150.781 25.1277L149.963 24.5944L149.134 24.0755L148.296 23.572L147.45 23.0837L146.595 22.6104L145.731 22.1533L144.861 21.7119L143.983 21.2871L143.099 20.8784L142.209 20.4864L141.313 20.1118L140.412 19.7539L139.507 19.4138L138.598 19.0911L137.686 18.7859L136.77 18.4986L135.852 18.2296L134.932 17.9789L134.01 17.7469L133.088 17.5332L132.165 17.3383L131.243 17.1621L130.321 17.005L129.4 16.8667L128.481 16.7475L127.564 16.6475L126.65 16.567L125.739 16.5057L124.832 16.464L123.93 16.4419L123.032 16.4389L122.14 16.4555L121.253 16.4917L120.373 16.5474L119.5 16.6224L118.634 16.7173L117.777 16.8313L116.927 16.965L116.087 17.1178L115.256 17.2898L114.435 17.4809L113.624 17.6916L112.825 17.921L112.036 18.1696L111.259 18.4369L110.495 18.7229L109.744 19.0273L109.006 19.3499L108.281 19.6909L107.571 20.0501L106.875 20.4268L106.194 20.8218L105.529 21.2339L104.879 21.6629L104.246 22.1094L103.63 22.5725L103.03 23.0522L102.448 23.5481L101.883 24.0602L101.337 24.5876L100.809 25.1307L100.301 25.6892L99.8112 26.2621L99.3408 26.8495L98.8905 27.4513L98.4601 28.0668L98.0502 28.696L97.6612 29.3383L97.2934 29.9933L96.9465 30.6608L96.6209 31.3401L96.3174 32.0314L96.0356 32.7333L95.776 33.4462L95.5385 34.1698L95.3235 34.9032L95.1315 35.6464L94.9621 36.3981L94.8161 37.1592L94.6927 37.9279L94.5927 38.7043L94.5156 39.4884L94.4624 40.2792L94.4326 41.076L94.4262 41.8788L94.4433 42.6871L94.4841 43.5001L94.5484 44.3174L94.6361 45.1389L94.7476 45.9634L94.8825 46.7908L95.0409 47.6204L95.2231 48.4521L95.4282 49.2847L95.6564 50.1181L95.9079 50.952L96.1821 51.7858L96.4792 52.6184L96.7993 53.4497L97.1419 54.2793L97.5062 55.1064L97.8932 55.9308L98.3018 56.7515L98.7321 57.5683L99.1837 58.3809L99.6566 59.1879L100.15 59.9898L100.665 60.7858L101.199 61.575L101.753 62.3569L102.328 63.1316L102.921 63.8982L103.533 64.6563L104.163 65.405L104.812 66.1444L105.478 66.8739L106.162 67.5928L106.862 68.3007L107.579 68.9971L108.312 69.6819L109.06 70.354L109.824 71.0138L110.601 71.6599L111.394 72.2929L112.199 72.9118L113.017 73.5158L113.848 74.1053L114.691 74.6799L115.545 75.2388L116.411 75.7815L117.286 76.3085L118.172 76.8184L119.066 77.3113L119.969 77.7872L120.88 78.2456L121.799 78.6862L122.724 79.1084L123.656 79.5124L124.593 79.8976L125.535 80.2641L126.482 80.6114L127.433 80.9391L128.387 81.2477L129.343 81.5363L130.302 81.8054L131.262 82.0544L132.222 82.2825L133.183 82.4906L134.143 82.6784L135.102 82.8456L136.06 82.9921L137.015 83.118L137.967 83.2232L138.916 83.307L139.861 83.3705L140.801 83.4126L141.736 83.4343L142.664 83.4347L143.587 83.4143L144.502 83.373L145.409 83.3113L146.309 83.2287L147.2 83.1253L148.081 83.001L148.952 82.8567L149.814 82.692L150.664 82.5068L151.503 82.3017L152.329 82.0769L153.144 81.8322L153.945 81.5678L154.733 81.2839L155.508 80.9809L156.267 80.6591L157.012 80.3181L157.742 79.9593L158.456 79.5817L159.154 79.1863L159.836 78.7734L160.5 78.3427L161.148 77.8949L161.777 77.4301L162.389 76.9491L162.982 76.4519L163.556 75.9386L164.112 75.4099L164.648 74.8659L165.164 74.3071L165.661 73.7341L166.138 73.1467L166.594 72.5453L167.029 71.9311L167.444 71.3037L167.837 70.6639L168.209 70.0118L168.559 69.3478L168.888 68.6727L169.195 67.987L169.48 67.2906L169.743 66.584L169.984 65.8681L170.202 65.1428L170.397 64.409L170.57 63.6671L170.721 62.9171L170.849 62.1598L170.954 61.3958L171.037 60.6249L171.096 59.8485L171.133 59.0666L171.147 58.2796L171.139 57.4883L171.108 56.6928L171.054 55.8934L170.978 55.091L170.879 54.2861L170.758 53.4791L170.614 52.6699L170.449 51.8599L170.261 51.0491L170.051 50.2378L169.82 49.4269L169.567 48.6164L169.293 47.8069L168.997 46.9994L168.681 46.1936L168.343 45.3904L167.985 44.5902L167.607 43.7934L167.208 43.0004L166.79 42.2121L166.352 41.428L165.894 40.6495L165.417 39.8761L164.922 39.1095L164.408 38.3489L163.876 37.5955L163.326 36.8493L162.758 36.1108L162.173 35.3808L161.572 34.6589L160.954 33.9464L160.319 33.2432L159.669 32.5498L159.004 31.8666L158.323 31.1941L157.628 30.5322L156.919 29.8818L156.195 29.2433Z" fill="#0E0C15"/>
<path d="M147.116 34.8238L147.533 35.1524L147.96 35.4699L148.378 35.7913L148.764 36.1314L149.107 36.5013L149.422 36.8924L149.73 37.2913L150.055 37.685L150.411 38.0638L150.78 38.435L151.138 38.8079L151.459 39.1927L151.728 39.597L151.962 40.0154L152.188 40.4407L152.433 40.8638L152.714 41.28L153.011 41.6908L153.295 42.1016L153.54 42.517L153.724 42.9405L153.869 43.3713L154.004 43.8063L154.159 44.2434L154.354 44.681L154.567 45.1169L154.768 45.5506L154.925 45.9809L155.018 46.4079L155.068 46.8344L155.106 47.263L155.165 47.698L155.267 48.1403L155.388 48.5851L155.497 49.0256L155.56 49.4551L155.557 49.8693L155.51 50.2749L155.45 50.6814L155.411 51.0969L155.414 51.5276L155.437 51.9648L155.449 52.3955L155.417 52.808L155.318 53.1936L155.174 53.5631L155.017 53.9308L154.88 54.3114L154.784 54.714L154.709 55.1269L154.623 55.5317L154.495 55.911L154.303 56.2532L154.068 56.572L153.82 56.8866L153.59 57.2173L153.398 57.5765L153.226 57.949L153.044 58.3125L152.825 58.6441L152.547 58.9293L152.229 59.1842L151.899 59.4332L151.584 59.701L151.303 60.0028L151.04 60.3203L150.769 60.628L150.465 60.8988L150.111 61.1154L149.723 61.2963L149.322 61.4696L148.935 61.6628L148.575 61.8952L148.23 62.1459L147.88 62.3856L147.504 62.5843L147.087 62.7235L146.643 62.8227L146.188 62.9125L145.742 63.024L145.317 63.1768L144.903 63.3501L144.487 63.5123L144.052 63.6314L143.59 63.6868L143.106 63.6995L142.614 63.7021L142.127 63.7264L141.653 63.794L141.187 63.883L140.72 63.9609L140.244 63.9954L139.753 63.9643L139.249 63.8898L138.74 63.8038L138.23 63.74L137.726 63.7187L137.225 63.7196L136.726 63.7102L136.227 63.6578L135.726 63.5416L135.223 63.382L134.716 63.2109L134.205 63.0602L133.69 62.9512L133.174 62.864L132.662 62.7674L132.16 62.6303L131.67 62.4328L131.187 62.194L130.703 61.9437L130.21 61.7126L129.705 61.5202L129.194 61.3478L128.69 61.1678L128.205 60.9515L127.745 60.6804L127.301 60.3714L126.86 60.0521L126.405 59.7491L125.929 59.4805L125.444 59.2306L124.968 58.9744L124.518 58.6875L124.107 58.3534L123.721 57.9869L123.339 57.6106L122.941 57.2479L122.513 56.9142L122.073 56.5963L121.643 56.2741L121.247 55.928L120.902 55.5445L120.588 55.1346L120.281 54.7166L119.955 54.3084L119.593 53.9227L119.214 53.5503L118.848 53.1757L118.521 52.7841L118.254 52.3661L118.026 51.929L117.806 51.4859L117.565 51.0488L117.282 50.6265L116.981 50.2141L116.691 49.802L116.447 49.3811L116.269 48.9452L116.134 48.4982L116.01 48.0471L115.863 47.598L115.671 47.1566L115.457 46.7207L115.257 46.2878L115.103 45.8545L115.021 45.4178L114.985 44.9785L114.961 44.5367L114.914 44.0936L114.819 43.6501L114.701 43.2087L114.596 42.772L114.54 42.3429L114.556 41.9228L114.62 41.5078L114.697 41.0928L114.749 40.6726L114.755 40.2444L114.737 39.815L114.731 39.3919L114.773 38.9837L114.886 38.5963L115.047 38.2213L115.221 37.8489L115.373 37.4679L115.478 37.0721L115.56 36.6707L115.653 36.2774L115.79 35.9066L115.995 35.5661L116.246 35.2456L116.51 34.9293L116.753 34.602L116.953 34.253L117.131 33.8954L117.318 33.5477L117.545 33.2276L117.834 32.9471L118.166 32.6925L118.508 32.4444L118.833 32.1822L119.12 31.8936L119.386 31.5935L119.66 31.3036L119.967 31.0465L120.329 30.8363L120.726 30.6571L121.135 30.4855L121.529 30.2987L121.891 30.0807L122.234 29.8492L122.583 29.6283L122.959 29.4435L123.379 29.3107L123.828 29.2128L124.286 29.1239L124.734 29.0183L125.156 28.8795L125.564 28.7246L125.975 28.5812L126.405 28.4752L126.866 28.4245L127.35 28.4109L127.84 28.4075L128.324 28.3866L128.791 28.3313L129.247 28.2594L129.704 28.1977L130.171 28.1742L130.657 28.207L131.157 28.2777L131.662 28.359L132.164 28.4237L132.658 28.4535L133.145 28.4667L133.63 28.4892L134.117 28.5492L134.609 28.6637L135.106 28.8153L135.607 28.9779L136.109 29.1251L136.611 29.2392L137.111 29.3363L137.606 29.4427L138.094 29.5832L138.574 29.7747L139.051 30.0016L139.528 30.2391L140.011 30.463L140.503 30.6566L140.996 30.8346L141.483 31.0201L141.954 31.236L142.405 31.4977L142.843 31.791L143.279 32.0945L143.726 32.3865L144.189 32.6525L144.658 32.9049L145.119 33.1629L145.556 33.4464L145.96 33.7682L146.344 34.1168L146.723 34.4743L147.116 34.8238Z" fill="#0E0C15"/>
<path d="M162.872 26.0651L161.818 25.1704L160.747 24.2931L159.657 23.4346L158.55 22.5943L157.427 21.7728L156.287 20.9713L155.133 20.1894L153.964 19.4283L152.781 18.6877L151.584 17.9683L150.375 17.2707L149.154 16.5948L147.921 15.9414L146.678 15.3106L145.424 14.7032L144.162 14.1188L142.891 13.5582L141.611 13.0219L140.324 12.5094L139.031 12.022L137.732 11.5593L136.428 11.1222L135.119 10.7101L133.807 10.3237L132.491 9.96312L131.174 9.62899L129.855 9.32124L128.534 9.03989L127.214 8.78492L125.894 8.5572L124.576 8.35629L123.26 8.18262L121.946 8.03662L120.637 7.91786L119.331 7.82635L118.03 7.76293L116.736 7.72674L115.447 7.71824L114.166 7.73781L112.893 7.78507L111.628 7.8604L110.373 7.96341L109.128 8.09408L107.893 8.25286L106.671 8.43929L105.46 8.65296L104.263 8.89474L103.079 9.16375L101.909 9.46042L100.755 9.78435L99.6162 10.1355L98.4938 10.5139L97.3884 10.9187L96.3013 11.3503L95.232 11.8087L94.1819 12.2931L93.1519 12.8035L92.1418 13.3398L91.153 13.9021L90.1859 14.4891L89.2409 15.1016L88.3186 15.7384L87.4196 16.3998L86.5449 17.0851L85.6949 17.7943L84.8695 18.5264L84.0706 19.2819L83.2972 20.06L82.551 20.8598L81.8316 21.6817L81.14 22.525L80.4768 23.3886L79.8421 24.2731L79.2369 25.1772L78.661 26.1009L78.1149 27.0432L77.5994 28.0039L77.1146 28.9825L76.6608 29.9781L76.2386 30.9907L75.8483 32.0191L75.4899 33.0632L75.1642 34.1223L74.871 35.1957L74.6109 36.2824L74.3836 37.3823L74.1899 38.495L74.0299 39.6187L73.9035 40.7539L73.8111 41.8993L73.7528 43.0541L73.7289 44.2183L73.7387 45.3905L73.7834 46.5704L73.8622 47.7567L73.975 48.9494L74.1227 50.1472L74.3049 51.3497L74.5211 52.5559L74.7714 53.7652L75.0561 54.9771L75.3749 56.1902L75.7274 57.4041L76.1135 58.6176L76.5336 59.8308L76.9865 61.0422L77.473 62.251L77.9923 63.4569L78.5439 64.6589L79.1279 65.8563L79.7434 67.0477L80.3908 68.2331L81.0697 69.4117L81.7789 70.5819L82.5186 71.7439L83.2887 72.8961L84.088 74.0382L84.9159 75.1695L85.7728 76.2894L86.6573 77.3965L87.569 78.4905L88.508 79.5708L89.473 80.6362L90.4634 81.6863L91.4795 82.7206L92.5193 83.7379L93.5826 84.7382L94.6693 85.7202L95.7781 86.6834L96.9087 87.6271L98.0601 88.5507L99.231 89.454L100.422 90.3359L101.631 91.1957L102.858 92.0334L104.102 92.8486L105.361 93.6394L106.636 94.4064L107.926 95.1492L109.229 95.8668L110.545 96.5585L111.872 97.2247L113.211 97.8644L114.56 98.4774L115.917 99.0631L117.284 99.6211L118.657 100.151L120.037 100.653L121.422 101.126L122.812 101.571L124.206 101.986L125.602 102.372L127.001 102.728L128.4 103.054L129.799 103.35L131.197 103.616L132.594 103.852L133.988 104.057L135.378 104.232L136.764 104.376L138.144 104.49L139.517 104.572L140.884 104.624L142.242 104.645L143.592 104.635L144.932 104.595L146.26 104.524L147.578 104.423L148.883 104.291L150.175 104.129L151.452 103.937L152.715 103.715L153.963 103.463L155.194 103.182L156.408 102.872L157.604 102.532L158.781 102.164L159.94 101.767L161.078 101.342L162.196 100.89L163.292 100.409L164.366 99.902L165.418 99.3683L166.446 98.8081L167.451 98.2215L168.431 97.6099L169.386 96.9727L170.316 96.3112L171.219 95.6255L172.097 94.9164L172.947 94.1838L173.77 93.4283L174.565 92.6511L175.331 91.8521L176.069 91.0319L176.777 90.1912L177.456 89.3301L178.106 88.4503L178.725 87.5513L179.314 86.634L179.872 85.6993L180.398 84.7475L180.894 83.7792L181.358 82.7947L181.791 81.7957L182.191 80.7818L182.56 79.7538L182.897 78.7131L183.201 77.6592L183.472 76.5938L183.711 75.5164L183.918 74.4289L184.092 73.3311L184.233 72.2245L184.342 71.1088L184.418 69.9855L184.462 68.8546L184.473 67.7172L184.451 66.5735L184.397 65.4247L184.311 64.2716L184.192 63.1142L184.042 61.9539L183.859 60.7906L183.645 59.6256L183.399 58.4593L183.121 57.2926L182.813 56.1255L182.474 54.9596L182.104 53.795L181.704 52.6326L181.273 51.4727L180.813 50.3162L180.323 49.1635L179.803 48.0159L179.256 46.8735L178.679 45.7366L178.074 44.6069L177.442 43.484L176.783 42.3688L176.096 41.2621L175.383 40.1644L174.643 39.0764L173.878 37.9987L173.088 36.9316L172.273 35.8759L171.434 34.8318L170.571 33.8005L169.684 32.7823L168.775 31.7778L167.843 30.7873L166.89 29.8113L165.916 28.851L164.921 27.906L163.906 26.9773L162.872 26.0651Z" fill="#0E0C15"/>
<path d="M166.963 25.9523L165.643 24.8324L164.301 23.7351L162.938 22.6607L161.552 21.6094L160.147 20.5823L158.721 19.579L157.276 18.6013L155.814 17.6487L154.333 16.7225L152.836 15.8222L151.324 14.9496L149.796 14.1039L148.254 13.2862L146.698 12.497L145.13 11.7364L143.55 11.0047L141.959 10.3028L140.358 9.63111L138.748 8.98966L137.129 8.37885L135.503 7.79868L133.87 7.25044L132.231 6.73328L130.588 6.24846L128.94 5.796L127.289 5.37629L125.636 4.98896L123.981 4.63524L122.326 4.3143L120.671 4.02699L119.018 3.77329L117.367 3.55366L115.718 3.36808L114.074 3.21697L112.435 3.09991L110.801 3.01734L109.174 2.96966L107.555 2.95647L105.944 2.97776L104.343 3.03394L102.751 3.12502L101.171 3.25102L99.6036 3.41192L98.0487 3.6073L96.5074 3.838L94.9811 4.10317L93.47 4.40283L91.976 4.73697L90.4989 5.10601L89.0402 5.5091L87.6007 5.94668L86.1816 6.41829L84.7824 6.92354L83.4055 7.46241L82.051 8.03491L80.7196 8.64062L79.4129 9.2791L78.1308 9.95035L76.8747 10.654L75.645 11.3895L74.4429 12.1569L73.2686 12.9554L72.1232 13.785L71.0075 14.6453L69.9225 15.5358L68.8682 16.4556L67.8462 17.4052L66.8565 18.3834L65.9001 19.39L64.9773 20.4239L64.089 21.4855L63.236 22.5735L62.4187 23.6878L61.6381 24.8277L60.894 25.9923L60.1879 27.1816L59.5196 28.3943L58.8896 29.6295L58.2988 30.8877L57.7472 32.1668L57.236 33.4672L56.7652 34.7875L56.3353 36.1275L55.9467 37.4862L55.5994 38.8623L55.2942 40.2555L55.0311 41.6648L54.8102 43.0895L54.6327 44.5286L54.4978 45.9813L54.4062 47.4468L54.3582 48.9243L54.3535 50.4128L54.3926 51.9111L54.4752 53.4187L54.6016 54.9341L54.7719 56.457L54.986 57.9864L55.2443 59.5204L55.5462 61.0592L55.8918 62.6013L56.2808 64.1456L56.7133 65.6916L57.1887 67.2375L57.7072 68.7826L58.2686 70.3265L58.8726 71.8673L59.5188 73.4044L60.207 74.9367L60.9362 76.4635L61.7066 77.9835L62.5179 79.4954L63.3692 80.9988L64.2601 82.492L65.1905 83.9746L66.1593 85.4456L67.166 86.9035L68.2101 88.3473L69.2913 89.7766L70.4082 91.1898L71.5604 92.5863L72.7476 93.9654L73.9688 95.3254L75.2232 96.6658L76.5095 97.9857L77.8273 99.2844L79.1758 100.56L80.554 101.814L81.9612 103.042L83.3961 104.246L84.8582 105.424L86.3459 106.575L87.8586 107.7L89.3957 108.796L90.9553 109.863L92.537 110.9L94.1391 111.907L95.7613 112.883L97.4017 113.827L99.0601 114.739L100.735 115.618L102.424 116.464L104.128 117.275L105.845 118.052L107.574 118.794L109.313 119.5L111.061 120.169L112.818 120.803L114.582 121.399L116.351 121.958L118.125 122.48L119.903 122.963L121.683 123.409L123.464 123.816L125.244 124.184L127.024 124.513L128.8 124.803L130.573 125.054L132.341 125.265L134.104 125.437L135.858 125.57L137.604 125.663L139.341 125.717L141.067 125.731L142.781 125.705L144.482 125.64L146.17 125.537L147.841 125.394L149.497 125.212L151.136 124.992L152.756 124.732L154.357 124.435L155.938 124.1L157.497 123.728L159.035 123.318L160.549 122.871L162.039 122.387L163.503 121.868L164.942 121.313L166.355 120.722L167.739 120.097L169.096 119.437L170.423 118.743L171.72 118.017L172.986 117.257L174.221 116.465L175.424 115.642L176.594 114.788L177.731 113.903L178.834 112.989L179.902 112.046L180.935 111.074L181.932 110.075L182.893 109.048L183.818 107.996L184.705 106.918L185.554 105.815L186.366 104.688L187.139 103.537L187.874 102.364L188.569 101.17L189.225 99.9539L189.841 98.7178L190.417 97.4622L190.954 96.1886L191.449 94.8968L191.905 93.5883L192.32 92.2633L192.694 90.9233L193.027 89.5689L193.318 88.2008L193.569 86.8196L193.779 85.4269L193.948 84.0231L194.076 82.6086L194.163 81.1853L194.209 79.7529L194.213 78.3134L194.177 76.8666L194.101 75.4139L193.984 73.956L193.827 72.4939L193.629 71.0284L193.392 69.5599L193.115 68.0901L192.799 66.619L192.443 65.148L192.049 63.6774L191.616 62.2084L191.145 60.7417L190.636 59.2783L190.09 57.8187L189.507 56.3638L188.886 54.9149L188.23 53.4719L187.537 52.0362L186.809 50.6082L186.047 49.189L185.25 47.7793L184.419 46.3793L183.554 44.9908L182.657 43.6139L181.727 42.2492L180.765 40.8978L179.772 39.56L178.748 38.2366L177.695 36.9286L176.612 35.6367L175.5 34.361L174.36 33.1028L173.192 31.8629L171.997 30.6408L170.776 29.4384L169.529 28.2559L168.258 27.0935L166.963 25.9523Z" fill="#0E0C15"/>
<path d="M168.926 27.5795L167.574 26.3886L166.197 25.2201L165.94 25.0031L164.569 23.8815L163.175 22.7833L161.759 21.7089L160.322 20.6593L158.865 19.6343L157.389 18.6345L155.894 17.661L154.381 16.7143L152.851 15.7945L151.305 14.9023L149.743 14.0383L148.167 13.2027L146.577 12.3961L144.975 11.6184L143.36 10.871L141.734 10.1534L140.098 9.46678L138.452 8.81084L138.135 8.68996L136.446 8.05277L134.749 7.44749L133.045 6.8754L131.335 6.33569L129.62 5.82958L127.9 5.35754L126.177 4.91912L125.603 4.78035L123.843 4.36832L122.081 3.99162L120.319 3.64982L118.557 3.34377L116.797 3.07349L116.044 2.96239L114.252 2.7236L112.463 2.52184L110.678 2.35755L108.011 2.16643L106.205 2.07448L104.407 2.02128L102.616 2.00595L101.636 2L99.8237 2.02341L98.0214 2.08598L96.9871 2.14216L95.1666 2.2456L93.3584 2.38862L91.5639 2.57122L90.4525 2.69509L88.6444 2.92111L86.8515 3.18714L85.6988 3.37825L83.8962 3.68898L82.1114 4.04099L80.9234 4.30022L79.1327 4.6982L77.3616 5.13748L76.1438 5.46607L74.371 5.95302L72.6203 6.48082L71.3791 6.87966L69.6301 7.456L67.9057 8.07404L66.6471 8.54311L64.9283 9.21011L63.2359 9.91839L61.9658 10.4577L60.2832 11.2158L59.0241 11.8164L57.3534 12.6243L55.7134 13.4739L54.4534 14.143L52.8292 15.0424L51.5876 15.7711L49.9816 16.7199L48.4096 17.7104L47.1769 18.5046L45.6272 19.5445L44.42 20.395L42.8945 21.4833L41.4064 22.6126L40.2171 23.5252L38.7571 24.7021L37.6002 25.6671L36.1709 26.8917L35.0489 27.9064L33.6523 29.1783L32.2974 30.4889L31.2056 31.5585L29.887 32.9142L28.8361 34.0294L27.5553 35.4294L26.5473 36.5876L25.3066 38.0305L24.1122 39.5105L23.1455 40.7143L21.9941 42.2356L21.0751 43.4763L19.9689 45.0368L19.0997 46.3124L18.0407 47.9112L17.223 49.2184L16.2117 50.8533L15.251 52.5214L14.4861 53.8593L13.5756 55.561L12.866 56.924L12.0075 58.6572L11.3545 60.0423L10.5492 61.8049L9.95457 63.2091L9.20371 64.9998L8.50693 66.8182L7.97188 68.2356L7.33085 70.0783L6.85667 71.5072L6.27182 73.372L5.85853 74.809L5.3307 76.6929L4.85909 78.6007L4.50837 80.0364L4.09461 81.9595L3.80603 83.3956L3.45019 85.3319L3.22375 86.7651L2.9262 88.7125L2.68571 90.6781L2.52269 92.0943L2.34052 94.0667L2.24005 95.4718L2.11577 97.4481L2.0485 99.4389L2.01021 100.816L2 102.807L2.02255 104.165L2.06895 106.153L2.17282 108.152L2.25411 109.471L2.41329 111.463L2.76744 114.737L3.03729 116.725L3.23224 117.969L3.55533 119.943L3.93331 121.921L4.18017 123.11L4.60925 125.07L5.09234 127.031L5.38731 128.159L5.91896 130.099L6.50423 132.037L6.84392 133.099L7.47473 135.011L8.15831 136.919L8.53714 137.91L9.2633 139.789L10.0401 141.661L10.8676 143.526L11.2703 144.415L12.1356 146.245L13.0499 148.065L14.4294 150.656L15.4255 152.426L16.4683 154.181L17.5571 155.923L17.9777 156.592L19.0942 158.291L20.2545 159.972L21.4578 161.635L21.8715 162.188L23.0974 163.805L24.3641 165.401L25.6709 166.976L27.0172 168.528L28.4015 170.056L28.7513 170.437L30.1492 171.915L31.5828 173.368L33.0513 174.794L34.5538 176.193L36.0896 177.563L37.6573 178.904L39.256 180.214L39.4607 180.377L41.0599 181.634L42.6872 182.858L44.3417 184.051L46.0222 185.21L47.7277 186.335L49.4567 187.425L51.2083 188.48L52.9811 189.498L54.774 190.479L56.586 191.423L58.4154 192.328L60.2615 193.195L62.1224 194.022L63.997 194.809L64.2413 194.91L66.1631 195.67L68.096 196.388L70.0395 197.064L71.9916 197.698L73.9509 198.288L75.9165 198.835L77.8869 199.338L78.3917 199.46L80.3995 199.927L82.4094 200.349L84.4197 200.725L86.4297 201.056L88.4375 201.342L89.1236 201.436L91.1604 201.679L93.1929 201.876L95.2185 202.027L96.0098 202.07L98.0589 202.175L100.099 202.233L102.129 202.243L103.016 202.228L105.063 202.191L107.097 202.105L109.116 201.972L110.09 201.893L112.121 201.71L114.133 201.479L116.126 201.201L117.177 201.052L119.176 200.722L121.152 200.343L122.246 200.125L124.223 199.695L126.174 199.218L127.305 198.929L129.252 198.398L131.172 197.821L132.332 197.46L134.243 196.83L136.124 196.152L137.307 195.72L139.173 194.99L140.356 194.493L142.207 193.71L144.022 192.882L145.217 192.314L147.012 191.433L148.77 190.509L149.969 189.87L151.703 188.894L152.889 188.193L154.595 187.168L156.26 186.099L157.44 185.33L159.073 184.213L160.233 183.385L161.833 182.22L163.388 181.014L164.532 180.122L166.05 178.87L167.166 177.922L168.644 176.627L169.73 175.625L171.167 174.286L172.556 172.911L173.612 171.853L174.956 170.437L175.976 169.33L177.274 167.875L178.254 166.721L179.504 165.229L180.702 163.704L181.642 162.504L182.79 160.944L183.685 159.703L184.782 158.112L185.63 156.831L186.674 155.21L187.473 153.893L188.463 152.244L189.4 150.567L190.147 149.219L191.029 147.517L191.724 146.14L192.549 144.416L193.189 143.012L193.959 141.268L194.543 139.84L195.256 138.078L195.914 136.294L196.439 134.852L197.04 133.053L197.506 131.595L198.05 129.784L198.457 128.313L198.944 126.492L199.377 124.655L199.721 123.183L200.097 121.339L200.38 119.862L200.7 118.014L200.923 116.533L201.187 114.685L201.397 112.823L201.557 111.357L201.713 109.498L201.811 108.036L201.914 106.182L201.963 104.317L202 102.88L201.997 101.024L201.973 99.5993L201.919 97.7533L201.814 95.9004L201.731 94.5103L201.576 92.6714L201.433 91.3008L201.231 89.4778L200.98 87.6513L200.782 86.325L200.485 84.5172L200.14 82.7086L199.888 81.4317L199.501 79.6448L199.066 77.8583L198.764 76.6359L198.289 74.8745L197.768 73.1153L197.42 71.952L196.862 70.2209L196.259 68.494L195.869 67.395L195.233 65.6979L194.553 64.0072L194.124 62.9767L193.413 61.3188L192.661 59.6681L191.417 57.0959L190.598 55.4895L189.739 53.8929L189.262 53.0403L188.38 51.482L187.46 49.9347L186.504 48.3999L185.046 46.1618L184.036 44.6805L182.992 43.2137L181.914 41.7622L181.454 41.1591L180.364 39.7502L179.242 38.3574L178.089 36.9817L176.905 35.6239L175.691 34.2848L175.293 33.8507L174.074 32.5562L172.828 31.2814L171.553 30.0266L170.252 28.7922L168.926 27.5795Z" fill="#0E0C15"/>
<path d="M86.8515 3.18714L85.0753 3.49364L83.3161 3.84053L81.576 4.22746L79.8551 4.65439L78.1546 5.12132L76.4763 5.62785L74.8201 6.17438L73.1873 6.76008L71.5792 7.38452L69.9962 8.04853L68.44 8.75085L66.9115 9.49148L65.4111 10.2704L63.94 11.0873L62.4992 11.9415L61.0898 12.8329L59.7124 13.7608L58.3678 14.7249L57.0572 15.7247L55.7811 16.7599L54.5412 17.83L53.3374 18.9346L52.1712 20.0728L51.0432 21.2442L49.9539 22.4483L48.9039 23.6848L47.8946 24.9524L46.9267 26.2507L46.0009 27.5796L45.1177 28.9374L44.2779 30.3242L43.4819 31.739L42.7302 33.1807L42.0241 34.6488L41.3634 36.1428L40.7492 37.6611L40.1823 39.2037L39.663 40.7692L39.1914 42.3569L38.7678 43.9659L38.3933 45.5948L38.068 47.2434L37.7918 48.9102L37.5662 50.5945L37.3904 52.295L37.2653 54.0112L37.1912 55.7411L37.1678 57.4845L37.195 59.2404L37.2742 61.0068L37.404 62.7835L37.5858 64.5687L37.8191 66.3619L38.1038 68.1616L38.4401 69.9664L38.8274 71.7758L39.2658 73.5878L39.7558 75.4019L40.2963 77.2169L40.8876 79.0315L41.5295 80.8439L42.222 82.6533L42.9639 84.4589L43.7552 86.259L44.5954 88.0527L45.4842 89.8383L46.4206 91.615L47.4052 93.3815L48.4369 95.1364L49.5147 96.879L50.6384 98.6072L51.8072 100.321L53.0199 102.018L54.2765 103.698L55.576 105.359L56.9172 107.001L58.2997 108.621L59.7227 110.219L61.1848 111.794L62.6856 113.345L64.2235 114.871L65.7975 116.37L67.4069 117.842L69.0508 119.285L70.7279 120.698L72.4369 122.081L74.1769 123.432L75.9468 124.751L77.7447 126.037L79.5699 127.288L81.4211 128.504L83.2969 129.684L85.1962 130.827L87.118 131.932L89.0603 132.999L91.0217 134.027L93.0014 135.015L94.9981 135.962L97.0097 136.869L99.0354 137.733L101.073 138.556L103.123 139.335L105.182 140.071L107.249 140.763L109.323 141.411L111.402 142.015L113.485 142.573L115.572 143.086L117.659 143.553L119.745 143.974L121.83 144.349L123.911 144.678L125.988 144.96L128.06 145.196L130.123 145.385L132.178 145.528L134.223 145.624L136.256 145.672L138.277 145.675L140.283 145.631L142.274 145.54L144.248 145.403L146.204 145.221L148.14 144.992L150.056 144.718L151.95 144.399L153.821 144.034L155.668 143.625L157.49 143.172L159.285 142.676L161.052 142.136L162.792 141.553L164.501 140.928L166.179 140.261L167.826 139.552L169.44 138.803L171.021 138.014L172.567 137.186L174.077 136.319L175.552 135.414L176.989 134.471L178.388 133.492L179.749 132.477L181.07 131.426L182.351 130.341L183.592 129.223L184.791 128.072L185.948 126.889L187.063 125.675L188.134 124.43L189.162 123.156L190.145 121.854L191.084 120.524L191.979 119.167L192.828 117.784L193.63 116.377L194.388 114.946L195.098 113.491L195.762 112.015L196.379 110.518L196.949 109L197.472 107.464L197.948 105.909L198.376 104.337L198.756 102.749L199.089 101.145L199.374 99.5274L199.611 97.8963L199.801 96.2533L199.943 94.5988L200.037 92.9341L200.084 91.26L200.084 89.5778L200.036 87.888L199.941 86.1918L199.8 84.4904L199.612 82.7848L199.378 81.0754L199.097 79.3639L198.771 77.6511L198.399 75.9374L197.982 74.2241L197.52 72.5126L197.014 70.8028L196.463 69.0968L195.869 67.395" fill="#0E0C15"/>
<path d="M52.8299 15.0424L51.238 15.9831L49.6801 16.9647L48.1567 17.9867L46.6691 19.0483L45.218 20.1494L43.8049 21.2902L42.4308 22.4688L41.096 23.6857L39.8016 24.9401L38.5489 26.2311L37.3383 27.5583L36.1708 28.9212L35.0475 30.3187L33.9693 31.7501L32.9367 33.2152L31.9509 34.7127L31.0119 36.2424L30.1214 37.8029L29.2795 39.3935L28.4869 41.0136L27.7446 42.6621L27.0529 44.3383L26.4132 46.0409L25.8253 47.7691L25.2899 49.5223L24.8076 51.299L24.379 53.0982L24.004 54.9192L23.6839 56.7606L23.4183 58.6215L23.2084 60.5007L23.0543 62.397L22.956 64.3095L22.9135 66.2368L22.9275 68.1778L22.9981 70.1311L23.1254 72.0955L23.3097 74.0701L23.5507 76.0536L23.849 78.044L24.204 80.0411L24.6156 82.0425L25.0843 84.0478L25.6091 86.0556L26.1905 88.0638L26.8282 90.0716L27.522 92.0777L28.2716 94.0808L29.076 96.0793L29.9358 98.0721L30.8497 100.057L31.8177 102.035L32.8388 104.001L33.9127 105.957L35.0394 107.9L36.2176 109.829L37.4469 111.742L38.726 113.639L40.0544 115.518L41.4314 117.378L42.8561 119.216L44.328 121.033L45.8454 122.827L47.408 124.595L49.0144 126.338L50.6634 128.054L52.3541 129.742L54.0856 131.4L55.8563 133.028L57.6653 134.623L59.5114 136.186L61.3932 137.714L63.3095 139.208L65.259 140.665L67.24 142.084L69.2516 143.466L71.2922 144.808L73.3604 146.109L75.4546 147.37L77.5739 148.588L79.7162 149.764L81.8798 150.896L84.0643 151.983L86.267 153.025L88.4868 154.021L90.7219 154.971L92.9714 155.874L95.2329 156.728L97.5055 157.534L99.7874 158.291L102.077 158.999L104.372 159.657L106.671 160.264L108.974 160.821L111.278 161.327L113.581 161.782L115.883 162.186L118.18 162.538L120.473 162.838L122.759 163.087L125.036 163.283L127.304 163.428L129.56 163.52L131.804 163.56L134.033 163.549L136.246 163.486L138.442 163.371L140.619 163.206L142.776 162.989L144.912 162.721L147.024 162.403L149.113 162.035L151.175 161.617L153.211 161.149L155.218 160.633L157.197 160.069L159.144 159.457L161.06 158.797L162.942 158.09L164.79 157.338L166.603 156.54L168.38 155.697L170.12 154.81L171.821 153.88L173.483 152.907L175.104 151.892L176.685 150.837L178.223 149.741L179.719 148.605L181.171 147.431L182.579 146.219L183.942 144.971L185.259 143.687L186.53 142.368L187.753 141.015L188.929 139.629L190.056 138.211L191.135 136.762L192.165 135.283L193.145 133.775L194.076 132.239L194.955 130.676L195.785 129.088L196.562 127.474L197.289 125.837L197.964 124.176L198.588 122.495L199.159 120.793L199.678 119.071L200.146 117.331L200.56 115.574L200.923 113.8L201.233 112.012L201.491 110.209L201.696 108.393L201.85 106.566L201.951 104.728L202.001 102.88" fill="#0E0C15"/>
<path d="M27.5553 35.4294L26.3199 36.8673L25.1302 38.3413L23.9878 39.8515L22.893 41.3971L21.8467 42.9767L20.8499 44.5903L19.9032 46.2363L19.0076 47.9142L18.1636 49.6232L17.3719 51.362L16.6334 53.1302L15.9493 54.9264L15.3194 56.7495L14.7443 58.5989L14.2254 60.4731L13.7623 62.3711L13.3558 64.292L13.0064 66.2347L12.7148 68.1978L12.4811 70.1801L12.3062 72.1806L12.19 74.1982L12.1325 76.2316L12.1342 78.2794L12.1955 80.3399L12.3164 82.4124L12.4969 84.496L12.7378 86.5881L13.0383 88.6883L13.3988 90.7952L13.8194 92.9069L14.2995 95.0224L14.8388 97.1404L15.4381 99.2593L16.0966 101.378L16.8143 103.494L17.5906 105.607L18.4253 107.715L19.3179 109.818L20.2676 111.912L21.2747 113.997L22.3379 116.072L23.457 118.134L24.6313 120.183L25.8606 122.218L27.1435 124.236L28.4797 126.236L29.8677 128.217L31.3073 130.177L32.797 132.116L34.3366 134.031L35.9247 135.921L37.5605 137.785L39.2427 139.622L40.97 141.43L42.7415 143.207L44.5561 144.954L46.4124 146.668L48.3095 148.348L50.2454 149.993L52.2195 151.601L54.2303 153.173L56.276 154.705L58.3553 156.198L60.4669 157.651L62.6097 159.061L64.7813 160.429L66.9811 161.753L69.2069 163.033L71.4573 164.266L73.7307 165.454L76.0258 166.594L78.3405 167.686L80.6735 168.729L83.0227 169.723L85.3872 170.667L87.7648 171.56L90.1536 172.402L92.5526 173.191L94.9596 173.928L97.3731 174.613L99.7912 175.244L102.212 175.822L104.635 176.346L107.057 176.815L109.477 177.23L111.894 177.59L114.305 177.895L116.709 178.146L119.104 178.342L121.489 178.482L123.862 178.568L126.222 178.599L128.567 178.574L130.894 178.496L133.204 178.362L135.494 178.175L137.762 177.934L140.008 177.639L142.23 177.291L144.426 176.89L146.595 176.436L148.736 175.93L150.847 175.373L152.927 174.765L154.975 174.107L156.989 173.398L158.968 172.641L160.911 171.835L162.818 170.981L164.686 170.08L166.515 169.133L168.303 168.14L170.05 167.102L171.755 166.021L173.417 164.896L175.034 163.729L176.606 162.521L178.132 161.272L179.611 159.985L181.044 158.659L182.428 157.295L183.764 155.895L185.05 154.459L186.285 152.989L187.47 151.485L188.604 149.949L189.687 148.382L190.717 146.785L191.695 145.159L192.62 143.505L193.492 141.823L194.309 140.116L195.073 138.384L195.783 136.629L196.439 134.852" fill="#0E0C15"/>
<path d="M10.5488 61.8049L9.79706 63.5973L9.09984 65.4174L8.4571 67.2651L7.87014 69.1389L7.33893 71.0381L6.86431 72.9608L6.44632 74.9069L6.08622 76.8742L5.78402 78.8624L5.54054 80.8698L5.3558 82.8959L5.23024 84.9386L5.16384 86.9966L5.15747 89.0696L5.21068 91.1553L5.3239 93.2529L5.49755 95.3611L5.73167 97.4783L6.02621 99.6036L6.38122 101.735L6.79663 103.871L7.27209 106.011L7.80756 108.153L8.40306 110.296L9.05856 112.438L9.77323 114.578L10.5475 116.715L11.3809 118.846L12.2722 120.971L13.2214 123.088L14.2285 125.195L15.2922 127.292L16.4125 129.376L17.5886 131.446L18.82 133.501L20.1055 135.54L21.445 137.56L22.8365 139.56L24.2803 141.54L25.7752 143.497L27.3199 145.43L28.9139 147.338L30.5561 149.219L32.2451 151.073L33.9796 152.896L35.7593 154.69L37.5823 156.451L39.4475 158.18L41.3536 159.874L43.2997 161.532L45.2841 163.153L47.3055 164.736L49.3626 166.281L51.4534 167.784L53.5774 169.247L55.7325 170.667L57.917 172.044L60.1299 173.376L62.3697 174.663L64.6342 175.903L66.9225 177.097L69.2321 178.243L71.5621 179.34L73.9104 180.387L76.2757 181.384L78.6564 182.331L81.0503 183.225L83.4565 184.068L85.8721 184.858L88.2966 185.595L90.7275 186.279L93.1635 186.909L95.6024 187.484L98.0431 188.005L100.484 188.471L102.922 188.881L105.358 189.236L107.788 189.536L110.211 189.78L112.625 189.969L115.03 190.102L117.422 190.179L119.801 190.201L122.165 190.167L124.512 190.078L126.841 189.934L129.151 189.735L131.439 189.482L133.704 189.174L135.945 188.812L138.161 188.397L140.349 187.929L142.509 187.409L144.64 186.836L146.739 186.212L148.805 185.537L150.838 184.812L152.836 184.037L154.798 183.213L156.723 182.34L158.609 181.421L160.456 180.454L162.262 179.442L164.028 178.384L165.75 177.283L167.429 176.137L169.063 174.949L170.652 173.72L172.195 172.45L173.691 171.14L175.139 169.792L176.539 168.405L177.89 166.983L179.191 165.524L180.442 164.031L181.641 162.504" fill="#0E0C15"/>
<path d="M157.44 185.33L155.765 186.405L154.048 187.437L152.292 188.425L150.497 189.369L148.664 190.267L146.794 191.119L144.889 191.925L142.949 192.683L140.975 193.392L138.969 194.053L136.932 194.664L134.865 195.226L132.77 195.737L130.647 196.197L128.499 196.605L126.326 196.962L124.13 197.267L121.913 197.518L119.674 197.717L117.418 197.863L115.144 197.955L112.854 197.994L110.551 197.979L108.234 197.911L105.906 197.788L103.569 197.611L101.223 197.38L98.8716 197.095L96.5152 196.757L94.1558 196.365L91.7947 195.919L89.4336 195.42L87.0747 194.868L84.7187 194.263L82.3678 193.607L80.0242 192.897L77.6882 192.137L75.3624 191.326L73.0486 190.464L70.7475 189.552L68.4618 188.59L66.1922 187.58L63.9409 186.522L61.7092 185.416L59.4988 184.264L57.311 183.066L55.1478 181.824L53.0102 180.537L50.9002 179.207L48.8192 177.834L46.7684 176.421L44.7491 174.967L42.763 173.474L40.8115 171.943L38.896 170.375L37.0172 168.771L35.1775 167.132L33.377 165.46L31.6178 163.754L29.9007 162.019L28.2266 160.253L26.5968 158.458L25.0125 156.636L23.4746 154.788L21.9844 152.915L20.5428 151.019L19.15 149.101L17.808 147.162L16.5165 145.204L15.2766 143.228L14.0894 141.235L12.956 139.227L11.8761 137.206L10.8511 135.172L9.88061 133.127L8.96633 131.073L8.10778 129.011L7.30542 126.942L6.56012 124.868L5.87225 122.79L5.24188 120.709L4.66936 118.628L4.15517 116.547L3.69889 114.468L3.30047 112.391L2.96081 110.32L2.67945 108.254L2.45641 106.195L2.29209 104.145L2.18568 102.104L2.13801 100.075L2.1478 98.0584L2.21548 96.0549L2.34052 94.0667" fill="#0E0C15"/>
<path d="M6.50423 132.037L7.14315 133.972L7.83483 135.904L8.57931 137.83L9.37572 139.75L10.224 141.661L11.1239 143.564L12.0748 145.456L13.0759 147.336L14.1268 149.203L15.2276 151.055L16.3764 152.892L17.5733 154.712L18.8175 156.514L20.1076 158.296L21.4438 160.057L22.8246 161.796L24.2493 163.512L25.7173 165.204L27.2271 166.87L28.7778 168.508L30.3688 170.12L31.9982 171.702L33.6659 173.253L35.3702 174.773L37.1103 176.261L38.8848 177.715L40.6926 179.135L42.5323 180.519L44.4026 181.866L46.3023 183.177L48.23 184.448L50.1851 185.681L52.1652 186.873L54.1692 188.024L56.1965 189.133L58.2443 190.201L60.3126 191.224L62.3987 192.204L64.5018 193.139L66.6207 194.029L68.7537 194.873L70.8985 195.67L73.0549 196.421L75.2206 197.124L77.3944 197.78L79.5746 198.387L81.7599 198.946L83.9482 199.455L86.139 199.916L88.3298 200.327L90.5198 200.688L92.7072 200.999L94.8908 201.261L97.0684 201.473L99.2393 201.634L101.402 201.745L103.554 201.807L105.695 201.818L107.823 201.779L109.937 201.69L112.036 201.552L114.117 201.365L116.18 201.128L118.224 200.842L120.246 200.508L122.246 200.125" fill="#0E0C15"/>
<path d="M86.8515 3.18714L88.6444 2.92111L90.4525 2.69509L91.5639 2.57122L93.3584 2.38862L95.1666 2.2456L96.9871 2.14216L98.0214 2.08598L99.8237 2.02341L101.636 2L102.616 2.00595L104.407 2.02128L106.205 2.07448L108.011 2.16643L110.678 2.35755L112.463 2.52184L114.252 2.7236L116.044 2.96239L116.797 3.07349L118.557 3.34377L120.319 3.64982L122.081 3.99162L123.843 4.36832L125.603 4.78035L126.177 4.91912L127.9 5.35754L129.62 5.82958L131.335 6.33569L133.045 6.8754L134.749 7.44749L136.446 8.05277L138.135 8.68996L138.452 8.81084L140.098 9.46678L141.734 10.1534L143.36 10.871L144.975 11.6184L146.577 12.3961L148.167 13.2027L149.743 14.0383L151.305 14.9023L152.851 15.7945L154.381 16.7143L155.894 17.661L157.389 18.6345L158.865 19.6343L160.322 20.6593L161.759 21.7089L163.175 22.7833L164.569 23.8815L165.94 25.0031L166.197 25.2201L167.574 26.3886L168.926 27.5795L170.252 28.7922L171.553 30.0266L172.828 31.2814L174.074 32.5562L175.293 33.8507L175.691 34.2848L176.905 35.6239L178.089 36.9817L179.242 38.3574L180.364 39.7502L181.454 41.1591L181.914 41.7622L182.992 43.2137L184.036 44.6805L185.046 46.1618L186.504 48.3999L187.46 49.9347L188.38 51.482L189.262 53.0403L189.739 53.8929L190.598 55.4895L191.417 57.0959L192.661 59.6681L193.413 61.3188L194.124 62.9767L194.553 64.0072L195.233 65.6979L195.869 67.395M86.8515 3.18714L85.6988 3.37825L83.8962 3.68898L82.1114 4.04099L80.9234 4.30022L79.1327 4.6982L77.3616 5.13748L76.1438 5.46607L74.371 5.95302L72.6203 6.48082L71.3791 6.87966L69.6301 7.456L67.9057 8.07404L66.6471 8.54311L64.9283 9.21011L63.2359 9.91839L61.9658 10.4577L60.2832 11.2158L59.0241 11.8164L57.3534 12.6243L55.7134 13.4739L54.4534 14.143L52.8292 15.0424L51.5876 15.7711L49.9816 16.7199L48.4096 17.7104L47.1769 18.5046L45.6272 19.5445L44.42 20.395L42.8945 21.4833L41.4064 22.6126L40.2171 23.5252L38.7571 24.7021L37.6002 25.6671L36.1709 26.8917L35.0489 27.9064L33.6523 29.1783L32.2974 30.4889L31.2056 31.5585L29.887 32.9142L28.8361 34.0294L27.5553 35.4294M86.8515 3.18714L85.0753 3.49364L83.3161 3.84053L81.576 4.22746L79.8551 4.65439L78.1546 5.12132L76.4763 5.62785L74.8201 6.17438L73.1873 6.76008L71.5792 7.38452L69.9962 8.04853L68.44 8.75085L66.9115 9.49148L65.4111 10.2704L63.94 11.0873L62.4992 11.9415L61.0898 12.8329L59.7124 13.7608L58.3678 14.7249L57.0572 15.7247L55.7811 16.7599L54.5412 17.83L53.3374 18.9346L52.1712 20.0728L51.0432 21.2442L49.9539 22.4483L48.9039 23.6848L47.8946 24.9524L46.9267 26.2507L46.0009 27.5796L45.1177 28.9374L44.2779 30.3242L43.4819 31.739L42.7302 33.1807L42.0241 34.6488L41.3634 36.1428L40.7492 37.6611L40.1823 39.2037L39.663 40.7692L39.1914 42.3569L38.7678 43.9659L38.3933 45.5948L38.068 47.2434L37.7918 48.9102L37.5662 50.5945L37.3904 52.295L37.2653 54.0112L37.1912 55.7411L37.1678 57.4845L37.195 59.2404L37.2742 61.0068L37.404 62.7835L37.5858 64.5687L37.8191 66.3619L38.1038 68.1616L38.4401 69.9664L38.8274 71.7758L39.2658 73.5878L39.7558 75.4019L40.2963 77.2169L40.8876 79.0315L41.5295 80.8439L42.222 82.6533L42.9639 84.4589L43.7552 86.259L44.5954 88.0527L45.4842 89.8383L46.4206 91.615L47.4052 93.3815L48.4369 95.1364L49.5147 96.879L50.6384 98.6072L51.8072 100.321L53.0199 102.018L54.2765 103.698L55.576 105.359L56.9172 107.001L58.2997 108.621L59.7227 110.219L61.1848 111.794L62.6856 113.345L64.2235 114.871L65.7975 116.37L67.4069 117.842L69.0508 119.285L70.7279 120.698L72.4369 122.081L74.1769 123.432L75.9468 124.751L77.7447 126.037L79.5699 127.288L81.4211 128.504L83.2969 129.684L85.1962 130.827L87.118 131.932L89.0603 132.999L91.0217 134.027L93.0014 135.015L94.9981 135.962L97.0097 136.869L99.0354 137.733L101.073 138.556L103.123 139.335L105.182 140.071L107.249 140.763L109.323 141.411L111.402 142.015L113.485 142.573L115.572 143.086L117.659 143.553L119.745 143.974L121.83 144.349L123.911 144.678L125.988 144.96L128.06 145.196L130.123 145.385L132.178 145.528L134.223 145.624L136.256 145.672L138.277 145.675L140.283 145.631L142.274 145.54L144.248 145.403L146.204 145.221L148.14 144.992L150.056 144.718L151.95 144.399L153.821 144.034L155.668 143.625L157.49 143.172L159.285 142.676L161.052 142.136L162.792 141.553L164.501 140.928L166.179 140.261L167.826 139.552L169.44 138.803L171.021 138.014L172.567 137.186L174.077 136.319L175.552 135.414L176.989 134.471L178.388 133.492L179.749 132.477L181.07 131.426L182.351 130.341L183.592 129.223L184.791 128.072L185.948 126.889L187.063 125.675L188.134 124.43L189.162 123.156L190.145 121.854L191.084 120.524L191.979 119.167L192.828 117.784L193.63 116.377L194.388 114.946L195.098 113.491L195.762 112.015L196.379 110.518L196.949 109L197.472 107.464L197.948 105.909L198.376 104.337L198.756 102.749L199.089 101.145L199.374 99.5274L199.611 97.8963L199.801 96.2533L199.943 94.5988L200.037 92.9341L200.084 91.26L200.084 89.5778L200.036 87.888L199.941 86.1918L199.8 84.4904L199.612 82.7848L199.378 81.0754L199.097 79.3639L198.771 77.6511L198.399 75.9374L197.982 74.2241L197.52 72.5126L197.014 70.8028L196.463 69.0968L195.869 67.395M27.5553 35.4294L26.5473 36.5876L25.3066 38.0305L24.1122 39.5105L23.1455 40.7143L21.9941 42.2356L21.0751 43.4763L19.9689 45.0368L19.0997 46.3124L18.0407 47.9112L17.223 49.2184L16.2117 50.8533L15.251 52.5214L14.4861 53.8593L13.5756 55.561L12.866 56.924L12.0075 58.6572L11.3545 60.0423L10.5492 61.8049L9.95457 63.2091L9.20371 64.9998L8.50693 66.8182L7.97188 68.2356L7.33085 70.0783L6.85667 71.5072L6.27182 73.372L5.85853 74.809L5.3307 76.6929L4.85909 78.6007L4.50837 80.0364L4.09461 81.9595L3.80603 83.3956L3.45019 85.3319L3.22375 86.7651L2.9262 88.7125L2.68571 90.6781L2.52269 92.0943L2.34052 94.0667M27.5553 35.4294L26.3199 36.8673L25.1302 38.3413L23.9878 39.8515L22.893 41.3971L21.8467 42.9767L20.8499 44.5903L19.9032 46.2363L19.0076 47.9142L18.1636 49.6232L17.3719 51.362L16.6334 53.1302L15.9493 54.9264L15.3194 56.7495L14.7443 58.5989L14.2254 60.4731L13.7623 62.3711L13.3558 64.292L13.0064 66.2347L12.7148 68.1978L12.4811 70.1801L12.3062 72.1806L12.19 74.1982L12.1325 76.2316L12.1342 78.2794L12.1955 80.3399L12.3164 82.4124L12.4969 84.496L12.7378 86.5881L13.0383 88.6883L13.3988 90.7952L13.8194 92.9069L14.2995 95.0224L14.8388 97.1404L15.4381 99.2593L16.0966 101.378L16.8143 103.494L17.5906 105.607L18.4253 107.715L19.3179 109.818L20.2676 111.912L21.2747 113.997L22.3379 116.072L23.457 118.134L24.6313 120.183L25.8606 122.218L27.1435 124.236L28.4797 126.236L29.8677 128.217L31.3073 130.177L32.797 132.116L34.3366 134.031L35.9247 135.921L37.5605 137.785L39.2427 139.622L40.97 141.43L42.7415 143.207L44.5561 144.954L46.4124 146.668L48.3095 148.348L50.2454 149.993L52.2195 151.601L54.2303 153.173L56.276 154.705L58.3553 156.198L60.4669 157.651L62.6097 159.061L64.7813 160.429L66.9811 161.753L69.2069 163.033L71.4573 164.266L73.7307 165.454L76.0258 166.594L78.3405 167.686L80.6735 168.729L83.0227 169.723L85.3872 170.667L87.7648 171.56L90.1536 172.402L92.5526 173.191L94.9596 173.928L97.3731 174.613L99.7912 175.244L102.212 175.822L104.635 176.346L107.057 176.815L109.477 177.23L111.894 177.59L114.305 177.895L116.709 178.146L119.104 178.342L121.489 178.482L123.862 178.568L126.222 178.599L128.567 178.574L130.894 178.496L133.204 178.362L135.494 178.175L137.762 177.934L140.008 177.639L142.23 177.291L144.426 176.89L146.595 176.436L148.736 175.93L150.847 175.373L152.927 174.765L154.975 174.107L156.989 173.398L158.968 172.641L160.911 171.835L162.818 170.981L164.686 170.08L166.515 169.133L168.303 168.14L170.05 167.102L171.755 166.021L173.417 164.896L175.034 163.729L176.606 162.521L178.132 161.272L179.611 159.985L181.044 158.659L182.428 157.295L183.764 155.895L185.05 154.459L186.285 152.989L187.47 151.485L188.604 149.949L189.687 148.382L190.717 146.785L191.695 145.159L192.62 143.505L193.492 141.823L194.309 140.116L195.073 138.384L195.783 136.629L196.439 134.852M2.34052 94.0667L2.24005 95.4718L2.11577 97.4481L2.0485 99.4389L2.01021 100.816L2 102.807L2.02255 104.165L2.06895 106.153L2.17282 108.152L2.25411 109.471L2.41329 111.463L2.76744 114.737L3.03729 116.725L3.23224 117.969L3.55533 119.943L3.93331 121.921L4.18017 123.11L4.60925 125.07L5.09234 127.031L5.38731 128.159L5.91896 130.099L6.50423 132.037M2.34052 94.0667L2.21548 96.0549L2.1478 98.0584L2.13801 100.075L2.18568 102.104L2.29209 104.145L2.45641 106.195L2.67945 108.254L2.96081 110.32L3.30047 112.391L3.69889 114.468L4.15517 116.547L4.66936 118.628L5.24188 120.709L5.87225 122.79L6.56012 124.868L7.30542 126.942L8.10778 129.011L8.96633 131.073L9.88061 133.127L10.8511 135.172L11.8761 137.206L12.956 139.227L14.0894 141.235L15.2766 143.228L16.5165 145.204L17.808 147.162L19.15 149.101L20.5428 151.019L21.9844 152.915L23.4746 154.788L25.0125 156.636L26.5968 158.458L28.2266 160.253L29.9007 162.019L31.6178 163.754L33.377 165.46L35.1775 167.132L37.0172 168.771L38.896 170.375L40.8115 171.943L42.763 173.474L44.7491 174.967L46.7684 176.421L48.8192 177.834L50.9002 179.207L53.0102 180.537L55.1478 181.824L57.311 183.066L59.4988 184.264L61.7092 185.416L63.9409 186.522L66.1922 187.58L68.4618 188.59L70.7475 189.552L73.0486 190.464L75.3624 191.326L77.6882 192.137L80.0242 192.897L82.3678 193.607L84.7187 194.263L87.0747 194.868L89.4336 195.42L91.7947 195.919L94.1558 196.365L96.5152 196.757L98.8716 197.095L101.223 197.38L103.569 197.611L105.906 197.788L108.234 197.911L110.551 197.979L112.854 197.994L115.144 197.955L117.418 197.863L119.674 197.717L121.913 197.518L124.13 197.267L126.326 196.962L128.499 196.605L130.647 196.197L132.77 195.737L134.865 195.226L136.932 194.664L138.969 194.053L140.975 193.392L142.949 192.683L144.889 191.925L146.794 191.119L148.664 190.267L150.497 189.369L152.292 188.425L154.048 187.437L155.765 186.405L157.44 185.33M6.50423 132.037L6.84392 133.099L7.47473 135.011L8.15831 136.919L8.53714 137.91L9.2633 139.789L10.0401 141.661L10.8676 143.526L11.2703 144.415L12.1356 146.245L13.0499 148.065L14.4294 150.656L15.4255 152.426L16.4683 154.181L17.5571 155.923L17.9777 156.592L19.0942 158.291L20.2545 159.972L21.4578 161.635L21.8715 162.188L23.0974 163.805L24.3641 165.401L25.6709 166.976L27.0172 168.528L28.4015 170.056L28.7513 170.437L30.1492 171.915L31.5828 173.368L33.0513 174.794L34.5538 176.193L36.0896 177.563L37.6573 178.904L39.256 180.214L39.4607 180.377L41.0599 181.634L42.6872 182.858L44.3417 184.051L46.0222 185.21L47.7277 186.335L49.4567 187.425L51.2083 188.48L52.9811 189.498L54.774 190.479L56.586 191.423L58.4154 192.328L60.2615 193.195L62.1224 194.022L63.997 194.809L64.2413 194.91L66.1631 195.67L68.096 196.388L70.0395 197.064L71.9916 197.698L73.9509 198.288L75.9165 198.835L77.8869 199.338L78.3917 199.46L80.3995 199.927L82.4094 200.349L84.4197 200.725L86.4297 201.056L88.4375 201.342L89.1236 201.436L91.1604 201.679L93.1929 201.876L95.2185 202.027L96.0098 202.07L98.0589 202.175L100.099 202.233L102.129 202.243L103.016 202.228L105.063 202.191L107.097 202.105L109.116 201.972L110.09 201.893L112.121 201.71L114.133 201.479L116.126 201.201L117.177 201.052L119.176 200.722L121.152 200.343L122.246 200.125M6.50423 132.037L7.14315 133.972L7.83483 135.904L8.57931 137.83L9.37572 139.75L10.224 141.661L11.1239 143.564L12.0748 145.456L13.0759 147.336L14.1268 149.203L15.2276 151.055L16.3764 152.892L17.5733 154.712L18.8175 156.514L20.1076 158.296L21.4438 160.057L22.8246 161.796L24.2493 163.512L25.7173 165.204L27.2271 166.87L28.7778 168.508L30.3688 170.12L31.9982 171.702L33.6659 173.253L35.3702 174.773L37.1103 176.261L38.8848 177.715L40.6926 179.135L42.5323 180.519L44.4026 181.866L46.3023 183.177L48.23 184.448L50.1851 185.681L52.1652 186.873L54.1692 188.024L56.1965 189.133L58.2443 190.201L60.3126 191.224L62.3987 192.204L64.5018 193.139L66.6207 194.029L68.7537 194.873L70.8985 195.67L73.0549 196.421L75.2206 197.124L77.3944 197.78L79.5746 198.387L81.7599 198.946L83.9482 199.455L86.139 199.916L88.3298 200.327L90.5198 200.688L92.7072 200.999L94.8908 201.261L97.0684 201.473L99.2393 201.634L101.402 201.745L103.554 201.807L105.695 201.818L107.823 201.779L109.937 201.69L112.036 201.552L114.117 201.365L116.18 201.128L118.224 200.842L120.246 200.508L122.246 200.125M122.246 200.125L124.223 199.695L126.174 199.218L127.305 198.929L129.252 198.398L131.172 197.821L132.332 197.46L134.243 196.83L136.124 196.152L137.307 195.72L139.173 194.99L140.356 194.493L142.207 193.71L144.022 192.882L145.217 192.314L147.012 191.433L148.77 190.509L149.969 189.87L151.703 188.894L152.889 188.193L154.595 187.168L156.26 186.099L157.44 185.33M157.44 185.33L159.073 184.213L160.233 183.385L161.833 182.22L163.388 181.014L164.532 180.122L166.05 178.87L167.166 177.922L168.644 176.627L169.73 175.625L171.167 174.286L172.556 172.911L173.612 171.853L174.956 170.437L175.976 169.33L177.274 167.875L178.254 166.721L179.504 165.229L180.702 163.704L181.642 162.504L182.79 160.944L183.685 159.703L184.782 158.112L185.63 156.831L186.674 155.21L187.473 153.893L188.463 152.244L189.4 150.567L190.147 149.219L191.029 147.517L191.724 146.14L192.549 144.416L193.189 143.012L193.959 141.268L194.543 139.84L195.256 138.078L195.914 136.294L196.439 134.852M196.439 134.852L197.04 133.053L197.506 131.595L198.05 129.784L198.457 128.313L198.944 126.492L199.377 124.655L199.721 123.183L200.097 121.339L200.38 119.862L200.7 118.014L200.923 116.533L201.187 114.685L201.397 112.823L201.557 111.357L201.713 109.498L201.811 108.036L201.914 106.182L201.963 104.317L202 102.88L201.997 101.024L201.973 99.5993L201.919 97.7533L201.814 95.9004L201.731 94.5103L201.576 92.6714L201.433 91.3008L201.231 89.4778L200.98 87.6513L200.782 86.325L200.485 84.5172L200.14 82.7086L199.888 81.4317L199.501 79.6448L199.066 77.8583L198.764 76.6359L198.289 74.8745L197.768 73.1153L197.42 71.952L196.862 70.2209L196.259 68.494L195.869 67.395M52.8299 15.0424L51.238 15.9831L49.6801 16.9647L48.1567 17.9867L46.6691 19.0483L45.218 20.1494L43.8049 21.2902L42.4308 22.4688L41.096 23.6857L39.8016 24.9401L38.5489 26.2311L37.3383 27.5583L36.1708 28.9212L35.0475 30.3187L33.9693 31.7501L32.9367 33.2152L31.9509 34.7127L31.0119 36.2424L30.1214 37.8029L29.2795 39.3935L28.4869 41.0136L27.7446 42.6621L27.0529 44.3383L26.4132 46.0409L25.8253 47.7691L25.2899 49.5223L24.8076 51.299L24.379 53.0982L24.004 54.9192L23.6839 56.7606L23.4183 58.6215L23.2084 60.5007L23.0543 62.397L22.956 64.3095L22.9135 66.2368L22.9275 68.1778L22.9981 70.1311L23.1254 72.0955L23.3097 74.0701L23.5507 76.0536L23.849 78.044L24.204 80.0411L24.6156 82.0425L25.0843 84.0478L25.6091 86.0556L26.1905 88.0638L26.8282 90.0716L27.522 92.0777L28.2716 94.0808L29.076 96.0793L29.9358 98.0721L30.8497 100.057L31.8177 102.035L32.8388 104.001L33.9127 105.957L35.0394 107.9L36.2176 109.829L37.4469 111.742L38.726 113.639L40.0544 115.518L41.4314 117.378L42.8561 119.216L44.328 121.033L45.8454 122.827L47.408 124.595L49.0144 126.338L50.6634 128.054L52.3541 129.742L54.0856 131.4L55.8563 133.028L57.6653 134.623L59.5114 136.186L61.3932 137.714L63.3095 139.208L65.259 140.665L67.24 142.084L69.2516 143.466L71.2922 144.808L73.3604 146.109L75.4546 147.37L77.5739 148.588L79.7162 149.764L81.8798 150.896L84.0643 151.983L86.267 153.025L88.4868 154.021L90.7219 154.971L92.9714 155.874L95.2329 156.728L97.5055 157.534L99.7874 158.291L102.077 158.999L104.372 159.657L106.671 160.264L108.974 160.821L111.278 161.327L113.581 161.782L115.883 162.186L118.18 162.538L120.473 162.838L122.759 163.087L125.036 163.283L127.304 163.428L129.56 163.52L131.804 163.56L134.033 163.549L136.246 163.486L138.442 163.371L140.619 163.206L142.776 162.989L144.912 162.721L147.024 162.403L149.113 162.035L151.175 161.617L153.211 161.149L155.218 160.633L157.197 160.069L159.144 159.457L161.06 158.797L162.942 158.09L164.79 157.338L166.603 156.54L168.38 155.697L170.12 154.81L171.821 153.88L173.483 152.907L175.104 151.892L176.685 150.837L178.223 149.741L179.719 148.605L181.171 147.431L182.579 146.219L183.942 144.971L185.259 143.687L186.53 142.368L187.753 141.015L188.929 139.629L190.056 138.211L191.135 136.762L192.165 135.283L193.145 133.775L194.076 132.239L194.955 130.676L195.785 129.088L196.562 127.474L197.289 125.837L197.964 124.176L198.588 122.495L199.159 120.793L199.678 119.071L200.146 117.331L200.56 115.574L200.923 113.8L201.233 112.012L201.491 110.209L201.696 108.393L201.85 106.566L201.951 104.728L202.001 102.88M10.5488 61.8049L9.79706 63.5973L9.09984 65.4174L8.4571 67.2651L7.87014 69.1389L7.33893 71.0381L6.86431 72.9608L6.44632 74.9069L6.08622 76.8742L5.78402 78.8624L5.54054 80.8698L5.3558 82.8959L5.23024 84.9386L5.16384 86.9966L5.15747 89.0696L5.21068 91.1553L5.3239 93.2529L5.49755 95.3611L5.73167 97.4783L6.02621 99.6036L6.38122 101.735L6.79663 103.871L7.27209 106.011L7.80756 108.153L8.40306 110.296L9.05856 112.438L9.77323 114.578L10.5475 116.715L11.3809 118.846L12.2722 120.971L13.2214 123.088L14.2285 125.195L15.2922 127.292L16.4125 129.376L17.5886 131.446L18.82 133.501L20.1055 135.54L21.445 137.56L22.8365 139.56L24.2803 141.54L25.7752 143.497L27.3199 145.43L28.9139 147.338L30.5561 149.219L32.2451 151.073L33.9796 152.896L35.7593 154.69L37.5823 156.451L39.4475 158.18L41.3536 159.874L43.2997 161.532L45.2841 163.153L47.3055 164.736L49.3626 166.281L51.4534 167.784L53.5774 169.247L55.7325 170.667L57.917 172.044L60.1299 173.376L62.3697 174.663L64.6342 175.903L66.9225 177.097L69.2321 178.243L71.5621 179.34L73.9104 180.387L76.2757 181.384L78.6564 182.331L81.0503 183.225L83.4565 184.068L85.8721 184.858L88.2966 185.595L90.7275 186.279L93.1635 186.909L95.6024 187.484L98.0431 188.005L100.484 188.471L102.922 188.881L105.358 189.236L107.788 189.536L110.211 189.78L112.625 189.969L115.03 190.102L117.422 190.179L119.801 190.201L122.165 190.167L124.512 190.078L126.841 189.934L129.151 189.735L131.439 189.482L133.704 189.174L135.945 188.812L138.161 188.397L140.349 187.929L142.509 187.409L144.64 186.836L146.739 186.212L148.805 185.537L150.838 184.812L152.836 184.037L154.798 183.213L156.723 182.34L158.609 181.421L160.456 180.454L162.262 179.442L164.028 178.384L165.75 177.283L167.429 176.137L169.063 174.949L170.652 173.72L172.195 172.45L173.691 171.14L175.139 169.792L176.539 168.405L177.89 166.983L179.191 165.524L180.442 164.031L181.641 162.504M156.195 29.2433L155.459 28.6164L154.709 28.0021L153.947 27.4003L153.173 26.812L152.386 26.2365L151.589 25.6751L150.781 25.1277L149.963 24.5944L149.134 24.0755L148.296 23.572L147.45 23.0837L146.595 22.6104L145.731 22.1533L144.861 21.7119L143.983 21.2871L143.099 20.8784L142.209 20.4864L141.313 20.1118L140.412 19.7539L139.507 19.4138L138.598 19.0911L137.686 18.7859L136.77 18.4986L135.852 18.2296L134.932 17.9789L134.01 17.7469L133.088 17.5332L132.165 17.3383L131.243 17.1621L130.321 17.005L129.4 16.8667L128.481 16.7475L127.564 16.6475L126.65 16.567L125.739 16.5057L124.832 16.464L123.93 16.4419L123.032 16.4389L122.14 16.4555L121.253 16.4917L120.373 16.5474L119.5 16.6224L118.634 16.7173L117.777 16.8313L116.927 16.965L116.087 17.1178L115.256 17.2898L114.435 17.4809L113.624 17.6916L112.825 17.921L112.036 18.1696L111.259 18.4369L110.495 18.7229L109.744 19.0273L109.006 19.3499L108.281 19.6909L107.571 20.0501L106.875 20.4268L106.194 20.8218L105.529 21.2339L104.879 21.6629L104.246 22.1094L103.63 22.5725L103.03 23.0522L102.448 23.5481L101.883 24.0602L101.337 24.5876L100.809 25.1307L100.301 25.6892L99.8112 26.2621L99.3408 26.8495L98.8905 27.4513L98.4601 28.0668L98.0502 28.696L97.6612 29.3383L97.2934 29.9933L96.9465 30.6608L96.6209 31.3401L96.3174 32.0314L96.0356 32.7333L95.776 33.4462L95.5385 34.1698L95.3235 34.9032L95.1315 35.6464L94.9621 36.3981L94.8161 37.1592L94.6927 37.9279L94.5927 38.7043L94.5156 39.4884L94.4624 40.2792L94.4326 41.076L94.4262 41.8788L94.4433 42.6871L94.4841 43.5001L94.5484 44.3174L94.6361 45.1389L94.7476 45.9634L94.8825 46.7908L95.0409 47.6204L95.2231 48.4521L95.4282 49.2847L95.6564 50.1181L95.9079 50.952L96.1821 51.7858L96.4792 52.6184L96.7993 53.4497L97.1419 54.2793L97.5062 55.1064L97.8932 55.9308L98.3018 56.7515L98.7321 57.5683L99.1837 58.3809L99.6566 59.1879L100.15 59.9898L100.665 60.7858L101.199 61.575L101.753 62.3569L102.328 63.1316L102.921 63.8982L103.533 64.6563L104.163 65.405L104.812 66.1444L105.478 66.8739L106.162 67.5928L106.862 68.3007L107.579 68.9971L108.312 69.6819L109.06 70.354L109.824 71.0138L110.601 71.6599L111.394 72.2929L112.199 72.9118L113.017 73.5158L113.848 74.1053L114.691 74.6799L115.545 75.2388L116.411 75.7815L117.286 76.3085L118.172 76.8184L119.066 77.3113L119.969 77.7872L120.88 78.2456L121.799 78.6862L122.724 79.1084L123.656 79.5124L124.593 79.8976L125.535 80.2641L126.482 80.6114L127.433 80.9391L128.387 81.2477L129.343 81.5363L130.302 81.8054L131.262 82.0544L132.222 82.2825L133.183 82.4906L134.143 82.6784L135.102 82.8456L136.06 82.9921L137.015 83.118L137.967 83.2232L138.916 83.307L139.861 83.3705L140.801 83.4126L141.736 83.4343L142.664 83.4347L143.587 83.4143L144.502 83.373L145.409 83.3113L146.309 83.2287L147.2 83.1253L148.081 83.001L148.952 82.8567L149.814 82.692L150.664 82.5068L151.503 82.3017L152.329 82.0769L153.144 81.8322L153.945 81.5678L154.733 81.2839L155.508 80.9809L156.267 80.6591L157.012 80.3181L157.742 79.9593L158.456 79.5817L159.154 79.1863L159.836 78.7734L160.5 78.3427L161.148 77.8949L161.777 77.4301L162.389 76.9491L162.982 76.4519L163.556 75.9386L164.112 75.4099L164.648 74.8659L165.164 74.3071L165.661 73.7341L166.138 73.1467L166.594 72.5453L167.029 71.9311L167.444 71.3037L167.837 70.6639L168.209 70.0118L168.559 69.3478L168.888 68.6727L169.195 67.987L169.48 67.2906L169.743 66.584L169.984 65.8681L170.202 65.1428L170.397 64.409L170.57 63.6671L170.721 62.9171L170.849 62.1598L170.954 61.3958L171.037 60.6249L171.096 59.8485L171.133 59.0666L171.147 58.2796L171.139 57.4883L171.108 56.6928L171.054 55.8934L170.978 55.091L170.879 54.2861L170.758 53.4791L170.614 52.6699L170.449 51.8599L170.261 51.0491L170.051 50.2378L169.82 49.4269L169.567 48.6164L169.293 47.8069L168.997 46.9994L168.681 46.1936L168.343 45.3904L167.985 44.5902L167.607 43.7934L167.208 43.0004L166.79 42.2121L166.352 41.428L165.894 40.6495L165.417 39.8761L164.922 39.1095L164.408 38.3489L163.876 37.5955L163.326 36.8493L162.758 36.1108L162.173 35.3808L161.572 34.6589L160.954 33.9464L160.319 33.2432L159.669 32.5498L159.004 31.8666L158.323 31.1941L157.628 30.5322L156.919 29.8818L156.195 29.2433ZM147.116 34.8238L147.533 35.1524L147.96 35.4699L148.378 35.7913L148.764 36.1314L149.107 36.5013L149.422 36.8924L149.73 37.2913L150.055 37.685L150.411 38.0638L150.78 38.435L151.138 38.8079L151.459 39.1927L151.728 39.597L151.962 40.0154L152.188 40.4407L152.433 40.8638L152.714 41.28L153.011 41.6908L153.295 42.1016L153.54 42.517L153.724 42.9405L153.869 43.3713L154.004 43.8063L154.159 44.2434L154.354 44.681L154.567 45.1169L154.768 45.5506L154.925 45.9809L155.018 46.4079L155.068 46.8344L155.106 47.263L155.165 47.698L155.267 48.1403L155.388 48.5851L155.497 49.0256L155.56 49.4551L155.557 49.8693L155.51 50.2749L155.45 50.6814L155.411 51.0969L155.414 51.5276L155.437 51.9648L155.449 52.3955L155.417 52.808L155.318 53.1936L155.174 53.5631L155.017 53.9308L154.88 54.3114L154.784 54.714L154.709 55.1269L154.623 55.5317L154.495 55.911L154.303 56.2532L154.068 56.572L153.82 56.8866L153.59 57.2173L153.398 57.5765L153.226 57.949L153.044 58.3125L152.825 58.6441L152.547 58.9293L152.229 59.1842L151.899 59.4332L151.584 59.701L151.303 60.0028L151.04 60.3203L150.769 60.628L150.465 60.8988L150.111 61.1154L149.723 61.2963L149.322 61.4696L148.935 61.6628L148.575 61.8952L148.23 62.1459L147.88 62.3856L147.504 62.5843L147.087 62.7235L146.643 62.8227L146.188 62.9125L145.742 63.024L145.317 63.1768L144.903 63.3501L144.487 63.5123L144.052 63.6314L143.59 63.6868L143.106 63.6995L142.614 63.7021L142.127 63.7264L141.653 63.794L141.187 63.883L140.72 63.9609L140.244 63.9954L139.753 63.9643L139.249 63.8898L138.74 63.8038L138.23 63.74L137.726 63.7187L137.225 63.7196L136.726 63.7102L136.227 63.6578L135.726 63.5416L135.223 63.382L134.716 63.2109L134.205 63.0602L133.69 62.9512L133.174 62.864L132.662 62.7674L132.16 62.6303L131.67 62.4328L131.187 62.194L130.703 61.9437L130.21 61.7126L129.705 61.5202L129.194 61.3478L128.69 61.1678L128.205 60.9515L127.745 60.6804L127.301 60.3714L126.86 60.0521L126.405 59.7491L125.929 59.4805L125.444 59.2306L124.968 58.9744L124.518 58.6875L124.107 58.3534L123.721 57.9869L123.339 57.6106L122.941 57.2479L122.513 56.9142L122.073 56.5963L121.643 56.2741L121.247 55.928L120.902 55.5445L120.588 55.1346L120.281 54.7166L119.955 54.3084L119.593 53.9227L119.214 53.5503L118.848 53.1757L118.521 52.7841L118.254 52.3661L118.026 51.929L117.806 51.4859L117.565 51.0488L117.282 50.6265L116.981 50.2141L116.691 49.802L116.447 49.3811L116.269 48.9452L116.134 48.4982L116.01 48.0471L115.863 47.598L115.671 47.1566L115.457 46.7207L115.257 46.2878L115.103 45.8545L115.021 45.4178L114.985 44.9785L114.961 44.5367L114.914 44.0936L114.819 43.6501L114.701 43.2087L114.596 42.772L114.54 42.3429L114.556 41.9228L114.62 41.5078L114.697 41.0928L114.749 40.6726L114.755 40.2444L114.737 39.815L114.731 39.3919L114.773 38.9837L114.886 38.5963L115.047 38.2213L115.221 37.8489L115.373 37.4679L115.478 37.0721L115.56 36.6707L115.653 36.2774L115.79 35.9066L115.995 35.5661L116.246 35.2456L116.51 34.9293L116.753 34.602L116.953 34.253L117.131 33.8954L117.318 33.5477L117.545 33.2276L117.834 32.9471L118.166 32.6925L118.508 32.4444L118.833 32.1822L119.12 31.8936L119.386 31.5935L119.66 31.3036L119.967 31.0465L120.329 30.8363L120.726 30.6571L121.135 30.4855L121.529 30.2987L121.891 30.0807L122.234 29.8492L122.583 29.6283L122.959 29.4435L123.379 29.3107L123.828 29.2128L124.286 29.1239L124.734 29.0183L125.156 28.8795L125.564 28.7246L125.975 28.5812L126.405 28.4752L126.866 28.4245L127.35 28.4109L127.84 28.4075L128.324 28.3866L128.791 28.3313L129.247 28.2594L129.704 28.1977L130.171 28.1742L130.657 28.207L131.157 28.2777L131.662 28.359L132.164 28.4237L132.658 28.4535L133.145 28.4667L133.63 28.4892L134.117 28.5492L134.609 28.6637L135.106 28.8153L135.607 28.9779L136.109 29.1251L136.611 29.2392L137.111 29.3363L137.606 29.4427L138.094 29.5832L138.574 29.7747L139.051 30.0016L139.528 30.2391L140.011 30.463L140.503 30.6566L140.996 30.8346L141.483 31.0201L141.954 31.236L142.405 31.4977L142.843 31.791L143.279 32.0945L143.726 32.3865L144.189 32.6525L144.658 32.9049L145.119 33.1629L145.556 33.4464L145.96 33.7682L146.344 34.1168L146.723 34.4743L147.116 34.8238ZM162.872 26.0651L161.818 25.1704L160.747 24.2931L159.657 23.4346L158.55 22.5943L157.427 21.7728L156.287 20.9713L155.133 20.1894L153.964 19.4283L152.781 18.6877L151.584 17.9683L150.375 17.2707L149.154 16.5948L147.921 15.9414L146.678 15.3106L145.424 14.7032L144.162 14.1188L142.891 13.5582L141.611 13.0219L140.324 12.5094L139.031 12.022L137.732 11.5593L136.428 11.1222L135.119 10.7101L133.807 10.3237L132.491 9.96312L131.174 9.62899L129.855 9.32124L128.534 9.03989L127.214 8.78492L125.894 8.5572L124.576 8.35629L123.26 8.18262L121.946 8.03662L120.637 7.91786L119.331 7.82635L118.03 7.76293L116.736 7.72674L115.447 7.71824L114.166 7.73781L112.893 7.78507L111.628 7.8604L110.373 7.96341L109.128 8.09408L107.893 8.25286L106.671 8.43929L105.46 8.65296L104.263 8.89474L103.079 9.16375L101.909 9.46042L100.755 9.78435L99.6162 10.1355L98.4938 10.5139L97.3884 10.9187L96.3013 11.3503L95.232 11.8087L94.1819 12.2931L93.1519 12.8035L92.1418 13.3398L91.153 13.9021L90.1859 14.4891L89.2409 15.1016L88.3186 15.7384L87.4196 16.3998L86.5449 17.0851L85.6949 17.7943L84.8695 18.5264L84.0706 19.2819L83.2972 20.06L82.551 20.8598L81.8316 21.6817L81.14 22.525L80.4768 23.3886L79.8421 24.2731L79.2369 25.1772L78.661 26.1009L78.1149 27.0432L77.5994 28.0039L77.1146 28.9825L76.6608 29.9781L76.2386 30.9907L75.8483 32.0191L75.4899 33.0632L75.1642 34.1223L74.871 35.1957L74.6109 36.2824L74.3836 37.3823L74.1899 38.495L74.0299 39.6187L73.9035 40.7539L73.8111 41.8993L73.7528 43.0541L73.7289 44.2183L73.7387 45.3905L73.7834 46.5704L73.8622 47.7567L73.975 48.9494L74.1227 50.1472L74.3049 51.3497L74.5211 52.5559L74.7714 53.7652L75.0561 54.9771L75.3749 56.1902L75.7274 57.4041L76.1135 58.6176L76.5336 59.8308L76.9865 61.0422L77.473 62.251L77.9923 63.4569L78.5439 64.6589L79.1279 65.8563L79.7434 67.0477L80.3908 68.2331L81.0697 69.4117L81.7789 70.5819L82.5186 71.7439L83.2887 72.8961L84.088 74.0382L84.9159 75.1695L85.7728 76.2894L86.6573 77.3965L87.569 78.4905L88.508 79.5708L89.473 80.6362L90.4634 81.6863L91.4795 82.7206L92.5193 83.7379L93.5826 84.7382L94.6693 85.7202L95.7781 86.6834L96.9087 87.6271L98.0601 88.5507L99.231 89.454L100.422 90.3359L101.631 91.1957L102.858 92.0334L104.102 92.8486L105.361 93.6394L106.636 94.4064L107.926 95.1492L109.229 95.8668L110.545 96.5585L111.872 97.2247L113.211 97.8644L114.56 98.4774L115.917 99.0631L117.284 99.6211L118.657 100.151L120.037 100.653L121.422 101.126L122.812 101.571L124.206 101.986L125.602 102.372L127.001 102.728L128.4 103.054L129.799 103.35L131.197 103.616L132.594 103.852L133.988 104.057L135.378 104.232L136.764 104.376L138.144 104.49L139.517 104.572L140.884 104.624L142.242 104.645L143.592 104.635L144.932 104.595L146.26 104.524L147.578 104.423L148.883 104.291L150.175 104.129L151.452 103.937L152.715 103.715L153.963 103.463L155.194 103.182L156.408 102.872L157.604 102.532L158.781 102.164L159.94 101.767L161.078 101.342L162.196 100.89L163.292 100.409L164.366 99.902L165.418 99.3683L166.446 98.8081L167.451 98.2215L168.431 97.6099L169.386 96.9727L170.316 96.3112L171.219 95.6255L172.097 94.9164L172.947 94.1838L173.77 93.4283L174.565 92.6511L175.331 91.8521L176.069 91.0319L176.777 90.1912L177.456 89.3301L178.106 88.4503L178.725 87.5513L179.314 86.634L179.872 85.6993L180.398 84.7475L180.894 83.7792L181.358 82.7947L181.791 81.7957L182.191 80.7818L182.56 79.7538L182.897 78.7131L183.201 77.6592L183.472 76.5938L183.711 75.5164L183.918 74.4289L184.092 73.3311L184.233 72.2245L184.342 71.1088L184.418 69.9855L184.462 68.8546L184.473 67.7172L184.451 66.5735L184.397 65.4247L184.311 64.2716L184.192 63.1142L184.042 61.9539L183.859 60.7906L183.645 59.6256L183.399 58.4593L183.121 57.2926L182.813 56.1255L182.474 54.9596L182.104 53.795L181.704 52.6326L181.273 51.4727L180.813 50.3162L180.323 49.1635L179.803 48.0159L179.256 46.8735L178.679 45.7366L178.074 44.6069L177.442 43.484L176.783 42.3688L176.096 41.2621L175.383 40.1644L174.643 39.0764L173.878 37.9987L173.088 36.9316L172.273 35.8759L171.434 34.8318L170.571 33.8005L169.684 32.7823L168.775 31.7778L167.843 30.7873L166.89 29.8113L165.916 28.851L164.921 27.906L163.906 26.9773L162.872 26.0651ZM166.963 25.9523L165.643 24.8324L164.301 23.7351L162.938 22.6607L161.552 21.6094L160.147 20.5823L158.721 19.579L157.276 18.6013L155.814 17.6487L154.333 16.7225L152.836 15.8222L151.324 14.9496L149.796 14.1039L148.254 13.2862L146.698 12.497L145.13 11.7364L143.55 11.0047L141.959 10.3028L140.358 9.63111L138.748 8.98966L137.129 8.37885L135.503 7.79868L133.87 7.25044L132.231 6.73328L130.588 6.24846L128.94 5.796L127.289 5.37629L125.636 4.98896L123.981 4.63524L122.326 4.3143L120.671 4.02699L119.018 3.77329L117.367 3.55366L115.718 3.36808L114.074 3.21697L112.435 3.09991L110.801 3.01734L109.174 2.96966L107.555 2.95647L105.944 2.97776L104.343 3.03394L102.751 3.12502L101.171 3.25102L99.6036 3.41192L98.0487 3.6073L96.5074 3.838L94.9811 4.10317L93.47 4.40283L91.976 4.73697L90.4989 5.10601L89.0402 5.5091L87.6007 5.94668L86.1816 6.41829L84.7824 6.92354L83.4055 7.46241L82.051 8.03491L80.7196 8.64062L79.4129 9.2791L78.1308 9.95035L76.8747 10.654L75.645 11.3895L74.4429 12.1569L73.2686 12.9554L72.1232 13.785L71.0075 14.6453L69.9225 15.5358L68.8682 16.4556L67.8462 17.4052L66.8565 18.3834L65.9001 19.39L64.9773 20.4239L64.089 21.4855L63.236 22.5735L62.4187 23.6878L61.6381 24.8277L60.894 25.9923L60.1879 27.1816L59.5196 28.3943L58.8896 29.6295L58.2988 30.8877L57.7472 32.1668L57.236 33.4672L56.7652 34.7875L56.3353 36.1275L55.9467 37.4862L55.5994 38.8623L55.2942 40.2555L55.0311 41.6648L54.8102 43.0895L54.6327 44.5286L54.4978 45.9813L54.4062 47.4468L54.3582 48.9243L54.3535 50.4128L54.3926 51.9111L54.4752 53.4187L54.6016 54.9341L54.7719 56.457L54.986 57.9864L55.2443 59.5204L55.5462 61.0592L55.8918 62.6013L56.2808 64.1456L56.7133 65.6916L57.1887 67.2375L57.7072 68.7826L58.2686 70.3265L58.8726 71.8673L59.5188 73.4044L60.207 74.9367L60.9362 76.4635L61.7066 77.9835L62.5179 79.4954L63.3692 80.9988L64.2601 82.492L65.1905 83.9746L66.1593 85.4456L67.166 86.9035L68.2101 88.3473L69.2913 89.7766L70.4082 91.1898L71.5604 92.5863L72.7476 93.9654L73.9688 95.3254L75.2232 96.6658L76.5095 97.9857L77.8273 99.2844L79.1758 100.56L80.554 101.814L81.9612 103.042L83.3961 104.246L84.8582 105.424L86.3459 106.575L87.8586 107.7L89.3957 108.796L90.9553 109.863L92.537 110.9L94.1391 111.907L95.7613 112.883L97.4017 113.827L99.0601 114.739L100.735 115.618L102.424 116.464L104.128 117.275L105.845 118.052L107.574 118.794L109.313 119.5L111.061 120.169L112.818 120.803L114.582 121.399L116.351 121.958L118.125 122.48L119.903 122.963L121.683 123.409L123.464 123.816L125.244 124.184L127.024 124.513L128.8 124.803L130.573 125.054L132.341 125.265L134.104 125.437L135.858 125.57L137.604 125.663L139.341 125.717L141.067 125.731L142.781 125.705L144.482 125.64L146.17 125.537L147.841 125.394L149.497 125.212L151.136 124.992L152.756 124.732L154.357 124.435L155.938 124.1L157.497 123.728L159.035 123.318L160.549 122.871L162.039 122.387L163.503 121.868L164.942 121.313L166.355 120.722L167.739 120.097L169.096 119.437L170.423 118.743L171.72 118.017L172.986 117.257L174.221 116.465L175.424 115.642L176.594 114.788L177.731 113.903L178.834 112.989L179.902 112.046L180.935 111.074L181.932 110.075L182.893 109.048L183.818 107.996L184.705 106.918L185.554 105.815L186.366 104.688L187.139 103.537L187.874 102.364L188.569 101.17L189.225 99.9539L189.841 98.7178L190.417 97.4622L190.954 96.1886L191.449 94.8968L191.905 93.5883L192.32 92.2633L192.694 90.9233L193.027 89.5689L193.318 88.2008L193.569 86.8196L193.779 85.4269L193.948 84.0231L194.076 82.6086L194.163 81.1853L194.209 79.7529L194.213 78.3134L194.177 76.8666L194.101 75.4139L193.984 73.956L193.827 72.4939L193.629 71.0284L193.392 69.5599L193.115 68.0901L192.799 66.619L192.443 65.148L192.049 63.6774L191.616 62.2084L191.145 60.7417L190.636 59.2783L190.09 57.8187L189.507 56.3638L188.886 54.9149L188.23 53.4719L187.537 52.0362L186.809 50.6082L186.047 49.189L185.25 47.7793L184.419 46.3793L183.554 44.9908L182.657 43.6139L181.727 42.2492L180.765 40.8978L179.772 39.56L178.748 38.2366L177.695 36.9286L176.612 35.6367L175.5 34.361L174.36 33.1028L173.192 31.8629L171.997 30.6408L170.776 29.4384L169.529 28.2559L168.258 27.0935L166.963 25.9523Z" stroke="url(#paint0_angular_2_30011)" stroke-width="2.22656" stroke-linecap="round" stroke-linejoin="round"/>
<defs>
<radialGradient id="paint0_angular_2_30011" cx="0" cy="0" r="1" gradientUnits="userSpaceOnUse" gradientTransform="translate(102 102.122) rotate(90) scale(100.122 100)">
<stop offset="0.0993526" stop-color="#FFC876"/>
<stop offset="0.427081" stop-color="#79FFF7"/>
<stop offset="0.718753" stop-color="#9F53FF"/>
<stop offset="1" stop-color="#FF98E2"/>
</radialGradient>
</defs>
</svg>
