<svg width="48" height="49" viewBox="0 0 48 49" fill="none" xmlns="http://www.w3.org/2000/svg">
<circle cx="24" cy="24.2812" r="23.5" fill="#252134" stroke="url(#paint0_angular_270_42432)"/>
<path d="M31.903 24.9541C31.7135 24.9541 31.5599 25.1078 31.5599 25.2973C31.5599 25.5376 31.3644 25.7331 31.1241 25.7331C30.8839 25.7331 30.6883 25.5376 30.6883 25.2973C30.6883 25.1077 30.5347 24.9541 30.3451 24.9541C30.1556 24.9541 30.002 25.1078 30.002 25.2973C30.002 25.916 30.5054 26.4194 31.1241 26.4194C31.7428 26.4194 32.2462 25.916 32.2462 25.2973C32.2462 25.1077 32.0926 24.9541 31.903 24.9541Z" fill="white"/>
<path d="M35.1289 25.0103L34.1629 24.7009C34.0392 24.6612 33.9417 24.5624 33.9021 24.4367C33.6985 23.7894 33.3913 23.1817 32.989 22.6305C32.8056 22.3792 32.6017 22.1393 32.379 21.9109C32.5215 21.2857 32.599 20.5782 32.5889 19.967C32.5746 19.0925 32.3998 18.5797 32.0547 18.3989C31.8689 18.3015 31.3033 18.0054 28.2419 19.4068C28.1694 19.44 28.1017 19.4808 28.039 19.5276C27.8326 19.4722 27.6216 19.4209 27.4094 19.3748C27.3838 19.3692 27.3575 19.3643 27.3317 19.3589C27.5798 18.8169 27.7247 18.2283 27.7519 17.6207C27.7604 17.4313 27.6138 17.2709 27.4244 17.2625C27.2355 17.2531 27.0746 17.4006 27.0662 17.59C27.0214 18.5891 26.607 19.5291 25.8992 20.2369C25.4764 20.6598 24.9812 20.9669 24.4535 21.1604C23.5384 21.032 22.6062 21.032 21.6911 21.1604C21.1633 20.9669 20.6682 20.6598 20.2454 20.2369C19.4903 19.4818 19.0744 18.4778 19.0744 17.41C19.0744 16.342 19.4903 15.3381 20.2454 14.583C21.0005 13.8279 22.0045 13.412 23.0723 13.412C24.1401 13.412 25.1441 13.8279 25.8992 14.583C26.2027 14.8865 26.4534 15.2327 26.6445 15.6121C26.7298 15.7814 26.9362 15.8496 27.1054 15.7643C27.2748 15.6791 27.3429 15.4727 27.2576 15.3034C27.0336 14.8585 26.7399 14.4529 26.3847 14.0976C25.4999 13.2128 24.3236 12.7256 23.0724 12.7256C21.8212 12.7256 20.6448 13.2128 19.76 14.0976C18.8753 14.9824 18.388 16.1587 18.388 17.4099C18.388 18.6611 18.8753 19.8375 19.76 20.7222C20.0153 20.9774 20.2929 21.1969 20.5866 21.3808C20.5867 21.3808 20.5868 21.3807 20.5869 21.3807C20.3735 21.4362 20.1617 21.4984 19.9523 21.5685C19.7725 21.6286 19.6755 21.823 19.7356 22.0028C19.7957 22.1826 19.9902 22.2796 20.1699 22.2195C22.0415 21.5938 24.1032 21.5938 25.9748 22.2195C26.0109 22.2316 26.0476 22.2373 26.0837 22.2373C26.2272 22.2373 26.3611 22.1465 26.4091 22.0028C26.4692 21.823 26.3722 21.6286 26.1925 21.5685C25.983 21.4984 25.7712 21.4361 25.5578 21.3807C25.5579 21.3807 25.558 21.3808 25.5581 21.3808C25.8518 21.1969 26.1294 20.9774 26.3847 20.7222C26.6104 20.4964 26.8097 20.2499 26.9828 19.9878C27.0774 20.0062 27.1713 20.0255 27.2638 20.0456C27.3871 20.0723 27.5098 20.1011 27.6314 20.1312C27.6276 20.1461 27.6237 20.161 27.6205 20.1762C27.4531 20.9705 27.464 21.673 27.6528 22.264C27.8224 22.7953 28.1287 23.2258 28.5629 23.5434C29.0747 23.9178 29.6925 24.0795 30.2522 24.0795C30.6734 24.0795 31.0617 23.9879 31.3469 23.8263C31.6695 23.6436 31.9398 23.2586 32.1537 22.6806C32.2526 22.796 32.3463 22.9142 32.4347 23.0353C32.7929 23.526 33.0663 24.0668 33.2474 24.6426C33.3538 24.9809 33.6178 25.247 33.9536 25.3546L34.9196 25.664C35.173 25.7452 35.3433 25.9785 35.3433 26.2447V27.8464C35.3433 28.1125 35.173 28.3458 34.9196 28.427L33.3633 28.9255C33.1143 29.0053 32.9036 29.1764 32.7699 29.4074C32.1585 30.4641 31.1972 31.3385 29.9126 32.0064C29.7642 32.0836 29.6614 32.2218 29.6304 32.3855L29.132 35.0248C29.1182 35.0975 29.0545 35.1503 28.9805 35.1503H27.3598C27.2858 35.1503 27.2221 35.0975 27.2083 35.0248L26.9322 33.5662C26.8779 33.2792 26.6087 33.0885 26.319 33.1324C25.6209 33.238 24.9015 33.2915 24.181 33.2915C23.645 33.2915 23.1158 33.2616 22.6081 33.2026C22.3273 33.1703 22.0658 33.3617 22.0134 33.6388L21.751 35.0248C21.7372 35.0975 21.6735 35.1503 21.5995 35.1503H19.9788C19.9048 35.1503 19.8411 35.0975 19.8272 35.0237L19.3472 32.5309C19.3163 32.3703 19.2154 32.2337 19.0703 32.1562C16.8805 30.9872 15.723 29.0341 15.723 26.5082C15.723 25.232 16.0022 24.1035 16.5529 23.1539C17.0667 22.2678 17.8172 21.5351 18.7835 20.9762C18.9475 20.8813 19.0036 20.6713 18.9087 20.5072C18.8138 20.3431 18.6039 20.2872 18.4398 20.382C16.5661 21.4658 15.4361 23.138 15.1249 25.2618V25.2617C15.0919 25.2587 15.0588 25.2559 15.0259 25.2525C15.0319 25.0233 14.9904 24.7921 14.9002 24.5677C14.701 24.0727 14.292 23.7155 13.8581 23.6576C13.5162 23.6118 13.1908 23.757 12.9649 24.0554C12.6375 24.4881 12.6909 24.8305 12.7933 25.0415C12.9661 25.3977 13.4105 25.6496 14.1478 25.808C14.1276 25.8384 14.1053 25.8689 14.0808 25.8995C13.6452 26.4459 13.1319 26.5667 12.7986 26.5781C12.6035 26.5847 12.4473 26.7413 12.4473 26.9366V26.9382C12.4473 27.1308 12.5992 27.2879 12.7916 27.2967C12.8162 27.2978 12.842 27.2984 12.8688 27.2984C13.2905 27.2984 13.9674 27.1429 14.6176 26.3275C14.7203 26.1988 14.8039 26.063 14.8682 25.9227C14.933 25.93 14.9952 25.9363 15.0548 25.9418C15.0548 25.9417 15.0548 25.9416 15.0549 25.9415C15.0432 26.1274 15.0367 26.3162 15.0367 26.5082C15.0367 27.9373 15.3774 29.2115 16.0492 30.2956C16.6687 31.2951 17.5557 32.1135 18.6864 32.7289L19.1529 35.1524C19.228 35.5489 19.5753 35.8367 19.9788 35.8367H21.5995C22.003 35.8367 22.3504 35.5489 22.4254 35.1524L22.6626 33.8992C23.1553 33.9514 23.6653 33.9778 24.181 33.9778C24.8884 33.9778 25.5951 33.9286 26.2837 33.8313L26.5338 35.1525C26.6089 35.549 26.9562 35.8367 27.3597 35.8367H28.9804C29.3839 35.8367 29.7312 35.5489 29.8063 35.1523L30.2916 32.5826C31.6627 31.8576 32.6962 30.9052 33.364 29.7511C33.4121 29.6679 33.4862 29.6069 33.5726 29.5792L35.1289 29.0807C35.6676 28.908 36.0296 28.412 36.0296 27.8463V26.2446C36.0296 25.6789 35.6676 25.1829 35.1289 25.0103ZM31.851 20.9314C31.7189 22.0611 31.3646 23.0274 31.0085 23.229C30.6039 23.4583 29.6696 23.5025 28.9681 22.9894C28.2658 22.4756 28.032 21.5518 28.292 20.3177C28.3181 20.1937 28.4062 20.0865 28.5276 20.0309C30.2458 19.2444 31.2364 18.9872 31.6044 18.9872C31.6599 18.9872 31.7013 18.993 31.7288 19.0038C31.8394 19.1216 31.9844 19.7914 31.851 20.9314ZM13.4109 24.7418C13.3754 24.6686 13.4592 24.5398 13.5123 24.4695C13.5966 24.3583 13.6742 24.3355 13.7328 24.3355C13.7452 24.3355 13.7568 24.3365 13.7674 24.338C13.9252 24.359 14.1463 24.5326 14.2634 24.8238C14.291 24.8923 14.3268 25.0059 14.3352 25.1474C13.8601 25.049 13.491 24.9071 13.4109 24.7418Z" fill="white"/>
<path d="M23.3986 17.017V15.7889C23.8222 15.8191 23.9795 16.0127 24.1247 16.0127C24.3062 16.0127 24.3909 15.7828 24.3909 15.6679C24.3909 15.3714 23.81 15.2444 23.3986 15.2323V15.0688C23.3986 14.9962 23.3079 14.9297 23.2171 14.9297C23.1142 14.9297 23.0416 14.9962 23.0416 15.0688V15.2443C22.4669 15.3048 21.8921 15.6073 21.8921 16.3696C21.8921 17.1441 22.4971 17.3619 23.0416 17.5555V18.9773C22.4245 18.9289 22.2612 18.5054 22.0615 18.5054C21.9102 18.5054 21.7832 18.705 21.7832 18.8503C21.7832 19.1467 22.2914 19.5521 23.0416 19.5642V19.7517C23.0416 19.8243 23.1143 19.8909 23.2171 19.8909C23.3079 19.8909 23.3986 19.8243 23.3986 19.7517V19.546C24.0521 19.4552 24.4998 19.0438 24.4998 18.2997C24.4998 17.4769 23.925 17.2106 23.3986 17.017ZM23.0779 16.9021C22.7573 16.7811 22.4971 16.6541 22.4971 16.3092C22.4971 15.9946 22.7391 15.8433 23.0779 15.801V16.9021ZM23.3623 18.9652V17.6886C23.6587 17.8156 23.8947 17.985 23.8947 18.3662C23.8947 18.7111 23.689 18.9047 23.3623 18.9652Z" fill="white"/>
<defs>
<radialGradient id="paint0_angular_270_42432" cx="0" cy="0" r="1" gradientUnits="userSpaceOnUse" gradientTransform="translate(24 24.2812) rotate(90) scale(24)">
<stop offset="0.0993526" stop-color="#FFC876"/>
<stop offset="0.427081" stop-color="#79FFF7"/>
<stop offset="0.718753" stop-color="#9F53FF"/>
<stop offset="1" stop-color="#FF98E2"/>
</radialGradient>
</defs>
</svg>
