<svg width="48" height="48" viewBox="0 0 48 48" fill="none" xmlns="http://www.w3.org/2000/svg">
<circle cx="24" cy="24" r="23.5" fill="#252134" stroke="url(#paint0_angular_1211_4709)"/>
<g clip-path="url(#clip0_1211_4709)">
<path d="M27.4063 33.4844H25.4531C25.3495 33.4844 25.2502 33.5255 25.1769 33.5988C25.1037 33.672 25.0625 33.7714 25.0625 33.875V35.8281H25.8438V34.8164L27.1289 36.1055L27.6836 35.5508L26.3945 34.2656H27.4063V33.4844Z" fill="white"/>
<path d="M35.4102 21.8164L31.8945 19.8633C31.8352 19.829 31.7678 19.8109 31.6992 19.8109C31.6307 19.8109 31.5633 19.829 31.5039 19.8633L29.293 21.0898L26.7305 19.6328L27.1992 19.3711C27.261 19.3382 27.3128 19.2893 27.3493 19.2295C27.3857 19.1697 27.4054 19.1013 27.4063 19.0313V15.125C27.4061 15.0558 27.3876 14.9878 27.3526 14.9281C27.3176 14.8684 27.2674 14.8191 27.2071 14.7852L23.6914 12.832C23.632 12.7977 23.5647 12.7797 23.4961 12.7797C23.4275 12.7797 23.3602 12.7977 23.3008 12.832L19.7852 14.7852C19.7263 14.8201 19.6776 14.8698 19.644 14.9295C19.6104 14.9891 19.5931 15.0565 19.5938 15.125V19.0313C19.5939 19.1005 19.6124 19.1684 19.6474 19.2281C19.6824 19.2878 19.7326 19.3372 19.793 19.3711L20.2617 19.6328L17.6992 21.0898L15.4883 19.8633C15.4289 19.829 15.3616 19.8109 15.293 19.8109C15.2244 19.8109 15.1571 19.829 15.0977 19.8633L11.582 21.8164C11.5232 21.8513 11.4745 21.9011 11.4409 21.9607C11.4073 22.0204 11.39 22.0878 11.3906 22.1563V26.0625C11.3908 26.1317 11.4093 26.1997 11.4443 26.2594C11.4793 26.3191 11.5295 26.3684 11.5899 26.4023L15.1055 28.3555C15.1649 28.3898 15.2322 28.4078 15.3008 28.4078C15.3694 28.4078 15.4367 28.3898 15.4961 28.3555L16.3164 27.9023L19.5938 29.7656V35.4375C19.5938 35.5411 19.6349 35.6405 19.7082 35.7137C19.7814 35.787 19.8808 35.8281 19.9844 35.8281H24.2813V35.0469H20.375V28.7969H26.625V32.7031H27.4063V29.7656L30.6914 27.9023L31.5117 28.3555C31.5711 28.3898 31.6385 28.4078 31.707 28.4078C31.7756 28.4078 31.843 28.3898 31.9024 28.3555L35.418 26.4023C35.4769 26.3674 35.5255 26.3177 35.5591 26.258C35.5927 26.1984 35.6101 26.131 35.6094 26.0625V22.1563C35.6093 22.087 35.5908 22.0191 35.5558 21.9594C35.5208 21.8997 35.4705 21.8503 35.4102 21.8164ZM23.5 13.6172L26.211 15.125L23.5 16.6328L20.7891 15.125L23.5 13.6172ZM26.625 15.7891V18.8008L23.8906 20.3203V17.3086L26.625 15.7891ZM20.375 15.7891L23.1094 17.3086V20.3203L20.375 18.8008V15.7891ZM14.9063 27.3516L12.1719 25.832V22.8203L14.9063 24.3398V27.3516ZM15.2969 23.6641L12.586 22.1563L15.2969 20.6484L18.0078 22.1563L15.2969 23.6641ZM15.6875 27.3516V24.3398L18.4219 22.8203V25.832L15.6875 27.3516ZM27.4063 28.8672V28.4063C27.4063 28.3026 27.3651 28.2033 27.2919 28.13C27.2186 28.0568 27.1192 28.0156 27.0156 28.0156H19.9844C19.8808 28.0156 19.7814 28.0568 19.7082 28.13C19.6349 28.2033 19.5938 28.3026 19.5938 28.4063V28.8672L17.1055 27.457L19.0039 26.4023C19.0643 26.3684 19.1145 26.3191 19.1495 26.2594C19.1845 26.1997 19.203 26.1317 19.2031 26.0625V22.1563C19.203 22.087 19.1845 22.0191 19.1495 21.9594C19.1145 21.8997 19.0643 21.8503 19.0039 21.8164L18.4961 21.5352L21.0625 20.0781L23.3086 21.3242C23.368 21.3585 23.4354 21.3766 23.5039 21.3766C23.5725 21.3766 23.6399 21.3585 23.6992 21.3242L25.9453 20.0781L28.5117 21.5352L28.0039 21.8164C27.9421 21.8493 27.8903 21.8982 27.8539 21.958C27.8175 22.0178 27.7978 22.0862 27.7969 22.1563V26.0625C27.797 26.1317 27.8155 26.1997 27.8505 26.2594C27.8855 26.3191 27.9358 26.3684 27.9961 26.4023L29.8945 27.457L27.4063 28.8672ZM31.3125 27.3516L28.5781 25.832V22.8203L31.3125 24.3398V27.3516ZM31.7031 23.6641L28.9922 22.1563L31.7031 20.6484L34.4141 22.1563L31.7031 23.6641ZM34.8281 25.832L32.0938 27.3516V24.3398L34.8281 22.8203V25.832Z" fill="white"/>
</g>
<defs>
<radialGradient id="paint0_angular_1211_4709" cx="0" cy="0" r="1" gradientUnits="userSpaceOnUse" gradientTransform="translate(24 24) rotate(90) scale(24)">
<stop offset="0.0993526" stop-color="#FFC876"/>
<stop offset="0.427081" stop-color="#79FFF7"/>
<stop offset="0.718753" stop-color="#9F53FF"/>
<stop offset="1" stop-color="#FF98E2"/>
</radialGradient>
<clipPath id="clip0_1211_4709">
<rect width="25" height="25" fill="white" transform="translate(11 12)"/>
</clipPath>
</defs>
</svg>
