<svg width="1364" height="358" viewBox="0 0 1364 358" fill="none" xmlns="http://www.w3.org/2000/svg">
<path opacity="0.15" fill-rule="evenodd" clip-rule="evenodd" d="M1 65.7409L45.4415 3L89.8829 170.309L131.71 206.908L173.537 214.75L212.75 149.395L259.806 180.766L301.633 248.735L346.075 206.908L387.902 269.649L471.557 157.238L513.384 235.664L565.668 170.309L602.267 259.192L651.937 222.593L683.307 235.664L780.033 206.908L816.631 235.664L858.459 76.1977L908.129 170.309L960.413 235.664L983.94 248.735L1028.38 120.639L1072.82 235.664L1114.65 170.309L1161.71 212.136L1195.69 206.908L1253.2 287.948L1287.19 259.192L1313.33 274.877L1357.77 227.822L1363 235.664V358H3L1 65.7409Z" fill="url(#paint0_linear_1259_10905)"/>
<path d="M1 65.7409L45.4415 3L89.8829 170.309L131.71 206.908L173.537 214.75L212.75 149.395L259.806 180.766L301.633 248.735L346.075 206.908L387.902 269.649L471.557 157.238L513.384 235.664L565.668 170.309L602.267 259.192L651.937 222.593L683.307 235.664L780.033 206.908L816.631 235.664L858.459 76.1977L908.129 170.309L960.413 235.664L983.94 248.735L1028.38 120.639L1072.82 235.664L1114.65 170.309L1161.71 212.136L1195.69 206.908L1253.2 287.948L1287.19 259.192L1313.33 274.877L1357.77 227.822L1363 235.664" stroke="url(#paint1_angular_1259_10905)" stroke-width="2"/>
<defs>
<linearGradient id="paint0_linear_1259_10905" x1="-953.669" y1="205.366" x2="2080.73" y2="-15.4088" gradientUnits="userSpaceOnUse">
<stop offset="0.295214" stop-color="#7684FF"/>
<stop offset="0.539041" stop-color="#BB8EF0"/>
<stop offset="1" stop-color="#FF98E2"/>
</linearGradient>
<radialGradient id="paint1_angular_1259_10905" cx="0" cy="0" r="1" gradientUnits="userSpaceOnUse" gradientTransform="translate(682 145.474) rotate(90) scale(142.474 681)">
<stop offset="0.0993526" stop-color="#FFC876"/>
<stop offset="0.427081" stop-color="#79FFF7"/>
<stop offset="0.718753" stop-color="#9F53FF"/>
<stop offset="1" stop-color="#FF98E2"/>
</radialGradient>
</defs>
</svg>
