<svg width="48" height="48" viewBox="0 0 48 48" fill="none" xmlns="http://www.w3.org/2000/svg">
<circle cx="24" cy="24" r="23.5" fill="#252134" stroke="url(#paint0_angular_1211_4699)"/>
<path d="M13.8294 25.2651C13.7867 25.2651 13.7448 25.2537 13.708 25.2321L9.86711 22.9861C9.83975 22.97 9.81583 22.9487 9.79672 22.9233C9.77761 22.898 9.76368 22.8691 9.75573 22.8384C9.74779 22.8077 9.74598 22.7757 9.75041 22.7442C9.75484 22.7128 9.76543 22.6825 9.78156 22.6552L14.8375 14.118C14.8699 14.0633 14.9227 14.0236 14.9843 14.0077C15.0458 13.9917 15.1112 14.0008 15.1662 14.033L19.007 16.279C19.0343 16.295 19.0583 16.3163 19.0774 16.3416C19.0965 16.367 19.1104 16.3958 19.1184 16.4265C19.1264 16.4572 19.1282 16.4892 19.1238 16.5206C19.1194 16.552 19.1089 16.5822 19.0928 16.6096L14.0369 25.147C14.0156 25.183 13.9852 25.2129 13.9488 25.2336C13.9124 25.2543 13.8713 25.2651 13.8294 25.2651ZM10.3197 22.6923L13.7446 24.6949L18.5547 16.5722L15.1298 14.5696L10.3197 22.6923Z" fill="white"/>
<path d="M15.5031 25.5031C15.4604 25.5031 15.4185 25.4917 15.3816 25.4701L14.0338 24.6816C14.0064 24.6655 13.9825 24.6442 13.9633 24.6189C13.9442 24.5935 13.9303 24.5647 13.9223 24.534C13.9143 24.5032 13.9125 24.4712 13.9169 24.4398C13.9213 24.4083 13.9319 24.3781 13.948 24.3507L18.352 16.9146C18.3845 16.8598 18.4373 16.8201 18.4989 16.8041C18.5605 16.7881 18.626 16.7972 18.681 16.8293L20.0291 17.6173C20.0565 17.6334 20.0804 17.6548 20.0995 17.6801C20.1187 17.7055 20.1326 17.7344 20.1406 17.7651C20.1485 17.7959 20.1503 17.8279 20.1459 17.8594C20.1414 17.8908 20.1308 17.9211 20.1146 17.9484L15.7108 25.3848C15.6895 25.4209 15.6591 25.4507 15.6226 25.4714C15.5862 25.4921 15.545 25.5032 15.5031 25.5031ZM14.4861 24.3881L15.4183 24.9329L19.5765 17.9113L18.6444 17.3665L14.4861 24.3881ZM12.9053 23.2521C12.7257 23.2521 12.5445 23.2063 12.3794 23.1094C12.2612 23.0409 12.1578 22.9494 12.0752 22.8405C11.9927 22.7316 11.9327 22.6073 11.8987 22.4749C11.8642 22.3432 11.8563 22.206 11.8754 22.0712C11.8945 21.9365 11.9403 21.8069 12.01 21.69C12.3009 21.1986 12.9397 21.034 13.4342 21.323C13.5525 21.3915 13.6559 21.4829 13.7384 21.5919C13.821 21.7008 13.881 21.8251 13.915 21.9575C13.9495 22.0891 13.9575 22.2263 13.9384 22.3611C13.9193 22.4959 13.8736 22.6255 13.8039 22.7424C13.7113 22.8981 13.5796 23.027 13.422 23.1164C13.2644 23.2057 13.0862 23.2525 12.905 23.2521H12.9053ZM12.9077 21.662C12.7156 21.662 12.5288 21.7599 12.4245 21.9358C12.3874 21.9985 12.363 22.0679 12.3529 22.14C12.3428 22.2121 12.347 22.2855 12.3655 22.356C12.3839 22.4264 12.4161 22.4925 12.4602 22.5505C12.5044 22.6084 12.5596 22.657 12.6226 22.6935C12.7505 22.7681 12.9027 22.7893 13.0462 22.7525C13.1897 22.7156 13.3128 22.6237 13.3889 22.4966C13.426 22.4339 13.4504 22.3645 13.4605 22.2924C13.4706 22.2203 13.4664 22.1469 13.448 22.0764C13.4295 22.006 13.3973 21.9399 13.3532 21.8819C13.3091 21.824 13.2539 21.7754 13.1908 21.7389C13.1049 21.6886 13.0072 21.6621 12.9077 21.662ZM34.8037 25.5829C34.7612 25.5829 34.7194 25.5718 34.6827 25.5505C34.6459 25.5292 34.6154 25.4985 34.5943 25.4617L30.2965 17.9641C30.2808 17.9366 30.2706 17.9062 30.2666 17.8747C30.2626 17.8432 30.2649 17.8112 30.2733 17.7806C30.2817 17.75 30.296 17.7214 30.3155 17.6963C30.335 17.6713 30.3593 17.6503 30.3869 17.6347L31.7461 16.8654C31.8015 16.8341 31.8671 16.8259 31.9285 16.8428C31.9899 16.8596 32.0421 16.9001 32.0738 16.9553L36.3715 24.4527C36.3873 24.4802 36.3975 24.5106 36.4015 24.5421C36.4055 24.5736 36.4032 24.6055 36.3948 24.6362C36.3864 24.6668 36.3721 24.6954 36.3526 24.7205C36.3331 24.7455 36.3088 24.7664 36.2812 24.7821L34.922 25.5516C34.8859 25.572 34.8452 25.5828 34.8037 25.5829ZM30.8351 17.9345L34.8933 25.0137L35.8329 24.4821L31.7747 17.4028L30.8349 17.9347L30.8351 17.9345Z" fill="white"/>
<path d="M36.4811 25.3684C36.4386 25.3684 36.3969 25.3572 36.3601 25.336C36.3233 25.3147 36.2928 25.284 36.2717 25.2472L31.3375 16.6398C31.3217 16.6123 31.3116 16.5819 31.3076 16.5504C31.3036 16.5189 31.3059 16.487 31.3143 16.4564C31.3226 16.4257 31.337 16.3971 31.3565 16.3721C31.376 16.347 31.4003 16.3261 31.4279 16.3104L35.3003 14.1186C35.3557 14.0873 35.4213 14.0791 35.4827 14.096C35.5441 14.1128 35.5964 14.1533 35.628 14.2085L40.5622 22.8158C40.578 22.8434 40.5882 22.8738 40.5922 22.9053C40.5962 22.9368 40.5939 22.9687 40.5855 22.9993C40.5771 23.0299 40.5627 23.0586 40.5432 23.0836C40.5237 23.1087 40.4995 23.1296 40.4719 23.1453L36.5995 25.337C36.5634 25.3575 36.5226 25.3683 36.4811 25.3684ZM31.8764 16.6104L36.5708 24.7996L40.0234 22.8452L35.329 14.6563L31.8764 16.6107V16.6104Z" fill="white"/>
<path d="M37.4714 23.2869C37.2878 23.2873 37.1073 23.2392 36.9482 23.1474C36.7891 23.0557 36.657 22.9236 36.5653 22.7644C36.4973 22.6466 36.4535 22.5165 36.4363 22.3816C36.419 22.2467 36.4288 22.1097 36.4651 21.9786C36.501 21.8466 36.5627 21.7232 36.6468 21.6153C36.7309 21.5075 36.8356 21.4175 36.9548 21.3506C37.4531 21.0688 38.0901 21.2421 38.3739 21.7381C38.5115 21.9781 38.547 22.2574 38.4739 22.5239C38.4381 22.6558 38.3763 22.7792 38.2922 22.887C38.2081 22.9948 38.1035 23.0848 37.9843 23.1517C37.8279 23.2404 37.6512 23.287 37.4714 23.2869ZM37.4688 21.6973C37.3748 21.6973 37.2796 21.7205 37.1921 21.7699C37.1287 21.8056 37.073 21.8535 37.0281 21.9108C36.9833 21.9682 36.9502 22.0338 36.9308 22.104C36.9114 22.1742 36.9061 22.2475 36.9151 22.3197C36.9241 22.3919 36.9474 22.4617 36.9834 22.5249C37.0578 22.6529 37.1797 22.7465 37.3226 22.7853C37.4655 22.8241 37.618 22.805 37.7469 22.7321C37.8104 22.6966 37.8662 22.6487 37.9111 22.5915C37.9561 22.5342 37.9892 22.4686 38.0086 22.3984C38.028 22.3282 38.0333 22.2549 38.0242 22.1827C38.0151 22.1105 37.9918 22.0408 37.9556 21.9776C37.9063 21.8922 37.8353 21.8212 37.7499 21.772C37.6644 21.7228 37.5674 21.6971 37.4688 21.6973ZM25.0491 19.7417C25.0026 19.7419 24.9572 19.7285 24.9182 19.7032C22.2939 17.9989 20.634 19.534 20.6176 19.5499C20.5397 19.6239 20.4224 19.6379 20.3296 19.5836L19.2442 18.9489C19.19 18.9161 19.1509 18.8634 19.1353 18.802C19.1197 18.7406 19.1289 18.6756 19.1609 18.621C19.1929 18.5663 19.2451 18.5264 19.3062 18.51C19.3673 18.4935 19.4325 18.5018 19.4876 18.5329L20.4301 19.0841C20.9321 18.7144 22.699 17.6881 25.1807 19.2986C25.2244 19.3268 25.2578 19.3685 25.2759 19.4174C25.294 19.4662 25.2958 19.5196 25.2809 19.5695C25.2661 19.6195 25.2355 19.6633 25.1937 19.6944C25.1519 19.7254 25.1012 19.7419 25.0491 19.7417ZM16.9346 26.339C16.93 26.339 16.9254 26.339 16.9211 26.3385C16.8573 26.335 16.7975 26.3063 16.7548 26.2587C16.7121 26.2111 16.6901 26.1486 16.6936 26.0847L16.7469 25.1259L15.8849 24.6217C15.8307 24.589 15.7916 24.5362 15.776 24.4748C15.7604 24.4135 15.7696 24.3484 15.8015 24.2938C15.8335 24.2391 15.8857 24.1993 15.9469 24.1828C16.008 24.1663 16.0732 24.1746 16.1283 24.2058L17.1173 24.7841C17.1556 24.8065 17.187 24.8391 17.208 24.8782C17.229 24.9173 17.2388 24.9615 17.2363 25.0058L17.1749 26.1115C17.1714 26.1729 17.1446 26.2307 17.0999 26.273C17.0553 26.3153 16.9961 26.3389 16.9346 26.339ZM26.3162 33.9349C26.0451 33.9352 25.7789 33.8631 25.545 33.7262L24.9609 33.3919C24.9331 33.3763 24.9088 33.3554 24.8892 33.3304C24.8695 33.3054 24.8551 33.2767 24.8466 33.246C24.8381 33.2154 24.8358 33.1833 24.8398 33.1518C24.8437 33.1202 24.8539 33.0897 24.8697 33.0621C24.8855 33.0345 24.9066 33.0103 24.9318 32.9909C24.957 32.9715 24.9858 32.9573 25.0165 32.949C25.0472 32.9408 25.0793 32.9387 25.1108 32.9429C25.1423 32.9471 25.1727 32.9576 25.2002 32.9736L25.7865 33.3088C26.2853 33.6004 26.9271 33.4358 27.2194 32.9422C27.3736 32.6815 27.4211 32.3923 27.3524 32.1277C27.2905 31.8891 27.1404 31.6942 26.9177 31.564L26.782 31.4845C26.7278 31.4518 26.6887 31.399 26.6731 31.3376C26.6575 31.2763 26.6667 31.2112 26.6987 31.1566C26.7307 31.1019 26.7829 31.0621 26.844 31.0456C26.9052 31.0291 26.9703 31.0374 27.0254 31.0686L27.1608 31.1481C27.492 31.3416 27.7257 31.6467 27.819 32.0067C27.9202 32.3964 27.8542 32.8157 27.6339 33.1878C27.498 33.4161 27.305 33.605 27.0739 33.736C26.8428 33.867 26.5818 33.9355 26.3162 33.9349Z" fill="white"/>
<path d="M28.7622 32.4057C28.4952 32.4058 28.233 32.3346 28.0026 32.1996L26.7131 31.4451C26.6858 31.4291 26.6619 31.4079 26.6427 31.3827C26.6236 31.3575 26.6096 31.3287 26.6016 31.2981C26.5936 31.2675 26.5917 31.2356 26.596 31.2042C26.6003 31.1728 26.6107 31.1426 26.6267 31.1153C26.6427 31.088 26.6639 31.0641 26.6891 31.0449C26.7144 31.0258 26.7431 31.0118 26.7737 31.0038C26.8043 30.9958 26.8363 30.9939 26.8676 30.9982C26.899 31.0025 26.9292 31.0129 26.9565 31.0289L28.2458 31.7834C28.7321 32.0676 29.3606 31.9063 29.6464 31.4234C29.7145 31.3093 29.7591 31.1827 29.7778 31.0512C29.7964 30.9196 29.7887 30.7856 29.7551 30.6571C29.7217 30.5274 29.6629 30.4057 29.582 30.2991C29.5011 30.1924 29.3998 30.1029 29.284 30.0358L27.7501 29.1389C27.6949 29.1066 27.6548 29.0537 27.6386 28.9919C27.6224 28.93 27.6314 28.8643 27.6637 28.8091C27.696 28.7539 27.7488 28.7138 27.8107 28.6976C27.8725 28.6814 27.9383 28.6904 27.9935 28.7227L29.5274 29.6199C29.6981 29.7189 29.8474 29.8509 29.9666 30.0082C30.0858 30.1655 30.1725 30.345 30.2216 30.5361C30.2714 30.7262 30.2829 30.9242 30.2553 31.1188C30.2278 31.3133 30.1618 31.5004 30.0611 31.6692C29.9272 31.8942 29.737 32.0804 29.5093 32.2095C29.2815 32.3386 29.024 32.4063 28.7622 32.4057Z" fill="white"/>
<path d="M30.9577 30.7762C30.6907 30.7764 30.4285 30.7054 30.1981 30.5704L27.9259 29.2416C27.8717 29.2089 27.8326 29.1561 27.817 29.0948C27.8014 29.0334 27.8106 28.9684 27.8426 28.9137C27.8745 28.8591 27.9267 28.8192 27.9879 28.8027C28.049 28.7863 28.1142 28.7945 28.1693 28.8257L30.4415 30.1543C30.9274 30.4386 31.5561 30.2772 31.8419 29.7942C31.91 29.6801 31.9546 29.5535 31.9733 29.422C31.9919 29.2904 31.9842 29.1564 31.9506 29.0279C31.9172 28.8982 31.8584 28.7766 31.7775 28.6699C31.6966 28.5632 31.5953 28.4737 31.4795 28.4066L29.2072 27.0781C29.152 27.0458 29.1119 26.9929 29.0957 26.9311C29.0795 26.8692 29.0885 26.8035 29.1208 26.7483C29.1531 26.6931 29.206 26.653 29.2678 26.6368C29.3297 26.6206 29.3954 26.6296 29.4506 26.6619L31.7229 27.9907C31.8936 28.0897 32.0429 28.2218 32.1621 28.3791C32.2813 28.5365 32.368 28.716 32.4171 28.9071C32.4669 29.0971 32.4783 29.2951 32.4507 29.4896C32.4232 29.6841 32.3572 29.8711 32.2566 30.0398C32.1228 30.2648 31.9326 30.451 31.7048 30.5802C31.477 30.7093 31.2195 30.7769 30.9577 30.7762Z" fill="white"/>
<path d="M32.7035 28.8754C32.427 28.8755 32.1555 28.8019 31.9169 28.6621L29.2082 27.0781C29.153 27.0458 29.1129 26.9929 29.0967 26.9311C29.0805 26.8692 29.0896 26.8035 29.1218 26.7483C29.1541 26.6931 29.207 26.653 29.2688 26.6368C29.3307 26.6206 29.3964 26.6296 29.4516 26.6619L32.1603 28.2459C32.6719 28.5447 33.3327 28.3753 33.6337 27.8671C33.7054 27.747 33.7524 27.6139 33.772 27.4754C33.7917 27.337 33.7836 27.196 33.7482 27.0607C33.7131 26.9244 33.6511 26.7963 33.566 26.6841C33.4809 26.5719 33.3743 26.4778 33.2525 26.4072L30.5435 24.8229C30.4894 24.7902 30.4502 24.7374 30.4347 24.6761C30.4191 24.6147 30.4283 24.5497 30.4602 24.495C30.4922 24.4404 30.5444 24.4005 30.6055 24.384C30.6667 24.3676 30.7318 24.3758 30.7869 24.407L33.4956 25.991C33.6725 26.0935 33.8271 26.2303 33.9506 26.3932C34.0741 26.5561 34.1639 26.742 34.2147 26.94C34.2662 27.1368 34.278 27.3418 34.2495 27.5432C34.221 27.7445 34.1526 27.9382 34.0484 28.1129C33.9098 28.3458 33.7129 28.5386 33.4771 28.6723C33.2413 28.806 32.9748 28.876 32.7037 28.8754H32.7035Z" fill="white"/>
<path d="M30.6648 24.8556C30.6222 24.8556 30.5804 24.8442 30.5436 24.8226L26.0005 22.1664C25.9453 22.1342 25.9052 22.0813 25.889 22.0194C25.8728 21.9576 25.8819 21.8918 25.9141 21.8367C25.9464 21.7815 25.9993 21.7414 26.0611 21.7252C26.123 21.709 26.1887 21.718 26.2439 21.7503L30.7865 24.4067C30.8322 24.4334 30.8678 24.4744 30.8878 24.5235C30.9079 24.5725 30.9112 24.6267 30.8973 24.6778C30.8835 24.7289 30.8531 24.774 30.8111 24.8061C30.769 24.8383 30.7178 24.8557 30.6648 24.8556ZM17.4691 28.7225C16.9293 28.7227 16.4064 28.4355 16.1336 27.9308C16.039 27.7574 15.98 27.5668 15.9599 27.3703C15.9398 27.1737 15.959 26.9752 16.0165 26.7861C16.0733 26.5958 16.1674 26.4186 16.2935 26.265C16.4195 26.1114 16.5749 25.9845 16.7505 25.8916L19.3512 24.5023C20.086 24.1095 21.0049 24.385 21.3999 25.1154C21.4944 25.2889 21.5534 25.4794 21.5735 25.676C21.5936 25.8725 21.5744 26.0711 21.517 26.2601C21.4602 26.4504 21.366 26.6275 21.24 26.7811C21.114 26.9347 20.9587 27.0617 20.7832 27.1546L18.1822 28.5439C17.9628 28.6613 17.718 28.7226 17.4691 28.7225ZM20.0658 24.8052C19.9007 24.8052 19.7337 24.8445 19.5785 24.9274L16.9775 26.3167C16.858 26.3798 16.7523 26.4661 16.6666 26.5706C16.5808 26.675 16.5167 26.7955 16.478 26.925C16.439 27.0532 16.426 27.188 16.4396 27.3213C16.4533 27.4547 16.4933 27.584 16.5575 27.7017C16.8267 28.1991 17.4537 28.3863 17.9552 28.1188L20.5562 26.7295C20.6756 26.6663 20.7813 26.5799 20.867 26.4755C20.9527 26.371 21.0168 26.2505 21.0555 26.121C21.0944 25.9928 21.1074 25.8581 21.0937 25.7248C21.0801 25.5915 21.0401 25.4623 20.976 25.3446C20.8869 25.181 20.7553 25.0446 20.5951 24.9496C20.4349 24.8547 20.252 24.8048 20.0658 24.8052Z" fill="white"/>
<path d="M19.1174 30.7114C18.5783 30.7114 18.0548 30.4241 17.7821 29.9195C17.6875 29.7461 17.6285 29.5556 17.6084 29.3592C17.5882 29.1627 17.6074 28.9643 17.6647 28.7753C17.7215 28.5848 17.8157 28.4076 17.9417 28.254C18.0677 28.1003 18.2231 27.9733 18.3987 27.8803L21.0896 26.4678C21.8236 26.076 22.7425 26.3507 23.1375 27.0809C23.232 27.2544 23.2911 27.445 23.3112 27.6416C23.3313 27.8382 23.3121 28.0368 23.2546 28.2258C23.1978 28.4162 23.1036 28.5933 22.9776 28.7468C22.8515 28.9004 22.6962 29.0273 22.5206 29.1201L19.829 30.5335C19.6101 30.6505 19.3658 30.7117 19.1176 30.7116L19.1174 30.7114ZM21.8036 26.7712C21.6386 26.7712 21.4713 26.8103 21.3161 26.8932L21.3147 26.8941L18.6245 28.3063C18.5054 28.3695 18.4001 28.4557 18.3146 28.56C18.2291 28.6642 18.1653 28.7844 18.1267 28.9136C18.0877 29.0419 18.0747 29.1766 18.0883 29.31C18.102 29.4433 18.142 29.5726 18.2062 29.6903C18.4754 30.1877 19.1019 30.3752 19.6039 30.1075L22.2955 28.6943C22.4146 28.6312 22.52 28.5449 22.6054 28.4407C22.6909 28.3364 22.7548 28.2162 22.7934 28.087C22.8323 27.9588 22.8453 27.824 22.8317 27.6907C22.818 27.5573 22.778 27.428 22.7138 27.3103C22.6248 27.1468 22.4932 27.0103 22.333 26.9154C22.1728 26.8204 21.9899 26.7708 21.8036 26.7712Z" fill="white"/>
<path d="M21.4035 32.3729C20.8642 32.3729 20.341 32.0856 20.0682 31.5808C19.9737 31.4074 19.9146 31.2168 19.8945 31.0204C19.8743 30.8239 19.8935 30.6253 19.9509 30.4363C20.0077 30.2459 20.1019 30.0687 20.2279 29.9151C20.3539 29.7615 20.5093 29.6345 20.6849 29.5416L23.0008 28.3145C23.7353 27.9229 24.654 28.1971 25.0489 28.9278C25.1435 29.1012 25.2025 29.2918 25.2226 29.4883C25.2427 29.6849 25.2235 29.8834 25.1661 30.0724C25.1092 30.2628 25.0151 30.4399 24.8891 30.5935C24.7631 30.7471 24.6078 30.874 24.4323 30.967L22.1159 32.1943C21.8968 32.3117 21.6521 32.373 21.4035 32.3729ZM23.7148 28.6176C23.5498 28.6176 23.3828 28.6569 23.2276 28.7398L23.2268 28.7403L20.9112 29.9671C20.7919 30.0303 20.6863 30.1166 20.6007 30.221C20.515 30.3254 20.451 30.4458 20.4124 30.5751C20.3735 30.7034 20.3605 30.8381 20.3741 30.9714C20.3878 31.1047 20.4278 31.2339 20.4919 31.3516C20.7613 31.8497 21.3876 32.0365 21.8896 31.769L24.2057 30.5417C24.3251 30.4785 24.4307 30.3921 24.5163 30.2877C24.602 30.1833 24.666 30.0628 24.7046 29.9334C24.7435 29.8052 24.7565 29.6705 24.7428 29.5372C24.7291 29.4039 24.6891 29.2746 24.625 29.1569C24.536 28.9934 24.4044 28.8569 24.2442 28.762C24.084 28.667 23.9011 28.6171 23.7148 28.6176Z" fill="white"/>
<path d="M23.7474 33.9999C23.2088 33.9999 22.6895 33.7153 22.4162 33.2143C22.3211 33.0412 22.2613 32.8509 22.2405 32.6545C22.2196 32.4581 22.2381 32.2596 22.2947 32.0704C22.3508 31.8798 22.4443 31.7022 22.5698 31.5482C22.6952 31.3941 22.8501 31.2665 23.0254 31.1729L24.2539 30.455C24.2563 30.4536 24.2587 30.4523 24.2612 30.4512C24.9938 30.0559 25.9143 30.3273 26.312 31.0568C26.4071 31.2298 26.4668 31.4201 26.4876 31.6166C26.5085 31.813 26.4899 32.0115 26.4332 32.2007C26.3771 32.3913 26.2836 32.5688 26.1582 32.7228C26.0328 32.8768 25.878 33.0044 25.7027 33.0979L24.4742 33.8158C24.251 33.9366 24.0012 33.9999 23.7474 33.9999ZM24.4932 30.8736L23.2613 31.593C23.1405 31.6566 23.0337 31.7437 22.9471 31.8493C22.8604 31.9548 22.7958 32.0766 22.7569 32.2075C22.7184 32.3359 22.7059 32.4707 22.72 32.604C22.7342 32.7373 22.7748 32.8665 22.8393 32.9839C23.1105 33.4804 23.7382 33.6652 24.2383 33.3958L25.4668 32.6779C25.7167 32.5429 25.8934 32.3263 25.9712 32.0636C26.0096 31.9353 26.0222 31.8006 26.008 31.6673C25.9939 31.5341 25.9533 31.405 25.8888 31.2876C25.6182 30.7917 24.9926 30.6066 24.4932 30.8736ZM23.5618 25.1471C23.2675 25.1471 22.9785 25.0687 22.7246 24.9198C22.5364 24.8107 22.3719 24.6653 22.2405 24.4919C22.1091 24.3186 22.0136 24.1208 21.9595 23.9101C21.9046 23.7007 21.892 23.4825 21.9224 23.2681C21.9527 23.0538 22.0255 22.8477 22.1364 22.6618L23.61 20.1738C23.7044 20.014 23.8477 19.8887 24.0187 19.8167L27.1757 18.4792C27.2621 18.4426 27.3539 18.42 27.4475 18.4122C27.7988 18.3847 28.9724 18.3561 29.8713 19.1183L30.8509 18.5893C30.9072 18.559 30.9732 18.5522 31.0344 18.5705C31.0647 18.5796 31.093 18.5945 31.1175 18.6145C31.1421 18.6345 31.1624 18.6591 31.1775 18.6869C31.1925 18.7148 31.2019 18.7453 31.2051 18.7768C31.2084 18.8083 31.2054 18.8401 31.1963 18.8704C31.1872 18.9007 31.1723 18.929 31.1523 18.9535C31.1323 18.9781 31.1077 18.9984 31.0799 19.0135L29.9504 19.6232C29.9053 19.6476 29.8536 19.657 29.8028 19.65C29.7519 19.6429 29.7047 19.6199 29.6679 19.5841C28.9016 18.8404 27.8041 18.866 27.4868 18.8925C27.4434 18.8964 27.4034 18.9062 27.3639 18.9229L24.2069 20.2603C24.1298 20.2929 24.0669 20.3481 24.0245 20.4194L22.5511 22.9076C22.4728 23.0388 22.4214 23.1844 22.3999 23.3358C22.3784 23.4871 22.3873 23.6412 22.4261 23.7891C22.4644 23.9382 22.532 24.0782 22.625 24.2009C22.718 24.3235 22.8346 24.4265 22.9678 24.5036C23.5269 24.8309 24.2491 24.6448 24.5783 24.0896L25.9139 21.8347C25.9297 21.8069 25.9509 21.7825 25.9763 21.763C26.0016 21.7435 26.0306 21.7292 26.0616 21.7211C26.0925 21.7129 26.1247 21.7109 26.1564 21.7153C26.1881 21.7197 26.2186 21.7304 26.2461 21.7467C26.2737 21.7631 26.2977 21.7847 26.3167 21.8104C26.3358 21.8361 26.3496 21.8653 26.3572 21.8964C26.3649 21.9275 26.3663 21.9597 26.3613 21.9914C26.3563 22.023 26.3451 22.0533 26.3283 22.0805L24.9928 24.3354C24.6843 24.8564 24.1301 25.1471 23.5618 25.1471ZM33.3743 26.4397C33.3124 26.4397 33.2529 26.4158 33.2082 26.3731C33.1634 26.3304 33.1368 26.2721 33.1338 26.2103L33.0786 25.0666C33.0766 25.0237 33.086 24.9811 33.106 24.9431C33.1259 24.9051 33.1557 24.8731 33.1921 24.8504L34.0951 24.2891C34.1494 24.2554 34.2149 24.2446 34.2772 24.2592C34.3395 24.2737 34.3934 24.3124 34.4272 24.3667C34.4609 24.4211 34.4717 24.4866 34.4571 24.5489C34.4426 24.6111 34.4039 24.6651 34.3496 24.6988L33.5668 25.1849L33.615 26.1874C33.6181 26.2512 33.5956 26.3135 33.5527 26.3608C33.5098 26.408 33.4499 26.4363 33.3861 26.4395L33.3743 26.4397Z" fill="white"/>
<defs>
<radialGradient id="paint0_angular_1211_4699" cx="0" cy="0" r="1" gradientUnits="userSpaceOnUse" gradientTransform="translate(24 24) rotate(90) scale(24)">
<stop offset="0.0993526" stop-color="#FFC876"/>
<stop offset="0.427081" stop-color="#79FFF7"/>
<stop offset="0.718753" stop-color="#9F53FF"/>
<stop offset="1" stop-color="#FF98E2"/>
</radialGradient>
</defs>
</svg>
