<svg width="457" height="72" viewBox="0 0 457 72" fill="none" xmlns="http://www.w3.org/2000/svg">
<rect x="0.5" y="6" width="60" height="60" rx="16" fill="#252134"/>
<path fill-rule="evenodd" clip-rule="evenodd" d="M30.5 25C24.4249 25 19.5 29.9249 19.5 36C19.5 42.0751 24.4249 47 30.5 47C36.5751 47 41.5 42.0751 41.5 36C41.5 29.9249 36.5751 25 30.5 25ZM32.5 30C33.0523 30 33.5 30.4477 33.5 31V41C33.5 41.5523 33.0523 42 32.5 42C31.9477 42 31.5 41.5523 31.5 41V31C31.5 30.4477 31.9477 30 32.5 30ZM29.5 33C29.5 32.4477 29.0523 32 28.5 32C27.9477 32 27.5 32.4477 27.5 33V39C27.5 39.5523 27.9477 40 28.5 40C29.0523 40 29.5 39.5523 29.5 39V33ZM25.5 35C25.5 34.4477 25.0523 34 24.5 34C23.9477 34 23.5 34.4477 23.5 35V37C23.5 37.5523 23.9477 38 24.5 38C25.0523 38 25.5 37.5523 25.5 37V35ZM37.5 35C37.5 34.4477 37.0523 34 36.5 34C35.9477 34 35.5 34.4477 35.5 35V37C35.5 37.5523 35.9477 38 36.5 38C37.0523 38 37.5 37.5523 37.5 37V35Z" fill="white"/>
<rect x="96.5" y="6" width="60" height="60" rx="16" fill="#252134"/>
<path fill-rule="evenodd" clip-rule="evenodd" d="M117.5 33C118.052 33 118.5 33.4477 118.5 34V38C118.5 38.5523 118.052 39 117.5 39C116.948 39 116.5 38.5523 116.5 38L116.5 34C116.5 33.4477 116.948 33 117.5 33Z" fill="white"/>
<path fill-rule="evenodd" clip-rule="evenodd" d="M122 29C122.552 29 123 29.4477 123 30L123 42C123 42.5523 122.552 43 122 43C121.448 43 121 42.5523 121 42L121 30C121 29.4477 121.448 29 122 29Z" fill="white"/>
<path fill-rule="evenodd" clip-rule="evenodd" d="M126.5 26C127.052 26 127.5 26.4477 127.5 27V45C127.5 45.5523 127.052 46 126.5 46C125.948 46 125.5 45.5523 125.5 45V27C125.5 26.4477 125.948 26 126.5 26Z" fill="white"/>
<path fill-rule="evenodd" clip-rule="evenodd" d="M131 29C131.552 29 132 29.4477 132 30V42C132 42.5523 131.552 43 131 43C130.448 43 130 42.5523 130 42V30C130 29.4477 130.448 29 131 29Z" fill="white"/>
<path fill-rule="evenodd" clip-rule="evenodd" d="M135.5 33C136.052 33 136.5 33.4477 136.5 34V38C136.5 38.5523 136.052 39 135.5 39C134.948 39 134.5 38.5523 134.5 38V34C134.5 33.4477 134.948 33 135.5 33Z" fill="white"/>
<rect x="193" y="0.5" width="71" height="71" rx="15.5" stroke="url(#paint0_angular_2_29982)"/>
<path fill-rule="evenodd" clip-rule="evenodd" d="M217.5 36C217.5 29.9249 222.425 25 228.5 25C234.575 25 239.5 29.9249 239.5 36C239.5 42.0751 234.575 47 228.5 47C222.425 47 217.5 42.0751 217.5 36ZM228.5 39C230.157 39 231.5 37.6569 231.5 36C231.5 34.3431 230.157 33 228.5 33C226.843 33 225.5 34.3431 225.5 36C225.5 37.6569 226.843 39 228.5 39ZM231.929 28.7703C231.43 28.5333 230.834 28.7456 230.597 29.2445C230.36 29.7433 230.572 30.3399 231.071 30.5768C233.1 31.5409 234.5 33.608 234.5 35.9999C234.5 36.5522 234.948 36.9999 235.5 36.9999C236.052 36.9999 236.5 36.5522 236.5 35.9999C236.5 32.8071 234.63 30.0532 231.929 28.7703ZM222.5 35.9999C222.5 35.4476 222.052 34.9999 221.5 34.9999C220.948 34.9999 220.5 35.4476 220.5 35.9999C220.5 38.9112 222.056 41.4581 224.376 42.8564C224.849 43.1415 225.464 42.989 225.749 42.516C226.034 42.043 225.882 41.4284 225.409 41.1434C223.663 40.0919 222.5 38.1813 222.5 35.9999Z" fill="white"/>
<rect x="300.5" y="6" width="60" height="60" rx="16" fill="#252134"/>
<path fill-rule="evenodd" clip-rule="evenodd" d="M335.741 26H325.259C324.454 26 323.789 26 323.248 26.0442C322.686 26.0901 322.169 26.1887 321.684 26.436C320.931 26.8195 320.319 27.4314 319.936 28.184C319.689 28.6694 319.59 29.1861 319.544 29.7482C319.5 30.2894 319.5 30.9537 319.5 31.7587V40.2413C319.5 41.0463 319.5 41.7106 319.544 42.2518C319.59 42.8139 319.689 43.3306 319.936 43.816C320.319 44.5686 320.931 45.1805 321.684 45.564C322.169 45.8113 322.686 45.9099 323.248 45.9558C323.789 46 324.454 46 325.259 46H335.741C336.546 46 337.211 46 337.752 45.9558C338.314 45.9099 338.831 45.8113 339.316 45.564C340.069 45.1805 340.681 44.5686 341.064 43.816C341.311 43.3306 341.41 42.8139 341.456 42.2518C341.5 41.7106 341.5 41.0463 341.5 40.2413V31.7587C341.5 30.9537 341.5 30.2894 341.456 29.7482C341.41 29.1861 341.311 28.6694 341.064 28.184C340.681 27.4314 340.069 26.8195 339.316 26.436C338.831 26.1887 338.314 26.0901 337.752 26.0442C337.211 26 336.546 26 335.741 26ZM322.506 33.9394C322.567 33.3905 323.062 32.995 323.61 33.056C325.867 33.307 327.971 34.3183 329.576 35.9237C331.182 37.529 332.193 39.6329 332.444 41.8894C332.505 42.4383 332.109 42.9327 331.56 42.9938C331.012 43.0548 330.517 42.6593 330.456 42.1104C330.255 40.3053 329.446 38.6222 328.162 37.3379C326.878 36.0536 325.195 35.2445 323.389 35.0438C322.841 34.9827 322.445 34.4883 322.506 33.9394ZM322.52 37.9001C322.63 37.3589 323.159 37.0097 323.7 37.1201C324.853 37.3552 325.911 37.9243 326.743 38.7564C327.576 39.5885 328.145 40.647 328.38 41.8C328.49 42.3412 328.141 42.8693 327.6 42.9797C327.059 43.0901 326.53 42.7409 326.42 42.1997C326.263 41.431 325.884 40.7254 325.329 40.1706C324.774 39.6159 324.069 39.2365 323.3 39.0797C322.759 38.9693 322.41 38.4412 322.52 37.9001ZM323.5 40.9999C322.948 40.9999 322.5 41.4476 322.5 41.9999C322.5 42.5522 322.948 42.9999 323.5 42.9999H323.51C324.062 42.9999 324.51 42.5522 324.51 41.9999C324.51 41.4476 324.062 40.9999 323.51 40.9999H323.5Z" fill="white"/>
<rect x="396.5" y="6" width="60" height="60" rx="16" fill="#252134"/>
<path fill-rule="evenodd" clip-rule="evenodd" d="M417.5 33L428.626 33C429.07 34.7252 430.636 36 432.5 36C434.709 36 436.5 34.2091 436.5 32C436.5 29.7909 434.709 28 432.5 28C430.636 28 429.07 29.2748 428.626 31L417.5 31C416.948 31 416.5 31.4477 416.5 32C416.5 32.5523 416.948 33 417.5 33Z" fill="white"/>
<path fill-rule="evenodd" clip-rule="evenodd" d="M435.5 39L424.374 39C423.93 37.2748 422.364 36 420.5 36C418.291 36 416.5 37.7909 416.5 40C416.5 42.2091 418.291 44 420.5 44C422.364 44 423.93 42.7252 424.374 41L435.5 41C436.052 41 436.5 40.5523 436.5 40C436.5 39.4477 436.052 39 435.5 39Z" fill="white"/>
<defs>
<radialGradient id="paint0_angular_2_29982" cx="0" cy="0" r="1" gradientUnits="userSpaceOnUse" gradientTransform="translate(228.5 36) rotate(90) scale(36)">
<stop offset="0.0993526" stop-color="#FFC876"/>
<stop offset="0.427081" stop-color="#79FFF7"/>
<stop offset="0.718753" stop-color="#9F53FF"/>
<stop offset="1" stop-color="#FF98E2"/>
</radialGradient>
</defs>
</svg>
