<svg width="442" height="170" viewBox="0 0 442 170" fill="none" xmlns="http://www.w3.org/2000/svg">
<path d="M249.575 59.6156L249.18 59.2793L248.778 58.9497L248.369 58.6268L247.953 58.3113L247.531 58.0025L247.104 57.7013L246.67 57.4077L246.231 57.1215L245.787 56.8432L245.337 56.573L244.883 56.3111L244.424 56.0572L243.961 55.8119L243.494 55.5751L243.023 55.3472L242.549 55.128L242.071 54.9177L241.591 54.7167L241.108 54.5247L240.622 54.3422L240.134 54.1691L239.645 54.0054L239.153 53.8513L238.661 53.7069L238.167 53.5724L237.673 53.448L237.178 53.3333L236.683 53.2288L236.188 53.1342L235.694 53.05L235.2 52.9757L234.707 52.9118L234.215 52.8581L233.724 52.815L233.236 52.7821L232.749 52.7597L232.265 52.7478L231.783 52.7462L231.305 52.7551L230.829 52.7746L230.357 52.8045L229.889 52.8447L229.424 52.8956L228.964 52.9568L228.508 53.0285L228.057 53.1105L227.612 53.2027L227.171 53.3053L226.736 53.4183L226.307 53.5414L225.884 53.6747L225.468 53.8181L225.058 53.9716L224.655 54.1349L224.258 54.308L223.87 54.4909L223.489 54.6836L223.116 54.8857L222.75 55.0976L222.393 55.3187L222.045 55.5488L221.705 55.7884L221.374 56.0368L221.053 56.2942L220.74 56.5602L220.437 56.8349L220.144 57.1179L219.861 57.4093L219.588 57.7089L219.326 58.0162L219.073 58.3314L218.832 58.6542L218.601 58.9845L218.381 59.322L218.172 59.6666L217.975 60.018L217.789 60.3761L217.614 60.7405L217.451 61.1114L217.3 61.4879L217.161 61.8704L217.033 62.2586L216.918 62.6521L216.815 63.0508L216.724 63.4541L216.646 63.8624L216.58 64.2748L216.526 64.6913L216.485 65.1119L216.456 65.5362L216.44 65.9637L216.437 66.3944L216.446 66.828L216.468 67.2642L216.502 67.7026L216.549 68.1433L216.609 68.5857L216.682 69.0296L216.767 69.4746L216.864 69.9208L216.974 70.3675L217.097 70.8146L217.232 71.262L217.379 71.7093L217.538 72.156L217.71 72.602L217.894 73.047L218.089 73.4907L218.297 73.9331L218.516 74.3733L218.747 74.8115L218.989 75.2475L219.243 75.6804L219.508 76.1106L219.784 76.5377L220.07 76.961L220.368 77.3805L220.676 77.7961L220.994 78.2074L221.322 78.6141L221.661 79.0158L222.008 79.4124L222.366 79.8038L222.733 80.1895L223.109 80.5693L223.493 80.9429L223.886 81.3103L224.288 81.6709L224.697 82.0248L225.115 82.3715L225.539 82.711L225.972 83.0431L226.411 83.3671L226.856 83.6834L227.309 83.9917L227.767 84.2915L228.231 84.5826L228.701 84.8653L229.176 85.1389L229.656 85.4033L230.14 85.6586L230.629 85.9046L231.122 86.1409L231.618 86.3675L232.118 86.5842L232.621 86.7908L233.126 86.9874L233.634 87.1738L234.144 87.3496L234.656 87.5152L235.169 87.67L235.683 87.8143L236.198 87.9479L236.714 88.0703L237.229 88.182L237.744 88.2827L238.259 88.3724L238.773 88.451L239.285 88.5186L239.796 88.575L240.305 88.62L240.812 88.654L241.316 88.6766L241.818 88.6882L242.316 88.6885L242.811 88.6775L243.302 88.6554L243.789 88.6222L244.271 88.5779L244.749 88.5225L245.222 88.4558L245.689 88.3784L246.151 88.29L246.607 88.1907L247.057 88.0806L247.501 87.96L247.938 87.8287L248.368 87.6869L248.791 87.5346L249.206 87.372L249.614 87.1994L250.013 87.0164L250.405 86.8239L250.788 86.6214L251.162 86.4092L251.528 86.1877L251.884 85.9566L252.232 85.7164L252.569 85.4671L252.898 85.209L253.216 84.9423L253.524 84.6669L253.822 84.3833L254.11 84.0914L254.387 83.7916L254.653 83.4842L254.909 83.1691L255.154 82.8464L255.387 82.5169L255.61 82.1803L255.821 81.8371L256.02 81.4873L256.208 81.131L256.384 80.7689L256.549 80.401L256.702 80.0274L256.843 79.6483L256.972 79.2642L257.089 78.8751L257.194 78.4814L257.287 78.0834L257.368 77.6811L257.436 77.2748L257.493 76.8649L257.537 76.4514L257.569 76.0348L257.589 75.6153L257.596 75.1931L257.592 74.7686L257.575 74.3418L257.546 73.913L257.505 73.4825L257.453 73.0507L257.388 72.6177L257.311 72.1836L257.222 71.7491L257.121 71.314L257.008 70.8788L256.884 70.4438L256.749 70.009L256.602 69.5747L256.443 69.1415L256.273 68.7092L256.092 68.2783L255.9 67.849L255.697 67.4215L255.483 66.9961L255.259 66.5732L255.024 66.1525L254.778 65.7349L254.522 65.3199L254.257 64.9087L253.981 64.5006L253.695 64.0964L253.4 63.6961L253.096 63.2999L252.782 62.9083L252.459 62.521L252.128 62.1387L251.787 61.7615L251.439 61.3895L251.082 61.023L250.716 60.6622L250.343 60.3071L249.963 59.9582L249.575 59.6156Z" fill="#0E0C15"/>
<path d="M244.704 62.6094L244.928 62.7857L245.157 62.9561L245.381 63.1285L245.588 63.3109L245.772 63.5094L245.941 63.7192L246.107 63.9332L246.281 64.1444L246.472 64.3477L246.67 64.5468L246.862 64.7468L247.034 64.9533L247.178 65.1702L247.304 65.3947L247.425 65.6228L247.557 65.8498L247.707 66.0731L247.866 66.2935L248.019 66.5139L248.15 66.7367L248.249 66.9639L248.327 67.195L248.399 67.4284L248.483 67.6629L248.587 67.8977L248.702 68.1315L248.809 68.3642L248.894 68.5951L248.943 68.8241L248.97 69.0529L248.991 69.2829L249.022 69.5163L249.077 69.7535L249.142 69.9922L249.2 70.2285L249.234 70.4589L249.233 70.6811L249.207 70.8987L249.175 71.1168L249.154 71.3397L249.156 71.5708L249.168 71.8053L249.175 72.0364L249.157 72.2577L249.104 72.4646L249.027 72.6628L248.943 72.8601L248.869 73.0642L248.818 73.2803L248.778 73.5018L248.731 73.7189L248.663 73.9224L248.56 74.106L248.433 74.277L248.301 74.4458L248.177 74.6232L248.074 74.8159L247.982 75.0158L247.885 75.2108L247.767 75.3887L247.618 75.5417L247.447 75.6784L247.27 75.812L247.101 75.9557L246.95 76.1176L246.809 76.2879L246.664 76.453L246.501 76.5983L246.311 76.7145L246.102 76.8115L245.888 76.9045L245.68 77.0082L245.487 77.1328L245.302 77.2673L245.114 77.3959L244.912 77.5025L244.689 77.5772L244.45 77.6304L244.206 77.6786L243.967 77.7384L243.739 77.8204L243.517 77.9134L243.294 78.0004L243.06 78.0643L242.812 78.094L242.553 78.1008L242.289 78.1022L242.027 78.1152L241.773 78.1515L241.523 78.1993L241.273 78.241L241.017 78.2595L240.754 78.2429L240.483 78.2029L240.21 78.1568L239.937 78.1225L239.666 78.1111L239.398 78.1116L239.13 78.1065L238.862 78.0785L238.594 78.0161L238.324 77.9305L238.052 77.8387L237.777 77.7578L237.501 77.6994L237.224 77.6526L236.95 77.6007L236.68 77.5272L236.418 77.4213L236.158 77.2931L235.899 77.1589L235.634 77.0349L235.363 76.9317L235.089 76.8392L234.819 76.7426L234.558 76.6266L234.312 76.4811L234.074 76.3153L233.837 76.1441L233.593 75.9815L233.338 75.8374L233.077 75.7033L232.822 75.5659L232.581 75.412L232.36 75.2327L232.153 75.0361L231.948 74.8342L231.735 74.6397L231.505 74.4606L231.269 74.29L231.038 74.1172L230.826 73.9315L230.64 73.7258L230.472 73.5059L230.308 73.2816L230.133 73.0626L229.938 72.8557L229.735 72.6559L229.538 72.455L229.364 72.2449L229.22 72.0206L229.098 71.7861L228.98 71.5484L228.85 71.3139L228.699 71.0874L228.537 70.8661L228.382 70.645L228.251 70.4192L228.155 70.1854L228.083 69.9456L228.016 69.7035L227.937 69.4626L227.834 69.2258L227.72 68.992L227.612 68.7597L227.53 68.5273L227.486 68.293L227.466 68.0573L227.454 67.8203L227.428 67.5826L227.377 67.3446L227.314 67.1078L227.258 66.8735L227.227 66.6433L227.236 66.4179L227.27 66.1953L227.312 65.9727L227.34 65.7473L227.343 65.5175L227.333 65.2871L227.33 65.0601L227.353 64.8412L227.413 64.6334L227.5 64.4322L227.593 64.2324L227.674 64.028L227.731 63.8156L227.775 63.6003L227.824 63.3893L227.898 63.1904L228.008 63.0077L228.143 62.8357L228.284 62.6661L228.415 62.4905L228.522 62.3032L228.617 62.1114L228.718 61.9248L228.84 61.7531L228.995 61.6026L229.173 61.4661L229.356 61.3329L229.531 61.1923L229.684 61.0374L229.827 60.8764L229.974 60.7209L230.139 60.583L230.333 60.4702L230.546 60.3741L230.766 60.282L230.977 60.1818L231.171 60.0649L231.355 59.9407L231.542 59.8221L231.744 59.723L231.969 59.6518L232.21 59.5993L232.456 59.5515L232.696 59.4949L232.923 59.4205L233.142 59.3373L233.362 59.2604L233.593 59.2035L233.84 59.1763L234.1 59.169L234.363 59.1672L234.623 59.156L234.873 59.1263L235.118 59.0877L235.363 59.0546L235.613 59.0421L235.874 59.0597L236.142 59.0976L236.413 59.1412L236.683 59.1759L236.947 59.1919L237.209 59.1989L237.469 59.2111L237.73 59.2432L237.994 59.3047L238.261 59.386L238.529 59.4732L238.799 59.5522L239.068 59.6134L239.336 59.6655L239.602 59.7226L239.864 59.7979L240.122 59.9007L240.377 60.0224L240.633 60.1498L240.892 60.2699L241.156 60.3738L241.421 60.4693L241.682 60.5689L241.935 60.6846L242.177 60.8251L242.412 60.9824L242.646 61.1452L242.885 61.3019L243.134 61.4446L243.385 61.58L243.633 61.7184L243.867 61.8705L244.084 62.0431L244.29 62.2301L244.493 62.422L244.704 62.6094Z" fill="#0E0C15"/>
<path d="M253.157 57.9105L252.592 57.4305L252.017 56.9599L251.432 56.4993L250.838 56.0485L250.236 55.6078L249.624 55.1778L249.005 54.7583L248.378 54.35L247.743 53.9527L247.101 53.5668L246.453 53.1925L245.797 52.8299L245.136 52.4793L244.469 52.1409L243.797 51.8151L243.119 51.5015L242.437 51.2008L241.751 50.9131L241.06 50.6381L240.367 50.3766L239.67 50.1284L238.97 49.8939L238.268 49.6729L237.564 49.4655L236.858 49.2721L236.151 49.0928L235.444 48.9277L234.735 48.7768L234.027 48.64L233.319 48.5178L232.612 48.41L231.906 48.3169L231.201 48.2386L230.498 48.1748L229.798 48.1257L229.1 48.0917L228.405 48.0723L227.714 48.0677L227.027 48.0782L226.344 48.1036L225.665 48.144L224.992 48.1993L224.324 48.2694L223.662 48.3546L223.006 48.4546L222.356 48.5692L221.714 48.6989L221.079 48.8432L220.451 49.0024L219.832 49.1762L219.221 49.3646L218.619 49.5676L218.026 49.7848L217.443 50.0163L216.869 50.2622L216.306 50.5221L215.753 50.7959L215.211 51.0836L214.681 51.3853L214.162 51.7002L213.655 52.0288L213.16 52.3704L212.678 52.7253L212.209 53.0929L211.753 53.4734L211.31 53.8661L210.881 54.2715L210.466 54.6889L210.066 55.118L209.68 55.5589L209.309 56.0113L208.953 56.4746L208.613 56.9492L208.288 57.4342L207.979 57.9297L207.686 58.4353L207.409 58.9507L207.149 59.4757L206.906 60.0098L206.679 60.5531L206.47 61.1048L206.278 61.6649L206.103 62.2331L205.946 62.809L205.806 63.392L205.684 63.9821L205.58 64.579L205.494 65.1818L205.427 65.7909L205.377 66.4054L205.346 67.0249L205.333 67.6494L205.338 68.2783L205.362 68.9113L205.404 69.5478L205.465 70.1876L205.544 70.8302L205.642 71.4753L205.758 72.1225L205.892 72.7712L206.045 73.4214L206.216 74.0722L206.405 74.7234L206.612 75.3745L206.838 76.0253L207.081 76.6752L207.342 77.3237L207.62 77.9707L207.916 78.6155L208.229 79.2579L208.56 79.8971L208.907 80.533L209.271 81.1653L209.652 81.7931L210.049 82.4165L210.462 83.0347L210.891 83.6473L211.335 84.2543L211.794 84.8551L212.269 85.4491L212.758 86.0359L213.262 86.6155L213.779 87.1871L214.311 87.7504L214.856 88.3053L215.414 88.8511L215.984 89.3877L216.567 89.9146L217.162 90.4313L217.769 90.9376L218.386 91.4331L219.014 91.9177L219.653 92.3908L220.302 92.8521L220.96 93.3015L221.628 93.7388L222.303 94.1631L222.987 94.5746L223.679 94.9731L224.378 95.3581L225.084 95.7292L225.796 96.0865L226.515 96.4298L227.238 96.7586L227.966 97.0728L228.699 97.3722L229.436 97.6565L230.176 97.9257L230.92 98.1797L231.665 98.4181L232.413 98.6409L233.162 98.8478L233.912 99.039L234.663 99.2139L235.414 99.3728L236.164 99.5155L236.913 99.642L237.661 99.7521L238.407 99.846L239.15 99.9231L239.89 99.9841L240.627 100.028L241.361 100.056L242.089 100.067L242.813 100.062L243.532 100.041L244.245 100.003L244.952 99.9483L245.652 99.8777L246.345 99.7907L247.03 99.6877L247.708 99.5685L248.377 99.4335L249.038 99.2826L249.689 99.1161L250.331 98.9339L250.962 98.7364L251.584 98.5236L252.194 98.2957L252.794 98.0527L253.382 97.7951L253.958 97.5229L254.523 97.2365L255.074 96.936L255.613 96.6213L256.139 96.2932L256.652 95.9514L257.15 95.5965L257.635 95.2286L258.106 94.8482L258.562 94.4552L259.003 94.0498L259.43 93.6329L259.841 93.2042L260.237 92.7642L260.617 92.3132L260.981 91.8512L261.329 91.3792L261.662 90.8969L261.977 90.4048L262.277 89.9034L262.56 89.3928L262.825 88.8733L263.074 88.3451L263.306 87.8091L263.521 87.2652L263.719 86.7137L263.9 86.1554L264.063 85.59L264.209 85.0184L264.337 84.4404L264.448 83.857L264.541 83.268L264.617 82.6743L264.675 82.0758L264.716 81.4732L264.739 80.8664L264.745 80.2563L264.734 79.6427L264.705 79.0263L264.658 78.4077L264.595 77.7868L264.514 77.1643L264.416 76.5402L264.301 75.9152L264.169 75.2895L264.02 74.6636L263.855 74.0375L263.673 73.412L263.474 72.7872L263.26 72.1636L263.029 71.5413L262.782 70.9209L262.519 70.3025L262.24 69.6868L261.946 69.0739L261.637 68.464L261.313 67.8579L260.974 67.2555L260.62 66.6572L260.251 66.0635L259.869 65.4746L259.472 64.8909L259.062 64.3127L258.638 63.7402L258.2 63.1739L257.75 62.6138L257.287 62.0604L256.812 61.5142L256.324 60.9753L255.824 60.4439L255.313 59.9203L254.79 59.4051L254.256 58.8982L253.712 58.3999L253.157 57.9105Z" fill="#0E0C15"/>
<path d="M255.351 57.85L254.644 57.2492L253.924 56.6605L253.192 56.0842L252.449 55.5201L251.695 54.9691L250.93 54.4309L250.155 53.9063L249.37 53.3953L248.576 52.8984L247.773 52.4154L246.961 51.9473L246.142 51.4935L245.314 51.0549L244.48 50.6315L243.639 50.2234L242.791 49.8309L241.937 49.4543L241.078 49.094L240.215 48.7498L239.346 48.4222L238.474 48.1109L237.598 47.8168L236.718 47.5393L235.837 47.2792L234.953 47.0365L234.067 46.8113L233.18 46.6035L232.293 46.4138L231.405 46.2416L230.517 46.0874L229.63 45.9513L228.744 45.8335L227.86 45.734L226.978 45.6529L226.098 45.5901L225.222 45.5458L224.349 45.5202L223.48 45.5131L222.616 45.5246L221.757 45.5547L220.903 45.6036L220.055 45.6712L219.214 45.7575L218.38 45.8623L217.553 45.9861L216.734 46.1283L215.924 46.2891L215.122 46.4683L214.33 46.6663L213.547 46.8826L212.775 47.1173L212.014 47.3703L211.263 47.6414L210.524 47.9305L209.798 48.2376L209.083 48.5626L208.382 48.9051L207.695 49.2652L207.021 49.6427L206.361 50.0373L205.716 50.449L205.086 50.8774L204.472 51.3225L203.873 51.784L203.291 52.2617L202.725 52.7552L202.177 53.2647L201.646 53.7894L201.133 54.3295L200.638 54.8842L200.161 55.4537L199.704 56.0373L199.265 56.6352L198.846 57.2467L198.447 57.8715L198.068 58.5095L197.71 59.1601L197.372 59.8228L197.055 60.4978L196.759 61.184L196.485 61.8816L196.232 62.59L196.002 63.3089L195.793 64.0378L195.607 64.776L195.443 65.5235L195.302 66.2795L195.183 67.0438L195.088 67.8159L195.016 68.5953L194.967 69.3815L194.941 70.1741L194.938 70.9727L194.959 71.7765L195.004 72.5853L195.072 73.3983L195.163 74.2153L195.278 75.0358L195.416 75.8588L195.578 76.6843L195.764 77.5117L195.972 78.3401L196.204 79.1695L196.459 79.9989L196.738 80.8278L197.039 81.6561L197.363 82.4827L197.709 83.3073L198.079 84.1294L198.47 84.9485L198.883 85.764L199.318 86.5751L199.775 87.3816L200.253 88.1827L200.752 88.9781L201.272 89.7673L201.812 90.5494L202.372 91.324L202.952 92.0908L203.551 92.8489L204.17 93.5982L204.807 94.338L205.462 95.0676L206.135 95.7867L206.825 96.4948L207.532 97.1916L208.255 97.8762L208.995 98.5484L209.75 99.2075L210.519 99.8535L211.304 100.485L212.102 101.103L212.913 101.706L213.738 102.294L214.575 102.867L215.423 103.423L216.283 103.963L217.153 104.487L218.033 104.994L218.923 105.483L219.821 105.954L220.728 106.408L221.642 106.843L222.563 107.26L223.49 107.658L224.423 108.037L225.361 108.396L226.304 108.736L227.25 109.056L228.199 109.356L229.151 109.636L230.105 109.895L231.06 110.134L232.015 110.352L232.97 110.55L233.925 110.726L234.878 110.882L235.829 111.016L236.778 111.13L237.723 111.222L238.664 111.293L239.601 111.343L240.533 111.372L241.459 111.379L242.378 111.366L243.291 111.331L244.196 111.276L245.093 111.199L245.982 111.101L246.861 110.983L247.73 110.844L248.589 110.685L249.437 110.505L250.273 110.305L251.098 110.085L251.911 109.845L252.71 109.586L253.496 109.307L254.268 109.009L255.025 108.692L255.768 108.357L256.496 108.003L257.208 107.631L257.904 107.241L258.583 106.834L259.246 106.409L259.891 105.967L260.519 105.509L261.129 105.034L261.72 104.544L262.293 104.038L262.848 103.517L263.382 102.981L263.898 102.43L264.394 101.865L264.87 101.287L265.326 100.695L265.761 100.09L266.176 99.4731L266.57 98.8437L266.943 98.2029L267.295 97.5508L267.625 96.8876L267.934 96.214L268.222 95.5307L268.488 94.8377L268.733 94.1357L268.955 93.4248L269.156 92.706L269.334 91.9793L269.491 91.2454L269.625 90.5044L269.738 89.7572L269.829 89.0041L269.897 88.2453L269.944 87.4817L269.968 86.7132L269.971 85.9409L269.952 85.1648L269.911 84.3854L269.848 83.6033L269.764 82.8189L269.658 82.0326L269.53 81.2448L269.382 80.4563L269.212 79.6671L269.021 78.8779L268.81 78.0889L268.578 77.3009L268.325 76.514L268.052 75.7289L267.759 74.9459L267.446 74.1653L267.113 73.388L266.761 72.6139L266.389 71.8437L265.999 71.0775L265.59 70.3162L265.162 69.5599L264.716 68.8088L264.253 68.0639L263.771 67.3252L263.272 66.5931L262.756 65.868L262.224 65.1503L261.674 64.4404L261.109 63.7386L260.528 63.0456L259.932 62.3612L259.32 61.6862L258.693 61.021L258.052 60.3654L257.397 59.7203L256.728 59.0859L256.046 58.4623L255.351 57.85Z" fill="#0E0C15"/>
<path d="M256.405 58.723L255.679 58.0841L254.941 57.4572L254.803 57.3408L254.067 56.7391L253.319 56.1499L252.56 55.5735L251.789 55.0104L251.007 54.4605L250.215 53.9241L249.413 53.4019L248.602 52.894L247.781 52.4005L246.951 51.9219L246.113 51.4583L245.268 51.0101L244.415 50.5773L243.555 50.1601L242.689 49.7592L241.817 49.3741L240.939 49.0058L240.056 48.6539L239.886 48.5891L238.98 48.2472L238.069 47.9225L237.155 47.6156L236.238 47.326L235.318 47.0545L234.395 46.8013L233.471 46.5661L233.163 46.4916L232.218 46.2706L231.273 46.0685L230.328 45.8851L229.383 45.7209L228.438 45.5759L228.034 45.5163L227.073 45.3882L226.113 45.28L225.155 45.1918L223.725 45.0893L222.756 45.04L221.791 45.0114L220.83 45.0032L220.305 45L219.332 45.0126L218.366 45.0461L217.811 45.0763L216.834 45.1318L215.864 45.2085L214.901 45.3064L214.305 45.3729L213.335 45.4942L212.373 45.6369L211.755 45.7394L210.788 45.9061L209.83 46.095L209.193 46.234L208.232 46.4475L207.282 46.6832L206.629 46.8595L205.677 47.1207L204.738 47.4039L204.072 47.6179L203.134 47.9271L202.209 48.2586L201.534 48.5103L200.612 48.8681L199.704 49.2481L199.022 49.5374L198.12 49.9441L197.444 50.2663L196.548 50.6997L195.668 51.1555L194.992 51.5145L194.121 51.997L193.455 52.388L192.593 52.897L191.75 53.4284L191.088 53.8545L190.257 54.4123L189.609 54.8686L188.791 55.4525L187.992 56.0583L187.354 56.5479L186.571 57.1793L185.951 57.697L185.184 58.354L184.582 58.8984L183.833 59.5807L183.106 60.2838L182.52 60.8577L181.812 61.585L181.249 62.1833L180.562 62.9343L180.021 63.5557L179.355 64.3298L178.714 65.1238L178.196 65.7696L177.578 66.5857L177.085 67.2514L176.492 68.0886L176.025 68.7729L175.457 69.6306L175.018 70.3319L174.476 71.209L173.96 72.104L173.55 72.8217L173.062 73.7346L172.681 74.4658L172.22 75.3957L171.87 76.1388L171.438 77.0844L171.119 77.8377L170.716 78.7984L170.342 79.774L170.055 80.5344L169.711 81.5229L169.457 82.2895L169.143 83.2899L168.922 84.0609L168.638 85.0716L168.385 86.0951L168.197 86.8653L167.975 87.897L167.82 88.6675L167.63 89.7063L167.508 90.4752L167.348 91.5199L167.219 92.5744L167.132 93.3342L167.034 94.3924L166.98 95.1462L166.914 96.2064L166.878 97.2744L166.857 98.0134L166.852 99.0814L166.864 99.8101L166.889 100.877L166.944 101.949L166.988 102.657L167.073 103.725L167.263 105.482L167.408 106.548L167.513 107.215L167.686 108.275L167.889 109.336L168.021 109.974L168.251 111.025L168.511 112.077L168.669 112.682L168.954 113.723L169.268 114.763L169.45 115.332L169.789 116.358L170.155 117.382L170.359 117.913L170.748 118.921L171.165 119.926L171.609 120.926L171.825 121.403L172.289 122.385L172.78 123.362L173.52 124.752L174.054 125.701L174.614 126.643L175.198 127.577L175.423 127.936L176.022 128.848L176.645 129.75L177.29 130.641L177.512 130.938L178.17 131.806L178.85 132.662L179.551 133.507L180.273 134.339L181.016 135.16L181.203 135.364L181.953 136.157L182.722 136.936L183.51 137.701L184.316 138.452L185.14 139.187L185.981 139.906L186.839 140.609L186.949 140.697L187.807 141.371L188.68 142.028L189.567 142.667L190.469 143.289L191.384 143.893L192.311 144.478L193.251 145.044L194.202 145.59L195.164 146.116L196.136 146.622L197.118 147.108L198.108 147.573L199.106 148.017L200.112 148.439L200.243 148.493L201.274 148.901L202.311 149.286L203.354 149.649L204.401 149.989L205.452 150.305L206.507 150.599L207.564 150.869L207.835 150.934L208.912 151.185L209.99 151.411L211.068 151.613L212.147 151.791L213.224 151.944L213.592 151.994L214.685 152.125L215.775 152.23L216.862 152.311L217.286 152.334L218.386 152.391L219.48 152.422L220.569 152.427L221.045 152.419L222.143 152.399L223.235 152.353L224.318 152.282L224.84 152.24L225.93 152.141L227.009 152.018L228.078 151.868L228.642 151.788L229.715 151.611L230.775 151.408L231.362 151.291L232.422 151.06L233.469 150.804L234.076 150.649L235.12 150.365L236.151 150.055L236.773 149.861L237.798 149.523L238.807 149.16L239.441 148.928L240.443 148.536L241.078 148.269L242.07 147.849L243.044 147.405L243.685 147.1L244.648 146.628L245.591 146.132L246.235 145.789L247.165 145.266L247.801 144.89L248.716 144.34L249.61 143.766L250.243 143.354L251.119 142.754L251.741 142.31L252.599 141.685L253.434 141.038L254.047 140.559L254.862 139.888L255.461 139.38L256.254 138.685L256.836 138.147L257.607 137.429L258.352 136.691L258.919 136.123L259.64 135.364L260.187 134.77L260.883 133.989L261.409 133.37L262.079 132.57L262.722 131.752L263.226 131.108L263.843 130.271L264.323 129.605L264.911 128.751L265.366 128.065L265.926 127.195L266.355 126.488L266.886 125.604L267.389 124.704L267.79 123.981L268.263 123.068L268.635 122.329L269.078 121.404L269.422 120.651L269.834 119.715L270.148 118.949L270.53 118.004L270.883 117.046L271.165 116.273L271.487 115.308L271.737 114.526L272.03 113.554L272.248 112.765L272.509 111.788L272.741 110.802L272.926 110.013L273.127 109.024L273.28 108.231L273.451 107.24L273.57 106.445L273.712 105.454L273.825 104.455L273.911 103.668L273.995 102.671L274.047 101.887L274.102 100.892L274.129 99.8916L274.148 99.1207L274.147 98.1248L274.134 97.3605L274.105 96.3701L274.049 95.3761L274.004 94.6303L273.921 93.6438L273.845 92.9085L273.736 91.9305L273.601 90.9506L273.495 90.239L273.336 89.2692L273.151 88.2989L273.016 87.6139L272.808 86.6552L272.574 85.6968L272.413 85.041L272.157 84.096L271.878 83.1522L271.692 82.5282L271.392 81.5994L271.069 80.673L270.859 80.0834L270.518 79.1729L270.153 78.2659L269.923 77.713L269.542 76.8236L269.138 75.938L268.471 74.5581L268.031 73.6963L267.571 72.8397L267.314 72.3823L266.841 71.5463L266.348 70.7162L265.835 69.8928L265.053 68.6921L264.511 67.8974L263.951 67.1105L263.373 66.3318L263.126 66.0082L262.541 65.2524L261.939 64.5052L261.32 63.7672L260.685 63.0387L260.034 62.3203L259.821 62.0874L259.167 61.3929L258.498 60.709L257.814 60.0358L257.116 59.3736L256.405 58.723Z" fill="#0E0C15"/>
<path d="M212.373 45.6369L211.42 45.8013L210.476 45.9874L209.543 46.195L208.62 46.424L207.707 46.6745L206.807 46.9463L205.918 47.2395L205.042 47.5537L204.18 47.8887L203.33 48.2449L202.496 48.6217L201.676 49.0191L200.871 49.437L200.081 49.8752L199.308 50.3335L198.552 50.8117L197.813 51.3095L197.092 51.8267L196.389 52.3631L195.704 52.9185L195.039 53.4926L194.393 54.0851L193.768 54.6958L193.162 55.3242L192.578 55.9702L192.015 56.6336L191.473 57.3136L190.954 58.0101L190.457 58.723L189.984 59.4515L189.533 60.1955L189.106 60.9545L188.703 61.728L188.324 62.5156L187.969 63.3171L187.64 64.1316L187.336 64.9592L187.057 65.7991L186.804 66.6508L186.577 67.514L186.376 68.3879L186.202 69.2724L186.053 70.1666L185.932 71.0702L185.838 71.9825L185.771 72.9032L185.731 73.8312L185.719 74.7666L185.733 75.7086L185.776 76.6562L185.845 77.6094L185.943 78.5671L186.068 79.5292L186.221 80.4947L186.401 81.4629L186.609 82.4336L186.844 83.4057L187.107 84.379L187.397 85.3527L187.714 86.3262L188.058 87.2985L188.43 88.2692L188.828 89.2379L189.253 90.2036L189.703 91.1659L190.18 92.1239L190.683 93.077L191.211 94.0247L191.764 94.9662L192.342 95.9011L192.945 96.8282L193.572 97.7476L194.223 98.658L194.897 99.5594L195.594 100.45L196.314 101.331L197.055 102.201L197.819 103.058L198.603 103.903L199.408 104.735L200.233 105.553L201.078 106.358L201.941 107.147L202.823 107.922L203.723 108.68L204.64 109.422L205.573 110.147L206.523 110.854L207.487 111.544L208.467 112.215L209.46 112.867L210.466 113.5L211.485 114.114L212.516 114.707L213.558 115.279L214.61 115.83L215.672 116.36L216.744 116.869L217.823 117.355L218.91 117.819L220.003 118.26L221.102 118.678L222.207 119.073L223.316 119.444L224.429 119.792L225.544 120.116L226.662 120.415L227.781 120.69L228.901 120.941L230.02 121.167L231.138 121.368L232.255 121.545L233.369 121.696L234.481 121.823L235.588 121.924L236.69 122.001L237.787 122.052L238.878 122.078L239.962 122.079L241.038 122.056L242.106 122.007L243.165 121.934L244.215 121.836L245.254 121.713L246.281 121.566L247.298 121.395L248.301 121.199L249.292 120.98L250.269 120.737L251.233 120.47L252.181 120.181L253.114 119.868L254.031 119.532L254.931 119.175L255.814 118.795L256.68 118.393L257.529 117.97L258.358 117.525L259.168 117.06L259.959 116.574L260.73 116.069L261.481 115.543L262.211 114.999L262.92 114.435L263.607 113.853L264.273 113.253L264.916 112.636L265.537 112.001L266.135 111.35L266.71 110.682L267.261 109.998L267.789 109.3L268.292 108.586L268.772 107.858L269.228 107.117L269.658 106.362L270.065 105.594L270.446 104.813L270.802 104.021L271.133 103.218L271.439 102.404L271.719 101.58L271.975 100.745L272.204 99.9021L272.408 99.0501L272.587 98.1899L272.74 97.3219L272.867 96.4469L272.969 95.5654L273.045 94.6778L273.096 93.7847L273.121 92.8866L273.12 91.9841L273.095 91.0776L273.044 90.1676L272.968 89.2548L272.867 88.3398L272.742 87.4227L272.591 86.5045L272.416 85.5856L272.216 84.6663L271.993 83.7471L271.745 82.8289L271.473 81.9116L271.178 80.9964L270.859 80.0834" fill="#0E0C15"/>
<path d="M194.121 51.9971L193.267 52.5017L192.431 53.0283L191.614 53.5766L190.816 54.1461L190.037 54.7369L189.279 55.3489L188.542 55.9812L187.826 56.634L187.132 57.307L186.459 57.9996L185.81 58.7116L185.184 59.4428L184.581 60.1925L184.003 60.9605L183.449 61.7465L182.92 62.5498L182.416 63.3705L181.938 64.2077L181.487 65.061L181.061 65.9302L180.663 66.8146L180.292 67.7138L179.949 68.6273L179.633 69.5544L179.346 70.495L179.087 71.4481L178.858 72.4134L178.656 73.3903L178.485 74.3782L178.342 75.3765L178.23 76.3847L178.147 77.4021L178.094 78.4281L178.071 79.4621L178.079 80.5034L178.117 81.5513L178.185 82.6051L178.284 83.6645L178.413 84.7286L178.573 85.7964L178.764 86.8678L178.985 87.9416L179.236 89.0174L179.517 90.0945L179.829 91.1719L180.171 92.249L180.544 93.3253L180.946 94.3999L181.377 95.472L181.839 96.5412L182.329 97.6063L182.848 98.667L183.396 99.7222L183.972 100.771L184.577 101.814L185.209 102.848L185.868 103.875L186.554 104.893L187.267 105.901L188.006 106.898L188.77 107.885L189.56 108.859L190.374 109.822L191.212 110.77L192.074 111.706L192.959 112.626L193.866 113.532L194.795 114.421L195.745 115.294L196.715 116.15L197.706 116.989L198.715 117.809L199.743 118.61L200.789 119.391L201.852 120.153L202.931 120.894L204.026 121.614L205.135 122.312L206.259 122.989L207.396 123.642L208.545 124.273L209.706 124.88L210.878 125.464L212.059 126.023L213.25 126.557L214.449 127.067L215.656 127.551L216.87 128.009L218.089 128.441L219.313 128.848L220.541 129.227L221.773 129.58L223.006 129.906L224.242 130.205L225.477 130.477L226.713 130.721L227.948 130.937L229.18 131.126L230.41 131.287L231.637 131.42L232.859 131.526L234.075 131.603L235.286 131.653L236.489 131.675L237.685 131.668L238.873 131.635L240.051 131.573L241.219 131.484L242.376 131.368L243.522 131.225L244.655 131.054L245.775 130.856L246.882 130.632L247.974 130.381L249.051 130.104L250.112 129.801L251.157 129.473L252.184 129.119L253.194 128.74L254.186 128.336L255.159 127.908L256.112 127.456L257.045 126.98L257.958 126.481L258.85 125.959L259.719 125.415L260.567 124.849L261.393 124.261L262.195 123.651L262.974 123.022L263.729 122.371L264.46 121.702L265.167 121.013L265.849 120.305L266.505 119.58L267.136 118.836L267.741 118.075L268.32 117.298L268.872 116.504L269.398 115.695L269.897 114.871L270.369 114.033L270.814 113.181L271.231 112.315L271.621 111.436L271.983 110.546L272.318 109.644L272.624 108.731L272.903 107.807L273.154 106.873L273.376 105.931L273.571 104.979L273.737 104.02L273.875 103.053L273.986 102.078L274.068 101.098L274.122 100.112L274.149 99.1207" fill="#0E0C15"/>
<path d="M180.562 62.9343L179.899 63.7058L179.261 64.4966L178.648 65.3068L178.06 66.1359L177.499 66.9833L176.964 67.849L176.456 68.7321L175.976 69.6323L175.523 70.5491L175.098 71.4819L174.702 72.4305L174.335 73.3942L173.997 74.3722L173.689 75.3644L173.41 76.3699L173.162 77.3881L172.944 78.4187L172.756 79.4609L172.6 80.5141L172.475 81.5775L172.381 82.6508L172.318 83.7332L172.287 84.8241L172.288 85.9227L172.321 87.0282L172.386 88.14L172.483 89.2578L172.612 90.3802L172.773 91.5069L172.967 92.6372L173.192 93.7701L173.45 94.905L173.739 96.0413L174.061 97.1781L174.414 98.3146L174.799 99.45L175.216 100.584L175.663 101.715L176.142 102.842L176.652 103.966L177.192 105.085L177.763 106.198L178.363 107.304L178.993 108.404L179.652 109.495L180.341 110.578L181.057 111.651L181.802 112.713L182.574 113.765L183.374 114.805L184.2 115.832L185.052 116.847L185.929 117.847L186.832 118.832L187.758 119.802L188.709 120.756L189.682 121.693L190.678 122.612L191.696 123.513L192.734 124.396L193.794 125.259L194.872 126.102L195.97 126.924L197.085 127.725L198.218 128.504L199.368 129.261L200.533 129.995L201.713 130.705L202.907 131.391L204.114 132.053L205.334 132.69L206.565 133.302L207.807 133.888L209.059 134.448L210.319 134.981L211.587 135.487L212.863 135.966L214.145 136.418L215.432 136.841L216.723 137.237L218.018 137.604L219.315 137.943L220.614 138.253L221.913 138.534L223.213 138.785L224.511 139.008L225.808 139.201L227.101 139.365L228.391 139.5L229.676 139.604L230.956 139.68L232.229 139.726L233.495 139.742L234.753 139.729L236.001 139.687L237.24 139.616L238.469 139.515L239.686 139.386L240.891 139.228L242.083 139.041L243.261 138.826L244.425 138.582L245.573 138.311L246.706 138.012L247.822 137.686L248.92 137.333L250.001 136.953L251.063 136.546L252.105 136.114L253.128 135.656L254.13 135.172L255.111 134.664L256.071 134.131L257.008 133.575L257.922 132.994L258.814 132.391L259.681 131.765L260.525 131.117L261.344 130.447L262.137 129.756L262.906 129.045L263.649 128.313L264.365 127.562L265.055 126.792L265.718 126.003L266.353 125.196L266.962 124.372L267.543 123.532L268.095 122.675L268.62 121.802L269.116 120.915L269.584 120.013L270.022 119.097L270.432 118.168L270.813 117.227L271.165 116.273" fill="#0E0C15"/>
<path d="M171.438 77.0844L171.035 78.046L170.661 79.0224L170.316 80.0137L170.001 81.0189L169.716 82.0379L169.461 83.0693L169.237 84.1134L169.044 85.1688L168.882 86.2355L168.751 87.3124L168.652 88.3994L168.585 89.4953L168.549 90.5994L168.545 91.7115L168.574 92.8304L168.635 93.9557L168.728 95.0868L168.854 96.2226L169.012 97.3628L169.202 98.5062L169.425 99.6523L169.68 100.8L169.967 101.95L170.287 103.099L170.638 104.248L171.022 105.397L171.437 106.543L171.884 107.686L172.362 108.826L172.872 109.962L173.412 111.092L173.983 112.217L174.584 113.335L175.215 114.446L175.875 115.548L176.565 116.642L177.284 117.726L178.03 118.799L178.805 119.861L179.607 120.911L180.435 121.948L181.29 122.971L182.171 123.981L183.078 124.975L184.008 125.954L184.963 126.916L185.941 127.861L186.942 128.788L187.964 129.697L189.008 130.586L190.073 131.456L191.157 132.306L192.261 133.134L193.383 133.941L194.522 134.725L195.678 135.487L196.85 136.226L198.037 136.94L199.239 137.631L200.454 138.296L201.681 138.937L202.921 139.551L204.171 140.14L205.43 140.702L206.699 141.237L207.977 141.745L209.261 142.225L210.552 142.677L211.848 143.101L213.148 143.496L214.452 143.863L215.759 144.201L217.068 144.509L218.377 144.789L219.687 145.039L220.995 145.259L222.301 145.449L223.605 145.61L224.905 145.741L226.2 145.842L227.49 145.914L228.774 145.955L230.05 145.967L231.318 145.949L232.577 145.901L233.827 145.823L235.066 145.717L236.293 145.581L237.509 145.416L238.711 145.222L239.9 144.999L241.074 144.748L242.233 144.469L243.375 144.162L244.502 143.827L245.61 143.465L246.701 143.076L247.773 142.66L248.825 142.218L249.858 141.75L250.87 141.256L251.861 140.738L252.83 140.195L253.777 139.627L254.701 139.037L255.601 138.422L256.478 137.785L257.331 137.125L258.158 136.444L258.961 135.741L259.738 135.018L260.489 134.274L261.214 133.511L261.912 132.728L262.583 131.927L263.226 131.108" fill="#0E0C15"/>
<path d="M250.243 143.354L249.344 143.931L248.423 144.484L247.481 145.014L246.518 145.52L245.535 146.002L244.532 146.46L243.509 146.892L242.468 147.298L241.409 147.679L240.333 148.033L239.24 148.361L238.132 148.663L237.007 148.937L235.869 149.183L234.716 149.403L233.551 149.594L232.372 149.758L231.183 149.893L229.982 149.999L228.772 150.077L227.551 150.127L226.323 150.148L225.087 150.14L223.844 150.103L222.595 150.037L221.342 149.942L220.083 149.818L218.822 149.666L217.557 149.484L216.292 149.274L215.025 149.035L213.758 148.767L212.493 148.471L211.229 148.146L209.968 147.794L208.71 147.413L207.457 147.005L206.209 146.57L204.968 146.108L203.734 145.619L202.507 145.103L201.29 144.561L200.082 143.993L198.885 143.4L197.699 142.782L196.525 142.139L195.365 141.473L194.218 140.782L193.086 140.069L191.969 139.332L190.869 138.574L189.786 137.794L188.72 136.993L187.673 136.172L186.646 135.331L185.638 134.47L184.651 133.591L183.685 132.693L182.741 131.779L181.82 130.847L180.922 129.9L180.047 128.937L179.197 127.96L178.372 126.968L177.573 125.964L176.799 124.946L176.052 123.917L175.332 122.877L174.639 121.826L173.974 120.766L173.337 119.697L172.729 118.62L172.15 117.536L171.6 116.445L171.079 115.348L170.589 114.246L170.128 113.139L169.698 112.029L169.298 110.917L168.929 109.802L168.591 108.686L168.284 107.569L168.008 106.453L167.763 105.337L167.549 104.223L167.367 103.112L167.216 102.003L167.096 100.899L167.008 99.7991L166.951 98.7044L166.926 97.6158L166.931 96.5339L166.967 95.459L167.034 94.3924" fill="#0E0C15"/>
<path d="M169.268 114.763L169.611 115.801L169.982 116.837L170.381 117.871L170.809 118.901L171.264 119.926L171.746 120.947L172.257 121.962L172.794 122.97L173.357 123.972L173.948 124.966L174.564 125.951L175.206 126.928L175.874 127.894L176.566 128.85L177.283 129.795L178.024 130.728L178.788 131.649L179.576 132.556L180.386 133.45L181.217 134.329L182.071 135.194L182.945 136.042L183.84 136.875L184.754 137.69L185.688 138.488L186.64 139.269L187.61 140.03L188.596 140.772L189.6 141.495L190.619 142.199L191.653 142.881L192.702 143.542L193.764 144.182L194.839 144.799L195.927 145.394L197.026 145.967L198.135 146.516L199.255 147.042L200.383 147.543L201.52 148.02L202.664 148.473L203.815 148.901L204.971 149.304L206.133 149.681L207.299 150.033L208.469 150.359L209.641 150.658L210.815 150.932L211.991 151.179L213.166 151.399L214.341 151.593L215.515 151.76L216.686 151.9L217.854 152.014L219.019 152.101L220.179 152.16L221.334 152.193L222.482 152.199L223.624 152.178L224.758 152.131L225.884 152.057L227.001 151.956L228.107 151.829L229.204 151.676L230.289 151.496L231.362 151.291" fill="#0E0C15"/>
<path d="M212.373 45.6369L213.335 45.4942L214.305 45.3729L214.901 45.3064L215.864 45.2085L216.834 45.1318L217.811 45.0763L218.366 45.0461L219.332 45.0126L220.305 45L220.83 45.0032L221.791 45.0114L222.756 45.04L223.725 45.0893L225.155 45.1918L226.113 45.28L227.073 45.3882L228.034 45.5163L228.438 45.5759L229.383 45.7209L230.328 45.8851L231.273 46.0685L232.218 46.2706L233.163 46.4916L233.471 46.5661L234.395 46.8013L235.318 47.0545L236.238 47.326L237.155 47.6156L238.069 47.9225L238.98 48.2472L239.886 48.5891L240.056 48.6539L240.939 49.0058L241.817 49.3741L242.689 49.7592L243.555 50.1601L244.415 50.5773L245.268 51.0101L246.113 51.4583L246.951 51.9219L247.781 52.4005L248.602 52.894L249.413 53.4019L250.215 53.9241L251.007 54.4605L251.789 55.0104L252.56 55.5735L253.319 56.1499L254.067 56.7391L254.803 57.3408L254.941 57.4572L255.679 58.0841L256.405 58.723L257.116 59.3736L257.814 60.0358L258.498 60.709L259.167 61.3929L259.821 62.0874L260.034 62.3203L260.685 63.0387L261.32 63.7672L261.939 64.5052L262.541 65.2524L263.126 66.0082L263.373 66.3318L263.951 67.1105L264.511 67.8974L265.053 68.6921L265.835 69.8928L266.348 70.7162L266.841 71.5463L267.314 72.3823L267.571 72.8397L268.031 73.6963L268.471 74.5581L269.138 75.938L269.542 76.8236L269.923 77.713L270.153 78.2659L270.518 79.1729L270.859 80.0834M212.373 45.6369L211.755 45.7394L210.788 45.9061L209.83 46.095L209.193 46.234L208.232 46.4475L207.282 46.6832L206.629 46.8595L205.677 47.1207L204.738 47.4039L204.072 47.6179L203.134 47.9271L202.209 48.2586L201.534 48.5103L200.612 48.8681L199.704 49.2481L199.022 49.5374L198.12 49.9441L197.444 50.2663L196.548 50.6997L195.668 51.1555L194.992 51.5145L194.121 51.997L193.455 52.388L192.593 52.897L191.75 53.4284L191.088 53.8545L190.257 54.4123L189.609 54.8686L188.791 55.4525L187.992 56.0583L187.354 56.5479L186.571 57.1793L185.951 57.697L185.184 58.354L184.582 58.8984L183.833 59.5807L183.106 60.2838L182.52 60.8577L181.812 61.585L181.249 62.1833L180.562 62.9343M212.373 45.6369L211.42 45.8013L210.476 45.9874L209.543 46.195L208.62 46.424L207.707 46.6745L206.807 46.9463L205.918 47.2395L205.042 47.5537L204.18 47.8887L203.33 48.2449L202.496 48.6217L201.676 49.0191L200.871 49.437L200.081 49.8752L199.308 50.3335L198.552 50.8117L197.813 51.3095L197.092 51.8267L196.389 52.3631L195.704 52.9185L195.039 53.4926L194.393 54.0851L193.768 54.6958L193.162 55.3242L192.578 55.9702L192.015 56.6336L191.473 57.3136L190.954 58.0101L190.457 58.723L189.984 59.4515L189.533 60.1955L189.106 60.9545L188.703 61.728L188.324 62.5156L187.969 63.3171L187.64 64.1316L187.336 64.9592L187.057 65.7991L186.804 66.6508L186.577 67.514L186.376 68.3879L186.202 69.2724L186.053 70.1666L185.932 71.0702L185.838 71.9825L185.771 72.9032L185.731 73.8312L185.719 74.7666L185.733 75.7086L185.776 76.6562L185.845 77.6094L185.943 78.5671L186.068 79.5292L186.221 80.4947L186.401 81.4629L186.609 82.4336L186.844 83.4057L187.107 84.379L187.397 85.3527L187.714 86.3262L188.058 87.2985L188.43 88.2692L188.828 89.2379L189.253 90.2036L189.703 91.1659L190.18 92.1239L190.683 93.077L191.211 94.0247L191.764 94.9662L192.342 95.9011L192.945 96.8282L193.572 97.7476L194.223 98.658L194.897 99.5594L195.594 100.45L196.314 101.331L197.055 102.201L197.819 103.058L198.603 103.903L199.408 104.735L200.233 105.553L201.078 106.358L201.941 107.147L202.823 107.922L203.723 108.68L204.64 109.422L205.573 110.147L206.523 110.854L207.487 111.544L208.467 112.215L209.46 112.867L210.466 113.5L211.485 114.114L212.516 114.707L213.558 115.279L214.61 115.83L215.672 116.36L216.744 116.869L217.823 117.355L218.91 117.819L220.003 118.26L221.102 118.678L222.207 119.073L223.316 119.444L224.429 119.792L225.544 120.116L226.662 120.415L227.781 120.69L228.901 120.941L230.02 121.167L231.138 121.368L232.255 121.545L233.369 121.696L234.481 121.823L235.588 121.924L236.69 122.001L237.787 122.052L238.878 122.078L239.962 122.079L241.038 122.056L242.106 122.007L243.165 121.934L244.215 121.836L245.254 121.713L246.281 121.566L247.298 121.395L248.301 121.199L249.292 120.98L250.269 120.737L251.233 120.47L252.181 120.181L253.114 119.868L254.031 119.532L254.931 119.175L255.814 118.795L256.68 118.393L257.529 117.97L258.358 117.525L259.168 117.06L259.959 116.574L260.73 116.069L261.481 115.543L262.211 114.999L262.92 114.435L263.607 113.853L264.273 113.253L264.916 112.636L265.537 112.001L266.135 111.35L266.71 110.682L267.261 109.998L267.789 109.3L268.292 108.586L268.772 107.858L269.228 107.117L269.658 106.362L270.065 105.594L270.446 104.813L270.802 104.021L271.133 103.218L271.439 102.404L271.719 101.58L271.975 100.745L272.204 99.9021L272.408 99.0501L272.587 98.1899L272.74 97.3219L272.867 96.4469L272.969 95.5654L273.045 94.6778L273.096 93.7847L273.121 92.8866L273.12 91.9841L273.095 91.0776L273.044 90.1676L272.968 89.2548L272.867 88.3398L272.742 87.4227L272.591 86.5045L272.416 85.5856L272.216 84.6663L271.993 83.7471L271.745 82.8289L271.473 81.9116L271.178 80.9964L270.859 80.0834M180.562 62.9343L180.021 63.5557L179.355 64.3298L178.714 65.1238L178.196 65.7696L177.578 66.5857L177.085 67.2514L176.492 68.0886L176.025 68.7729L175.457 69.6306L175.018 70.3319L174.476 71.209L173.96 72.104L173.55 72.8217L173.062 73.7346L172.681 74.4658L172.22 75.3957L171.87 76.1388L171.438 77.0844L171.119 77.8377L170.716 78.7984L170.342 79.774L170.055 80.5344L169.711 81.5229L169.457 82.2895L169.143 83.2899L168.922 84.0609L168.638 85.0716L168.385 86.0951L168.197 86.8653L167.975 87.897L167.82 88.6675L167.63 89.7063L167.508 90.4752L167.348 91.5199L167.219 92.5744L167.132 93.3342L167.034 94.3924M180.562 62.9343L179.899 63.7058L179.261 64.4966L178.648 65.3068L178.06 66.1359L177.499 66.9833L176.964 67.849L176.456 68.7321L175.976 69.6323L175.523 70.5491L175.098 71.4819L174.702 72.4305L174.335 73.3942L173.997 74.3722L173.689 75.3644L173.41 76.3699L173.162 77.3881L172.944 78.4187L172.756 79.4609L172.6 80.5141L172.475 81.5775L172.381 82.6508L172.318 83.7332L172.287 84.8241L172.288 85.9227L172.321 87.0282L172.386 88.14L172.483 89.2578L172.612 90.3802L172.773 91.5069L172.967 92.6372L173.192 93.7701L173.45 94.905L173.739 96.0413L174.061 97.1781L174.414 98.3146L174.799 99.45L175.216 100.584L175.663 101.715L176.142 102.842L176.652 103.966L177.192 105.085L177.763 106.198L178.363 107.304L178.993 108.404L179.652 109.495L180.341 110.578L181.057 111.651L181.802 112.713L182.574 113.765L183.374 114.805L184.2 115.832L185.052 116.847L185.929 117.847L186.832 118.832L187.758 119.802L188.709 120.756L189.682 121.693L190.678 122.612L191.696 123.513L192.734 124.396L193.794 125.259L194.872 126.102L195.97 126.924L197.085 127.725L198.218 128.504L199.368 129.261L200.533 129.995L201.713 130.705L202.907 131.391L204.114 132.053L205.334 132.69L206.565 133.302L207.807 133.888L209.059 134.448L210.319 134.981L211.587 135.487L212.863 135.966L214.145 136.418L215.432 136.841L216.723 137.237L218.018 137.604L219.315 137.943L220.614 138.253L221.913 138.534L223.213 138.785L224.511 139.008L225.808 139.201L227.101 139.365L228.391 139.5L229.676 139.604L230.956 139.68L232.229 139.726L233.495 139.742L234.753 139.729L236.001 139.687L237.24 139.616L238.469 139.515L239.686 139.386L240.891 139.228L242.083 139.041L243.261 138.826L244.425 138.582L245.573 138.311L246.706 138.012L247.822 137.686L248.92 137.333L250.001 136.953L251.063 136.546L252.105 136.114L253.128 135.656L254.13 135.172L255.111 134.664L256.071 134.131L257.008 133.575L257.922 132.994L258.814 132.391L259.681 131.765L260.525 131.117L261.344 130.447L262.137 129.756L262.906 129.045L263.649 128.313L264.365 127.562L265.055 126.792L265.718 126.003L266.353 125.196L266.962 124.372L267.543 123.532L268.095 122.675L268.62 121.802L269.116 120.915L269.584 120.013L270.022 119.097L270.432 118.168L270.813 117.227L271.165 116.273M167.034 94.3924L166.98 95.1462L166.914 96.2064L166.878 97.2744L166.857 98.0134L166.852 99.0814L166.864 99.8101L166.889 100.877L166.944 101.949L166.988 102.657L167.073 103.725L167.263 105.482L167.408 106.548L167.513 107.215L167.686 108.275L167.889 109.336L168.021 109.974L168.251 111.025L168.511 112.077L168.669 112.682L168.954 113.723L169.268 114.763M167.034 94.3924L166.967 95.459L166.931 96.5339L166.926 97.6158L166.951 98.7044L167.008 99.7991L167.096 100.899L167.216 102.003L167.367 103.112L167.549 104.223L167.763 105.337L168.008 106.453L168.284 107.569L168.591 108.686L168.929 109.802L169.298 110.917L169.698 112.029L170.128 113.139L170.589 114.246L171.079 115.348L171.6 116.445L172.15 117.536L172.729 118.62L173.337 119.697L173.974 120.766L174.639 121.826L175.332 122.877L176.052 123.917L176.799 124.946L177.573 125.964L178.372 126.968L179.197 127.96L180.047 128.937L180.922 129.9L181.82 130.847L182.741 131.779L183.685 132.693L184.651 133.591L185.638 134.47L186.646 135.331L187.673 136.172L188.72 136.993L189.786 137.794L190.869 138.574L191.969 139.332L193.086 140.069L194.218 140.782L195.365 141.473L196.525 142.139L197.699 142.782L198.885 143.4L200.082 143.993L201.29 144.561L202.507 145.103L203.734 145.619L204.968 146.108L206.209 146.57L207.457 147.005L208.71 147.413L209.968 147.794L211.229 148.146L212.493 148.471L213.758 148.767L215.025 149.035L216.292 149.274L217.557 149.484L218.822 149.666L220.083 149.818L221.342 149.942L222.595 150.037L223.844 150.103L225.087 150.14L226.323 150.148L227.551 150.127L228.772 150.077L229.982 149.999L231.183 149.893L232.372 149.758L233.551 149.594L234.716 149.403L235.869 149.183L237.007 148.937L238.132 148.663L239.24 148.361L240.333 148.033L241.409 147.679L242.468 147.298L243.509 146.892L244.532 146.46L245.535 146.002L246.518 145.52L247.481 145.014L248.423 144.484L249.344 143.931L250.243 143.354M169.268 114.763L169.45 115.332L169.789 116.358L170.155 117.382L170.359 117.913L170.748 118.921L171.165 119.926L171.609 120.926L171.825 121.403L172.289 122.385L172.78 123.362L173.52 124.752L174.054 125.701L174.614 126.643L175.198 127.577L175.423 127.936L176.022 128.848L176.645 129.75L177.29 130.641L177.512 130.938L178.17 131.806L178.85 132.662L179.551 133.507L180.273 134.339L181.016 135.16L181.203 135.364L181.953 136.157L182.722 136.936L183.51 137.701L184.316 138.452L185.14 139.187L185.981 139.906L186.839 140.609L186.949 140.697L187.807 141.371L188.68 142.028L189.567 142.667L190.469 143.289L191.384 143.893L192.311 144.478L193.251 145.044L194.202 145.59L195.164 146.116L196.136 146.622L197.118 147.108L198.108 147.573L199.106 148.017L200.112 148.439L200.243 148.493L201.274 148.901L202.311 149.286L203.354 149.649L204.401 149.989L205.452 150.305L206.507 150.599L207.564 150.869L207.835 150.934L208.912 151.185L209.99 151.411L211.068 151.613L212.147 151.791L213.224 151.944L213.592 151.994L214.685 152.125L215.775 152.23L216.862 152.311L217.286 152.334L218.386 152.391L219.48 152.422L220.569 152.427L221.045 152.419L222.143 152.399L223.235 152.353L224.318 152.282L224.84 152.24L225.93 152.141L227.009 152.018L228.078 151.868L228.642 151.788L229.715 151.611L230.775 151.408L231.362 151.291M169.268 114.763L169.611 115.801L169.982 116.837L170.381 117.871L170.809 118.901L171.264 119.926L171.746 120.947L172.257 121.962L172.794 122.97L173.357 123.972L173.948 124.966L174.564 125.951L175.206 126.928L175.874 127.894L176.566 128.85L177.283 129.795L178.024 130.728L178.788 131.649L179.576 132.556L180.386 133.45L181.217 134.329L182.071 135.194L182.945 136.042L183.84 136.875L184.754 137.69L185.688 138.488L186.64 139.269L187.61 140.03L188.596 140.772L189.6 141.495L190.619 142.199L191.653 142.881L192.702 143.542L193.764 144.182L194.839 144.799L195.927 145.394L197.026 145.967L198.135 146.516L199.255 147.042L200.383 147.543L201.52 148.02L202.664 148.473L203.815 148.901L204.971 149.304L206.133 149.681L207.299 150.033L208.469 150.359L209.641 150.658L210.815 150.932L211.991 151.179L213.166 151.399L214.341 151.593L215.515 151.76L216.686 151.9L217.854 152.014L219.019 152.101L220.179 152.16L221.334 152.193L222.482 152.199L223.624 152.178L224.758 152.131L225.884 152.057L227.001 151.956L228.107 151.829L229.204 151.676L230.289 151.496L231.362 151.291M231.362 151.291L232.422 151.06L233.469 150.804L234.076 150.649L235.12 150.365L236.151 150.055L236.773 149.861L237.798 149.523L238.807 149.16L239.441 148.928L240.443 148.536L241.078 148.269L242.07 147.849L243.044 147.405L243.685 147.1L244.648 146.628L245.591 146.132L246.235 145.789L247.165 145.266L247.801 144.89L248.716 144.34L249.61 143.766L250.243 143.354M250.243 143.354L251.119 142.754L251.741 142.31L252.599 141.685L253.434 141.038L254.047 140.559L254.862 139.888L255.461 139.38L256.254 138.685L256.836 138.147L257.607 137.429L258.352 136.691L258.919 136.123L259.64 135.364L260.187 134.77L260.883 133.989L261.409 133.37L262.079 132.57L262.722 131.752L263.226 131.108L263.843 130.271L264.323 129.605L264.911 128.751L265.366 128.065L265.926 127.195L266.355 126.488L266.886 125.604L267.389 124.704L267.79 123.981L268.263 123.068L268.635 122.329L269.078 121.404L269.422 120.651L269.834 119.715L270.148 118.949L270.53 118.004L270.883 117.046L271.165 116.273M271.165 116.273L271.487 115.308L271.737 114.526L272.03 113.554L272.248 112.765L272.509 111.788L272.741 110.802L272.926 110.013L273.127 109.024L273.28 108.231L273.451 107.24L273.57 106.445L273.712 105.454L273.825 104.455L273.911 103.668L273.995 102.671L274.047 101.887L274.102 100.892L274.129 99.8916L274.148 99.1207L274.147 98.1248L274.134 97.3605L274.105 96.3701L274.049 95.3761L274.004 94.6303L273.921 93.6438L273.845 92.9085L273.736 91.9305L273.601 90.9506L273.495 90.239L273.336 89.2692L273.151 88.2989L273.016 87.6139L272.808 86.6552L272.574 85.6968L272.413 85.041L272.157 84.096L271.878 83.1522L271.692 82.5282L271.392 81.5994L271.069 80.673L270.859 80.0834M194.121 51.9971L193.267 52.5017L192.431 53.0283L191.614 53.5766L190.816 54.1461L190.037 54.7369L189.279 55.3489L188.542 55.9812L187.826 56.634L187.132 57.307L186.459 57.9996L185.81 58.7116L185.184 59.4428L184.581 60.1925L184.003 60.9605L183.449 61.7465L182.92 62.5498L182.416 63.3705L181.938 64.2077L181.487 65.061L181.061 65.9302L180.663 66.8146L180.292 67.7138L179.949 68.6273L179.633 69.5544L179.346 70.495L179.087 71.4481L178.858 72.4134L178.656 73.3903L178.485 74.3782L178.342 75.3765L178.23 76.3847L178.147 77.4021L178.094 78.4281L178.071 79.4621L178.079 80.5034L178.117 81.5513L178.185 82.6051L178.284 83.6645L178.413 84.7286L178.573 85.7964L178.764 86.8678L178.985 87.9416L179.236 89.0174L179.517 90.0945L179.829 91.1719L180.171 92.249L180.544 93.3253L180.946 94.3999L181.377 95.472L181.839 96.5412L182.329 97.6063L182.848 98.667L183.396 99.7222L183.972 100.771L184.577 101.814L185.209 102.848L185.868 103.875L186.554 104.893L187.267 105.901L188.006 106.898L188.77 107.885L189.56 108.859L190.374 109.822L191.212 110.77L192.074 111.706L192.959 112.626L193.866 113.532L194.795 114.421L195.745 115.294L196.715 116.15L197.706 116.989L198.715 117.809L199.743 118.61L200.789 119.391L201.852 120.153L202.931 120.894L204.026 121.614L205.135 122.312L206.259 122.989L207.396 123.642L208.545 124.273L209.706 124.88L210.878 125.464L212.059 126.023L213.25 126.557L214.449 127.067L215.656 127.551L216.87 128.009L218.089 128.441L219.313 128.848L220.541 129.227L221.773 129.58L223.006 129.906L224.242 130.205L225.477 130.477L226.713 130.721L227.948 130.937L229.18 131.126L230.41 131.287L231.637 131.42L232.859 131.526L234.075 131.603L235.286 131.653L236.489 131.675L237.685 131.668L238.873 131.635L240.051 131.573L241.219 131.484L242.376 131.368L243.522 131.225L244.655 131.054L245.775 130.856L246.882 130.632L247.974 130.381L249.051 130.104L250.112 129.801L251.157 129.473L252.184 129.119L253.194 128.74L254.186 128.336L255.159 127.908L256.112 127.456L257.045 126.98L257.958 126.481L258.85 125.959L259.719 125.415L260.567 124.849L261.393 124.261L262.195 123.651L262.974 123.022L263.729 122.371L264.46 121.702L265.167 121.013L265.849 120.305L266.505 119.58L267.136 118.836L267.741 118.075L268.32 117.298L268.872 116.504L269.398 115.695L269.897 114.871L270.369 114.033L270.814 113.181L271.231 112.315L271.621 111.436L271.983 110.546L272.318 109.644L272.624 108.731L272.903 107.807L273.154 106.873L273.376 105.931L273.571 104.979L273.737 104.02L273.875 103.053L273.986 102.078L274.068 101.098L274.122 100.112L274.149 99.1207M171.438 77.0844L171.035 78.046L170.661 79.0224L170.316 80.0137L170.001 81.0189L169.716 82.0379L169.461 83.0693L169.237 84.1134L169.044 85.1688L168.882 86.2355L168.751 87.3124L168.652 88.3994L168.585 89.4953L168.549 90.5994L168.545 91.7115L168.574 92.8304L168.635 93.9557L168.728 95.0868L168.854 96.2226L169.012 97.3628L169.202 98.5062L169.425 99.6523L169.68 100.8L169.967 101.95L170.287 103.099L170.638 104.248L171.022 105.397L171.437 106.543L171.884 107.686L172.362 108.826L172.872 109.962L173.412 111.092L173.983 112.217L174.584 113.335L175.215 114.446L175.875 115.548L176.565 116.642L177.284 117.726L178.03 118.799L178.805 119.861L179.607 120.911L180.435 121.948L181.29 122.971L182.171 123.981L183.078 124.975L184.008 125.954L184.963 126.916L185.941 127.861L186.942 128.788L187.964 129.697L189.008 130.586L190.073 131.456L191.157 132.306L192.261 133.134L193.383 133.941L194.522 134.725L195.678 135.487L196.85 136.226L198.037 136.94L199.239 137.631L200.454 138.296L201.681 138.937L202.921 139.551L204.171 140.14L205.43 140.702L206.699 141.237L207.977 141.745L209.261 142.225L210.552 142.677L211.848 143.101L213.148 143.496L214.452 143.863L215.759 144.201L217.068 144.509L218.377 144.789L219.687 145.039L220.995 145.259L222.301 145.449L223.605 145.61L224.905 145.741L226.2 145.842L227.49 145.914L228.774 145.955L230.05 145.967L231.318 145.949L232.577 145.901L233.827 145.823L235.066 145.717L236.293 145.581L237.509 145.416L238.711 145.222L239.9 144.999L241.074 144.748L242.233 144.469L243.375 144.162L244.502 143.827L245.61 143.465L246.701 143.076L247.773 142.66L248.825 142.218L249.858 141.75L250.87 141.256L251.861 140.738L252.83 140.195L253.777 139.627L254.701 139.037L255.601 138.422L256.478 137.785L257.331 137.125L258.158 136.444L258.961 135.741L259.738 135.018L260.489 134.274L261.214 133.511L261.912 132.728L262.583 131.927L263.226 131.108M249.575 59.6156L249.18 59.2793L248.778 58.9497L248.369 58.6268L247.953 58.3113L247.531 58.0025L247.104 57.7013L246.67 57.4077L246.231 57.1215L245.787 56.8432L245.337 56.573L244.883 56.3111L244.424 56.0572L243.961 55.8119L243.494 55.5751L243.023 55.3472L242.549 55.128L242.071 54.9177L241.591 54.7167L241.108 54.5247L240.622 54.3422L240.134 54.1691L239.645 54.0054L239.153 53.8513L238.661 53.7069L238.167 53.5724L237.673 53.448L237.178 53.3333L236.683 53.2288L236.188 53.1342L235.694 53.05L235.2 52.9757L234.707 52.9118L234.215 52.8581L233.724 52.815L233.236 52.7821L232.749 52.7597L232.265 52.7478L231.783 52.7462L231.305 52.7551L230.829 52.7746L230.357 52.8045L229.889 52.8447L229.424 52.8956L228.964 52.9568L228.508 53.0285L228.057 53.1105L227.612 53.2027L227.171 53.3053L226.736 53.4183L226.307 53.5414L225.884 53.6747L225.468 53.8181L225.058 53.9716L224.655 54.1349L224.258 54.308L223.87 54.4909L223.489 54.6836L223.116 54.8857L222.75 55.0976L222.393 55.3187L222.045 55.5488L221.705 55.7884L221.374 56.0368L221.053 56.2942L220.74 56.5602L220.437 56.8349L220.144 57.1179L219.861 57.4093L219.588 57.7089L219.326 58.0162L219.073 58.3314L218.832 58.6542L218.601 58.9845L218.381 59.322L218.172 59.6666L217.975 60.018L217.789 60.3761L217.614 60.7405L217.451 61.1114L217.3 61.4879L217.161 61.8704L217.033 62.2586L216.918 62.6521L216.815 63.0508L216.724 63.4541L216.646 63.8624L216.58 64.2748L216.526 64.6913L216.485 65.1119L216.456 65.5362L216.44 65.9637L216.437 66.3944L216.446 66.828L216.468 67.2642L216.502 67.7026L216.549 68.1433L216.609 68.5857L216.682 69.0296L216.767 69.4746L216.864 69.9208L216.974 70.3675L217.097 70.8146L217.232 71.262L217.379 71.7093L217.538 72.156L217.71 72.602L217.894 73.047L218.089 73.4907L218.297 73.9331L218.516 74.3733L218.747 74.8115L218.989 75.2475L219.243 75.6804L219.508 76.1106L219.784 76.5377L220.07 76.961L220.368 77.3805L220.676 77.7961L220.994 78.2074L221.322 78.6141L221.661 79.0158L222.008 79.4124L222.366 79.8038L222.733 80.1895L223.109 80.5693L223.493 80.9429L223.886 81.3103L224.288 81.6709L224.697 82.0248L225.115 82.3715L225.539 82.711L225.972 83.0431L226.411 83.3671L226.856 83.6834L227.309 83.9917L227.767 84.2915L228.231 84.5826L228.701 84.8653L229.176 85.1389L229.656 85.4033L230.14 85.6586L230.629 85.9046L231.122 86.1409L231.618 86.3675L232.118 86.5842L232.621 86.7908L233.126 86.9874L233.634 87.1738L234.144 87.3496L234.656 87.5152L235.169 87.67L235.683 87.8143L236.198 87.9479L236.714 88.0703L237.229 88.182L237.744 88.2827L238.259 88.3724L238.773 88.451L239.285 88.5186L239.796 88.575L240.305 88.62L240.812 88.654L241.316 88.6766L241.818 88.6882L242.316 88.6885L242.811 88.6775L243.302 88.6554L243.789 88.6222L244.271 88.5779L244.749 88.5225L245.222 88.4558L245.689 88.3784L246.151 88.29L246.607 88.1907L247.057 88.0806L247.501 87.96L247.938 87.8287L248.368 87.6869L248.791 87.5346L249.206 87.372L249.614 87.1994L250.013 87.0164L250.405 86.8239L250.788 86.6214L251.162 86.4092L251.528 86.1877L251.884 85.9566L252.232 85.7164L252.569 85.4671L252.898 85.209L253.216 84.9423L253.524 84.6669L253.822 84.3833L254.11 84.0914L254.387 83.7916L254.653 83.4842L254.909 83.1691L255.154 82.8464L255.387 82.5169L255.61 82.1803L255.821 81.8371L256.02 81.4873L256.208 81.131L256.384 80.7689L256.549 80.401L256.702 80.0274L256.843 79.6483L256.972 79.2642L257.089 78.8751L257.194 78.4814L257.287 78.0834L257.368 77.6811L257.436 77.2748L257.493 76.8649L257.537 76.4514L257.569 76.0348L257.589 75.6153L257.596 75.1931L257.592 74.7686L257.575 74.3418L257.546 73.913L257.505 73.4825L257.453 73.0507L257.388 72.6177L257.311 72.1836L257.222 71.7491L257.121 71.314L257.008 70.8788L256.884 70.4438L256.749 70.009L256.602 69.5747L256.443 69.1415L256.273 68.7092L256.092 68.2783L255.9 67.849L255.697 67.4215L255.483 66.9961L255.259 66.5732L255.024 66.1525L254.778 65.7349L254.522 65.3199L254.257 64.9087L253.981 64.5006L253.695 64.0964L253.4 63.6961L253.096 63.2999L252.782 62.9083L252.459 62.521L252.128 62.1387L251.787 61.7615L251.439 61.3895L251.082 61.023L250.716 60.6622L250.343 60.3071L249.963 59.9582L249.575 59.6156ZM244.704 62.6094L244.928 62.7857L245.157 62.9561L245.381 63.1285L245.588 63.3109L245.772 63.5094L245.941 63.7192L246.107 63.9332L246.281 64.1444L246.472 64.3477L246.67 64.5468L246.862 64.7468L247.034 64.9533L247.178 65.1702L247.304 65.3947L247.425 65.6228L247.557 65.8498L247.707 66.0731L247.866 66.2935L248.019 66.5139L248.15 66.7367L248.249 66.9639L248.327 67.195L248.399 67.4284L248.483 67.6629L248.587 67.8977L248.702 68.1315L248.809 68.3642L248.894 68.5951L248.943 68.8241L248.97 69.0529L248.991 69.2829L249.022 69.5163L249.077 69.7535L249.142 69.9922L249.2 70.2285L249.234 70.4589L249.233 70.6811L249.207 70.8987L249.175 71.1168L249.154 71.3397L249.156 71.5708L249.168 71.8053L249.175 72.0364L249.157 72.2577L249.104 72.4646L249.027 72.6628L248.943 72.8601L248.869 73.0642L248.818 73.2803L248.778 73.5018L248.731 73.7189L248.663 73.9224L248.56 74.106L248.433 74.277L248.301 74.4458L248.177 74.6232L248.074 74.8159L247.982 75.0158L247.885 75.2108L247.767 75.3887L247.618 75.5417L247.447 75.6784L247.27 75.812L247.101 75.9557L246.95 76.1176L246.809 76.2879L246.664 76.453L246.501 76.5983L246.311 76.7145L246.102 76.8115L245.888 76.9045L245.68 77.0082L245.487 77.1328L245.302 77.2673L245.114 77.3959L244.912 77.5025L244.689 77.5772L244.45 77.6304L244.206 77.6786L243.967 77.7384L243.739 77.8204L243.517 77.9134L243.294 78.0004L243.06 78.0643L242.812 78.094L242.553 78.1008L242.289 78.1022L242.027 78.1152L241.773 78.1515L241.523 78.1993L241.273 78.241L241.017 78.2595L240.754 78.2429L240.483 78.2029L240.21 78.1568L239.937 78.1225L239.666 78.1111L239.398 78.1116L239.13 78.1065L238.862 78.0785L238.594 78.0161L238.324 77.9305L238.052 77.8387L237.777 77.7578L237.501 77.6994L237.224 77.6526L236.95 77.6007L236.68 77.5272L236.418 77.4213L236.158 77.2931L235.899 77.1589L235.634 77.0349L235.363 76.9317L235.089 76.8392L234.819 76.7426L234.558 76.6266L234.312 76.4811L234.074 76.3153L233.837 76.1441L233.593 75.9815L233.338 75.8374L233.077 75.7033L232.822 75.5659L232.581 75.412L232.36 75.2327L232.153 75.0361L231.948 74.8342L231.735 74.6397L231.505 74.4606L231.269 74.29L231.038 74.1172L230.826 73.9315L230.64 73.7258L230.472 73.5059L230.308 73.2816L230.133 73.0626L229.938 72.8557L229.735 72.6559L229.538 72.455L229.364 72.2449L229.22 72.0206L229.098 71.7861L228.98 71.5484L228.85 71.3139L228.699 71.0874L228.537 70.8661L228.382 70.645L228.251 70.4192L228.155 70.1854L228.083 69.9456L228.016 69.7035L227.937 69.4626L227.834 69.2258L227.72 68.992L227.612 68.7597L227.53 68.5273L227.486 68.293L227.466 68.0573L227.454 67.8203L227.428 67.5826L227.377 67.3446L227.314 67.1078L227.258 66.8735L227.227 66.6433L227.236 66.4179L227.27 66.1953L227.312 65.9727L227.34 65.7473L227.343 65.5175L227.333 65.2871L227.33 65.0601L227.353 64.8412L227.413 64.6334L227.5 64.4322L227.593 64.2324L227.674 64.028L227.731 63.8156L227.775 63.6003L227.824 63.3893L227.898 63.1904L228.008 63.0077L228.143 62.8357L228.284 62.6661L228.415 62.4905L228.522 62.3032L228.617 62.1114L228.718 61.9248L228.84 61.7531L228.995 61.6026L229.173 61.4661L229.356 61.3329L229.531 61.1923L229.684 61.0374L229.827 60.8764L229.974 60.7209L230.139 60.583L230.333 60.4702L230.546 60.3741L230.766 60.282L230.977 60.1818L231.171 60.0649L231.355 59.9407L231.542 59.8221L231.744 59.723L231.969 59.6518L232.21 59.5993L232.456 59.5515L232.696 59.4949L232.923 59.4205L233.142 59.3373L233.362 59.2604L233.593 59.2035L233.84 59.1763L234.1 59.169L234.363 59.1672L234.623 59.156L234.873 59.1263L235.118 59.0877L235.363 59.0546L235.613 59.0421L235.874 59.0597L236.142 59.0976L236.413 59.1412L236.683 59.1759L236.947 59.1919L237.209 59.1989L237.469 59.2111L237.73 59.2432L237.994 59.3047L238.261 59.386L238.529 59.4732L238.799 59.5522L239.068 59.6134L239.336 59.6655L239.602 59.7226L239.864 59.7979L240.122 59.9007L240.377 60.0224L240.633 60.1498L240.892 60.2699L241.156 60.3738L241.421 60.4693L241.682 60.5689L241.935 60.6846L242.177 60.8251L242.412 60.9824L242.646 61.1452L242.885 61.3019L243.134 61.4446L243.385 61.58L243.633 61.7184L243.867 61.8705L244.084 62.0431L244.29 62.2301L244.493 62.422L244.704 62.6094ZM253.157 57.9105L252.592 57.4305L252.017 56.9599L251.432 56.4993L250.838 56.0485L250.236 55.6078L249.624 55.1778L249.005 54.7583L248.378 54.35L247.743 53.9527L247.101 53.5668L246.453 53.1925L245.797 52.8299L245.136 52.4793L244.469 52.1409L243.797 51.8151L243.119 51.5015L242.437 51.2008L241.751 50.9131L241.06 50.6381L240.367 50.3766L239.67 50.1284L238.97 49.8939L238.268 49.6729L237.564 49.4655L236.858 49.2721L236.151 49.0928L235.444 48.9277L234.735 48.7768L234.027 48.64L233.319 48.5178L232.612 48.41L231.906 48.3169L231.201 48.2386L230.498 48.1748L229.798 48.1257L229.1 48.0917L228.405 48.0723L227.714 48.0677L227.027 48.0782L226.344 48.1036L225.665 48.144L224.992 48.1993L224.324 48.2694L223.662 48.3546L223.006 48.4546L222.356 48.5692L221.714 48.6989L221.079 48.8432L220.451 49.0024L219.832 49.1762L219.221 49.3646L218.619 49.5676L218.026 49.7848L217.443 50.0163L216.869 50.2622L216.306 50.5221L215.753 50.7959L215.211 51.0836L214.681 51.3853L214.162 51.7002L213.655 52.0288L213.16 52.3704L212.678 52.7253L212.209 53.0929L211.753 53.4734L211.31 53.8661L210.881 54.2715L210.466 54.6889L210.066 55.118L209.68 55.5589L209.309 56.0113L208.953 56.4746L208.613 56.9492L208.288 57.4342L207.979 57.9297L207.686 58.4353L207.409 58.9507L207.149 59.4757L206.906 60.0098L206.679 60.5531L206.47 61.1048L206.278 61.6649L206.103 62.2331L205.946 62.809L205.806 63.392L205.684 63.9821L205.58 64.579L205.494 65.1818L205.427 65.7909L205.377 66.4054L205.346 67.0249L205.333 67.6494L205.338 68.2783L205.362 68.9113L205.404 69.5478L205.465 70.1876L205.544 70.8302L205.642 71.4753L205.758 72.1225L205.892 72.7712L206.045 73.4214L206.216 74.0722L206.405 74.7234L206.612 75.3745L206.838 76.0253L207.081 76.6752L207.342 77.3237L207.62 77.9707L207.916 78.6155L208.229 79.2579L208.56 79.8971L208.907 80.533L209.271 81.1653L209.652 81.7931L210.049 82.4165L210.462 83.0347L210.891 83.6473L211.335 84.2543L211.794 84.8551L212.269 85.4491L212.758 86.0359L213.262 86.6155L213.779 87.1871L214.311 87.7504L214.856 88.3053L215.414 88.8511L215.984 89.3877L216.567 89.9146L217.162 90.4313L217.769 90.9376L218.386 91.4331L219.014 91.9177L219.653 92.3908L220.302 92.8521L220.96 93.3015L221.628 93.7388L222.303 94.1631L222.987 94.5746L223.679 94.9731L224.378 95.3581L225.084 95.7292L225.796 96.0865L226.515 96.4298L227.238 96.7586L227.966 97.0728L228.699 97.3722L229.436 97.6565L230.176 97.9257L230.92 98.1797L231.665 98.4181L232.413 98.6409L233.162 98.8478L233.912 99.039L234.663 99.2139L235.414 99.3728L236.164 99.5155L236.913 99.642L237.661 99.7521L238.407 99.846L239.15 99.9231L239.89 99.9841L240.627 100.028L241.361 100.056L242.089 100.067L242.813 100.062L243.532 100.041L244.245 100.003L244.952 99.9483L245.652 99.8777L246.345 99.7907L247.03 99.6877L247.708 99.5685L248.377 99.4335L249.038 99.2826L249.689 99.1161L250.331 98.9339L250.962 98.7364L251.584 98.5236L252.194 98.2957L252.794 98.0527L253.382 97.7951L253.958 97.5229L254.523 97.2365L255.074 96.936L255.613 96.6213L256.139 96.2932L256.652 95.9514L257.15 95.5965L257.635 95.2286L258.106 94.8482L258.562 94.4552L259.003 94.0498L259.43 93.6329L259.841 93.2042L260.237 92.7642L260.617 92.3132L260.981 91.8512L261.329 91.3792L261.662 90.8969L261.977 90.4048L262.277 89.9034L262.56 89.3928L262.825 88.8733L263.074 88.3451L263.306 87.8091L263.521 87.2652L263.719 86.7137L263.9 86.1554L264.063 85.59L264.209 85.0184L264.337 84.4404L264.448 83.857L264.541 83.268L264.617 82.6743L264.675 82.0758L264.716 81.4732L264.739 80.8664L264.745 80.2563L264.734 79.6427L264.705 79.0263L264.658 78.4077L264.595 77.7868L264.514 77.1643L264.416 76.5402L264.301 75.9152L264.169 75.2895L264.02 74.6636L263.855 74.0375L263.673 73.412L263.474 72.7872L263.26 72.1636L263.029 71.5413L262.782 70.9209L262.519 70.3025L262.24 69.6868L261.946 69.0739L261.637 68.464L261.313 67.8579L260.974 67.2555L260.62 66.6572L260.251 66.0635L259.869 65.4746L259.472 64.8909L259.062 64.3127L258.638 63.7402L258.2 63.1739L257.75 62.6138L257.287 62.0604L256.812 61.5142L256.324 60.9753L255.824 60.4439L255.313 59.9203L254.79 59.4051L254.256 58.8982L253.712 58.3999L253.157 57.9105ZM255.351 57.85L254.644 57.2492L253.924 56.6605L253.192 56.0842L252.449 55.5201L251.695 54.9691L250.93 54.4309L250.155 53.9063L249.37 53.3953L248.576 52.8984L247.773 52.4154L246.961 51.9473L246.142 51.4935L245.314 51.0549L244.48 50.6315L243.639 50.2234L242.791 49.8309L241.937 49.4543L241.078 49.094L240.215 48.7498L239.346 48.4222L238.474 48.1109L237.598 47.8168L236.718 47.5393L235.837 47.2792L234.953 47.0365L234.067 46.8113L233.18 46.6035L232.293 46.4138L231.405 46.2416L230.517 46.0874L229.63 45.9513L228.744 45.8335L227.86 45.734L226.978 45.6529L226.098 45.5901L225.222 45.5458L224.349 45.5202L223.48 45.5131L222.616 45.5246L221.757 45.5547L220.903 45.6036L220.055 45.6712L219.214 45.7575L218.38 45.8623L217.553 45.9861L216.734 46.1283L215.924 46.2891L215.122 46.4683L214.33 46.6663L213.547 46.8826L212.775 47.1173L212.014 47.3703L211.263 47.6414L210.524 47.9305L209.798 48.2376L209.083 48.5626L208.382 48.9051L207.695 49.2652L207.021 49.6427L206.361 50.0373L205.716 50.449L205.086 50.8774L204.472 51.3225L203.873 51.784L203.291 52.2617L202.725 52.7552L202.177 53.2647L201.646 53.7894L201.133 54.3295L200.638 54.8842L200.161 55.4537L199.704 56.0373L199.265 56.6352L198.846 57.2467L198.447 57.8715L198.068 58.5095L197.71 59.1601L197.372 59.8228L197.055 60.4978L196.759 61.184L196.485 61.8816L196.232 62.59L196.002 63.3089L195.793 64.0378L195.607 64.776L195.443 65.5235L195.302 66.2795L195.183 67.0438L195.088 67.8159L195.016 68.5953L194.967 69.3815L194.941 70.1741L194.938 70.9727L194.959 71.7765L195.004 72.5853L195.072 73.3983L195.163 74.2153L195.278 75.0358L195.416 75.8588L195.578 76.6843L195.764 77.5117L195.972 78.3401L196.204 79.1695L196.459 79.9989L196.738 80.8278L197.039 81.6561L197.363 82.4827L197.709 83.3073L198.079 84.1294L198.47 84.9485L198.883 85.764L199.318 86.5751L199.775 87.3816L200.253 88.1827L200.752 88.9781L201.272 89.7673L201.812 90.5494L202.372 91.324L202.952 92.0908L203.551 92.8489L204.17 93.5982L204.807 94.338L205.462 95.0676L206.135 95.7867L206.825 96.4948L207.532 97.1916L208.255 97.8762L208.995 98.5484L209.75 99.2075L210.519 99.8535L211.304 100.485L212.102 101.103L212.913 101.706L213.738 102.294L214.575 102.867L215.423 103.423L216.283 103.963L217.153 104.487L218.033 104.994L218.923 105.483L219.821 105.954L220.728 106.408L221.642 106.843L222.563 107.26L223.49 107.658L224.423 108.037L225.361 108.396L226.304 108.736L227.25 109.056L228.199 109.356L229.151 109.636L230.105 109.895L231.06 110.134L232.015 110.352L232.97 110.55L233.925 110.726L234.878 110.882L235.829 111.016L236.778 111.13L237.723 111.222L238.664 111.293L239.601 111.343L240.533 111.372L241.459 111.379L242.378 111.366L243.291 111.331L244.196 111.276L245.093 111.199L245.982 111.101L246.861 110.983L247.73 110.844L248.589 110.685L249.437 110.505L250.273 110.305L251.098 110.085L251.911 109.845L252.71 109.586L253.496 109.307L254.268 109.009L255.025 108.692L255.768 108.357L256.496 108.003L257.208 107.631L257.904 107.241L258.583 106.834L259.246 106.409L259.891 105.967L260.519 105.509L261.129 105.034L261.72 104.544L262.293 104.038L262.848 103.517L263.382 102.981L263.898 102.43L264.394 101.865L264.87 101.287L265.326 100.695L265.761 100.09L266.176 99.4731L266.57 98.8437L266.943 98.2029L267.295 97.5508L267.625 96.8876L267.934 96.214L268.222 95.5307L268.488 94.8377L268.733 94.1357L268.955 93.4248L269.156 92.706L269.334 91.9793L269.491 91.2454L269.625 90.5044L269.738 89.7572L269.829 89.0041L269.897 88.2453L269.944 87.4817L269.968 86.7132L269.971 85.9409L269.952 85.1648L269.911 84.3854L269.848 83.6033L269.764 82.8189L269.658 82.0326L269.53 81.2448L269.382 80.4563L269.212 79.6671L269.021 78.8779L268.81 78.0889L268.578 77.3009L268.325 76.514L268.052 75.7289L267.759 74.9459L267.446 74.1653L267.113 73.388L266.761 72.6139L266.389 71.8437L265.999 71.0775L265.59 70.3162L265.162 69.5599L264.716 68.8088L264.253 68.0639L263.771 67.3252L263.272 66.5931L262.756 65.868L262.224 65.1503L261.674 64.4404L261.109 63.7386L260.528 63.0456L259.932 62.3612L259.32 61.6862L258.693 61.021L258.052 60.3654L257.397 59.7203L256.728 59.0859L256.046 58.4623L255.351 57.85Z" stroke="url(#paint0_radial_2482_628)" stroke-width="1.27734" stroke-linecap="round" stroke-linejoin="round"/>
<path d="M374.633 79.0625C371.811 79.0625 369.523 76.775 369.523 73.9531C369.523 71.1313 371.811 68.8438 374.633 68.8438C377.455 68.8438 379.742 71.1313 379.742 73.9531C379.742 76.775 377.455 79.0625 374.633 79.0625Z" fill="url(#paint1_linear_2482_628)"/>
<path d="M423.172 102.906C422.231 102.906 421.469 102.144 421.469 101.203C421.469 100.263 422.231 99.5 423.172 99.5C424.112 99.5 424.875 100.263 424.875 101.203C424.875 102.144 424.112 102.906 423.172 102.906Z" fill="url(#paint2_linear_2482_628)"/>
<g opacity="0.35">
<circle cx="169.461" cy="69.1133" r="1.70312" fill="white"/>
<circle opacity="0.5" cx="211.188" cy="49.9531" r="0.851562" fill="white"/>
<circle opacity="0.5" cx="172.016" cy="119.355" r="1.70312" fill="white"/>
<circle opacity="0.3" cx="147.746" cy="168.32" r="0.851562" fill="white"/>
<circle cx="104.742" cy="139.793" r="0.851562" fill="white"/>
<circle opacity="0.2" cx="146.043" cy="89.5508" r="0.851562" fill="white"/>
<circle opacity="0.3" cx="225.238" cy="90.4023" r="0.851562" fill="white"/>
<circle opacity="0.2" cx="250.359" cy="120.207" r="0.851562" fill="white"/>
<circle opacity="0.21" cx="327.852" cy="120.207" r="0.851562" fill="white"/>
<circle cx="146.043" cy="28.2383" r="0.851562" fill="white"/>
<circle opacity="0.3" cx="73.6602" cy="56.7656" r="0.851562" fill="white"/>
<circle cx="308.266" cy="1.41406" r="0.851562" fill="white"/>
</g>
<path d="M1.70312 88.2734C0.762517 88.2734 0 87.5109 0 86.5703C0 85.6297 0.762517 84.8672 1.70312 84.8672C2.64373 84.8672 3.40625 85.6297 3.40625 86.5703C3.40625 87.5109 2.64373 88.2734 1.70312 88.2734Z" fill="url(#paint3_linear_2482_628)"/>
<path d="M65.5703 139.367C63.6891 139.367 62.1641 137.842 62.1641 135.961C62.1641 134.08 63.6891 132.555 65.5703 132.555C67.4515 132.555 68.9766 134.08 68.9766 135.961C68.9766 137.842 67.4515 139.367 65.5703 139.367Z" fill="url(#paint4_linear_2482_628)"/>
<defs>
<radialGradient id="paint0_radial_2482_628" cx="0" cy="0" r="1" gradientUnits="userSpaceOnUse" gradientTransform="translate(213.58 133.025) scale(230.315 198.033)">
<stop stop-color="#C450D5"/>
<stop offset="1" stop-color="#D43E76"/>
</radialGradient>
<linearGradient id="paint1_linear_2482_628" x1="374.633" y1="68.8438" x2="374.633" y2="79.0625" gradientUnits="userSpaceOnUse">
<stop stop-color="#88E5BE"/>
<stop offset="1" stop-color="#1A1A32"/>
</linearGradient>
<linearGradient id="paint2_linear_2482_628" x1="423.172" y1="99.5" x2="423.172" y2="102.906" gradientUnits="userSpaceOnUse">
<stop stop-color="#DD734F"/>
<stop offset="1" stop-color="#1A1A32"/>
</linearGradient>
<linearGradient id="paint3_linear_2482_628" x1="1.70312" y1="84.8672" x2="1.70312" y2="88.2734" gradientUnits="userSpaceOnUse">
<stop stop-color="#DD734F"/>
<stop offset="1" stop-color="#1A1A32"/>
</linearGradient>
<linearGradient id="paint4_linear_2482_628" x1="65.5703" y1="132.555" x2="65.5703" y2="139.367" gradientUnits="userSpaceOnUse">
<stop stop-color="#B9AEDF"/>
<stop offset="1" stop-color="#1A1A32"/>
</linearGradient>
</defs>
</svg>
