<svg width="48" height="48" viewBox="0 0 48 48" fill="none" xmlns="http://www.w3.org/2000/svg">
<circle cx="24" cy="24" r="23.5" fill="#252134" stroke="url(#paint0_angular_1211_4705)"/>
<path d="M27.0155 20.8103C27.015 20.8936 27.0119 20.977 27.0062 21.0601C27.0033 21.1012 26.999 21.1422 26.9946 21.1832C26.9799 21.3222 27.0126 21.0686 26.991 21.2061C26.964 21.3784 26.9201 21.5478 26.866 21.7135C26.8537 21.7513 26.84 21.7887 26.8263 21.826C26.8182 21.8481 26.767 21.9733 26.82 21.848C26.7893 21.9206 26.7547 21.9915 26.7188 22.0617C26.6416 22.2128 26.5501 22.3563 26.4506 22.4937C26.3726 22.6016 26.5203 22.4075 26.4373 22.5115C26.413 22.542 26.3876 22.5716 26.3622 22.6011C26.3115 22.6603 26.2576 22.7167 26.2029 22.7721C26.1481 22.8275 26.0904 22.88 26.0319 22.9314C26.0026 22.9571 25.9724 22.9818 25.9423 23.0065C25.8972 23.0423 25.9017 23.039 25.9559 22.9966C25.9351 23.0123 25.9141 23.0277 25.8929 23.0428C25.766 23.1347 25.6311 23.2152 25.4924 23.2881C25.4227 23.3248 25.351 23.3577 25.2788 23.3892C25.4032 23.3348 25.2791 23.387 25.2568 23.3955C25.2072 23.4144 25.1568 23.4312 25.1064 23.4476C24.9532 23.4976 24.7956 23.5333 24.6369 23.5602C24.4997 23.5835 24.7528 23.5473 24.614 23.5638C24.5731 23.5687 24.532 23.572 24.491 23.5754C24.3939 23.5833 24.2965 23.585 24.1991 23.5844C24.116 23.5839 24.0329 23.5787 23.9501 23.572C23.9091 23.5684 23.8682 23.5641 23.8274 23.559C23.9667 23.5755 23.8297 23.5576 23.8052 23.5534C23.6335 23.5243 23.4649 23.4784 23.3002 23.4224C23.2626 23.4097 23.2254 23.3955 23.1883 23.3814C23.0621 23.3333 23.2907 23.4274 23.1672 23.3734C23.095 23.3418 23.0246 23.3064 22.9549 23.2697C22.8048 23.1908 22.6624 23.0976 22.5263 22.9966C22.6337 23.0763 22.5281 22.9968 22.5097 22.9818C22.4797 22.957 22.4501 22.9316 22.421 22.9057C22.3624 22.8543 22.3067 22.7998 22.2519 22.7444C22.1971 22.689 22.1453 22.6307 22.0946 22.5716C22.0692 22.542 22.0449 22.5115 22.0205 22.481C22.1075 22.59 22.0013 22.4518 21.9861 22.4302C21.8956 22.3021 21.8167 22.1662 21.7454 22.0266C21.7275 21.9915 21.7109 21.9558 21.6942 21.9201C21.6841 21.8984 21.6332 21.7744 21.6845 21.8999C21.6494 21.814 21.6195 21.726 21.5918 21.6375C21.5437 21.4834 21.5098 21.3252 21.4848 21.1658C21.5066 21.3046 21.4858 21.1671 21.4832 21.1423C21.4791 21.1012 21.4757 21.0601 21.4732 21.0188C21.4665 20.9215 21.4659 20.8239 21.4677 20.7265C21.4693 20.6435 21.4754 20.5608 21.4832 20.4783C21.4855 20.4537 21.5049 20.3154 21.4848 20.4548C21.4906 20.4145 21.4979 20.3745 21.5052 20.3345C21.5364 20.1634 21.5843 19.9957 21.6422 19.8319C21.6554 19.7945 21.67 19.7576 21.6845 19.7207C21.6348 19.8466 21.6843 19.7225 21.6942 19.7005C21.7266 19.6287 21.7629 19.5588 21.8003 19.4896C21.8376 19.4207 21.8786 19.3538 21.9207 19.2877C21.9417 19.2548 21.9639 19.2226 21.9861 19.1904C22.0009 19.1689 22.1064 19.0294 22.0206 19.1396C22.1164 19.0166 22.2229 18.9023 22.335 18.7941C22.3911 18.7399 22.45 18.6888 22.5097 18.6388C22.5277 18.6237 22.6329 18.5429 22.5263 18.624C22.5677 18.5925 22.6105 18.5627 22.6534 18.5331C22.7826 18.4441 22.9195 18.3668 23.06 18.2972C23.0955 18.2799 23.1312 18.2632 23.1672 18.2472C23.2901 18.1917 23.0627 18.2888 23.1884 18.2392C23.2748 18.205 23.3632 18.1762 23.4522 18.1496C23.5292 18.1265 23.6074 18.1078 23.6859 18.0904C23.7255 18.0817 23.7654 18.0744 23.8052 18.0672C23.8295 18.0627 23.9668 18.0433 23.8275 18.0616C24.0061 18.0381 24.1867 18.0326 24.3666 18.0382C24.4493 18.0408 24.5318 18.048 24.614 18.0567C24.753 18.0715 24.4995 18.0388 24.6369 18.0603C24.677 18.0666 24.7169 18.0744 24.7567 18.0822C24.9271 18.1154 25.0939 18.1653 25.2568 18.225C25.279 18.2332 25.4041 18.2844 25.2788 18.2314C25.3151 18.2467 25.3509 18.2634 25.3867 18.2801C25.458 18.3133 25.5274 18.3504 25.5961 18.3886C25.6645 18.4267 25.7309 18.4685 25.7964 18.5113C25.8291 18.5327 25.861 18.5553 25.8929 18.5778C25.912 18.5913 26.0176 18.6722 25.9118 18.5898C26.0348 18.6856 26.1491 18.7922 26.2573 18.9042C26.3115 18.9603 26.3626 19.0192 26.4126 19.0789C26.4277 19.0969 26.5085 19.2022 26.4274 19.0955C26.451 19.1266 26.4736 19.1585 26.4961 19.1904C26.5865 19.3185 26.6654 19.4544 26.7367 19.594C26.7547 19.6291 26.7713 19.6648 26.788 19.7005C26.7981 19.7222 26.849 19.8463 26.7976 19.7207C26.8277 19.7943 26.8538 19.8695 26.8784 19.945C26.9284 20.0982 26.9641 20.2558 26.991 20.4145C27.0142 20.5517 26.9781 20.2986 26.9946 20.4374C26.9995 20.4784 27.0028 20.5195 27.0062 20.5605C27.0129 20.6435 27.015 20.727 27.0155 20.8103C27.0173 21.0955 27.2521 21.3335 27.5387 21.3335C27.8225 21.3335 28.0636 21.0955 28.0618 20.8103C28.0527 19.3428 27.1894 17.9518 25.8431 17.3437C24.4356 16.7079 22.7987 16.9696 21.6521 18.001C20.5493 18.9931 20.145 20.6313 20.6199 22.0293C20.8501 22.7068 21.2705 23.3236 21.8305 23.7707C22.4373 24.2552 23.1381 24.5326 23.9091 24.6145C24.9724 24.7275 26.0435 24.3271 26.8301 23.6195C27.6171 22.9115 28.0552 21.862 28.0618 20.8103C28.0636 20.5251 27.8225 20.2871 27.5386 20.2871C27.2521 20.2871 27.0173 20.5251 27.0155 20.8103Z" fill="white"/>
<path d="M28.0191 24.4995C28.0924 24.5462 28.1643 24.5949 28.2349 24.6454C28.2488 24.6554 28.3637 24.7436 28.2673 24.6683C28.3014 24.695 28.3346 24.7227 28.3679 24.7505C28.5118 24.8707 28.6454 25.003 28.7715 25.1417C28.8297 25.2059 28.8848 25.2727 28.9388 25.3404C28.8626 25.2449 28.9514 25.3589 28.9616 25.3728C28.987 25.408 29.0118 25.4435 29.0361 25.4795C29.1426 25.6355 29.2356 25.8003 29.3193 25.9694C29.3385 26.0088 29.3571 26.0484 29.375 26.0884C29.4357 26.2218 29.3357 25.989 29.3907 26.1252C29.4237 26.2071 29.4527 26.2905 29.4803 26.3744C29.5409 26.5585 29.585 26.7477 29.6185 26.9384C29.6216 26.9562 29.6427 27.1059 29.6262 26.9787C29.6321 27.024 29.6364 27.0694 29.6408 27.1149C29.6496 27.2067 29.6537 27.2989 29.6563 27.3911C29.6577 27.4387 29.6574 27.4864 29.6574 27.534V30.2013C29.6574 30.2351 29.6563 30.2519 29.6546 30.2855C29.6479 30.4247 29.6765 30.1741 29.6521 30.3096C29.645 30.3495 29.634 30.3885 29.6231 30.4274C29.6166 30.4504 29.5682 30.5763 29.6207 30.4521C29.5899 30.5249 29.5491 30.593 29.5055 30.6586C29.4323 30.7688 29.5768 30.576 29.4908 30.6763C29.4568 30.7159 29.4186 30.7518 29.3801 30.7869C29.2826 30.876 29.4703 30.7251 29.3625 30.8017C29.3304 30.8244 29.2962 30.8442 29.2622 30.8639C29.2279 30.8837 29.1919 30.9003 29.156 30.9168C29.277 30.8611 29.1554 30.9116 29.1312 30.9192C29.0926 30.9314 29.053 30.9398 29.0135 30.9483C28.8788 30.977 29.1283 30.9395 28.9894 30.9508C28.9606 30.9531 28.9313 30.9535 28.9024 30.9535H19.5785C19.5416 30.9535 19.5314 30.9526 19.4946 30.9508C19.3554 30.944 19.606 30.9726 19.4705 30.9483C19.4307 30.9411 19.3917 30.9302 19.3528 30.9192C19.3272 30.9116 19.3019 30.9032 19.2768 30.8939C19.34 30.9224 19.345 30.9245 19.292 30.9003C19.2203 30.8672 19.1537 30.8244 19.0895 30.7789C19.1962 30.8546 19.0939 30.7778 19.075 30.7605C19.046 30.7341 19.0196 30.7051 18.9932 30.6762C18.9042 30.5787 19.055 30.7664 18.9785 30.6586C18.9557 30.6265 18.936 30.5923 18.9163 30.5583C18.8964 30.524 18.8798 30.488 18.8633 30.4521C18.9211 30.5776 18.8578 30.4164 18.85 30.3886C18.839 30.3494 18.8318 30.3094 18.8247 30.2694C18.8489 30.4045 18.8287 30.2708 18.8273 30.2438C18.8265 30.2263 18.8267 30.2086 18.8267 30.1911V27.6265C18.8267 27.4861 18.8273 27.3462 18.836 27.206C18.8389 27.1601 18.8433 27.1144 18.8477 27.0687C18.8494 27.0509 18.8695 26.8998 18.8515 27.0268C18.8641 26.9374 18.8813 26.8487 18.8999 26.7603C18.9397 26.5715 18.9961 26.3865 19.0624 26.2054C19.0776 26.164 19.0942 26.1231 19.1107 26.0822C19.0643 26.1969 19.121 26.0619 19.1282 26.0461C19.1645 25.9664 19.2047 25.8885 19.2461 25.8114C19.3354 25.6451 19.4388 25.4868 19.5503 25.3347C19.636 25.2176 19.4842 25.4164 19.5747 25.3033C19.6018 25.2694 19.63 25.2364 19.6581 25.2034C19.7144 25.1375 19.7738 25.0743 19.8341 25.0121C19.8945 24.9499 19.9578 24.8906 20.022 24.8323C20.0542 24.8034 20.0869 24.7749 20.1201 24.747C20.1367 24.7329 20.2824 24.6183 20.1838 24.6936C20.2645 24.632 20.3483 24.5749 20.4333 24.5195C20.6718 24.3642 20.7704 24.0587 20.621 23.8037C20.4821 23.5667 20.1444 23.4603 19.9052 23.616C18.5964 24.4683 17.7803 25.9225 17.7803 27.491V29.8047C17.7803 30.2426 17.7909 30.6446 17.994 31.0517C18.2879 31.6409 18.9475 31.9999 19.5936 31.9999H28.8994C29.6594 31.9999 30.3214 31.5201 30.5924 30.8187C30.7286 30.4663 30.7037 30.0845 30.7037 29.7142V27.4843C30.7037 26.6741 30.4837 25.8727 30.0786 25.1721C29.7077 24.5308 29.1699 23.9933 28.5473 23.596C28.3066 23.4425 27.9713 23.545 27.8315 23.7837C27.6831 24.037 27.7792 24.3464 28.0191 24.4995ZM35.2408 23.7194C35.24 23.8021 35.2353 23.8847 35.2267 23.9669C35.2412 23.828 35.2254 23.9629 35.2207 23.9884C35.2135 24.0279 35.2041 24.067 35.1946 24.1061C35.1759 24.1834 35.1508 24.2591 35.1235 24.3338C35.0776 24.46 35.1706 24.2321 35.1156 24.3542C35.0941 24.4019 35.0696 24.4481 35.0447 24.494C35.0076 24.5625 34.9649 24.628 34.9206 24.6921C34.8452 24.801 34.9911 24.6068 34.9082 24.7099C34.8839 24.7401 34.8579 24.769 34.832 24.7979C34.7802 24.8557 34.7237 24.9091 34.666 24.9609C34.6371 24.9869 34.6068 25.0112 34.5766 25.0356C34.6852 24.9482 34.5472 25.0523 34.5246 25.0673C34.4596 25.1106 34.3911 25.1485 34.3218 25.1844C34.2869 25.2025 34.2511 25.2186 34.2153 25.2348C34.3389 25.1791 34.2167 25.2316 34.1936 25.2401C34.1186 25.2674 34.0415 25.2883 33.9641 25.307C33.9249 25.3165 33.8852 25.3237 33.8456 25.331C33.7861 25.3403 33.7922 25.3399 33.8638 25.3297C33.8367 25.3328 33.8095 25.3353 33.7822 25.3375C33.6993 25.3446 33.616 25.3446 33.5329 25.3422C33.4917 25.341 33.4506 25.3375 33.4095 25.3339C33.2708 25.322 33.5235 25.3533 33.3871 25.331C33.3078 25.3181 33.2297 25.2985 33.1525 25.2767C33.1142 25.2659 33.0766 25.253 33.0391 25.2401C33.0142 25.2313 32.9895 25.2221 32.965 25.2124C33.0292 25.2402 33.0346 25.2423 32.9814 25.2186C32.91 25.1864 32.8414 25.1484 32.774 25.1087C32.7404 25.0889 32.708 25.0673 32.6755 25.0457C32.6558 25.0326 32.5498 24.9533 32.656 25.0356C32.523 24.9324 32.4054 24.8105 32.3 24.6796C32.3839 24.7839 32.3037 24.68 32.2899 24.6601C32.2677 24.6281 32.2473 24.5948 32.2269 24.5616C32.1859 24.495 32.1505 24.425 32.117 24.3542C32.0598 24.2331 32.1574 24.4592 32.109 24.3338C32.0948 24.2968 32.0826 24.259 32.0704 24.2213C32.0417 24.1322 32.0214 24.0407 32.0046 23.9486C31.9798 23.8126 32.0162 24.0647 32.0017 23.9262C31.9973 23.8852 31.9954 23.8439 31.9934 23.8027C31.9895 23.7197 31.9926 23.6364 31.9981 23.5535C31.9998 23.5285 32.0181 23.3907 31.9981 23.5302C32.0038 23.4902 32.0119 23.4505 32.0199 23.4109C32.0383 23.3196 32.0653 23.2302 32.0955 23.1422C32.1033 23.1194 32.1545 22.9953 32.1009 23.1204C32.1163 23.0844 32.1338 23.0491 32.1512 23.014C32.1859 22.944 32.2263 22.8769 32.2684 22.8111C32.2893 22.7783 32.3121 22.7467 32.3348 22.7152C32.257 22.8233 32.3335 22.7181 32.3493 22.6991C32.4073 22.6296 32.4715 22.5655 32.5377 22.5038C32.5662 22.4774 32.596 22.4524 32.6258 22.4276C32.6707 22.3916 32.6661 22.3951 32.612 22.438C32.6329 22.4226 32.6541 22.4077 32.6756 22.3931C32.7505 22.3413 32.83 22.2963 32.9108 22.2544C32.9457 22.2363 32.9815 22.2202 33.0173 22.2041C32.8886 22.262 33.0504 22.1948 33.0766 22.1858C33.1777 22.1511 33.282 22.127 33.3871 22.1078C33.5231 22.083 33.271 22.1194 33.4095 22.1049C33.4643 22.0991 33.5195 22.097 33.5745 22.0954C33.6712 22.0927 33.7678 22.099 33.8639 22.1092C33.725 22.0946 33.8599 22.1104 33.8854 22.1151C33.938 22.1247 33.99 22.1378 34.0417 22.1513C34.093 22.1647 34.1434 22.1815 34.1936 22.1987C34.2184 22.2075 34.2431 22.2167 34.2676 22.2264C34.2034 22.1986 34.1979 22.1965 34.2512 22.2202C34.3344 22.2577 34.4141 22.3028 34.4918 22.3505C34.525 22.3709 34.5571 22.3931 34.589 22.4153C34.6355 22.4494 34.6313 22.4454 34.5766 22.4033C34.5969 22.4193 34.6169 22.4357 34.6367 22.4525C34.7062 22.5105 34.7704 22.5747 34.832 22.6409C34.8673 22.6788 34.9001 22.7189 34.9325 22.7592C34.8452 22.6507 34.9493 22.7886 34.9643 22.8112C35.0148 22.8871 35.0583 22.9675 35.0988 23.0491C35.1097 23.0711 35.1605 23.1939 35.1094 23.0682C35.1293 23.1171 35.146 23.1673 35.1622 23.2175C35.1909 23.3066 35.2112 23.3982 35.228 23.4902C35.2374 23.5496 35.2369 23.5436 35.2267 23.4719C35.2298 23.4991 35.2324 23.5263 35.2345 23.5536C35.2392 23.6087 35.2403 23.6641 35.2408 23.7194C35.2435 24.0045 35.4767 24.2425 35.7639 24.2425C36.0471 24.2425 36.2898 24.0046 36.2871 23.7194C36.2799 22.9573 35.9555 22.2138 35.3765 21.7125C34.7507 21.1708 33.9595 20.9758 33.1489 21.0923C32.4034 21.1994 31.7433 21.6917 31.3439 22.3158C30.9297 22.9629 30.8392 23.8103 31.0737 24.5372C31.2692 25.1431 31.6789 25.6502 32.2128 25.9917C32.7721 26.3497 33.4375 26.4393 34.0837 26.3465C35.353 26.164 36.2752 24.9678 36.2871 23.7194C36.2898 23.4342 36.0471 23.1962 35.7639 23.1962C35.4767 23.1962 35.2435 23.4342 35.2408 23.7194Z" fill="white"/>
<path d="M35.9838 26.2796C36.0201 26.3029 36.0561 26.3268 36.0916 26.3513C36.1063 26.3614 36.2199 26.449 36.1234 26.3728C36.1908 26.4261 36.2544 26.4842 36.3163 26.5437C36.3783 26.6032 36.4359 26.6672 36.4918 26.7324C36.5035 26.7461 36.5903 26.8598 36.5166 26.7616C36.5511 26.8076 36.5829 26.8555 36.6144 26.9035C36.6617 26.976 36.7037 27.0518 36.7437 27.1285C36.7638 27.167 36.7819 27.2065 36.8001 27.246C36.7481 27.1331 36.807 27.2651 36.8137 27.2825C36.8451 27.3648 36.8703 27.4492 36.8932 27.5342C36.9048 27.5771 36.9142 27.6206 36.9237 27.664C36.9287 27.687 36.9581 27.8766 36.9413 27.7464C36.9903 28.1257 36.9604 28.525 36.9604 28.9062V29.8359C36.9604 29.8634 36.9591 29.8908 36.9564 29.9182C36.9668 29.8463 36.9661 29.8396 36.9545 29.8982C36.9487 29.9242 36.9009 30.0449 36.9547 29.9218C36.9391 29.9575 36.9185 29.9908 36.898 30.0239C36.8302 30.1337 36.9706 29.9441 36.8839 30.0392C36.8663 30.0585 36.7676 30.1385 36.8733 30.0588C36.8422 30.0822 36.8081 30.1011 36.7742 30.1199C36.6604 30.183 36.8786 30.0857 36.7539 30.1265C36.7274 30.1352 36.5982 30.1559 36.7356 30.139C36.7106 30.142 36.6773 30.143 36.6522 30.143H31.9989C31.7137 30.143 31.4757 30.381 31.4757 30.6662C31.4757 30.9514 31.7137 31.1894 31.9989 31.1894H36.387C36.7557 31.1894 37.121 31.1739 37.4323 30.9389C37.7848 30.673 38.0068 30.2826 38.0068 29.8333V28.1538C38.0068 27.4956 37.8419 26.8527 37.4702 26.3037C37.2168 25.9295 36.8919 25.6201 36.512 25.3762C36.2718 25.222 35.9358 25.3257 35.7962 25.5639C35.6475 25.8176 35.7443 26.1259 35.9838 26.2796ZM16.4915 23.7194C16.4908 23.8021 16.486 23.8847 16.4774 23.967C16.492 23.8281 16.4761 23.963 16.4715 23.9884C16.4643 24.028 16.4548 24.0671 16.4454 24.1062C16.4267 24.1835 16.4015 24.2591 16.3743 24.3338C16.3283 24.4601 16.4213 24.2321 16.3663 24.3543C16.3449 24.4019 16.3204 24.4481 16.2955 24.494C16.2584 24.5626 16.2157 24.628 16.1713 24.6921C16.0959 24.801 16.2419 24.6069 16.159 24.7099C16.1346 24.7402 16.1087 24.7691 16.0828 24.7979C16.0309 24.8557 15.9745 24.9092 15.9168 24.961C15.8879 24.9869 15.8576 25.0113 15.8273 25.0356C15.9359 24.9483 15.7979 25.0523 15.7754 25.0673C15.7103 25.1106 15.6419 25.1485 15.5725 25.1845C15.5377 25.2025 15.5019 25.2187 15.4661 25.2348C15.5897 25.1791 15.4675 25.2317 15.4443 25.2402C15.3694 25.2675 15.2923 25.2884 15.2148 25.3071C15.1757 25.3166 15.136 25.3238 15.0963 25.331C15.0369 25.3404 15.043 25.3399 15.1146 25.3297C15.0875 25.3328 15.0602 25.3354 15.033 25.3375C14.9501 25.3447 14.8668 25.3446 14.7837 25.3423C14.7425 25.3411 14.7014 25.3375 14.6602 25.334C14.5215 25.3221 14.7742 25.3533 14.6378 25.331C14.5585 25.3181 14.4805 25.2985 14.4033 25.2768C14.365 25.266 14.3274 25.2531 14.2899 25.2402C14.265 25.2314 14.2403 25.2221 14.2158 25.2124C14.28 25.2403 14.2855 25.2424 14.2322 25.2187C14.1608 25.1865 14.0922 25.1485 14.0248 25.1088C13.9912 25.089 13.9588 25.0673 13.9264 25.0458C13.9066 25.0327 13.8006 24.9533 13.9068 25.0356C13.7738 24.9325 13.6562 24.8106 13.5509 24.6797C13.6347 24.7839 13.5545 24.6801 13.5407 24.6602C13.5186 24.6281 13.4981 24.5949 13.4778 24.5617C13.4367 24.495 13.4013 24.4251 13.3679 24.3543C13.3106 24.2332 13.4082 24.4593 13.3599 24.3338C13.3456 24.2969 13.3334 24.2591 13.3213 24.2214C13.2926 24.1323 13.2723 24.0407 13.2555 23.9487C13.2306 23.8127 13.2671 24.0647 13.2525 23.9263C13.2482 23.8852 13.2462 23.844 13.2443 23.8028C13.2403 23.7197 13.2435 23.6365 13.249 23.5536C13.2507 23.5286 13.269 23.3908 13.2489 23.5303C13.2547 23.4902 13.2627 23.4506 13.2707 23.411C13.2892 23.3197 13.3162 23.2303 13.3464 23.1423C13.3542 23.1195 13.4053 22.9953 13.3517 23.1205C13.3672 23.0844 13.3846 23.0492 13.402 23.014C13.4367 22.944 13.4771 22.877 13.5192 22.8112C13.5401 22.7784 13.5629 22.7468 13.5856 22.7152C13.5079 22.8233 13.5843 22.7182 13.6001 22.6992C13.6581 22.6297 13.7223 22.5655 13.7886 22.5039C13.817 22.4774 13.8468 22.4525 13.8766 22.4277C13.9215 22.3917 13.9169 22.3952 13.8628 22.438C13.8838 22.4227 13.9049 22.4078 13.9264 22.3932C14.0013 22.3413 14.0808 22.2964 14.1616 22.2545C14.1965 22.2364 14.2323 22.2203 14.2681 22.2041C14.1394 22.2621 14.3013 22.1949 14.3274 22.1859C14.4284 22.1512 14.5328 22.1271 14.6379 22.1079C14.7738 22.083 14.5218 22.1195 14.6603 22.1049C14.7151 22.0992 14.7703 22.0971 14.8253 22.0955C14.922 22.0927 15.0186 22.0991 15.1147 22.1092C14.9758 22.0946 15.1107 22.1105 15.1361 22.1151C15.1888 22.1247 15.2408 22.1378 15.2925 22.1514C15.3438 22.1648 15.3942 22.1816 15.4444 22.1988C15.4692 22.2075 15.4939 22.2168 15.5184 22.2265C15.4542 22.1986 15.4487 22.1966 15.502 22.2203C15.5853 22.2578 15.6649 22.3028 15.7426 22.3506C15.7758 22.371 15.8079 22.3932 15.8399 22.4154C15.8863 22.4494 15.8821 22.4454 15.8274 22.4033C15.8477 22.4194 15.8677 22.4358 15.8875 22.4525C15.957 22.5106 16.0212 22.5748 16.0828 22.641C16.1181 22.6789 16.1509 22.719 16.1834 22.7593C16.0961 22.6507 16.2001 22.7887 16.2151 22.8112C16.2657 22.8872 16.3092 22.9676 16.3497 23.0492C16.3605 23.0711 16.4113 23.1939 16.3602 23.0683C16.3801 23.1172 16.3968 23.1673 16.413 23.2176C16.4417 23.3067 16.462 23.3983 16.4788 23.4903C16.4882 23.5497 16.4877 23.5436 16.4775 23.472C16.4806 23.4992 16.4832 23.5264 16.4853 23.5537C16.4899 23.6087 16.491 23.6641 16.4915 23.7194C16.4942 24.0046 16.7274 24.2426 17.0147 24.2426C17.2978 24.2426 17.5406 24.0046 17.5379 23.7194C17.5306 22.9574 17.2063 22.2139 16.6273 21.7126C16.0015 21.1709 15.2103 20.9758 14.3997 21.0923C13.6542 21.1994 12.994 21.6918 12.5947 22.3159C12.1805 22.963 12.09 23.8103 12.3245 24.5373C12.52 25.1432 12.9297 25.6502 13.4635 25.9918C14.0229 26.3497 14.6882 26.4394 15.3345 26.3465C16.6038 26.1641 17.526 24.9679 17.5379 23.7194C17.5406 23.4342 17.2979 23.1963 17.0147 23.1963C16.7274 23.1963 16.4942 23.4343 16.4915 23.7194ZM16.4843 30.1429H11.8501C11.8064 30.1429 11.6783 30.1235 11.8066 30.1457C11.7673 30.1389 11.7294 30.1265 11.6916 30.1141C11.8131 30.1539 11.7028 30.1164 11.6749 30.101C11.6504 30.0874 11.5546 30.009 11.6551 30.0925C11.6319 30.0732 11.5244 29.9464 11.607 30.0558C11.5836 30.0248 11.5646 29.9907 11.5458 29.9568C11.4827 29.843 11.5801 30.0611 11.5392 29.9365C11.5305 29.91 11.5099 29.7807 11.5268 29.9182C11.5239 29.8948 11.5228 29.8585 11.5228 29.8351V28.0659C11.5228 27.9734 11.5283 27.8814 11.537 27.7894C11.5514 27.6384 11.5187 27.8972 11.5433 27.7486C11.5506 27.7042 11.5602 27.6603 11.5698 27.6163C11.5889 27.5294 11.6145 27.4439 11.6422 27.3594C11.6559 27.3175 11.6718 27.2763 11.6877 27.2351C11.6428 27.3517 11.7138 27.1803 11.7238 27.1596C11.7618 27.0811 11.8057 27.0056 11.8512 26.9312C11.8739 26.8942 11.8985 26.8583 11.923 26.8225C11.9327 26.8082 12.0201 26.6931 11.9448 26.7893C12.0606 26.6416 12.1953 26.5094 12.3393 26.3895C12.4502 26.2971 12.2542 26.4509 12.371 26.3659C12.4061 26.3403 12.4425 26.3165 12.4788 26.2927C12.7168 26.1367 12.8161 25.8324 12.6664 25.5769C12.5279 25.3404 12.1894 25.2328 11.9507 25.3893C11.2596 25.8421 10.7519 26.53 10.5608 27.3382C10.4552 27.7852 10.4763 28.2452 10.4763 28.7004V29.8299C10.4763 30.5804 11.0995 31.1893 11.8458 31.1893H16.4842C16.7695 31.1893 17.0074 30.9513 17.0074 30.6661C17.0074 30.3809 16.7695 30.1429 16.4843 30.1429Z" fill="white"/>
<defs>
<radialGradient id="paint0_angular_1211_4705" cx="0" cy="0" r="1" gradientUnits="userSpaceOnUse" gradientTransform="translate(24 24) rotate(90) scale(24)">
<stop offset="0.0993526" stop-color="#FFC876"/>
<stop offset="0.427081" stop-color="#79FFF7"/>
<stop offset="0.718753" stop-color="#9F53FF"/>
<stop offset="1" stop-color="#FF98E2"/>
</radialGradient>
</defs>
</svg>
