<svg width="335" height="77" viewBox="0 0 335 77" fill="none" xmlns="http://www.w3.org/2000/svg">
<path fill-rule="evenodd" clip-rule="evenodd" d="M277.338 63.4999H286.853V26.9438H277.338V63.4999Z" fill="white"/>
<path fill-rule="evenodd" clip-rule="evenodd" d="M277.338 22.7655H286.853V13.2639H277.338V22.7655Z" fill="white"/>
<path fill-rule="evenodd" clip-rule="evenodd" d="M262.807 63.4967H272.321V53.9951H262.807V63.4967Z" fill="white"/>
<path fill-rule="evenodd" clip-rule="evenodd" d="M195.519 58.5373C196.075 60.0087 196.921 61.1597 197.928 62.0595C198.947 62.9722 200.144 63.6835 201.562 64.0877C203.004 64.4911 204.593 64.6492 206.276 64.6492C208.014 64.6492 209.567 64.4687 210.891 64.1118C212.12 63.7821 213.299 63.3154 214.394 62.7232V56.0087C212.649 56.7614 211.019 57.0345 209.16 57.1213C207.197 57.2124 206.035 56.6519 205.067 55.7329C204.056 54.7694 203.516 53.5129 203.516 51.4055V31.0976H214.394V22.7655H203.516V13.2639H194.676V22.7655H189.377V31.0976H194.676V52.9036C194.676 55.1561 194.958 57.0507 195.519 58.5373Z" fill="white"/>
<path fill-rule="evenodd" clip-rule="evenodd" d="M138.179 35.1275H114.49V44.9528H127.792C127.097 47.7595 125.725 50.2754 123.756 52.2852C120.786 55.3168 116.667 56.9863 112.159 56.9863C102.803 56.9863 95.1913 49.3842 95.1913 40.0402C95.1913 30.6959 102.803 23.0937 112.159 23.0937C117.171 23.0937 121.777 25.235 124.971 28.9296L132.587 22.7141C127.537 16.8044 120.045 13.2686 112.159 13.2686C97.3782 13.2686 85.3535 25.2783 85.3535 40.0402C85.3535 54.8018 97.3782 66.8112 112.159 66.8112C119.335 66.8112 125.95 64.2288 130.787 59.2933C134.846 55.1507 137.536 49.3711 138.053 43.5816C138.305 40.7569 138.328 37.9529 138.179 35.1275Z" fill="white"/>
<path fill-rule="evenodd" clip-rule="evenodd" d="M238.701 30.3458C244.159 30.3458 248.812 33.7722 250.632 38.5883H226.77C228.587 33.7722 233.243 30.3458 238.701 30.3458ZM260.053 46.3541C260.214 45.2862 260.302 44.1928 260.302 43.0801C260.302 31.1678 250.63 21.5112 238.701 21.5112C226.776 21.5112 217.104 31.1678 217.104 43.0801C217.104 54.9924 226.776 64.6484 238.701 64.6484C246.884 64.6484 254.003 60.1038 257.669 53.4055L249.688 49.5385C247.47 53.2933 243.381 55.814 238.701 55.814C232.787 55.814 227.815 51.793 226.373 46.3396H251.026C251.026 46.3443 251.024 46.349 251.024 46.3541H260.053Z" fill="white"/>
<path fill-rule="evenodd" clip-rule="evenodd" d="M162.949 55.8156C155.907 55.8156 150.198 50.1139 150.198 43.0803C150.198 36.0465 155.907 30.3448 162.949 30.3448C169.992 30.3448 175.701 36.0465 175.701 43.0803C175.701 50.1139 169.992 55.8156 162.949 55.8156ZM162.949 21.5486C151.023 21.5486 141.355 31.2041 141.355 43.1144C141.355 55.0247 151.023 64.6804 162.949 64.6804C174.874 64.6804 184.542 55.0247 184.542 43.1144C184.542 31.2041 174.874 21.5486 162.949 21.5486Z" fill="white"/>
<mask id="mask0_1623_1974" style="mask-type:alpha" maskUnits="userSpaceOnUse" x="0" y="0" width="335" height="77">
<path d="M0 76.6006H335V0H0V76.6006Z" fill="white"/>
</mask>
<g mask="url(#mask0_1623_1974)">
<path fill-rule="evenodd" clip-rule="evenodd" d="M175.701 63.4989H184.541V22.7314H175.701V63.4989Z" fill="white"/>
<path fill-rule="evenodd" clip-rule="evenodd" d="M313.4 55.8138C306.357 55.8138 300.65 50.1129 300.65 43.0797C300.65 36.047 306.357 30.3458 313.4 30.3458C320.441 30.3458 326.151 36.047 326.151 43.0797C326.151 50.1129 320.441 55.8138 313.4 55.8138ZM313.4 21.5112C301.473 21.5112 291.801 31.1672 291.801 43.0797C291.801 54.9918 301.473 64.6484 313.4 64.6484C325.327 64.6484 334.999 54.9918 334.999 43.0797C334.999 31.1672 325.327 21.5112 313.4 21.5112Z" fill="white"/>
<path fill-rule="evenodd" clip-rule="evenodd" d="M38.3489 59.3651C26.6997 59.3651 17.257 49.9338 17.257 38.3001C17.257 26.6658 26.6997 17.2349 38.3489 17.2349V0C17.1692 0 0 17.1473 0 38.3001C0 59.4529 17.1692 76.6002 38.3489 76.6002C59.5285 76.6002 76.6974 59.4529 76.6974 38.3001H59.4406C59.4406 49.9338 49.9973 59.3651 38.3489 59.3651Z" fill="#0051D2"/>
<path fill-rule="evenodd" clip-rule="evenodd" d="M38.3457 38.2986H59.4376V17.2334H38.3457V38.2986Z" fill="#14E0A1"/>
</g>
</svg>
