<svg width="293" height="49" viewBox="0 0 293 49" fill="none" xmlns="http://www.w3.org/2000/svg">
<g clip-path="url(#clip0_2383_1838)">
<path d="M85.0315 16.4486C83.9833 14.4661 82.4779 12.962 80.5187 11.9331C78.556 10.9008 76.1888 10.3846 73.4136 10.3846H62.8545V37.2625H73.4136C76.1853 37.2625 78.5595 36.7258 80.5257 35.6593C82.4919 34.5928 83.9974 33.0477 85.042 31.0241C86.0832 29.0005 86.6037 26.5633 86.6037 23.7227V23.6851C86.6037 20.8411 86.0797 18.4278 85.0315 16.4486ZM80.7016 23.7432C80.7016 25.678 80.3921 27.3051 79.7801 28.6245C79.168 29.9405 78.2711 30.9318 77.0893 31.6052C75.9074 32.2752 74.4548 32.6102 72.7277 32.6102H68.6476V15.0472H72.7277C74.4161 15.0472 75.8547 15.3753 77.0435 16.0453C78.2324 16.7084 79.1364 17.6861 79.7625 18.9747C80.3921 20.2668 80.7051 21.8461 80.7051 23.709V23.7466L80.7016 23.7432Z" fill="url(#paint0_radial_2383_1838)"/>
<path d="M90.3418 37.2625H108.664V32.6239H96.1279V25.8796H107.953V21.4667H96.1279V15.0232H108.664V10.3846H90.3418V37.2625Z" fill="url(#paint1_radial_2383_1838)"/>
<path d="M112.843 37.2625H118.629V26.6829H129.881V22.2289H118.629V15.0232H130.954V10.3846H112.843V37.2625Z" fill="url(#paint2_radial_2383_1838)"/>
<path d="M140.156 10.3846H134.366V37.2625H140.156V10.3846Z" fill="url(#paint3_radial_2383_1838)"/>
<path d="M159.417 29.6978H159.301L151.443 10.3846H144.753V37.2625H149.909V19.1012H150.078L157.539 37.2625H161.179L168.639 19.1012H168.787V37.2625H173.961V10.3846H167.254L159.417 29.6978Z" fill="url(#paint4_radial_2383_1838)"/>
<path d="M193.265 10.3846H186.441L176.8 37.2625H182.874L184.957 30.7404H194.731L196.807 37.2625H202.902L193.261 10.3846H193.265ZM186.304 26.5325L189.793 15.6009H189.909L193.391 26.5325H186.304Z" fill="url(#paint5_radial_2383_1838)"/>
<path d="M200.604 15.0232H208.614V37.2625H214.403V15.0232H222.416V10.3846H200.604V15.0232Z" fill="url(#paint6_radial_2383_1838)"/>
<path d="M241.923 26.6829C243.457 26.0984 244.677 25.1208 245.574 23.7501C246.478 22.3793 246.925 20.8035 246.925 19.0294V18.9918C246.925 17.1938 246.535 15.6522 245.75 14.3738C244.962 13.0919 243.833 12.1109 242.356 11.4204C240.879 10.7299 239.109 10.3846 237.038 10.3846H225.613V37.2625H231.403V27.5375H236.042L241.178 37.2625H247.748L241.92 26.6829H241.923ZM241.005 19.0465C241.005 20.3626 240.597 21.3915 239.778 22.1401C238.958 22.8887 237.833 23.2578 236.405 23.2578H231.403V14.8045H236.327C237.745 14.8045 238.881 15.1839 239.728 15.9393C240.58 16.6948 241.005 17.7237 241.005 19.0123V19.0499V19.0465Z" fill="url(#paint7_radial_2383_1838)"/>
<path d="M256.53 10.3846H250.74V37.2625H256.53V10.3846Z" fill="url(#paint8_radial_2383_1838)"/>
<path d="M275.849 23.7569L284.917 10.3846H278.438L272.617 20.0686H272.402L266.518 10.3846H259.694L268.435 23.6646V23.7398L259.655 37.2625H265.902L271.938 27.8554H272.131L278.188 37.2625H284.801L275.849 23.8253V23.7569Z" fill="url(#paint9_radial_2383_1838)"/>
<path d="M56.9612 6.10352e-05L41.6255 14.9037C43.6655 17.5563 44.872 20.8515 44.872 24.4201C44.872 33.2153 37.5348 40.3493 28.4811 40.3493C24.6084 40.3493 21.0489 39.0435 18.2455 36.8592L12.667 42.0994C16.8984 45.6749 22.4312 47.8455 28.4811 47.8455C41.7908 47.8455 52.5856 37.3549 52.5856 24.4201C52.5856 19.8944 51.263 15.666 48.9732 12.0836L56.9612 6.10352e-05Z" fill="url(#paint10_radial_2383_1838)"/>
<path d="M15.3357 33.93C13.2956 31.274 12.0927 27.9822 12.0927 24.4169C12.0927 15.6183 19.4264 8.48783 28.4836 8.48783C32.3527 8.48783 35.9123 9.78677 38.7156 11.9745L44.2977 6.73426C40.0628 3.15876 34.5335 0.991577 28.4871 0.991577C15.1704 0.994995 4.37912 11.4822 4.37912 24.4204C4.37912 28.9461 5.69813 33.1711 7.98793 36.7535L0 48.8336L15.3357 33.93Z" fill="url(#paint11_radial_2383_1838)"/>
<path d="M37.2184 18.9883C36.4481 17.5287 35.3401 16.4246 33.898 15.6657C32.4524 14.9069 30.7113 14.5275 28.6712 14.5275H22.5018C21.6189 14.5275 20.9014 15.2248 20.9014 16.0828V32.7502C20.9014 33.6082 21.6189 34.3055 22.5018 34.3055H28.6712C30.7113 34.3055 32.4559 33.9124 33.9051 33.1262C35.3542 32.34 36.4587 31.2052 37.229 29.7148C37.9958 28.2245 38.3792 26.4333 38.3792 24.3413V24.314C38.3792 22.222 37.9922 20.4445 37.2219 18.9883H37.2184ZM34.0317 24.355C34.0317 25.777 33.8031 26.9768 33.3528 27.9476C32.9026 28.9149 32.2449 29.6465 31.3726 30.1387C30.5038 30.6309 29.4345 30.877 28.1612 30.877H25.1574V17.9526H28.1612C29.4028 17.9526 30.4616 18.1953 31.3374 18.6875C32.2132 19.1763 32.878 19.8941 33.3388 20.8444C33.8031 21.7947 34.0317 22.9569 34.0317 24.3276V24.355Z" fill="url(#paint12_radial_2383_1838)"/>
<path d="M289.133 12.1178C289.333 12.0768 289.622 12.0563 289.896 12.0563C290.322 12.0563 290.593 12.1315 290.786 12.299C290.941 12.4323 291.029 12.6374 291.029 12.8664C291.029 13.2629 290.772 13.5227 290.448 13.6287V13.6423C290.684 13.721 290.828 13.9363 290.899 14.244C291.001 14.661 291.071 14.9481 291.134 15.0643H290.723C290.673 14.9789 290.603 14.7225 290.519 14.3499C290.427 13.9363 290.262 13.7825 289.903 13.7688H289.53V15.0643H289.133V12.1178ZM289.53 13.4783H289.935C290.36 13.4783 290.628 13.2527 290.628 12.9108C290.628 12.5246 290.339 12.3571 289.921 12.3537C289.731 12.3537 289.594 12.3708 289.527 12.3878V13.4783H289.53Z" fill="url(#paint13_radial_2383_1838)"/>
<path d="M290.009 16.5547C288.36 16.5547 287.02 15.2523 287.02 13.6492C287.02 12.046 288.36 10.7437 290.009 10.7437C291.659 10.7437 292.999 12.046 292.999 13.6492C292.999 15.2523 291.659 16.5547 290.009 16.5547ZM290.009 11.0855C288.553 11.0855 287.371 12.234 287.371 13.6492C287.371 15.0643 288.553 16.2129 290.009 16.2129C291.465 16.2129 292.647 15.0643 292.647 13.6492C292.647 12.234 291.465 11.0855 290.009 11.0855Z" fill="url(#paint14_radial_2383_1838)"/>
</g>
<defs>
<radialGradient id="paint0_radial_2383_1838" cx="0" cy="0" r="1" gradientUnits="userSpaceOnUse" gradientTransform="translate(176.212 49.011) scale(105.95 102.965)">
<stop stop-color="#C450D5"/>
<stop offset="1" stop-color="#D43E76"/>
</radialGradient>
<radialGradient id="paint1_radial_2383_1838" cx="0" cy="0" r="1" gradientUnits="userSpaceOnUse" gradientTransform="translate(176.211 0.170872) scale(105.95 102.965)">
<stop stop-color="#C450D5"/>
<stop offset="1" stop-color="#D43E76"/>
</radialGradient>
<radialGradient id="paint2_radial_2383_1838" cx="0" cy="0" r="1" gradientUnits="userSpaceOnUse" gradientTransform="translate(176.212 0.170872) scale(105.95 102.965)">
<stop stop-color="#C450D5"/>
<stop offset="1" stop-color="#D43E76"/>
</radialGradient>
<radialGradient id="paint3_radial_2383_1838" cx="0" cy="0" r="1" gradientUnits="userSpaceOnUse" gradientTransform="translate(176.212 0.170872) scale(105.95 102.965)">
<stop stop-color="#C450D5"/>
<stop offset="1" stop-color="#D43E76"/>
</radialGradient>
<radialGradient id="paint4_radial_2383_1838" cx="0" cy="0" r="1" gradientUnits="userSpaceOnUse" gradientTransform="translate(176.212 0.170872) scale(105.95 102.965)">
<stop stop-color="#C450D5"/>
<stop offset="1" stop-color="#D43E76"/>
</radialGradient>
<radialGradient id="paint5_radial_2383_1838" cx="0" cy="0" r="1" gradientUnits="userSpaceOnUse" gradientTransform="translate(176.212 0.170872) scale(105.95 102.965)">
<stop stop-color="#C450D5"/>
<stop offset="1" stop-color="#D43E76"/>
</radialGradient>
<radialGradient id="paint6_radial_2383_1838" cx="0" cy="0" r="1" gradientUnits="userSpaceOnUse" gradientTransform="translate(176.212 0.170872) scale(105.95 102.965)">
<stop stop-color="#C450D5"/>
<stop offset="1" stop-color="#D43E76"/>
</radialGradient>
<radialGradient id="paint7_radial_2383_1838" cx="0" cy="0" r="1" gradientUnits="userSpaceOnUse" gradientTransform="translate(176.212 0.170872) scale(105.95 102.965)">
<stop stop-color="#C450D5"/>
<stop offset="1" stop-color="#D43E76"/>
</radialGradient>
<radialGradient id="paint8_radial_2383_1838" cx="0" cy="0" r="1" gradientUnits="userSpaceOnUse" gradientTransform="translate(176.211 0.170872) scale(105.95 102.965)">
<stop stop-color="#C450D5"/>
<stop offset="1" stop-color="#D43E76"/>
</radialGradient>
<radialGradient id="paint9_radial_2383_1838" cx="0" cy="0" r="1" gradientUnits="userSpaceOnUse" gradientTransform="translate(176.213 0.170872) scale(105.95 102.965)">
<stop stop-color="#C450D5"/>
<stop offset="1" stop-color="#D43E76"/>
</radialGradient>
<radialGradient id="paint10_radial_2383_1838" cx="0" cy="0" r="1" gradientUnits="userSpaceOnUse" gradientTransform="translate(28.5127 30.7337) scale(37.5162 36.4592)">
<stop stop-color="#C450D5"/>
<stop offset="1" stop-color="#D43E76"/>
</radialGradient>
<radialGradient id="paint11_radial_2383_1838" cx="0" cy="0" r="1" gradientUnits="userSpaceOnUse" gradientTransform="translate(28.5118 30.7339) scale(37.5162 36.4592)">
<stop stop-color="#C450D5"/>
<stop offset="1" stop-color="#D43E76"/>
</radialGradient>
<radialGradient id="paint12_radial_2383_1838" cx="0" cy="0" r="1" gradientUnits="userSpaceOnUse" gradientTransform="translate(28.5129 30.7335) scale(37.5162 36.4592)">
<stop stop-color="#C450D5"/>
<stop offset="1" stop-color="#D43E76"/>
</radialGradient>
<radialGradient id="paint13_radial_2383_1838" cx="0" cy="0" r="1" gradientUnits="userSpaceOnUse" gradientTransform="translate(290.132 13.5603) scale(1.30494 1.26818)">
<stop stop-color="#C450D5"/>
<stop offset="1" stop-color="#D43E76"/>
</radialGradient>
<radialGradient id="paint14_radial_2383_1838" cx="0" cy="0" r="1" gradientUnits="userSpaceOnUse" gradientTransform="translate(290.009 13.6492) scale(2.98976 2.90553)">
<stop stop-color="#C450D5"/>
<stop offset="1" stop-color="#D43E76"/>
</radialGradient>
<clipPath id="clip0_2383_1838">
<rect width="293" height="48.8333" fill="white"/>
</clipPath>
</defs>
</svg>
