<svg width="277" height="269" viewBox="0 0 277 269" fill="none" xmlns="http://www.w3.org/2000/svg">
<path d="M85.9455 63.8502C85.9455 61.6995 84.2021 59.9546 82.0499 59.9546C79.8977 59.9546 78.1543 61.698 78.1543 63.8502C78.1543 65.5832 79.286 67.0511 80.8501 67.5562H80.5687V172.265C79.1526 172.849 78.1543 174.241 78.1543 175.868C78.1543 178.018 79.8977 179.763 82.0499 179.763C84.2021 179.763 85.9455 178.02 85.9455 175.868C85.9455 174.241 84.9487 172.847 83.5311 172.265V67.5562H83.2497C84.8139 67.0511 85.9455 65.5832 85.9455 63.8502Z" fill="url(#paint0_linear_1217_40716)"/>
<path d="M121.228 80.0045C121.882 81.2384 123.179 82.0782 124.672 82.0782C126.823 82.0782 128.568 80.3348 128.568 78.1826C128.568 76.0319 126.824 74.287 124.672 74.287C122.918 74.287 121.434 75.4468 120.947 77.0421H94.9396V109.576C93.6761 110.22 92.8096 111.532 92.8096 113.048C92.8096 115.198 94.553 116.943 96.7052 116.943C98.8574 116.943 100.601 115.2 100.601 113.048C100.601 111.315 99.4677 109.847 97.9035 109.34V80.0045H121.228Z" fill="url(#paint1_linear_1217_40716)"/>
<path d="M168.466 115.095C170.617 115.095 172.362 113.351 172.362 111.199C172.362 109.047 170.619 107.303 168.466 107.303C168.274 107.303 168.086 107.318 167.901 107.345C163.002 99.3359 155.473 94.1694 144.924 91.5729C136.89 89.5954 128.016 89.3407 119.782 89.3407C118.326 89.3407 116.889 89.3481 115.48 89.3569C114.643 89.3614 113.836 89.3658 113.036 89.3688C112.454 87.9498 111.06 86.9485 109.431 86.9485C107.28 86.9485 105.535 88.6919 105.535 90.8441C105.535 92.9963 107.279 94.7397 109.431 94.7397C111.056 94.7397 112.447 93.7443 113.032 92.3312C113.837 92.3283 114.652 92.3238 115.496 92.3194C134.071 92.2172 155.069 92.1031 165.353 108.859C164.863 109.51 164.571 110.321 164.571 111.201C164.571 113.35 166.314 115.095 168.466 115.095Z" fill="url(#paint2_linear_1217_40716)"/>
<path d="M184.912 114.01C181.332 102.125 174.311 92.4645 165.965 87.8253C166.018 87.569 166.046 87.3039 166.046 87.0328C166.046 84.8821 164.303 83.1372 162.151 83.1372C159.998 83.1372 158.255 84.8806 158.255 87.0328C158.255 89.185 159.998 90.9284 162.151 90.9284C162.943 90.9284 163.678 90.6914 164.294 90.2856C172.078 94.4937 178.679 103.588 182.076 114.865C186.019 127.952 187.355 147.366 178.765 160.494C178.552 160.459 178.333 160.438 178.109 160.438C175.958 160.438 174.214 162.181 174.214 164.333C174.214 166.486 175.957 168.229 178.109 168.229C180.261 168.229 182.005 166.486 182.005 164.333C182.005 163.486 181.734 162.703 181.275 162.064C185.166 156.071 187.484 148.369 188.01 139.609C188.503 131.37 187.402 122.279 184.912 114.01Z" fill="url(#paint3_linear_1217_40716)"/>
<path d="M117.12 63.2771H100.085C99.5409 61.7811 98.1071 60.7117 96.423 60.7117C94.2722 60.7117 92.5273 62.4551 92.5273 64.6073C92.5273 66.7595 94.2707 68.5029 96.423 68.5029C97.9916 68.5029 99.3424 67.5757 99.9601 66.2396H117.122C128.281 66.2396 138.993 67.589 148.96 70.2493C161.7 73.6502 171.154 77.8316 177.859 83.0352C178.006 83.1492 178.154 83.2618 178.301 83.3759C178.609 83.6114 178.899 83.835 179.185 84.0661C189.367 92.281 194.073 101.168 196.226 107.178C197.884 111.802 198.328 115.48 198.447 117.245C197.319 117.928 196.565 119.165 196.565 120.58C196.565 122.73 198.309 124.475 200.461 124.475C202.613 124.475 204.357 122.732 204.357 120.58C204.357 118.747 203.092 117.211 201.388 116.797C201.236 114.761 200.729 111.013 199.069 106.329C196.797 99.9211 191.826 90.4561 181.045 81.7598C180.731 81.5066 180.411 81.2621 180.103 81.0252C179.959 80.9155 179.817 80.8059 179.674 80.6948C172.65 75.2439 162.853 70.8921 149.723 67.3875C139.507 64.6591 128.537 63.2771 117.12 63.2771Z" fill="url(#paint4_linear_1217_40716)"/>
<path d="M183.67 182.259C190.451 175.312 195.699 167.164 198.848 158.691C199.609 156.643 200.304 154.451 201 151.891C202.896 151.629 204.356 150.003 204.356 148.034C204.356 145.883 202.613 144.138 200.461 144.138C198.309 144.138 196.565 145.882 196.565 148.034C196.565 149.311 197.18 150.445 198.129 151.155C197.461 153.609 196.796 155.705 196.07 157.658C189.971 174.064 175.572 188.803 159.388 195.208C147.757 199.812 134.979 200.419 122.901 200.395C117.269 200.383 111.542 200.345 106.003 200.308C99.3348 200.263 92.4427 200.218 85.6528 200.216C85.0691 198.8 83.6768 197.802 82.0489 197.802C79.8982 197.802 78.1533 199.545 78.1533 201.697C78.1533 203.849 79.8967 205.593 82.0489 205.593C83.6753 205.593 85.0691 204.596 85.6513 203.178C92.4323 203.18 99.3185 203.226 105.983 203.27C111.524 203.307 117.255 203.346 122.894 203.358C135.269 203.39 148.381 202.75 160.477 197.963C168.857 194.648 176.877 189.218 183.67 182.259Z" fill="url(#paint5_linear_1217_40716)"/>
<path d="M208.538 97.9273C205.22 90.5019 201.364 84.3371 197.064 79.5764C197.23 79.1439 197.322 78.6744 197.322 78.1841C197.322 76.0333 195.579 74.2885 193.427 74.2885C191.274 74.2885 189.531 76.0319 189.531 78.1841C189.531 80.3348 191.274 82.0797 193.427 82.0797C193.995 82.0797 194.536 81.9567 195.023 81.7375C199.051 86.2419 202.683 92.0853 205.833 99.136C211.7 112.267 213.922 127.118 212.259 142.084C209.048 170.977 190.86 196.726 166.969 206.246C166.255 205.408 165.191 204.876 164.005 204.876C161.854 204.876 160.109 206.619 160.109 208.772C160.109 210.924 161.853 212.667 164.005 212.667C166.055 212.667 167.735 211.082 167.887 209.071C180.704 204.011 191.982 194.728 200.504 182.219C204.493 176.364 207.787 169.938 210.293 163.12C212.773 156.376 214.424 149.409 215.202 142.41C216.923 126.921 214.618 111.538 208.538 97.9273Z" fill="url(#paint6_linear_1217_40716)"/>
<path d="M109.43 210.548C107.697 210.548 106.231 211.679 105.724 213.243V212.962H71.5049V53.0996C75.3398 53.027 86.569 52.9441 94.4061 52.8878C100.23 52.8448 105.261 52.8078 106.429 52.7841C118.649 52.5367 130.998 53.1425 143.135 54.5867C149.13 55.3007 153.885 56.2783 158.322 57.7195C158.278 57.9536 158.254 58.195 158.254 58.4424C158.254 60.5931 159.998 62.338 162.15 62.338C164.302 62.338 166.045 60.5946 166.045 58.4424C166.045 56.2902 164.302 54.5467 162.15 54.5467C161.372 54.5467 160.648 54.7763 160.041 55.1689C155.181 53.5188 150.041 52.4256 143.486 51.645C132.998 50.3964 122.351 49.7668 111.765 49.7668C109.963 49.7668 108.167 49.7846 106.37 49.8217C105.219 49.8453 100.199 49.8824 94.3854 49.9239C89.0352 49.9624 82.9696 50.0068 78.206 50.0527C75.605 50.0779 73.6764 50.1001 72.3137 50.1223C71.5612 50.1342 70.9821 50.146 70.594 50.1579C70.3792 50.1638 70.2133 50.1697 70.1007 50.1771C68.7099 50.2527 68.5618 51.3488 68.5455 51.568L68.541 51.6732V215.924H105.723V215.643C106.229 217.207 107.696 218.339 109.429 218.339C111.579 218.339 113.324 216.595 113.324 214.443C113.324 212.291 111.582 210.548 109.43 210.548Z" fill="url(#paint7_linear_1217_40716)"/>
<path d="M100.601 154.445C100.601 152.294 98.8576 150.549 96.7054 150.549C94.5532 150.549 92.8098 152.293 92.8098 154.445C92.8098 155.96 93.6763 157.274 94.9398 157.917V185.73C93.5237 186.313 92.5254 187.706 92.5254 189.332C92.5254 191.483 94.2688 193.228 96.421 193.228C98.5732 193.228 100.317 191.484 100.317 189.332C100.317 187.706 99.3198 186.312 97.9022 185.73V158.152C99.4679 157.646 100.601 156.178 100.601 154.445Z" fill="url(#paint8_linear_1217_40716)"/>
<path d="M175.634 142.278C177.318 141.848 178.564 140.321 178.564 138.504C178.564 136.353 176.82 134.608 174.668 134.608C172.517 134.608 170.772 136.352 170.772 138.504C170.772 139.933 171.543 141.182 172.691 141.859C172.172 151.719 167.247 162.506 157.116 166.231C156.41 165.526 155.436 165.089 154.36 165.089C152.21 165.089 150.465 166.832 150.465 168.984C150.465 171.137 152.208 172.88 154.36 172.88C156.513 172.88 158.256 171.137 158.256 168.984C158.256 168.979 158.256 168.973 158.256 168.967C163.323 167.065 167.592 163.458 170.694 158.429C173.557 153.787 175.287 148.105 175.634 142.278Z" fill="url(#paint9_linear_1217_40716)"/>
<path d="M109.431 193.228C111.054 193.228 112.444 192.235 113.03 190.824C114.911 190.843 116.852 190.887 118.877 190.933C126.376 191.104 134.877 191.298 142.778 190.153C150.631 189.014 156.942 186.693 161.968 183.086C162.561 183.45 163.258 183.66 164.003 183.66C166.154 183.66 167.899 181.917 167.899 179.765C167.899 177.613 166.156 175.869 164.003 175.869C161.851 175.869 160.108 177.613 160.108 179.765C160.108 180.085 160.148 180.397 160.22 180.695C149.113 188.66 133.142 188.297 118.943 187.972C116.901 187.926 114.942 187.88 113.038 187.861C112.457 186.439 111.062 185.436 109.431 185.436C107.28 185.436 105.535 187.18 105.535 189.332C105.535 191.484 107.28 193.228 109.431 193.228Z" fill="url(#paint10_linear_1217_40716)"/>
<path d="M149.564 147.372C149.564 149.523 151.307 151.268 153.46 151.268C155.612 151.268 157.355 149.524 157.355 147.372C157.355 145.746 156.358 144.352 154.941 143.77V125.911C156.133 125.245 156.94 123.972 156.94 122.507C156.94 120.356 155.197 118.611 153.045 118.611C150.894 118.611 149.151 120.356 149.151 122.507C149.151 122.95 149.225 123.375 149.361 123.77L132.645 140.486C132.22 140.327 131.76 140.24 131.278 140.24C130.696 140.24 130.145 140.367 129.649 140.597L113.144 124.092C113.262 123.72 113.326 123.324 113.326 122.914C113.326 120.762 111.582 119.018 109.43 119.018C107.28 119.018 105.536 120.762 105.536 122.914C105.536 124.54 106.533 125.934 107.949 126.516V172.267C106.533 172.85 105.536 174.243 105.536 175.869C105.536 178.02 107.28 179.765 109.432 179.765C111.582 179.765 113.327 178.021 113.327 175.869C113.327 174.241 112.329 172.849 110.911 172.265V126.516C111.021 126.472 111.126 126.422 111.23 126.367L127.63 142.768C127.472 143.193 127.383 143.654 127.383 144.134C127.383 146.286 129.128 148.03 131.278 148.03C133.431 148.03 135.174 146.286 135.174 144.134C135.174 143.552 135.045 143.001 134.817 142.505L151.321 125.999C151.53 126.103 151.75 126.188 151.978 126.253V143.77C150.562 144.353 149.564 145.746 149.564 147.372Z" fill="url(#paint11_linear_1217_40716)"/>
<circle cx="134.102" cy="134.102" r="131.047" stroke="url(#paint12_angular_1217_40716)" stroke-width="6.11018"/>
<path d="M259 268.456V245H261.432V268.456H259ZM273.496 268.456L265.528 258.12H268.376L276.472 268.456H273.496ZM260.44 259.592V257.416H266.712C267.864 257.416 268.824 257.192 269.592 256.744C270.36 256.296 270.936 255.688 271.32 254.92C271.704 254.152 271.896 253.277 271.896 252.296C271.896 251.315 271.704 250.44 271.32 249.672C270.936 248.904 270.36 248.296 269.592 247.848C268.824 247.379 267.864 247.144 266.712 247.144H260.44V245H266.296C268.024 245 269.485 245.277 270.68 245.832C271.896 246.365 272.813 247.165 273.432 248.232C274.072 249.277 274.392 250.557 274.392 252.072V252.52C274.392 254.035 274.072 255.325 273.432 256.392C272.792 257.437 271.875 258.237 270.68 258.792C269.485 259.325 268.024 259.592 266.296 259.592H260.44Z" fill="white"/>
<defs>
<linearGradient id="paint0_linear_1217_40716" x1="68.1369" y1="120.352" x2="215.629" y2="115.133" gradientUnits="userSpaceOnUse">
<stop stop-color="#7684FF"/>
<stop offset="1" stop-color="#FF98E2"/>
</linearGradient>
<linearGradient id="paint1_linear_1217_40716" x1="67.316" y1="97.1508" x2="214.808" y2="91.9319" gradientUnits="userSpaceOnUse">
<stop stop-color="#7684FF"/>
<stop offset="1" stop-color="#FF98E2"/>
</linearGradient>
<linearGradient id="paint2_linear_1217_40716" x1="67.5428" y1="103.548" x2="215.035" y2="98.3291" gradientUnits="userSpaceOnUse">
<stop stop-color="#7684FF"/>
<stop offset="1" stop-color="#FF98E2"/>
</linearGradient>
<linearGradient id="paint3_linear_1217_40716" x1="68.4534" y1="129.281" x2="215.945" y2="124.062" gradientUnits="userSpaceOnUse">
<stop stop-color="#7684FF"/>
<stop offset="1" stop-color="#FF98E2"/>
</linearGradient>
<linearGradient id="paint4_linear_1217_40716" x1="67.257" y1="95.4653" x2="214.749" y2="90.2463" gradientUnits="userSpaceOnUse">
<stop stop-color="#7684FF"/>
<stop offset="1" stop-color="#FF98E2"/>
</linearGradient>
<linearGradient id="paint5_linear_1217_40716" x1="70.1554" y1="177.382" x2="217.647" y2="172.163" gradientUnits="userSpaceOnUse">
<stop stop-color="#7684FF"/>
<stop offset="1" stop-color="#FF98E2"/>
</linearGradient>
<linearGradient id="paint6_linear_1217_40716" x1="69.0929" y1="147.356" x2="216.585" y2="142.137" gradientUnits="userSpaceOnUse">
<stop stop-color="#7684FF"/>
<stop offset="1" stop-color="#FF98E2"/>
</linearGradient>
<linearGradient id="paint7_linear_1217_40716" x1="68.6552" y1="135.005" x2="216.147" y2="129.786" gradientUnits="userSpaceOnUse">
<stop stop-color="#7684FF"/>
<stop offset="1" stop-color="#FF98E2"/>
</linearGradient>
<linearGradient id="paint8_linear_1217_40716" x1="69.994" y1="172.828" x2="217.486" y2="167.61" gradientUnits="userSpaceOnUse">
<stop stop-color="#7684FF"/>
<stop offset="1" stop-color="#FF98E2"/>
</linearGradient>
<linearGradient id="paint9_linear_1217_40716" x1="69.4378" y1="157.109" x2="216.93" y2="151.89" gradientUnits="userSpaceOnUse">
<stop stop-color="#7684FF"/>
<stop offset="1" stop-color="#FF98E2"/>
</linearGradient>
<linearGradient id="paint10_linear_1217_40716" x1="70.4918" y1="186.891" x2="217.984" y2="181.672" gradientUnits="userSpaceOnUse">
<stop stop-color="#7684FF"/>
<stop offset="1" stop-color="#FF98E2"/>
</linearGradient>
<linearGradient id="paint11_linear_1217_40716" x1="69.2148" y1="150.814" x2="216.707" y2="145.595" gradientUnits="userSpaceOnUse">
<stop stop-color="#7684FF"/>
<stop offset="1" stop-color="#FF98E2"/>
</linearGradient>
<radialGradient id="paint12_angular_1217_40716" cx="0" cy="0" r="1" gradientUnits="userSpaceOnUse" gradientTransform="translate(134.102 134.102) rotate(90) scale(134.102)">
<stop offset="0.0993526" stop-color="#FFC876"/>
<stop offset="0.427081" stop-color="#79FFF7"/>
<stop offset="0.718753" stop-color="#9F53FF"/>
<stop offset="1" stop-color="#FF98E2"/>
</radialGradient>
</defs>
</svg>
