<svg width="166" height="35" viewBox="0 0 166 35" fill="none" xmlns="http://www.w3.org/2000/svg">
<g clip-path="url(#clip0_7577_35875)">
<path d="M47.1679 2.93757C46.6641 2.69073 46.4472 3.16115 46.1526 3.40013C46.0518 3.47722 45.9666 3.57742 45.8813 3.66991C45.145 4.45623 44.2847 4.97295 43.1608 4.91117C41.5176 4.81859 40.1148 5.33531 38.8746 6.59206C38.6111 5.04234 37.7353 4.11698 36.4021 3.52343C35.7047 3.21497 34.9993 2.90652 34.511 2.2357C34.1699 1.75783 34.0769 1.2258 33.9064 0.701474C33.7978 0.385404 33.6893 0.061464 33.325 0.00747398C32.9298 -0.0541322 32.7747 0.277255 32.6197 0.55499C31.9997 1.68844 31.7594 2.93749 31.7826 4.20194C31.8368 7.04708 33.0382 9.31373 35.4254 10.9252C35.6967 11.1103 35.7664 11.2952 35.6812 11.5652C35.5184 12.1204 35.3246 12.66 35.1542 13.2151C35.0456 13.5699 34.8828 13.647 34.5031 13.4926C33.1932 12.9454 32.0615 12.1357 31.0617 11.1566C29.3643 9.51429 27.8297 7.70241 25.9153 6.28369C25.4658 5.95213 25.0162 5.64385 24.5511 5.35071C22.5979 3.45412 24.8069 1.89653 25.3184 1.71163C25.8532 1.51886 25.5044 0.855659 23.776 0.863529C22.0476 0.871145 20.4664 1.44946 18.4513 2.22047C18.1568 2.33615 17.8467 2.42086 17.5289 2.49025C15.6998 2.14338 13.8008 2.06612 11.8166 2.28986C8.08073 2.70613 5.09681 4.4718 2.90336 7.48653C0.268174 11.1103 -0.351864 15.2274 0.407719 19.5221C1.20606 24.0478 3.5157 27.795 7.06559 30.725C10.7472 33.7627 14.9869 35.2508 19.8233 34.9655C22.7609 34.7959 26.0317 34.4028 29.721 31.2801C30.651 31.7428 31.6277 31.9277 33.2476 32.0665C34.4955 32.1821 35.6969 32.0049 36.6269 31.8122C38.084 31.5037 37.9833 30.1544 37.4563 29.9077C33.1857 27.9185 34.1234 28.7281 33.2709 28.0726C35.4411 25.5052 38.7119 22.8374 39.9908 14.1942C40.0915 13.5081 40.0063 13.0763 39.9908 12.5211C39.983 12.182 40.0605 12.051 40.4481 12.0123C41.5176 11.8889 42.5562 11.596 43.5096 11.0717C46.2766 9.56058 47.3927 7.07788 47.6562 4.10175C47.695 3.64681 47.6485 3.17638 47.1679 2.93757ZM23.0553 29.7225C18.9165 26.469 16.9091 25.3972 16.0797 25.4435C15.3046 25.4897 15.4442 26.3764 15.6146 26.9548C15.7929 27.5252 16.0255 27.9185 16.3509 28.4196C16.5757 28.7512 16.7308 29.2445 16.1263 29.6147C14.7931 30.4397 12.4756 29.3371 12.367 29.2832C9.66988 27.6948 7.4144 25.5976 5.82542 22.7296C4.29077 19.9691 3.39951 17.0086 3.25218 13.8474C3.21342 13.0841 3.43818 12.8141 4.19777 12.6755C5.1976 12.4904 6.22849 12.4517 7.22832 12.5982C11.4526 13.2151 15.0488 15.1041 18.0638 18.0957C19.7845 19.7996 21.0866 21.8352 22.4275 23.8243C23.8536 25.9368 25.3883 27.9493 27.3415 29.5992C28.0312 30.1775 28.5815 30.6169 29.1086 30.9409C27.5198 31.1182 24.869 31.1568 23.0553 29.7225ZM25.0395 16.9623C25.0395 16.623 25.3108 16.3532 25.6519 16.3532C25.7295 16.3532 25.7992 16.3685 25.8612 16.3916C25.9465 16.4226 26.024 16.4688 26.086 16.5381C26.1946 16.6461 26.2565 16.8002 26.2565 16.9622C26.2565 17.3015 25.9853 17.5712 25.6443 17.5712C25.3034 17.5712 25.0395 17.3015 25.0395 16.9623ZM31.2014 20.1235C30.8061 20.2855 30.4109 20.4241 30.0311 20.4396C29.442 20.4704 28.7987 20.2313 28.4499 19.9383C27.9074 19.4834 27.5198 19.2291 27.3571 18.4349C27.2873 18.0957 27.3261 17.5713 27.3882 17.2707C27.5276 16.623 27.3726 16.2068 26.9154 15.8288C26.5433 15.5204 26.0705 15.4357 25.5512 15.4357C25.3574 15.4357 25.1792 15.3508 25.0474 15.2814C24.8303 15.1735 24.6522 14.9036 24.8226 14.5721C24.8769 14.4643 25.1405 14.202 25.2025 14.1558C25.9078 13.7548 26.7217 13.886 27.4735 14.1866C28.1711 14.4719 28.6982 14.9962 29.4576 15.7363C30.2327 16.6306 30.3722 16.8776 30.814 17.5482C31.1629 18.0725 31.4807 18.6122 31.6976 19.2291C31.8294 19.6147 31.6587 19.9307 31.2014 20.1235Z" fill="#747474"/>
<path d="M101.197 12.5476C100.101 12.5476 98.9955 12.7882 98.2779 13.4657C98.2155 13.5237 98.1575 13.5861 98.0996 13.6485H97.5736V12.5476H94.6897V29.8777H97.5736V19.1088C97.5736 17.9989 97.8143 16.8846 98.4829 16.158C99.1515 15.427 100.177 15.1685 101.197 15.1685C102.214 15.1685 103.243 15.427 103.912 16.158C104.58 16.8846 104.821 17.9989 104.821 19.1088C104.821 20.2142 104.58 21.3285 103.912 22.055C103.243 22.786 102.214 23.0445 101.197 23.0445H99.5571V25.6654H101.197C102.896 25.6654 104.603 25.2331 105.717 24.0207C106.831 22.8083 107.228 20.9541 107.228 19.1087C107.228 17.2633 106.831 15.4046 105.717 14.1923C104.603 12.9799 102.896 12.5476 101.197 12.5476ZM60.9121 19.5634C60.9121 20.6732 60.6715 21.7875 60.0029 22.5141C59.3342 23.2407 58.3091 23.5036 57.2884 23.5036C56.2676 23.5036 55.2424 23.2406 54.5739 22.5141C53.9053 21.7875 53.6646 20.6732 53.6646 19.5634C53.6646 18.4579 53.9053 17.3392 54.5739 16.6126C55.2425 15.886 56.2676 15.6275 57.2884 15.6275H58.9286V13.0066H57.2884C55.5901 13.0066 53.8829 13.439 52.7686 14.6514C51.6543 15.8638 51.2576 17.718 51.2576 19.5634C51.2576 21.4088 51.6543 23.2674 52.7686 24.4798C53.8829 25.6922 55.5901 26.1245 57.2884 26.1245C58.3848 26.1245 59.4858 25.8794 60.2079 25.2063C60.2703 25.1484 60.3282 25.086 60.3817 25.0236H60.9121V26.1245H63.796V8.79008H60.9121V19.5634ZM72.0019 12.5476C70.2368 12.5476 68.4628 12.9977 67.3039 14.2503C66.1494 15.5028 65.7348 17.4239 65.7348 19.3361C65.7348 21.2438 66.1494 23.1694 67.3039 24.4219C68.4628 25.6744 70.2368 26.1246 72.0019 26.1246C73.7671 26.1246 75.5411 25.6744 76.7 24.4219C77.2928 23.7756 77.694 22.9554 77.9436 22.0462H75.0909C75.0107 22.1665 74.9215 22.2824 74.8235 22.3894C74.1282 23.1427 73.0628 23.4101 72.0021 23.4101C70.9457 23.4101 69.8804 23.1427 69.185 22.3894C68.4897 21.6361 68.24 20.4816 68.24 19.3362C68.24 18.1907 68.4897 17.0362 69.185 16.2829C69.8804 15.5296 70.9457 15.2622 72.0021 15.2622C73.0629 15.2622 74.1283 15.5296 74.8235 16.2829C75.305 16.8045 75.5724 17.5132 75.6927 18.2843H70.5935V20.3881H78.2735V19.3362C78.2735 17.424 77.8589 15.5029 76.7001 14.2504C75.5456 12.9978 73.7671 12.5476 72.0019 12.5476ZM86.4793 12.5476C84.7186 12.5476 82.9401 12.9977 81.7857 14.2503C80.6268 15.5028 80.2123 17.4239 80.2123 19.3361C80.2123 21.2438 80.6269 23.1694 81.7857 24.4219C82.9401 25.6744 84.7186 26.1246 86.4793 26.1246C88.2444 26.1246 90.0184 25.6744 91.1773 24.4219C91.7746 23.7756 92.1713 22.9554 92.421 22.0462H89.5683C89.4881 22.1665 89.3989 22.2824 89.3009 22.3894C88.6055 23.1427 87.5402 23.4101 86.4838 23.4101C85.423 23.4101 84.3577 23.1427 83.6623 22.3894C82.967 21.6361 82.7174 20.4816 82.7174 19.3362C82.7174 18.1907 82.9671 17.0362 83.6623 16.2829C84.3577 15.5296 85.423 15.2622 86.4838 15.2622C87.5402 15.2622 88.6055 15.5296 89.3009 16.2829C89.7823 16.8045 90.0497 17.5132 90.1701 18.2843H85.0709V20.3881H92.7508V19.3362C92.7508 17.424 92.3364 15.5029 91.1774 14.2504C90.023 12.9978 88.2445 12.5476 86.4793 12.5476ZM120.132 19.1132C118.978 18.3732 117.199 18.1103 115.439 18.1103H115.501C114.748 18.1103 113.99 18.0078 113.495 17.7181C113 17.4328 112.827 16.9915 112.827 16.5547C112.827 16.118 113 15.6767 113.495 15.3914C113.99 15.1017 114.748 14.9992 115.501 14.9992C116.254 14.9992 117.012 15.1062 117.502 15.3914C117.997 15.6767 118.175 16.118 118.175 16.5547H121.113C121.113 15.427 120.734 14.2949 119.686 13.555C118.639 12.815 117.034 12.5476 115.439 12.5476C113.843 12.5476 112.238 12.815 111.191 13.555C110.143 14.2949 109.769 15.427 109.769 16.5547C109.769 17.6824 110.143 18.819 111.191 19.5545C112.238 20.2944 113.843 20.5619 115.439 20.5619C116.268 20.5619 117.177 20.6643 117.721 20.9496C118.269 21.2394 118.465 21.6806 118.465 22.1174C118.465 22.5542 118.269 22.9955 117.721 23.2807C117.177 23.566 116.339 23.6685 115.505 23.6685C114.676 23.6685 113.838 23.566 113.29 23.2807C112.746 22.991 112.55 22.5542 112.55 22.1174H109.167C109.167 23.2406 109.582 24.3773 110.741 25.1172C111.899 25.8571 113.673 26.12 115.439 26.12C117.199 26.12 118.978 25.857 120.132 25.1172C121.291 24.3772 121.706 23.2406 121.706 22.1174C121.706 20.9897 121.291 19.8531 120.132 19.1132ZM129.916 12.5476C128.151 12.5476 126.377 12.9977 125.218 14.2503C124.063 15.5028 123.644 17.4239 123.644 19.3361C123.644 21.2438 124.063 23.1694 125.218 24.4219C126.377 25.6744 128.151 26.1246 129.916 26.1246C131.681 26.1246 133.455 25.6744 134.614 24.4219C135.207 23.7756 135.608 22.9554 135.853 22.0462H133.005C132.925 22.1665 132.835 22.2824 132.737 22.3894C132.042 23.1427 130.977 23.4101 129.916 23.4101C128.859 23.4101 127.79 23.1427 127.099 22.3894C126.403 21.6361 126.154 20.4816 126.154 19.3362C126.154 18.1907 126.404 17.0362 127.099 16.2829C127.79 15.5296 128.859 15.2622 129.916 15.2622C130.977 15.2622 132.042 15.5296 132.737 16.2829C133.219 16.8045 133.486 17.5132 133.607 18.2843H128.503V20.3881H136.187V19.3362C136.187 17.424 135.773 15.5029 134.614 14.2504C133.455 12.9978 131.681 12.5476 129.916 12.5476ZM144.393 12.5476C142.628 12.5476 140.854 12.9977 139.695 14.2503C138.541 15.5028 138.122 17.4239 138.122 19.3361C138.122 21.2438 138.541 23.1694 139.695 24.4219C140.854 25.6744 142.628 26.1246 144.393 26.1246C146.158 26.1246 147.932 25.6744 149.091 24.4219C149.684 23.7756 150.085 22.9554 150.335 22.0462H147.482C147.402 22.1665 147.313 22.2824 147.215 22.3894C146.52 23.1427 145.454 23.4101 144.393 23.4101C143.337 23.4101 142.267 23.1427 141.576 22.3894C140.881 21.6361 140.631 20.4816 140.631 19.3362C140.631 18.1907 140.881 17.0362 141.576 16.2829C142.267 15.5296 143.337 15.2622 144.393 15.2622C145.454 15.2622 146.52 15.5296 147.215 16.2829C147.696 16.8045 147.964 17.5132 148.084 18.2843H142.985V20.3881H150.665V19.3362C150.665 17.424 150.25 15.5029 149.091 14.2504C147.933 12.9978 146.158 12.5476 144.393 12.5476ZM152.599 8.18384H155.483V26.1246H152.599V8.18384ZM161.567 13.1493L156.834 18.9305L161.567 26.1246H165.142L160.408 18.9305L165.142 13.1493H161.567Z" fill="#747474"/>
</g>
<defs>
<clipPath id="clip0_7577_35875">
<rect width="165.036" height="35" fill="white" transform="translate(0.106445)"/>
</clipPath>
</defs>
</svg>
