<svg width="93" height="35" viewBox="0 0 93 35" fill="none" xmlns="http://www.w3.org/2000/svg">
<path d="M49.7268 16.4659H45.2623C45.1471 16.4659 45.0537 16.5594 45.0537 16.6746V18.8573C45.0537 18.9725 45.1471 19.0662 45.2623 19.0662H47.0039V21.7781C47.0039 21.7781 46.6128 21.9114 45.5317 21.9114C44.2562 21.9114 42.4744 21.4454 42.4744 17.5271C42.4744 13.6082 44.3297 13.0925 46.0717 13.0925C47.5795 13.0925 48.2291 13.3579 48.6425 13.4859C48.7723 13.5257 48.8924 13.3963 48.8924 13.2811L49.3905 11.1721C49.3905 11.1182 49.3722 11.0532 49.3108 11.0092C49.1429 10.8894 48.1188 10.3164 45.5317 10.3164C42.5513 10.3164 39.4941 11.5844 39.4941 17.6799C39.4941 23.7757 42.9943 24.684 45.9439 24.684C48.3861 24.684 49.8677 23.6404 49.8677 23.6404C49.9287 23.6067 49.9353 23.5213 49.9353 23.4822V16.6746C49.9353 16.5594 49.842 16.4659 49.7268 16.4659Z" fill="#747474"/>
<path d="M72.7354 11.0465C72.7354 10.9304 72.6434 10.8367 72.5282 10.8367H70.0145C69.8996 10.8367 69.8063 10.9304 69.8063 11.0465C69.8063 11.0471 69.8069 15.9044 69.8069 15.9044H65.8886V11.0465C65.8886 10.9304 65.7962 10.8367 65.6812 10.8367H63.1676C63.0532 10.8367 62.96 10.9304 62.96 11.0465V24.2004C62.96 24.3164 63.0532 24.4109 63.1676 24.4109H65.6812C65.7962 24.4109 65.8886 24.3164 65.8886 24.2004V18.574H69.8069C69.8069 18.574 69.8001 24.2 69.8001 24.2004C69.8001 24.3164 69.8934 24.4109 70.0083 24.4109H72.528C72.6432 24.4109 72.7352 24.3164 72.7354 24.2004V11.0465Z" fill="#747474"/>
<path d="M54.4709 12.7722C54.4709 11.8671 53.7452 11.1356 52.8499 11.1356C51.9554 11.1356 51.2292 11.8671 51.2292 12.7722C51.2292 13.6764 51.9554 14.4099 52.8499 14.4099C53.7452 14.4099 54.4709 13.6764 54.4709 12.7722Z" fill="#747474"/>
<path d="M54.292 21.4253V15.3535C54.292 15.2382 54.1989 15.1439 54.084 15.1439H51.5782C51.4632 15.1439 51.3604 15.2625 51.3604 15.3778V24.0769C51.3604 24.3325 51.5197 24.4086 51.7258 24.4086H53.9835C54.2312 24.4086 54.292 24.2869 54.292 24.0728V21.4253Z" fill="#747474"/>
<path d="M82.2876 15.1642H79.7931C79.6787 15.1642 79.5856 15.2585 79.5856 15.3745V21.8243C79.5856 21.8243 78.9519 22.2879 78.0524 22.2879C77.153 22.2879 76.9142 21.8798 76.9142 20.9991V15.3745C76.9142 15.2585 76.8213 15.1642 76.7068 15.1642H74.1751C74.0608 15.1642 73.9673 15.2585 73.9673 15.3745V21.425C73.9673 24.0409 75.4252 24.6809 77.4309 24.6809C79.0762 24.6809 80.4029 23.7719 80.4029 23.7719C80.4029 23.7719 80.4661 24.2509 80.4946 24.3077C80.5232 24.3644 80.5977 24.4216 80.6781 24.4216L82.2887 24.4145C82.403 24.4145 82.4966 24.3201 82.4966 24.2045L82.4958 15.3745C82.4958 15.2585 82.4026 15.1642 82.2876 15.1642Z" fill="#747474"/>
<path d="M89.106 14.8686C87.6892 14.8686 86.7256 15.5007 86.7256 15.5007V11.0465C86.7256 10.9304 86.6328 10.8367 86.5182 10.8367H83.9973C83.8827 10.8367 83.7896 10.9304 83.7896 11.0465V24.2004C83.7896 24.3164 83.8827 24.4109 83.9976 24.4109H85.7466C85.8253 24.4109 85.885 24.3702 85.9291 24.2992C85.9725 24.2285 86.0353 23.6927 86.0353 23.6927C86.0353 23.6927 87.066 24.6695 89.0174 24.6695C91.3083 24.6695 92.6221 23.5075 92.6221 19.453C92.6221 15.3984 90.5238 14.8686 89.106 14.8686ZM88.1221 22.2798C87.2569 22.2534 86.6701 21.8608 86.6701 21.8608V17.6953C86.6701 17.6953 87.249 17.3404 87.9593 17.277C88.8576 17.1965 89.7232 17.4679 89.7232 19.6107C89.7232 21.8703 89.3326 22.3163 88.1221 22.2798Z" fill="#747474"/>
<path d="M61.5157 15.1431H59.6301C59.6301 15.1431 59.6272 12.6526 59.6272 12.652C59.6272 12.5577 59.5786 12.5106 59.4696 12.5106H56.9C56.8001 12.5106 56.7465 12.5546 56.7465 12.6506V15.2248C56.7465 15.2248 55.4588 15.5357 55.3717 15.5608C55.285 15.586 55.2212 15.6659 55.2212 15.7613V17.379C55.2212 17.4953 55.3141 17.5891 55.429 17.5891H56.7465V21.4808C56.7465 24.3714 58.7741 24.6553 60.1422 24.6553C60.7674 24.6553 61.5152 24.4546 61.6387 24.409C61.7134 24.3816 61.7568 24.3042 61.7568 24.2204L61.7589 22.4408C61.7589 22.3248 61.6609 22.2308 61.5505 22.2308C61.4406 22.2308 61.1595 22.2755 60.8701 22.2755C59.9439 22.2755 59.6301 21.8449 59.6301 21.2875C59.6301 20.7304 59.6299 17.5891 59.6299 17.5891H61.5157C61.6306 17.5891 61.7238 17.4953 61.7238 17.379V15.3527C61.7238 15.2366 61.6306 15.1431 61.5157 15.1431Z" fill="#747474"/>
<path d="M36.0767 17.9769C36.0767 8.04851 28.0282 0 18.0999 0C8.17155 0 0.123047 8.04851 0.123047 17.9769C0.123047 25.8572 5.19389 32.5524 12.2503 34.9796C12.6805 34.6692 13.1759 34.2862 13.1759 33.6411C13.1759 32.6523 13.1545 30.1089 13.1545 30.1089C13.1545 30.1089 12.3741 30.2418 11.2606 30.2418C8.45458 30.2418 7.56735 28.4611 7.14507 27.4644C6.59545 26.1665 5.88281 25.557 5.12562 25.0697C4.66059 24.7703 4.55373 24.4177 5.09177 24.3167C7.57534 23.8516 8.21048 27.118 9.86917 27.6389C11.0531 28.0102 12.5754 27.8498 13.3326 27.3625C13.4324 26.365 14.1558 25.5021 14.7579 25.0476C10.5391 24.6445 8.03766 23.1872 6.74064 20.8448L6.60167 20.5826L6.27567 19.8384L6.17945 19.5717C5.77323 18.3828 5.59329 17.0211 5.59329 15.5C5.59329 12.7997 6.43956 11.7809 7.57534 10.3413C6.7068 7.26269 7.88712 5.15863 7.88712 5.15863C7.88712 5.15863 9.71329 4.78211 13.1652 7.24055C15.0359 6.44322 20.0244 6.37677 22.385 7.06336C23.8326 6.11099 26.4828 4.75996 27.5517 5.13825C27.8412 5.60159 28.4648 6.95262 27.9303 9.92046C28.2929 10.5716 30.1796 11.9581 30.1868 15.8783C30.1565 17.3241 30.005 18.5449 29.7244 19.577L29.5685 20.105C29.5685 20.105 29.4795 20.354 29.3823 20.5914L29.2683 20.8537C28.0168 23.5876 25.4494 24.6082 21.3009 25.0325C22.6452 25.8742 23.0309 26.9302 23.0309 29.7873C23.0309 32.6444 22.9926 33.028 23.0015 33.6853C23.0092 34.2662 23.4738 34.6838 23.8916 35C30.9783 32.5896 36.0767 25.8788 36.0767 17.9769Z" fill="#747474"/>
</svg>
