<svg width="107" height="35" viewBox="0 0 107 35" fill="none" xmlns="http://www.w3.org/2000/svg">
<path d="M45.601 18.4188C45.601 23.4543 41.6618 27.1648 36.8274 27.1648C31.993 27.1648 28.0537 23.4543 28.0537 18.4188C28.0537 13.3478 31.993 9.67273 36.8274 9.67273C41.6618 9.67273 45.601 13.3478 45.601 18.4188ZM41.7603 18.4188C41.7603 15.2721 39.4772 13.1191 36.8274 13.1191C34.1775 13.1191 31.8944 15.2721 31.8944 18.4188C31.8944 21.5339 34.1775 23.7185 36.8274 23.7185C39.4772 23.7185 41.7603 21.53 41.7603 18.4188Z" fill="#747474"/>
<path d="M64.5283 18.4188C64.5283 23.4543 60.589 27.1648 55.7546 27.1648C50.9202 27.1648 46.981 23.4543 46.981 18.4188C46.981 13.3518 50.9202 9.67273 55.7546 9.67273C60.589 9.67273 64.5283 13.3478 64.5283 18.4188ZM60.6876 18.4188C60.6876 15.2721 58.4045 13.1191 55.7546 13.1191C53.1048 13.1191 50.8217 15.2721 50.8217 18.4188C50.8217 21.5339 53.1048 23.7185 55.7546 23.7185C58.4045 23.7185 60.6876 21.53 60.6876 18.4188Z" fill="#747474"/>
<path d="M82.6672 10.2011V25.903C82.6672 32.362 78.858 35 74.3549 35C70.1159 35 67.5647 32.1648 66.6025 29.8462L69.9464 28.4543C70.5418 29.8778 72.0008 31.5576 74.351 31.5576C77.2334 31.5576 79.0197 29.7792 79.0197 26.4314V25.1735H78.8857C78.026 26.2342 76.3699 27.1609 74.28 27.1609C69.9069 27.1609 65.9006 23.3518 65.9006 18.4503C65.9006 13.5134 69.9069 9.67273 74.28 9.67273C76.3659 9.67273 78.0221 10.5994 78.8857 11.6286H79.0197V10.2051H82.6672V10.2011ZM79.2918 18.4503C79.2918 15.3707 77.2374 13.1191 74.623 13.1191C71.9732 13.1191 69.7532 15.3707 69.7532 18.4503C69.7532 21.4984 71.9732 23.7185 74.623 23.7185C77.2374 23.7185 79.2918 21.4984 79.2918 18.4503Z" fill="#747474"/>
<path d="M88.6806 0.997559V26.6285H84.9346V0.997559H88.6806Z" fill="#747474"/>
<path d="M103.279 21.2972L106.26 23.2846C105.298 24.7081 102.979 27.1608 98.9727 27.1608C94.0043 27.1608 90.2937 23.3201 90.2937 18.4148C90.2937 13.2137 94.0358 9.6687 98.5429 9.6687C103.082 9.6687 105.302 13.2807 106.027 15.2326L106.425 16.2263L94.7338 21.0685C95.6289 22.8233 97.0208 23.7184 98.9727 23.7184C100.929 23.7184 102.285 22.7562 103.279 21.2972ZM94.1029 18.1506L101.918 14.9053C101.488 13.813 100.195 13.052 98.673 13.052C96.7211 13.052 94.0043 14.7752 94.1029 18.1506Z" fill="#747474"/>
<path d="M13.8742 16.1435V12.433H26.3782C26.5004 13.0797 26.5635 13.8446 26.5635 14.6727C26.5635 17.4566 25.8025 20.8991 23.3498 23.3517C20.9641 25.836 17.916 27.1609 13.8782 27.1609C6.39396 27.1609 0.100586 21.0647 0.100586 13.5804C0.100586 6.09621 6.39396 0 13.8782 0C18.0186 0 20.9681 1.62461 23.1842 3.74211L20.5659 6.36041C18.9768 4.86987 16.8238 3.71057 13.8742 3.71057C8.40895 3.71057 4.1345 8.11514 4.1345 13.5804C4.1345 19.0457 8.40895 23.4503 13.8742 23.4503C17.4192 23.4503 19.4381 22.0268 20.7315 20.7334C21.7804 19.6845 22.4705 18.1861 22.7425 16.1396L13.8742 16.1435Z" fill="#747474"/>
</svg>
