<svg width="103" height="35" viewBox="0 0 103 35" fill="none" xmlns="http://www.w3.org/2000/svg">
<g clip-path="url(#clip0_7577_35893)">
<path d="M60.2061 9.51253C60.2061 12.1047 58.1782 14.0148 55.6896 14.0148C53.2009 14.0148 51.1731 12.1047 51.1731 9.51253C51.1731 6.9021 53.2009 5.01025 55.6896 5.01025C58.1782 5.01025 60.2061 6.9021 60.2061 9.51253ZM58.229 9.51253C58.229 7.89269 57.0537 6.78437 55.6896 6.78437C54.3255 6.78437 53.1502 7.89269 53.1502 9.51253C53.1502 11.1161 54.3255 12.2407 55.6896 12.2407C57.0537 12.2407 58.229 11.1141 58.229 9.51253Z" fill="#747474"/>
<path d="M69.95 9.51253C69.95 12.1047 67.9221 14.0148 65.4335 14.0148C62.9448 14.0148 60.917 12.1047 60.917 9.51253C60.917 6.90413 62.9448 5.01025 65.4335 5.01025C67.9221 5.01025 69.95 6.9021 69.95 9.51253ZM67.9729 9.51253C67.9729 7.89269 66.7976 6.78437 65.4335 6.78437C64.0694 6.78437 62.8941 7.89269 62.8941 9.51253C62.8941 11.1161 64.0694 12.2407 65.4335 12.2407C66.7976 12.2407 67.9729 11.1141 67.9729 9.51253Z" fill="#747474"/>
<path d="M79.2866 5.28226V13.3652C79.2866 16.6902 77.3257 18.0482 75.0076 18.0482C72.8255 18.0482 71.5121 16.5887 71.0168 15.3951L72.7382 14.6786C73.0447 15.4114 73.7957 16.2761 75.0056 16.2761C76.4894 16.2761 77.4089 15.3606 77.4089 13.6372V12.9897H77.3399C76.8974 13.5358 76.0449 14.0128 74.969 14.0128C72.7179 14.0128 70.6555 12.0519 70.6555 9.52877C70.6555 6.98736 72.7179 5.01025 74.969 5.01025C76.0428 5.01025 76.8954 5.48728 77.3399 6.01707H77.4089V5.28429H79.2866V5.28226ZM77.549 9.52877C77.549 7.94343 76.4914 6.78437 75.1456 6.78437C73.7815 6.78437 72.6387 7.94343 72.6387 9.52877C72.6387 11.0979 73.7815 12.2407 75.1456 12.2407C76.4914 12.2407 77.549 11.0979 77.549 9.52877Z" fill="#747474"/>
<path d="M82.382 0.544556V13.7388H80.4536V0.544556H82.382Z" fill="#747474"/>
<path d="M89.8966 10.9943L91.4311 12.0174C90.9359 12.7501 89.7423 14.0127 87.6799 14.0127C85.1223 14.0127 83.2122 12.0356 83.2122 9.51045C83.2122 6.83304 85.1385 5.00818 87.4587 5.00818C89.7951 5.00818 90.9379 6.86755 91.3114 7.87234L91.5164 8.38387L85.4978 10.8766C85.9586 11.7799 86.6751 12.2406 87.6799 12.2406C88.6867 12.2406 89.385 11.7454 89.8966 10.9943ZM85.173 9.37445L89.1963 7.70386C88.975 7.14158 88.3092 6.74982 87.5257 6.74982C86.5209 6.74982 85.1223 7.63687 85.173 9.37445Z" fill="#747474"/>
<path d="M43.8738 8.34134V6.43122H50.3106C50.3735 6.76412 50.406 7.15792 50.406 7.58419C50.406 9.01729 50.0142 10.7894 48.7516 12.052C47.5235 13.3308 45.9544 14.0128 43.8759 14.0128C40.0231 14.0128 36.7834 10.8746 36.7834 7.02192C36.7834 3.1692 40.0231 0.0310059 43.8759 0.0310059C46.0072 0.0310059 47.5256 0.867317 48.6664 1.95736L47.3185 3.3052C46.5005 2.53791 45.3922 1.94112 43.8738 1.94112C41.0604 1.94112 38.86 4.2085 38.86 7.02192C38.86 9.83533 41.0604 12.1027 43.8738 12.1027C45.6987 12.1027 46.738 11.3699 47.4038 10.7041C47.9437 10.1642 48.299 9.39282 48.439 8.33931L43.8738 8.34134Z" fill="#747474"/>
<path d="M42.0659 21.1085L40.0836 26.5915H44.128L42.1298 21.1085H42.0659ZM38.3732 31.3393H36.6467L41.2186 19.1902H42.993L47.5649 31.3393H45.8385L44.6715 28.0462H39.5561L38.3732 31.3393Z" fill="#747474"/>
<path d="M48.3518 23.0266H49.8545V24.1776H49.9184C50.1502 23.774 50.5139 23.4383 51.0054 23.1705C51.505 22.8948 52.0165 22.7549 52.54 22.7549C53.5631 22.7549 54.3464 23.0506 54.8899 23.6341C55.4414 24.2096 55.7212 25.0368 55.7212 26.1119V31.3392H54.1546V26.2238C54.1226 24.861 53.4392 24.1776 52.1084 24.1776C51.489 24.1776 50.9655 24.4334 50.5418 24.9449C50.1262 25.4485 49.9184 26.0439 49.9184 26.7353V31.3392H48.3518V23.0266Z" fill="#747474"/>
<path d="M58.6119 28.7974C58.6119 29.2051 58.7797 29.5448 59.1234 29.8205C59.4631 30.0883 59.8667 30.2202 60.3383 30.2202C60.9857 30.2202 61.5692 29.9804 62.0807 29.5008C62.6003 29.0133 62.864 28.4378 62.864 27.7744C62.3725 27.3907 61.6891 27.1989 60.8179 27.1989C60.1864 27.1989 59.6589 27.3547 59.2353 27.6625C58.8197 27.9622 58.6119 28.3419 58.6119 28.7974ZM60.626 22.7549C61.777 22.7549 62.6802 23.0666 63.3436 23.682C64.015 24.3015 64.3507 25.1487 64.3507 26.2238V31.3392H62.864V30.1882H62.8001C62.1487 31.1393 61.2855 31.6109 60.2104 31.6109C59.2913 31.6109 58.5239 31.3392 57.9085 30.7956C57.301 30.2521 56.9973 29.5767 56.9973 28.7655C56.9973 27.9023 57.321 27.2229 57.9724 26.7193C58.6199 26.2078 59.4911 25.952 60.5781 25.952C61.5053 25.952 62.2646 26.1199 62.864 26.4476V26.0959C62.864 25.5524 62.6442 25.0968 62.2086 24.7211C61.781 24.3375 61.2815 24.1456 60.706 24.1456C59.8308 24.1456 59.1434 24.5133 58.6438 25.2486L57.2691 24.3854C58.0244 23.2984 59.1434 22.7549 60.626 22.7549Z" fill="#747474"/>
<path d="M67.6205 19.1902V31.3393H66.054V19.1902H67.6205Z" fill="#747474"/>
<path d="M76.8284 23.0266L71.6171 34.9998H70.0185L71.9528 30.8116L68.5159 23.0266H70.2103L72.6881 29.0052H72.7201L75.1339 23.0266H76.8284Z" fill="#747474"/>
<path d="M81.12 31.4671C80.4486 31.4671 79.8891 31.2593 79.4415 30.8437C78.9939 30.428 78.7621 29.8486 78.7541 29.1012V24.4494H77.2834V23.0267H78.7541V20.485H80.3047V23.0267H82.3509V24.4494H80.3047V28.5897C80.3047 29.1452 80.4086 29.5249 80.6244 29.7247C80.8482 29.9165 81.092 30.0124 81.3598 30.0124C81.4877 30.0124 81.6076 30.0044 81.7274 29.9804C81.8433 29.9485 81.9552 29.9125 82.0631 29.8685L82.5427 31.2593C82.1351 31.3952 81.6635 31.4671 81.12 31.4671Z" fill="#747474"/>
<path d="M85.7685 20.1653C85.7685 20.465 85.6566 20.7248 85.4328 20.9486C85.217 21.1644 84.9612 21.2683 84.6655 21.2683C84.3538 21.2683 84.094 21.1644 83.8822 20.9486C83.6664 20.7248 83.5625 20.465 83.5625 20.1653C83.5625 19.8575 83.6664 19.5978 83.8822 19.382C84.094 19.1702 84.3538 19.0623 84.6655 19.0623C84.9612 19.0623 85.217 19.1702 85.4328 19.382C85.6566 19.5978 85.7685 19.8575 85.7685 20.1653ZM85.4488 23.0267V31.3392H83.8822V23.0267H85.4488Z" fill="#747474"/>
<path d="M90.7101 31.6109C89.4712 31.6109 88.4481 31.1913 87.6408 30.3481C86.8415 29.4968 86.4419 28.4418 86.4419 27.1829C86.4419 25.904 86.8415 24.849 87.6408 24.0177C88.4481 23.1785 89.4712 22.7549 90.7101 22.7549C91.5613 22.7549 92.3006 22.9707 92.9321 23.3943C93.5595 23.8219 94.0351 24.4094 94.3548 25.1527L92.9321 25.7442C92.4925 24.7011 91.7211 24.1776 90.6141 24.1776C89.8988 24.1776 89.2793 24.4653 88.7598 25.0408C88.2483 25.6163 87.9925 26.3317 87.9925 27.1829C87.9925 28.0381 88.2483 28.7495 88.7598 29.325C89.2793 29.9005 89.8988 30.1882 90.6141 30.1882C91.7531 30.1882 92.5524 29.6687 93.012 28.6216L94.4027 29.2131C94.103 29.9604 93.6274 30.5479 92.98 30.9715C92.3286 31.3951 91.5733 31.6109 90.7101 31.6109Z" fill="#747474"/>
<path d="M102.124 29.0372C102.124 29.7646 101.804 30.376 101.164 30.8756C100.533 31.3631 99.7417 31.6109 98.7826 31.6109C97.9513 31.6109 97.216 31.3911 96.5766 30.9555C95.9451 30.5199 95.4935 29.9444 95.2178 29.2291L96.6085 28.6376C96.8203 29.1411 97.1201 29.5288 97.5037 29.8045C97.8954 30.0843 98.323 30.2202 98.7826 30.2202C99.2821 30.2202 99.6977 30.1163 100.029 29.9005C100.369 29.6886 100.541 29.4329 100.541 29.1331C100.541 28.6016 100.129 28.214 99.3101 27.9662L97.8874 27.6145C96.2648 27.1989 95.4576 26.4156 95.4576 25.2646C95.4576 24.5093 95.7653 23.9019 96.3847 23.4423C97.0002 22.9867 97.7915 22.7549 98.7506 22.7549C99.4859 22.7549 100.149 22.9307 100.749 23.2824C101.344 23.6341 101.76 24.1057 101.996 24.6891L100.605 25.2646C100.445 24.9129 100.181 24.6412 99.8216 24.4494C99.4699 24.2495 99.0743 24.1456 98.6387 24.1456C98.2311 24.1456 97.8634 24.2495 97.5357 24.4494C97.216 24.6532 97.0561 24.9049 97.0561 25.2007C97.0561 25.6723 97.5037 26.012 98.3989 26.2238L99.6458 26.5435C101.296 26.9511 102.124 27.7824 102.124 29.0372Z" fill="#747474"/>
<path d="M21.8823 4.09645V29.8456C21.8823 32.7289 23.8696 34.3322 25.9788 34.3322C27.9295 34.3322 30.0752 32.9667 30.0752 29.8456V4.29151C30.0752 1.65199 28.1245 0 25.9788 0C23.833 0 21.8823 1.82267 21.8823 4.09645Z" fill="#747474"/>
<path d="M11.1541 17.166V29.8455C11.1541 32.7289 13.1413 34.3321 15.2505 34.3321C17.2012 34.3321 19.347 32.9666 19.347 29.8455V17.3611C19.347 14.7216 17.3963 13.0696 15.2505 13.0696C13.1047 13.0696 11.1541 14.8923 11.1541 17.166Z" fill="#747474"/>
<path d="M8.61746 30.2357C8.61746 32.4973 6.7826 34.3322 4.52101 34.3322C2.25943 34.3322 0.424561 32.4973 0.424561 30.2357C0.424561 27.9741 2.25943 26.1393 4.52101 26.1393C6.7826 26.1393 8.61746 27.9741 8.61746 30.2357Z" fill="#747474"/>
</g>
<defs>
<clipPath id="clip0_7577_35893">
<rect width="101.698" height="35" fill="white" transform="translate(0.425049)"/>
</clipPath>
</defs>
</svg>
