<svg width="146" height="31" viewBox="0 0 146 31" fill="none" xmlns="http://www.w3.org/2000/svg">
<g clip-path="url(#clip0_7577_35881)">
<path d="M5.39341 20.1514C5.39341 21.8281 5.76143 23.1154 6.24245 23.8942C6.87312 24.9142 7.81378 25.3464 8.77277 25.3464C10.0097 25.3464 11.1412 25.0394 13.3219 22.0235C15.0688 19.6062 17.1273 16.2131 18.5123 14.0859L20.8579 10.4821C22.4872 7.97923 24.3731 5.19695 26.5354 3.31104C28.3007 1.77177 30.2049 0.916626 32.1214 0.916626C35.3389 0.916626 38.4037 2.78115 40.7492 6.2781C43.3162 10.1079 44.5623 14.9319 44.5623 19.9101C44.5623 22.8695 43.9789 25.044 42.9863 26.762C42.0274 28.4234 40.1582 30.0833 37.014 30.0833V25.3464C39.7062 25.3464 40.3781 22.8726 40.3781 20.0414C40.3781 16.0069 39.4375 11.5296 37.3653 8.33046C35.8947 6.06126 33.989 4.6747 31.8923 4.6747C29.6246 4.6747 27.7998 6.38499 25.749 9.43451C24.6587 11.0547 23.5394 13.0292 22.2826 15.2572L20.8991 17.7081C18.1199 22.6359 17.4159 23.7582 16.0263 25.6106C13.5906 28.854 11.5108 30.0833 8.77277 30.0833C5.52474 30.0833 3.47085 28.6769 2.19882 26.5573C1.16043 24.8302 0.650391 22.5641 0.650391 19.9819L5.39341 20.1514Z" fill="#747474"/>
<path d="M4.3916 6.61252C6.56612 3.26065 9.70421 0.916626 13.3035 0.916626C15.3879 0.916626 17.4601 1.53355 19.6239 3.30035C21.9909 5.23207 24.5135 8.41292 27.6608 13.6553L28.7893 15.5366C31.5135 20.075 33.0635 22.4099 33.9706 23.5109C35.1372 24.9249 35.9542 25.3464 37.0155 25.3464C39.7077 25.3464 40.3796 22.8726 40.3796 20.0414L44.5637 19.9101C44.5637 22.8695 43.9804 25.044 42.9878 26.762C42.0288 28.4234 40.1597 30.0833 37.0155 30.0833C35.0609 30.0833 33.3292 29.6588 31.4143 27.8523C29.9422 26.4657 28.2212 24.0026 26.8973 21.7884L22.959 15.2098C20.983 11.9083 19.1704 9.44673 18.1213 8.33198C16.9928 7.13325 15.5421 5.68561 13.2271 5.68561C11.3534 5.68561 9.76224 7.0004 8.43065 9.01152L4.3916 6.61252Z" fill="#747474"/>
<path d="M13.2257 5.68561C11.352 5.68561 9.76077 7.0004 8.42919 9.01152C6.54633 11.8534 5.39341 16.0863 5.39341 20.1514C5.39341 21.8281 5.76143 23.1154 6.24245 23.8942L2.19882 26.5573C1.16043 24.8302 0.650391 22.5641 0.650391 19.9819C0.650391 15.2862 1.93922 10.392 4.39014 6.61252C6.56466 3.26065 9.70275 0.916626 13.302 0.916626L13.2257 5.68561Z" fill="#747474"/>
<path d="M53.7827 1.83887H59.2694L68.5982 18.7158L77.9284 1.83887H83.296V29.5701H78.8202V8.31662L70.6383 23.0343H66.4389L58.2585 8.31662V29.5701H53.7827V1.83887ZM97.3205 12.1785C94.1106 12.1785 92.1774 14.5943 91.7147 17.5858H102.609C102.384 14.5042 100.607 12.1785 97.3205 12.1785ZM87.2771 19.29C87.2771 12.9955 91.3451 8.41435 97.3983 8.41435C103.352 8.41435 106.907 12.9375 106.907 19.626V20.8552H91.7147C92.2537 24.1094 94.413 26.3022 97.8946 26.3022C100.672 26.3022 102.409 25.4547 104.055 23.9047L106.432 26.8168C104.192 28.8768 101.343 30.0649 97.7358 30.0649C91.1832 30.0649 87.2771 25.2867 87.2771 19.29ZM112.334 12.5756H108.214V8.91064H112.334V2.84977H116.653V8.91064H122.912V12.5756H116.653V21.8646C116.653 25.0363 117.667 26.1633 120.159 26.1633C121.297 26.1633 121.949 26.0655 122.912 25.9052V29.5304C121.712 29.8694 120.567 30.0252 119.327 30.0252C114.665 30.0252 112.334 27.478 112.334 22.3792V12.5756ZM141.096 16.1397C140.229 13.9499 138.294 12.3373 135.451 12.3373C131.755 12.3373 129.39 14.9593 129.39 19.2304C129.39 23.3947 131.568 26.1434 135.274 26.1434C138.187 26.1434 140.267 24.4484 141.096 22.3395V16.1397ZM145.415 29.5701H141.176V26.6779C139.991 28.3805 137.835 30.0649 134.342 30.0649C128.726 30.0649 124.972 25.3631 124.972 19.2304C124.972 13.0398 128.816 8.41435 134.58 8.41435C137.43 8.41435 139.666 9.55353 141.176 11.5647V8.91064H145.415V29.5701Z" fill="#747474"/>
</g>
<defs>
<clipPath id="clip0_7577_35881">
<rect width="144.764" height="29.1667" fill="white" transform="translate(0.650879 0.916626)"/>
</clipPath>
</defs>
</svg>
