<svg width="160" height="35" viewBox="0 0 160 35" fill="none" xmlns="http://www.w3.org/2000/svg">
<path d="M58.4717 19.2226L57.5921 21.7148H57.5188C57.3722 21.1528 57.1035 20.2977 56.6637 19.2715L51.9483 7.42186H47.3306V26.308H50.3846V14.6538C50.3846 13.9208 50.3846 13.0902 50.3602 12.064C50.3357 11.5509 50.2869 11.16 50.2624 10.8668H50.3357C50.4823 11.5997 50.6534 12.1372 50.7755 12.4793L56.4438 26.2591H58.5939L64.2133 12.3572C64.3354 12.0396 64.4576 11.4043 64.5798 10.8668H64.6531C64.5798 12.2594 64.5309 13.5055 64.5065 14.2629V26.2347H67.756V7.37297H63.3093L58.4717 19.2226ZM70.8344 12.6992H74.0106V26.2347H70.8344V12.6992ZM72.447 6.98209C71.9094 6.98209 71.4697 7.17751 71.1032 7.51956C70.7367 7.86162 70.5413 8.30138 70.5413 8.83889C70.5413 9.35197 70.7367 9.79176 71.1032 10.1338C71.4697 10.4759 71.9094 10.6469 72.447 10.6469C72.9845 10.6469 73.4487 10.4514 73.7907 10.1338C74.1572 9.79176 74.3527 9.35197 74.3527 8.83889C74.3527 8.32581 74.1572 7.88605 73.7907 7.51956C73.4731 7.17751 73.0089 6.98209 72.447 6.98209ZM85.2739 12.5771C84.6875 12.4549 84.0767 12.3816 83.4904 12.3816C82.0489 12.3816 80.7295 12.6992 79.6301 13.3344C78.5306 13.9697 77.651 14.8492 77.0891 15.9487C76.5027 17.0726 76.2095 18.3675 76.2095 19.8579C76.2095 21.1528 76.5027 22.3011 77.0647 23.3517C77.6266 24.3778 78.4085 25.2086 79.459 25.7705C80.4608 26.3325 81.6335 26.6256 82.9528 26.6256C84.4677 26.6256 85.7626 26.308 86.7887 25.7216L86.8132 25.6972V22.7653L86.691 22.8631C86.2268 23.2051 85.6893 23.4983 85.1518 23.6693C84.5898 23.8648 84.0767 23.9625 83.637 23.9625C82.3665 23.9625 81.3648 23.5961 80.6562 22.7898C79.9232 22.008 79.5568 20.9329 79.5568 19.5891C79.5568 18.1964 79.9232 17.097 80.6806 16.2908C81.4381 15.4845 82.4398 15.0691 83.6614 15.0691C84.6876 15.0691 85.7381 15.4112 86.691 16.0953L86.8132 16.1931V13.0901L86.7887 13.0657C86.3734 12.8946 85.9092 12.6992 85.2739 12.5771ZM95.7554 12.4793C94.9735 12.4793 94.2406 12.7237 93.6053 13.2367C93.0678 13.6765 92.7013 14.3117 92.3837 15.0691H92.3593V12.6992H89.1831V26.2347H92.3593V19.3204C92.3593 18.1476 92.6036 17.1703 93.1411 16.4618C93.6786 15.7288 94.3627 15.3623 95.1934 15.3623C95.4866 15.3623 95.7798 15.4356 96.1463 15.4845C96.4883 15.5822 96.7327 15.6799 96.9037 15.8021L97.0259 15.8999V12.7237L96.9526 12.6992C96.7327 12.5526 96.2929 12.4793 95.7554 12.4793ZM104.404 12.406C102.181 12.406 100.398 13.0657 99.1515 14.3606C97.881 15.6555 97.2702 17.4391 97.2702 19.6869C97.2702 21.7881 97.9054 23.4983 99.127 24.7443C100.349 25.9659 102.01 26.6012 104.087 26.6012C106.261 26.6012 107.996 25.9415 109.242 24.6222C110.512 23.3029 111.123 21.5437 111.123 19.3692C111.123 17.2192 110.537 15.5089 109.34 14.2629C108.191 13.0168 106.506 12.406 104.404 12.406ZM106.945 22.8142C106.359 23.5716 105.431 23.938 104.282 23.938C103.134 23.938 102.206 23.5716 101.546 22.7653C100.886 22.0079 100.569 20.9084 100.569 19.5158C100.569 18.0743 100.911 16.9749 101.546 16.1931C102.206 15.4112 103.109 15.0202 104.258 15.0202C105.382 15.0202 106.261 15.3868 106.897 16.1442C107.532 16.9016 107.874 18.001 107.874 19.4425C107.825 20.9084 107.556 22.0568 106.945 22.8142ZM118.209 18.3187C117.207 17.9033 116.572 17.5857 116.279 17.3169C116.034 17.0726 115.912 16.7305 115.912 16.2908C115.912 15.9243 116.059 15.5578 116.425 15.3134C116.792 15.0691 117.207 14.947 117.818 14.947C118.355 14.947 118.917 15.0447 119.455 15.1913C119.992 15.3379 120.481 15.5578 120.872 15.851L120.994 15.9487V12.968L120.921 12.9436C120.554 12.797 120.066 12.6503 119.479 12.5282C118.893 12.4305 118.355 12.3816 117.915 12.3816C116.401 12.3816 115.155 12.7481 114.177 13.5543C113.2 14.3117 112.736 15.3379 112.736 16.5351C112.736 17.1703 112.834 17.7323 113.053 18.1965C113.273 18.6607 113.591 19.1005 114.031 19.467C114.471 19.809 115.106 20.1999 115.985 20.5664C116.718 20.884 117.28 21.1283 117.622 21.3238C117.964 21.5192 118.184 21.7391 118.355 21.9102C118.477 22.1056 118.551 22.35 118.551 22.6676C118.551 23.5716 117.867 24.0113 116.474 24.0113C115.936 24.0113 115.375 23.9136 114.715 23.6938C114.055 23.4739 113.444 23.1562 112.931 22.7897L112.809 22.692V25.7949L112.882 25.8193C113.347 26.0392 113.909 26.1859 114.593 26.3569C115.277 26.4791 115.888 26.5768 116.425 26.5768C118.062 26.5768 119.406 26.2102 120.359 25.404C121.336 24.6221 121.849 23.6204 121.849 22.3255C121.849 21.4215 121.605 20.6153 121.067 20.0045C120.359 19.4181 119.479 18.8073 118.209 18.3187ZM130.229 12.406C128.006 12.406 126.222 13.0657 124.976 14.3606C123.73 15.6555 123.095 17.4391 123.095 19.6869C123.095 21.7881 123.73 23.4983 124.952 24.7443C126.174 25.9659 127.835 26.6012 129.912 26.6012C132.086 26.6012 133.821 25.9415 135.067 24.6222C136.337 23.3029 136.948 21.5437 136.948 19.3692C136.948 17.2192 136.362 15.5089 135.165 14.2629C134.016 13.0168 132.331 12.406 130.229 12.406ZM132.746 22.8142C132.159 23.5716 131.231 23.938 130.083 23.938C128.91 23.938 128.006 23.5716 127.346 22.7653C126.687 22.0079 126.369 20.9084 126.369 19.5158C126.369 18.0743 126.711 16.9749 127.346 16.1931C128.006 15.4112 128.91 15.0202 130.058 15.0202C131.158 15.0202 132.062 15.3868 132.697 16.1442C133.332 16.9016 133.674 18.001 133.674 19.4425C133.674 20.9084 133.357 22.0568 132.746 22.8142ZM153.929 15.3134V12.6992H150.728V8.6923L150.63 8.71679L147.601 9.62074L147.527 9.64515V12.6992H142.739V10.989C142.739 10.2071 142.934 9.59629 143.276 9.20537C143.618 8.81446 144.131 8.619 144.767 8.619C145.206 8.619 145.671 8.71679 146.184 8.93668L146.306 9.00997V6.24913L146.233 6.22464C145.793 6.07804 145.206 5.98035 144.449 5.98035C143.496 5.98035 142.665 6.20023 141.908 6.56671C141.151 6.98206 140.589 7.54401 140.173 8.30142C139.758 9.03438 139.538 9.86511 139.538 10.818V12.6992H137.315V15.289H139.538V26.2347H142.739V15.3134H147.527V22.2766C147.527 25.1352 148.871 26.5768 151.559 26.5768C151.999 26.5768 152.463 26.5035 152.903 26.4302C153.367 26.3325 153.709 26.2103 153.904 26.1125L153.929 26.0881V23.4739L153.806 23.5716C153.611 23.6937 153.44 23.7915 153.147 23.8647C152.903 23.938 152.683 23.9625 152.512 23.9625C151.876 23.9625 151.437 23.8159 151.119 23.4495C150.826 23.1074 150.679 22.5455 150.679 21.7148V15.3134H153.929Z" fill="#747474"/>
<path d="M6.38184 1.07166H21.3588V16.0487H6.38184V1.07166Z" fill="#747474"/>
<path d="M22.9204 1.07166H37.8974V16.0487H22.9204V1.07166Z" fill="#747474"/>
<path d="M6.38184 17.6102H21.3588V32.5872H6.38184V17.6102Z" fill="#747474"/>
<path d="M22.9204 17.6102H37.8974V32.5872H22.9204V17.6102Z" fill="#747474"/>
</svg>
