<svg width="154" height="31" viewBox="0 0 154 31" fill="none" xmlns="http://www.w3.org/2000/svg">
<g clip-path="url(#clip0_7577_35878)">
<path d="M93.9276 6.44077V25.5807H99.3289V6.44077H93.9276ZM51.4304 6.40833V25.5645H56.8804V10.6905L61.1301 10.7067C62.5251 10.7067 63.4983 11.0473 64.1633 11.761C65.023 12.6694 65.3636 14.1454 65.3636 16.8217V25.5645H70.6515V14.9889C70.6515 7.4302 65.834 6.40833 61.1301 6.40833H51.4304ZM102.638 6.44077V25.5807H111.397C116.068 25.5807 117.593 24.8021 119.231 23.0666C120.399 21.85 121.145 19.1575 121.145 16.2216C121.145 13.529 120.513 11.1284 119.393 9.63616C117.415 6.95982 114.527 6.44077 110.213 6.44077H102.638ZM107.991 10.5932H110.31C113.684 10.5932 115.857 12.1016 115.857 16.027C115.857 19.9523 113.684 21.477 110.31 21.477H107.991V10.5932ZM86.1418 6.44077L81.6326 21.6067L77.318 6.44077H71.4787L77.6424 25.5807H85.4281L91.6567 6.44077H86.1418ZM123.676 25.5807H129.077V6.44077H123.676V25.5807ZM138.825 6.44077L131.283 25.5645H136.603L137.803 22.1744H146.725L147.86 25.5483H153.651L146.043 6.44077H138.825ZM142.329 9.92813L145.605 18.8817H138.955L142.329 9.92813Z" fill="#747474"/>
<path d="M16.5735 9.62022V6.99253C16.833 6.97631 17.0925 6.96009 17.3521 6.96009C24.5539 6.73301 29.274 13.1562 29.274 13.1562C29.274 13.1562 24.1808 20.2283 18.7146 20.2283C17.9846 20.2283 17.271 20.1147 16.5897 19.8877V11.9073C19.3958 12.2479 19.9635 13.4806 21.6342 16.2868L25.3811 13.14C25.3811 13.14 22.6399 9.55534 18.0333 9.55534C17.5467 9.53912 17.0601 9.57156 16.5735 9.62022ZM16.5735 0.926147V4.85146L17.3521 4.8028C27.36 4.46217 33.8967 13.0103 33.8967 13.0103C33.8967 13.0103 26.403 22.1261 18.601 22.1261C17.9198 22.1261 17.2547 22.0612 16.5897 21.9476V24.3807C17.1412 24.4456 17.7089 24.4942 18.2604 24.4942C25.5271 24.4942 30.7824 20.7798 35.8756 16.4003C36.7191 17.0816 40.174 18.7198 40.8877 19.4335C36.054 23.4886 24.7809 26.7488 18.3902 26.7488C17.7738 26.7488 17.1899 26.7164 16.6059 26.6515V30.074H44.2128V0.926147L16.5735 0.926147ZM16.5735 19.8877V21.9639C9.85828 20.7636 7.99295 13.7726 7.99295 13.7726C7.99295 13.7726 11.2208 10.2041 16.5735 9.62022V11.8911H16.5573C13.7512 11.5504 11.5452 14.1781 11.5452 14.1781C11.5452 14.1781 12.7942 18.6063 16.5735 19.8877ZM4.65157 13.4806C4.65157 13.4806 8.62554 7.6089 16.5897 6.99253V4.85146C7.76587 5.56515 0.142334 13.0265 0.142334 13.0265C0.142334 13.0265 4.45693 25.5161 16.5735 26.6515V24.3807C7.68477 23.2777 4.65157 13.4806 4.65157 13.4806Z" fill="#747474"/>
</g>
<defs>
<clipPath id="clip0_7577_35878">
<rect width="153.509" height="29.1667" fill="white" transform="translate(0.14209 0.916626)"/>
</clipPath>
</defs>
</svg>
