<svg width="136" height="35" viewBox="0 0 136 35" fill="none" xmlns="http://www.w3.org/2000/svg">
<path d="M98.8276 11.5404C96.9556 11.5404 95.6195 12.2031 94.9638 13.458L94.6114 14.1376V11.8675H91.5652V25.6656H94.7692V17.4567C94.7692 15.4954 95.7978 14.3702 97.5896 14.3702C99.2984 14.3702 100.278 15.4658 100.278 17.3749V25.6656H103.483V16.7827C103.483 13.4974 101.743 11.5404 98.8276 11.5404ZM83.2891 11.5404C79.5082 11.5404 77.1668 13.9853 77.1668 17.9206V19.8579C77.1668 23.6423 79.5355 25.9927 83.349 25.9927C85.9 25.9927 87.6877 25.0241 88.8128 23.0318L86.8265 21.8474C85.9952 22.9965 84.6673 23.7086 83.3504 23.7086C81.4198 23.7086 80.2674 22.4734 80.2674 20.4036V19.8551H89.2101V17.5667C89.2101 13.9007 86.8877 11.5404 83.2919 11.5404H83.2891ZM86.2945 17.6245H80.2565V17.2931C80.2565 15.0216 81.3327 13.7682 83.2864 13.7682C85.168 13.7682 86.2918 15.0033 86.2918 17.0732L86.2945 17.6245ZM135.303 9.596V6.95651H124.22V9.596H128.106V23.0205H124.22V25.66H135.303V23.0205H131.416V9.596H135.303ZM51.2693 6.57581C46.3197 6.57581 43.2422 9.77225 43.2422 14.9201V17.7034C43.2422 22.8499 46.3183 26.0477 51.2693 26.0477C56.2202 26.0477 59.2963 22.8499 59.2963 17.7034V14.9201C59.295 9.76661 56.2148 6.57581 51.2693 6.57581ZM55.9848 17.8938C55.9848 21.3116 54.2665 23.2715 51.2693 23.2715C48.272 23.2715 46.5551 21.3116 46.5551 17.8938V14.7284C46.5551 11.3106 48.2748 9.35066 51.2706 9.35066C54.2665 9.35066 55.9862 11.3106 55.9862 14.7284L55.9848 17.8938ZM69.3601 11.5404C67.6785 11.5404 66.2228 12.2623 65.4636 13.4706L65.1194 14.0205V11.8675H62.0718V30.413H65.2772V23.6959L65.62 24.2232C66.3411 25.3314 67.7493 25.9927 69.3873 25.9927C72.1505 25.9927 74.9383 24.1217 74.9383 19.9397V17.5935C74.9383 14.5803 73.2199 11.5404 69.3601 11.5404ZM71.7329 19.7775C71.7329 22.0011 70.4812 23.3828 68.4676 23.3828C66.5901 23.3828 65.2799 21.9221 65.2799 19.8325V17.757C65.2799 15.642 66.601 14.1531 68.4948 14.1531C70.4934 14.1531 71.7356 15.5335 71.7356 17.757L71.7329 19.7775ZM112.34 6.95792L105.874 25.6656H109.13L110.368 21.6556H117.801L117.814 21.6951L119.038 25.6656H122.293L115.815 6.95651L112.34 6.95792ZM111.162 19.0175L114.079 9.55934L116.966 19.0175H111.162Z" fill="#747474"/>
<path d="M32.7467 14.3227C33.5405 11.9398 33.2677 9.33019 31.998 7.16303C30.0866 3.84138 26.2501 2.13278 22.5025 2.93418C20.8358 1.05453 18.4393 -0.014788 15.9272 0.000154537C12.0939 -0.0084147 8.69427 2.4606 7.51665 6.10848C5.05606 6.61322 2.93259 8.15439 1.69 10.3373C-0.231448 13.6535 0.206937 17.8308 2.77498 20.6759C1.98427 23.0566 2.25706 25.6626 3.52367 27.8279C5.43331 31.1562 9.27462 32.8693 13.0268 32.0659C14.692 33.9432 17.0851 35.0123 19.5945 34.9999C23.4277 35.0085 26.8274 32.5395 28.005 28.8916C30.4651 28.3867 32.5881 26.8455 33.8302 24.6628C35.7567 21.3474 35.3187 17.1667 32.7467 14.3227ZM19.5945 32.7172C18.0603 32.7186 16.5745 32.1798 15.3976 31.1955C15.4494 31.1666 15.5498 31.1164 15.6076 31.0783L22.5771 27.0549C22.9331 26.8527 23.152 26.4737 23.1492 26.0643V16.237L26.0938 17.9368C26.1261 17.9521 26.1481 17.9833 26.1516 18.019V26.1525C26.1516 29.7751 23.2171 32.713 19.5945 32.7172ZM5.50494 26.7003C4.73664 25.3726 4.45926 23.8171 4.72126 22.3056C4.773 22.3376 4.8643 22.3924 4.92821 22.4289L11.8992 26.4538C12.2526 26.6608 12.6902 26.6608 13.0435 26.4538L21.5484 21.5356V24.9352C21.5516 24.9707 21.536 25.0053 21.5073 25.0265L14.4618 29.0925C11.3251 30.8985 7.31849 29.825 5.50494 26.6927V26.7003ZM3.67888 11.4832C4.44357 10.1534 5.65192 9.13526 7.09209 8.60715V16.8914C7.09 17.3006 7.30869 17.6793 7.66426 17.882L16.1706 22.7941L13.2155 24.5C13.1862 24.5197 13.1489 24.5231 13.1166 24.5091L6.07254 20.4415C2.93861 18.6285 1.86483 14.6201 3.67279 11.4832H3.67888ZM27.8742 17.1135L19.3678 12.2014L22.3092 10.5002C22.3386 10.4807 22.3757 10.4773 22.4082 10.491L29.4522 14.5586C31.6547 15.8312 32.9227 18.2626 32.7056 20.7971C32.4886 23.3315 30.8256 25.5119 28.4387 26.3914V18.1087C28.4434 17.6984 28.2257 17.3176 27.8696 17.1135H27.8742ZM30.8065 12.7006C30.7548 12.6686 30.6635 12.6138 30.5996 12.5773L23.6286 8.55236C23.2752 8.3454 22.8376 8.3454 22.4842 8.55236L13.9778 13.4629V10.0649C13.9766 10.0294 13.9925 9.99551 14.0205 9.97364L21.0645 5.90761C23.2678 4.63753 26.0068 4.75572 28.0925 6.21085C30.1783 7.66599 31.2348 10.1957 30.8035 12.7021L30.8065 12.7006ZM12.3724 18.7631L9.4264 17.0633C9.39572 17.0463 9.37485 17.0159 9.3701 16.9811V8.84757C9.36817 6.3026 10.839 3.98639 13.1432 2.90586C15.4474 1.82533 18.1687 2.17568 20.1241 3.8046C20.0723 3.83351 19.9795 3.88374 19.9141 3.92178L12.9446 7.9452C12.589 8.14792 12.3704 8.52654 12.3724 8.93583V18.7631ZM13.9718 15.3133L17.7608 13.1251L21.5484 15.3133V19.6868L17.7593 21.875L13.9702 19.6868L13.9718 15.3133Z" fill="#747474"/>
</svg>
