<svg width="19" height="20" viewBox="0 0 19 20" fill="none" xmlns="http://www.w3.org/2000/svg">
<path d="M13.5806 19.5776C13.5806 19.6677 13.5448 19.754 13.4812 19.8177C13.4175 19.8814 13.3311 19.9171 13.2411 19.9171H5.09272C5.00268 19.9171 4.91632 19.8814 4.85265 19.8177C4.78898 19.754 4.75321 19.6677 4.75321 19.5776C4.75321 19.4876 4.78898 19.4012 4.85265 19.3375C4.91632 19.2739 5.00268 19.2381 5.09272 19.2381H13.2411C13.3311 19.2381 13.4175 19.2739 13.4812 19.3375C13.5448 19.4012 13.5806 19.4876 13.5806 19.5776ZM12.1852 19.2381H6.14861L7.31315 15.8429H11.0206L12.1852 19.2381ZM0 12.4478V13.4663C0 13.9166 0.178851 14.3484 0.497208 14.6667C0.815565 14.9851 1.24735 15.1639 1.69757 15.1639H16.6362C17.0865 15.1639 17.5182 14.9851 17.8366 14.6667C18.1549 14.3484 18.3338 13.9166 18.3338 13.4663V12.4478H0ZM9.50641 14.1454H8.82738C8.73734 14.1454 8.65098 14.1096 8.58731 14.0459C8.52364 13.9823 8.48787 13.8959 8.48787 13.8059C8.48787 13.7158 8.52364 13.6295 8.58731 13.5658C8.65098 13.5021 8.73734 13.4663 8.82738 13.4663H9.50641C9.59646 13.4663 9.68282 13.5021 9.74649 13.5658C9.81016 13.6295 9.84593 13.7158 9.84593 13.8059C9.84593 13.8959 9.81016 13.9823 9.74649 14.0459C9.68282 14.1096 9.59646 14.1454 9.50641 14.1454ZM16.6362 0.904297H1.69757C1.24735 0.904297 0.815565 1.08315 0.497208 1.4015C0.178851 1.71986 0 2.15165 0 2.60187V11.7688H18.3338V2.60187C18.3338 2.15165 18.1549 1.71986 17.8366 1.4015C17.5182 1.08315 17.0865 0.904297 16.6362 0.904297ZM15.9572 8.71314C15.6871 8.71314 15.428 8.60583 15.237 8.41481C15.046 8.2238 14.9387 7.96473 14.9387 7.69459C14.9406 7.59551 14.9566 7.4972 14.9862 7.40261L11.4383 4.80193C11.2691 4.91708 11.0691 4.97861 10.8645 4.97847C10.7486 4.97803 10.6337 4.95735 10.525 4.91736L7.65266 8.51961C7.75498 8.67854 7.80921 8.86364 7.80884 9.05265C7.80884 9.32279 7.70153 9.58186 7.51052 9.77287C7.3195 9.96389 7.06043 10.0712 6.7903 10.0712C6.52016 10.0712 6.26109 9.96389 6.07008 9.77287C5.87906 9.58186 5.77175 9.32279 5.77175 9.05265C5.77316 8.96293 5.78687 8.87383 5.81249 8.78783L2.97075 6.82204C2.79787 6.94721 2.59004 7.0149 2.3766 7.01556C2.17515 7.01556 1.97823 6.95583 1.81073 6.84391C1.64323 6.73199 1.51268 6.57291 1.43559 6.3868C1.3585 6.20068 1.33833 5.99589 1.37763 5.79831C1.41693 5.60073 1.51394 5.41924 1.65638 5.2768C1.79883 5.13435 1.98032 5.03735 2.1779 4.99805C2.37547 4.95874 2.58027 4.97892 2.76638 5.05601C2.9525 5.1331 3.11157 5.26365 3.22349 5.43115C3.33541 5.59864 3.39515 5.79557 3.39515 5.99702C3.39374 6.08674 3.38003 6.17584 3.35441 6.26184L6.19615 8.22763C6.36903 8.10246 6.57686 8.03477 6.7903 8.03411C6.90616 8.03455 7.02106 8.05523 7.12981 8.09522L10.0089 4.49297C9.90419 4.33478 9.84758 4.14963 9.84593 3.95993C9.84593 3.6898 9.95324 3.43072 10.1443 3.23971C10.3353 3.0487 10.5943 2.94139 10.8645 2.94139C11.1346 2.94139 11.3937 3.0487 11.5847 3.23971C11.7757 3.43072 11.883 3.6898 11.883 3.95993C11.881 4.05901 11.865 4.15732 11.8355 4.25191L15.3834 6.8526C15.5526 6.73744 15.7525 6.67592 15.9572 6.67605C16.2273 6.67605 16.4864 6.78336 16.6774 6.97437C16.8684 7.16539 16.9757 7.42446 16.9757 7.69459C16.9757 7.96473 16.8684 8.2238 16.6774 8.41481C16.4864 8.60583 16.2273 8.71314 15.9572 8.71314Z" fill="url(#paint0_linear_1623_5209)"/>
<path d="M15.9567 8.03401C16.1442 8.03401 16.2962 7.882 16.2962 7.6945C16.2962 7.50699 16.1442 7.35498 15.9567 7.35498C15.7692 7.35498 15.6172 7.50699 15.6172 7.6945C15.6172 7.882 15.7692 8.03401 15.9567 8.03401Z" fill="url(#paint1_linear_1623_5209)"/>
<path d="M10.8649 4.29964C11.0524 4.29964 11.2044 4.14763 11.2044 3.96012C11.2044 3.77261 11.0524 3.62061 10.8649 3.62061C10.6774 3.62061 10.5254 3.77261 10.5254 3.96012C10.5254 4.14763 10.6774 4.29964 10.8649 4.29964Z" fill="url(#paint2_linear_1623_5209)"/>
<path d="M2.37662 6.33674C2.56413 6.33674 2.71614 6.18474 2.71614 5.99723C2.71614 5.80972 2.56413 5.65771 2.37662 5.65771C2.18912 5.65771 2.03711 5.80972 2.03711 5.99723C2.03711 6.18474 2.18912 6.33674 2.37662 6.33674Z" fill="url(#paint3_linear_1623_5209)"/>
<path d="M6.79069 9.39216C6.9782 9.39216 7.1302 9.24016 7.1302 9.05265C7.1302 8.86514 6.9782 8.71313 6.79069 8.71313C6.60318 8.71313 6.45117 8.86514 6.45117 9.05265C6.45117 9.24016 6.60318 9.39216 6.79069 9.39216Z" fill="url(#paint4_linear_1623_5209)"/>
<defs>
<linearGradient id="paint0_linear_1623_5209" x1="-8.51212" y1="-4.66843" x2="28.6328" y2="10.6172" gradientUnits="userSpaceOnUse">
<stop offset="0.324251" stop-color="#CA94D8"/>
<stop offset="0.545912" stop-color="#C02DD3"/>
<stop offset="1" stop-color="#D33D79"/>
</linearGradient>
<linearGradient id="paint1_linear_1623_5209" x1="15.3019" y1="7.15595" x2="16.6628" y2="7.73671" gradientUnits="userSpaceOnUse">
<stop offset="0.324251" stop-color="#CA94D8"/>
<stop offset="0.545912" stop-color="#C02DD3"/>
<stop offset="1" stop-color="#D33D79"/>
</linearGradient>
<linearGradient id="paint2_linear_1623_5209" x1="10.2101" y1="3.42158" x2="11.571" y2="4.00233" gradientUnits="userSpaceOnUse">
<stop offset="0.324251" stop-color="#CA94D8"/>
<stop offset="0.545912" stop-color="#C02DD3"/>
<stop offset="1" stop-color="#D33D79"/>
</linearGradient>
<linearGradient id="paint3_linear_1623_5209" x1="1.72185" y1="5.45869" x2="3.08272" y2="6.03944" gradientUnits="userSpaceOnUse">
<stop offset="0.324251" stop-color="#CA94D8"/>
<stop offset="0.545912" stop-color="#C02DD3"/>
<stop offset="1" stop-color="#D33D79"/>
</linearGradient>
<linearGradient id="paint4_linear_1623_5209" x1="6.13591" y1="8.51411" x2="7.49678" y2="9.09486" gradientUnits="userSpaceOnUse">
<stop offset="0.324251" stop-color="#CA94D8"/>
<stop offset="0.545912" stop-color="#C02DD3"/>
<stop offset="1" stop-color="#D33D79"/>
</linearGradient>
</defs>
</svg>
