<svg width="20" height="23" viewBox="0 0 20 23" fill="none" xmlns="http://www.w3.org/2000/svg">
<path fill-rule="evenodd" clip-rule="evenodd" d="M1.79863 11.0874V13.3338C1.79863 13.3571 1.78695 13.3727 1.76749 13.3883C1.75192 13.3999 1.72856 13.4038 1.70909 13.3961L0.19855 12.8471C0.179085 12.8393 0.163512 12.8238 0.159619 12.8043C0.151833 12.7809 0.155726 12.7615 0.171298 12.7459L1.68184 11.0446C1.70131 11.0212 1.72856 11.0173 1.75581 11.0251C1.77917 11.0368 1.79863 11.0602 1.79863 11.0874ZM16.4719 11.0446L17.9824 12.742C17.998 12.7615 18.0019 12.7809 17.998 12.8043C17.9941 12.8238 17.9786 12.8393 17.9552 12.8471L16.4447 13.3961C16.4252 13.3999 16.4057 13.3999 16.3863 13.3883C16.3668 13.3727 16.359 13.3532 16.359 13.3338V11.0874C16.359 11.0602 16.3746 11.0368 16.4018 11.0251C16.4252 11.0173 16.4563 11.0212 16.4719 11.0446ZM10.8229 15.8916L18.0681 13.2715C18.0876 13.2637 18.1109 13.2676 18.1265 13.2793C18.146 13.2948 18.1576 13.3104 18.1576 13.3338V21.4977C18.1576 21.5211 18.1421 21.5444 18.1187 21.5561C18.0953 21.5639 18.072 21.5639 18.0525 21.5483L10.8074 16.0045C10.7879 15.9889 10.7762 15.9655 10.7801 15.9422C10.784 15.9188 10.7996 15.8993 10.8229 15.8916ZM18.146 22.1673C18.0798 22.5722 17.7294 22.8837 17.3089 22.8837H0.848706C0.424353 22.8837 0.0739698 22.5722 0.0116794 22.1673C0.0194657 22.1634 0.0233589 22.1595 0.0311452 22.1517L9.03989 15.2609C9.06324 15.2453 9.09439 15.2453 9.11775 15.2609L18.1226 22.1517C18.1304 22.1595 18.1382 22.1634 18.146 22.1673ZM0 21.4977V13.3338C0 13.3143 0.0116794 13.2948 0.027252 13.2793C0.0467178 13.2676 0.0661835 13.2676 0.0856492 13.2715L7.33079 15.8916C7.35415 15.8993 7.36973 15.9188 7.37362 15.9422C7.37751 15.9655 7.36973 15.9889 7.35026 16.0045L0.105115 21.5483C0.0856492 21.5639 0.0583972 21.5639 0.0350383 21.5561C0.0116794 21.5444 0 21.5211 0 21.4977Z" fill="url(#paint0_linear_1623_5177)"/>
<path fill-rule="evenodd" clip-rule="evenodd" d="M3.98235 0.210205H16.4755C16.5027 0.210205 16.5261 0.225778 16.5377 0.25303C16.5494 0.276389 16.5416 0.303641 16.5222 0.323106C16.1445 0.685169 15.9343 1.16792 15.9343 1.70128V5.94481V13.5442C15.9343 13.5715 15.9187 13.5948 15.8915 13.6026L10.3282 15.6076C10.3048 15.6154 10.2853 15.6115 10.2659 15.5959L9.17191 14.7511C9.11741 14.7083 9.04344 14.7044 8.98504 14.7472L7.89106 15.5959C7.8716 15.6115 7.84824 15.6154 7.82877 15.6076L2.26547 13.6026C2.23822 13.5948 2.21875 13.5715 2.21875 13.5442V1.96991C2.21875 1.00051 3.01295 0.210205 3.98235 0.210205ZM9.69748 12.2361H8.45557C6.06907 12.2361 4.13418 10.3012 4.13418 7.91474C4.13418 5.52824 6.06907 3.59335 8.45557 3.59335H9.69748C12.084 3.59335 14.0189 5.52824 14.0189 7.91474C14.0189 10.3012 12.084 12.2361 9.69748 12.2361Z" fill="url(#paint1_linear_1623_5177)"/>
<path fill-rule="evenodd" clip-rule="evenodd" d="M17.8466 0.210205H17.8504C18.668 0.210205 19.3376 0.879826 19.3376 1.70128V5.19343C19.3376 5.37252 19.1897 5.52046 19.0106 5.52046H16.4256C16.3905 5.52046 16.3594 5.48931 16.3594 5.45427V1.70128C16.3594 0.879826 17.029 0.210205 17.8466 0.210205Z" fill="url(#paint2_linear_1623_5177)"/>
<path fill-rule="evenodd" clip-rule="evenodd" d="M12.3998 10.7217C11.8781 11.2239 11.2163 11.5821 10.4805 11.7339C10.9632 11.477 11.3915 11.1344 11.7418 10.7217H12.3998Z" fill="url(#paint3_linear_1623_5177)"/>
<path fill-rule="evenodd" clip-rule="evenodd" d="M13.283 9.44482C13.1545 9.75238 12.9832 10.0366 12.7808 10.2974H12.0605C12.2357 10.0327 12.3837 9.74849 12.5005 9.44482H13.283Z" fill="url(#paint4_linear_1623_5177)"/>
<path fill-rule="evenodd" clip-rule="evenodd" d="M13.5905 8.125C13.575 8.43645 13.5205 8.73622 13.4348 9.02042H12.6367C12.7107 8.73233 12.7574 8.43256 12.773 8.125H13.5905Z" fill="url(#paint5_linear_1623_5177)"/>
<path fill-rule="evenodd" clip-rule="evenodd" d="M13.4348 6.80908C13.5205 7.09328 13.575 7.39305 13.5905 7.70061H12.773C12.7574 7.39305 12.7107 7.09717 12.6367 6.80908H13.4348Z" fill="url(#paint6_linear_1623_5177)"/>
<path fill-rule="evenodd" clip-rule="evenodd" d="M12.7808 5.52783C12.9832 5.78867 13.1545 6.07677 13.283 6.38432H12.5005C12.3837 6.08066 12.2357 5.79646 12.0605 5.52783H12.7808Z" fill="url(#paint7_linear_1623_5177)"/>
<path fill-rule="evenodd" clip-rule="evenodd" d="M10.4805 4.0957C11.2163 4.24754 11.8781 4.60571 12.3998 5.10792H11.7418C11.3915 4.69525 10.9632 4.35265 10.4805 4.0957Z" fill="url(#paint8_linear_1623_5177)"/>
<path fill-rule="evenodd" clip-rule="evenodd" d="M8.45563 4.01758C10.6085 4.01758 12.3527 5.76171 12.3527 7.91462C12.3527 10.0675 10.6085 11.8117 8.45563 11.8117C6.30272 11.8117 4.55859 10.0675 4.55859 7.91462C4.55859 5.76171 6.30272 4.01758 8.45563 4.01758ZM8.45563 4.46529C10.3594 4.46529 11.905 6.01087 11.905 7.91462C11.905 9.81837 10.3594 11.3601 8.45563 11.3601C6.55188 11.3601 5.0102 9.81837 5.0102 7.91462C5.0102 6.01087 6.55188 4.46529 8.45563 4.46529Z" fill="url(#paint9_linear_1623_5177)"/>
<path fill-rule="evenodd" clip-rule="evenodd" d="M8.45663 4.8894C10.1268 4.8894 11.4816 6.24422 11.4816 7.91438C11.4816 9.58454 10.1268 10.9394 8.45663 10.9394C6.78647 10.9394 5.43555 9.58454 5.43555 7.91438C5.43555 6.24422 6.78647 4.8894 8.45663 4.8894ZM9.70633 6.66079C9.68686 6.64521 9.67908 6.62964 9.67908 6.60628C9.67908 6.58292 9.68686 6.56735 9.70633 6.55178C9.73747 6.52063 9.78808 6.52063 9.82312 6.55178C9.84259 6.56735 9.85038 6.58292 9.85038 6.60628C9.85038 6.62964 9.84259 6.64521 9.82312 6.66079C9.80755 6.67247 9.78419 6.68414 9.76473 6.68414C9.74526 6.68804 9.7219 6.68025 9.70633 6.66079ZM9.4961 6.88659C9.48442 6.86712 9.47274 6.85155 9.47274 6.82819C9.47274 6.80873 9.48442 6.78926 9.4961 6.77369C9.52724 6.74644 9.57786 6.74644 9.609 6.77369C9.62068 6.78926 9.62847 6.80873 9.62847 6.82819C9.62847 6.85155 9.62068 6.86712 9.609 6.88659C9.58953 6.89827 9.57396 6.90605 9.5506 6.90605C9.53114 6.90605 9.51167 6.89827 9.4961 6.88659ZM9.2703 7.10071C9.25472 7.08514 9.24694 7.06567 9.24694 7.04231C9.24694 7.02285 9.25472 7.00338 9.2703 6.98781C9.29755 6.96056 9.35205 6.96056 9.3793 6.98781C9.39488 7.00338 9.40266 7.02285 9.40266 7.04231C9.40266 7.06567 9.39488 7.08125 9.3793 7.10071C9.36373 7.11628 9.34816 7.12018 9.3248 7.12018C9.30144 7.12018 9.28198 7.11239 9.2703 7.10071ZM9.05228 7.31483C9.03671 7.30316 9.02503 7.28369 9.02503 7.26033C9.02503 7.23697 9.03671 7.2214 9.05228 7.20583C9.08343 7.17857 9.13793 7.17857 9.17297 7.20583C9.18854 7.21751 9.19633 7.23697 9.19633 7.26033C9.19633 7.28369 9.18854 7.30316 9.17297 7.31483C9.1574 7.3343 9.13404 7.33819 9.11457 7.33819C9.09121 7.33819 9.07175 7.3343 9.05228 7.31483ZM8.84594 7.53285C8.82648 7.52117 8.82258 7.50171 8.82258 7.47835C8.82258 7.45499 8.83037 7.43942 8.84594 7.42384C8.8732 7.3927 8.92381 7.3927 8.95495 7.42384C8.97052 7.43552 8.97831 7.45499 8.97831 7.47835C8.97831 7.50171 8.96663 7.52117 8.95495 7.53285C8.94327 7.55232 8.92381 7.55621 8.90045 7.55621C8.88098 7.5601 8.85762 7.55232 8.84594 7.53285ZM8.59289 7.69636C8.59289 7.673 8.60457 7.65743 8.61625 7.64186C8.64739 7.61071 8.698 7.61071 8.72915 7.64186C8.74472 7.65743 8.74861 7.673 8.74861 7.69636C8.74861 7.71972 8.74083 7.73529 8.72915 7.75087C8.71358 7.76644 8.69411 7.77423 8.67075 7.77423C8.65129 7.77423 8.63182 7.76644 8.61625 7.75087C8.60067 7.73919 8.59289 7.71972 8.59289 7.69636ZM8.188 8.17522C8.17632 8.16354 8.16464 8.14407 8.16464 8.12072C8.16464 8.09736 8.17632 8.08178 8.188 8.06621C8.21915 8.03896 8.26976 8.03896 8.29701 8.06621C8.31648 8.08178 8.32037 8.09736 8.32037 8.12072C8.32037 8.14407 8.31258 8.15965 8.29701 8.17522C8.28533 8.19469 8.26586 8.19858 8.24251 8.19858C8.22304 8.20247 8.20357 8.19469 8.188 8.17522ZM7.96609 8.39324C7.94663 8.38156 7.93884 8.36209 7.93884 8.33873C7.93884 8.31537 7.94663 8.2998 7.96609 8.28423C7.99724 8.25308 8.04785 8.25308 8.08289 8.28423C8.10235 8.2998 8.11014 8.31537 8.11014 8.33873C8.11014 8.36209 8.10235 8.37766 8.08289 8.39324C8.06731 8.4127 8.04396 8.4166 8.02449 8.4166C8.00113 8.42049 7.98166 8.4127 7.96609 8.39324ZM7.75197 8.61515C7.74029 8.60347 7.72861 8.584 7.72861 8.56064C7.72861 8.53728 7.74029 8.51782 7.75197 8.50614C7.78311 8.47499 7.83373 8.47499 7.86487 8.50614C7.87655 8.51782 7.88434 8.53728 7.88434 8.56064C7.88434 8.584 7.87655 8.59957 7.86487 8.61515C7.84541 8.63072 7.82983 8.6385 7.80647 8.6385C7.78701 8.6385 7.77143 8.62683 7.75197 8.61515ZM7.53395 8.83316C7.51838 8.82148 7.51449 8.80202 7.51449 8.77866C7.51449 8.7553 7.52227 8.73973 7.53395 8.72415C7.5651 8.69301 7.61571 8.69301 7.64685 8.72415C7.65853 8.73973 7.67021 8.7553 7.67021 8.77866C7.67021 8.80202 7.65853 8.82148 7.64685 8.83316C7.63128 8.84873 7.61182 8.85652 7.59235 8.85652C7.57288 8.85652 7.54953 8.84873 7.53395 8.83316ZM7.31204 9.05118C7.29647 9.0395 7.28479 9.01614 7.28479 8.99667C7.28479 8.97332 7.29647 8.95774 7.31204 8.93828C7.34319 8.91102 7.39769 8.91102 7.42494 8.93828C7.44052 8.95774 7.4522 8.97332 7.4522 8.99667C7.4522 9.01614 7.44052 9.0395 7.42494 9.05118C7.40937 9.06286 7.38601 9.07454 7.36655 9.07454C7.34319 9.07454 7.32372 9.06675 7.31204 9.05118ZM7.09792 9.26919C7.08235 9.25362 7.07456 9.23416 7.07456 9.21469C7.07456 9.19133 7.08235 9.17576 7.09792 9.15629C7.12517 9.12904 7.17968 9.12904 7.20693 9.15629C7.2225 9.17576 7.23029 9.19133 7.23029 9.21469C7.23029 9.23416 7.2225 9.25362 7.20693 9.26919C7.19525 9.28087 7.17578 9.29255 7.15242 9.29255C7.13685 9.29255 7.11739 9.28477 7.09792 9.26919ZM7.20693 6.66079C7.2225 6.64521 7.23029 6.62964 7.23029 6.60628C7.23029 6.58292 7.2225 6.56735 7.20693 6.55178C7.17968 6.52063 7.12517 6.52063 7.09792 6.55178C7.08235 6.56735 7.07456 6.58292 7.07456 6.60628C7.07456 6.62964 7.08235 6.64521 7.09792 6.66079C7.1096 6.67247 7.12907 6.68414 7.15242 6.68414C7.17578 6.68804 7.19525 6.68025 7.20693 6.66079ZM7.42494 6.88659C7.44052 6.86712 7.4522 6.85155 7.4522 6.82819C7.4522 6.80873 7.44052 6.78926 7.42494 6.77369C7.3938 6.74644 7.3393 6.74644 7.30426 6.77369C7.28868 6.78926 7.2809 6.80873 7.2809 6.82819C7.2809 6.85155 7.28868 6.86712 7.30426 6.88659C7.31983 6.89827 7.34319 6.90605 7.36265 6.90605C7.38601 6.90605 7.40937 6.89827 7.42494 6.88659ZM7.64685 7.10071C7.65853 7.08514 7.67021 7.06567 7.67021 7.04231C7.67021 7.02285 7.65853 7.00338 7.64685 6.98781C7.61571 6.96056 7.5651 6.96056 7.53395 6.98781C7.52227 7.00338 7.51449 7.02285 7.51449 7.04231C7.51449 7.06567 7.52227 7.08125 7.53395 7.10071C7.55342 7.11628 7.56899 7.12018 7.59235 7.12018C7.61182 7.12018 7.63128 7.11239 7.64685 7.10071ZM7.86487 7.31483C7.87655 7.30316 7.88434 7.28369 7.88434 7.26033C7.88434 7.23697 7.87655 7.2214 7.86487 7.20583C7.83373 7.17857 7.78311 7.17857 7.75197 7.20583C7.74029 7.21751 7.72861 7.23697 7.72861 7.26033C7.72861 7.28369 7.74029 7.30316 7.75197 7.31483C7.76754 7.3343 7.78701 7.33819 7.80647 7.33819C7.82594 7.33819 7.84541 7.3343 7.86487 7.31483ZM8.07899 7.53285C8.09457 7.52117 8.10235 7.50171 8.10235 7.47835C8.10235 7.45499 8.09457 7.43942 8.07899 7.42384C8.04785 7.3927 7.99334 7.3927 7.96609 7.42384C7.94663 7.43552 7.93884 7.45499 7.93884 7.47835C7.93884 7.50171 7.94663 7.52117 7.96609 7.53285C7.98166 7.55232 8.00502 7.55621 8.02449 7.55621C8.04396 7.5601 8.06342 7.55232 8.07899 7.53285ZM8.32037 7.69636C8.32037 7.673 8.31258 7.65743 8.29701 7.64186C8.26976 7.61071 8.21915 7.61071 8.188 7.64186C8.17243 7.65743 8.16464 7.673 8.16464 7.69636C8.16464 7.71972 8.17632 7.73529 8.188 7.75087C8.19968 7.76644 8.21915 7.77423 8.24251 7.77423C8.26586 7.77423 8.28144 7.76644 8.29701 7.75087C8.31648 7.73919 8.32037 7.71972 8.32037 7.69636ZM8.51503 7.97278C8.5306 7.9572 8.53838 7.94163 8.53838 7.91827C8.53838 7.89491 8.5306 7.87934 8.51503 7.86377C8.48777 7.83262 8.43327 7.83262 8.40602 7.86377C8.39045 7.87934 8.38266 7.89491 8.38266 7.91827C8.38266 7.94163 8.39434 7.9572 8.40602 7.97278C8.4177 7.98446 8.43716 7.99614 8.46052 7.99614C8.48388 7.99614 8.50335 7.98446 8.51503 7.97278ZM8.73304 8.17522C8.74862 8.16354 8.76029 8.14407 8.76029 8.12072C8.76029 8.09736 8.74862 8.08178 8.73304 8.06621C8.7019 8.03896 8.65129 8.03896 8.62014 8.06621C8.60457 8.08178 8.59289 8.09736 8.59289 8.12072C8.59289 8.14407 8.60457 8.15965 8.62014 8.17522C8.63571 8.19469 8.65907 8.19858 8.67854 8.19858C8.69411 8.20247 8.71747 8.19469 8.73304 8.17522ZM8.95495 8.39324C8.96663 8.38156 8.97831 8.36209 8.97831 8.33873C8.97831 8.31537 8.96663 8.2998 8.95495 8.28423C8.92381 8.25308 8.8732 8.25308 8.84594 8.28423C8.83037 8.2998 8.82258 8.31537 8.82258 8.33873C8.82258 8.36209 8.83037 8.37766 8.84594 8.39324C8.86152 8.4127 8.87709 8.4166 8.90045 8.4166C8.91602 8.42049 8.93938 8.4127 8.95495 8.39324ZM9.17297 8.61515C9.18465 8.60347 9.19633 8.584 9.19633 8.56064C9.19633 8.53728 9.18465 8.51782 9.17297 8.50614C9.14182 8.47499 9.09121 8.47499 9.06007 8.50614C9.04839 8.51782 9.0406 8.53728 9.0406 8.56064C9.0406 8.584 9.04839 8.59957 9.06007 8.61515C9.07953 8.63072 9.0951 8.6385 9.11846 8.6385C9.13793 8.6385 9.1574 8.62683 9.17297 8.61515ZM9.37541 8.83316C9.39488 8.82148 9.39877 8.80202 9.39877 8.77866C9.39877 8.7553 9.39098 8.73973 9.37541 8.72415C9.34816 8.69301 9.29366 8.69301 9.2664 8.72415C9.25472 8.73973 9.24304 8.7553 9.24304 8.77866C9.24304 8.80202 9.25472 8.82148 9.2664 8.83316C9.28198 8.84873 9.29755 8.85652 9.32091 8.85652C9.34037 8.85652 9.36373 8.84873 9.37541 8.83316ZM9.609 9.05118C9.62457 9.0395 9.62847 9.01614 9.62847 8.99667C9.62847 8.97332 9.62068 8.95774 9.609 8.93828C9.57786 8.91102 9.52724 8.91102 9.4961 8.93828C9.48053 8.95774 9.47274 8.97332 9.47274 8.99667C9.47274 9.01614 9.48442 9.0395 9.4961 9.05118C9.51167 9.06286 9.53114 9.07454 9.5506 9.07454C9.57396 9.07454 9.59343 9.06675 9.609 9.05118ZM9.82312 9.26919C9.84259 9.25362 9.85038 9.23416 9.85038 9.21469C9.85038 9.19133 9.84259 9.17576 9.82312 9.15629C9.79198 9.12904 9.74137 9.12904 9.71022 9.15629C9.69465 9.17576 9.68686 9.19133 9.68686 9.21469C9.68686 9.23416 9.69465 9.25362 9.71022 9.26919C9.72579 9.28087 9.74915 9.29255 9.76862 9.29255C9.78419 9.29255 9.80366 9.28477 9.82312 9.26919ZM7.72472 6.72308C7.94663 6.57514 8.188 6.50895 8.45663 6.50506C8.72136 6.50506 8.96274 6.57514 9.19243 6.72308L9.65961 6.2559C9.29366 5.97559 8.89655 5.83544 8.45663 5.83544C8.0206 5.83544 7.61571 5.97559 7.26143 6.2559L7.72472 6.72308ZM7.25754 8.6424C7.10571 8.4127 7.03563 8.17522 7.03563 7.91438C7.03563 7.64965 7.10571 7.40827 7.25754 7.18636L6.79036 6.72308C6.51784 7.08125 6.38158 7.47445 6.38158 7.91827C6.38158 8.3543 6.51784 8.75141 6.79426 9.11736L7.25754 8.6424ZM9.18854 9.10568C8.96663 9.25362 8.72526 9.33148 8.46052 9.33538C8.19189 9.33538 7.94663 9.2653 7.72472 9.10958L7.25754 9.57286C7.61571 9.85706 8.0206 9.99721 8.46052 9.99332C8.90045 9.98943 9.29366 9.84538 9.65183 9.57286L9.18854 9.10568ZM9.64793 7.17857C9.79587 7.40827 9.87373 7.65354 9.86595 7.92217C9.86205 8.17911 9.78809 8.41659 9.64793 8.63461L10.1151 9.0979C10.3915 8.74362 10.5317 8.34652 10.5317 7.91049C10.5356 7.47056 10.3954 7.06567 10.1151 6.7075L9.64793 7.17857ZM10.1346 9.25362C10.3137 9.25362 10.4616 9.39767 10.4616 9.58065C10.4616 9.75973 10.3137 9.90767 10.1346 9.90767C9.95549 9.90767 9.80366 9.75973 9.80366 9.58065C9.80366 9.39767 9.9516 9.25362 10.1346 9.25362ZM6.79036 9.25362C6.96555 9.25362 7.11349 9.39767 7.11349 9.58065C7.11349 9.75973 6.96555 9.90767 6.79036 9.90767C6.61128 9.90767 6.46334 9.75973 6.46334 9.58065C6.46334 9.39767 6.61128 9.25362 6.79036 9.25362ZM10.1385 5.90552C10.3176 5.90552 10.4655 6.05345 10.4655 6.23643C10.4655 6.41552 10.3176 6.56346 10.1385 6.56346C9.95938 6.56346 9.81534 6.41552 9.81534 6.23643C9.81534 6.05345 9.95938 5.90552 10.1385 5.90552ZM6.78258 5.90552C6.96166 5.90552 7.1096 6.05346 7.1096 6.23254C7.1096 6.41162 6.96555 6.55567 6.78258 6.55567C6.60349 6.55567 6.45555 6.41162 6.45555 6.23254C6.45555 6.05346 6.5996 5.90552 6.78258 5.90552Z" fill="url(#paint10_linear_1623_5177)"/>
<defs>
<linearGradient id="paint0_linear_1623_5177" x1="-8.43033" y1="7.54464" x2="21.7212" y2="27.2408" gradientUnits="userSpaceOnUse">
<stop offset="0.324251" stop-color="#CA94D8"/>
<stop offset="0.545912" stop-color="#C02DD3"/>
<stop offset="1" stop-color="#D33D79"/>
</linearGradient>
<linearGradient id="paint1_linear_1623_5177" x1="-4.4319" y1="-4.30396" x2="24.8859" y2="7.33272" gradientUnits="userSpaceOnUse">
<stop offset="0.324251" stop-color="#CA94D8"/>
<stop offset="0.545912" stop-color="#C02DD3"/>
<stop offset="1" stop-color="#D33D79"/>
</linearGradient>
<linearGradient id="paint2_linear_1623_5177" x1="14.9766" y1="-1.34625" x2="21.6502" y2="0.251035" gradientUnits="userSpaceOnUse">
<stop offset="0.324251" stop-color="#CA94D8"/>
<stop offset="0.545912" stop-color="#C02DD3"/>
<stop offset="1" stop-color="#D33D79"/>
</linearGradient>
<linearGradient id="paint3_linear_1623_5177" x1="9.58936" y1="10.425" x2="12.3372" y2="12.6485" gradientUnits="userSpaceOnUse">
<stop offset="0.324251" stop-color="#CA94D8"/>
<stop offset="0.545912" stop-color="#C02DD3"/>
<stop offset="1" stop-color="#D33D79"/>
</linearGradient>
<linearGradient id="paint4_linear_1623_5177" x1="11.493" y1="9.19492" x2="13.6002" y2="10.4843" gradientUnits="userSpaceOnUse">
<stop offset="0.324251" stop-color="#CA94D8"/>
<stop offset="0.545912" stop-color="#C02DD3"/>
<stop offset="1" stop-color="#D33D79"/>
</linearGradient>
<linearGradient id="paint5_linear_1623_5177" x1="12.1939" y1="7.86255" x2="14.0666" y2="8.71386" gradientUnits="userSpaceOnUse">
<stop offset="0.324251" stop-color="#CA94D8"/>
<stop offset="0.545912" stop-color="#C02DD3"/>
<stop offset="1" stop-color="#D33D79"/>
</linearGradient>
<linearGradient id="paint6_linear_1623_5177" x1="12.1939" y1="6.54777" x2="14.0638" y2="7.40152" gradientUnits="userSpaceOnUse">
<stop offset="0.324251" stop-color="#CA94D8"/>
<stop offset="0.545912" stop-color="#C02DD3"/>
<stop offset="1" stop-color="#D33D79"/>
</linearGradient>
<linearGradient id="paint7_linear_1623_5177" x1="11.493" y1="5.27679" x2="13.6054" y2="6.56346" gradientUnits="userSpaceOnUse">
<stop offset="0.324251" stop-color="#CA94D8"/>
<stop offset="0.545912" stop-color="#C02DD3"/>
<stop offset="1" stop-color="#D33D79"/>
</linearGradient>
<linearGradient id="paint8_linear_1623_5177" x1="9.58936" y1="3.79902" x2="12.3372" y2="6.02256" gradientUnits="userSpaceOnUse">
<stop offset="0.324251" stop-color="#CA94D8"/>
<stop offset="0.545912" stop-color="#C02DD3"/>
<stop offset="1" stop-color="#D33D79"/>
</linearGradient>
<linearGradient id="paint9_linear_1623_5177" x1="0.939914" y1="1.73311" x2="16.5603" y2="8.39917" gradientUnits="userSpaceOnUse">
<stop offset="0.324251" stop-color="#CA94D8"/>
<stop offset="0.545912" stop-color="#C02DD3"/>
<stop offset="1" stop-color="#D33D79"/>
</linearGradient>
<linearGradient id="paint10_linear_1623_5177" x1="2.62845" y1="3.11614" x2="14.748" y2="8.28487" gradientUnits="userSpaceOnUse">
<stop offset="0.324251" stop-color="#CA94D8"/>
<stop offset="0.545912" stop-color="#C02DD3"/>
<stop offset="1" stop-color="#D33D79"/>
</linearGradient>
</defs>
</svg>
