<svg width="16" height="24" viewBox="0 0 16 24" fill="none" xmlns="http://www.w3.org/2000/svg">
<path d="M10.0965 5.84332C10.2921 5.84332 10.4507 5.6847 10.4507 5.48904C10.4507 5.29338 10.2921 5.13477 10.0965 5.13477C9.9008 5.13477 9.74219 5.29338 9.74219 5.48904C9.74219 5.6847 9.9008 5.84332 10.0965 5.84332Z" fill="url(#paint0_linear_1623_5189)"/>
<path d="M13.1082 7.08331C13.3038 7.08331 13.4625 6.92469 13.4625 6.72903C13.4625 6.53337 13.3038 6.37476 13.1082 6.37476C12.9125 6.37476 12.7539 6.53337 12.7539 6.72903C12.7539 6.92469 12.9125 7.08331 13.1082 7.08331Z" fill="url(#paint1_linear_1623_5189)"/>
<path d="M5.66873 4.07183C5.86439 4.07183 6.02301 3.91322 6.02301 3.71756C6.02301 3.5219 5.86439 3.36328 5.66873 3.36328C5.47307 3.36328 5.31445 3.5219 5.31445 3.71756C5.31445 3.91322 5.47307 4.07183 5.66873 4.07183Z" fill="url(#paint2_linear_1623_5189)"/>
<path d="M2.65701 5.31182C2.85267 5.31182 3.01129 5.15321 3.01129 4.95755C3.01129 4.76189 2.85267 4.60327 2.65701 4.60327C2.46135 4.60327 2.30273 4.76189 2.30273 4.95755C2.30273 5.15321 2.46135 5.31182 2.65701 5.31182Z" fill="url(#paint3_linear_1623_5189)"/>
<path d="M4.25195 9.74041C4.25231 9.97825 4.27544 10.2155 4.32104 10.449H8.44304C8.35979 10.3303 8.19328 10.2683 7.89391 10.1797C7.55027 10.077 7.12336 9.9512 6.886 9.54024C6.78479 9.36996 6.73166 9.17542 6.73229 8.97734C6.73291 8.77925 6.78726 8.58505 6.88954 8.41541C6.97025 8.2909 7.07493 8.1837 7.19749 8.10007C7.32006 8.01644 7.45804 7.95804 7.60341 7.92828V7.61475C7.60341 7.52079 7.64073 7.43068 7.70717 7.36424C7.77361 7.2978 7.86372 7.26047 7.95768 7.26047C8.05164 7.26047 8.14175 7.2978 8.20819 7.36424C8.27463 7.43068 8.31196 7.52079 8.31196 7.61475V7.92474C8.46364 7.95994 8.60769 8.02235 8.73709 8.10896C8.81508 8.16135 8.86906 8.24256 8.88717 8.33475C8.90527 8.42693 8.88601 8.52253 8.83363 8.60052C8.78125 8.67851 8.70003 8.73249 8.60785 8.7506C8.51566 8.7687 8.42006 8.74944 8.34207 8.69706C8.28106 8.65642 8.21327 8.62702 8.14191 8.61026C7.90277 8.56421 7.60872 8.60141 7.49004 8.79272C7.45635 8.85272 7.43926 8.92061 7.4405 8.98941C7.44175 9.05822 7.46129 9.12545 7.49712 9.18419C7.58746 9.34007 7.78409 9.40739 8.09585 9.4995C8.47493 9.61287 8.99394 9.76697 9.16931 10.3374C9.17895 10.374 9.18605 10.4113 9.19056 10.449H11.6227C11.7215 9.93997 11.7128 9.41594 11.5972 8.91051C11.4816 8.40507 11.2616 7.92939 10.9512 7.514C10.6409 7.09861 10.2472 6.75268 9.79535 6.49842C9.34348 6.24416 8.84344 6.08719 8.32733 6.03758C7.81121 5.98796 7.29042 6.0468 6.79839 6.21032C6.30635 6.37384 5.85394 6.63843 5.47019 6.9871C5.08644 7.33577 4.77983 7.76082 4.57003 8.23498C4.36024 8.70913 4.25189 9.22191 4.25195 9.74041Z" fill="url(#paint4_linear_1623_5189)"/>
<path d="M15.3315 5.04518L9.87441 2.71215C9.78665 2.67447 9.69214 2.65502 9.59663 2.65498C9.45648 2.65521 9.31951 2.69681 9.20289 2.77455C9.08628 2.85229 8.99521 2.96273 8.94109 3.09201L8.64039 3.8056L9.02561 4.71976L9.59704 3.36416L15.0538 5.6971C15.0553 5.69888 15.0563 5.70105 15.0566 5.70335C15.0569 5.70566 15.0566 5.70801 15.0556 5.71014L13.0587 10.4493H13.8275L15.7086 5.9853C15.7825 5.81055 15.7844 5.61365 15.7137 5.43754C15.6431 5.26143 15.5057 5.12039 15.3315 5.04518ZM1.32859 11.8612V19.6439C1.32685 19.771 1.35924 19.8963 1.42238 20.0067C1.48553 20.1171 1.57711 20.2085 1.6876 20.2714L7.5863 23.482C7.6773 23.5314 7.77918 23.5572 7.8827 23.5572C7.98622 23.5572 8.0881 23.5314 8.17909 23.482L14.0778 20.2714C14.1883 20.2085 14.2799 20.1171 14.343 20.0067C14.4062 19.8963 14.4385 19.7711 14.4368 19.6439V11.8612C14.443 11.6811 14.3774 11.5058 14.2546 11.3739C14.1317 11.2421 13.9615 11.1643 13.7814 11.1577H1.984C1.80387 11.1643 1.63371 11.2421 1.51084 11.3739C1.38798 11.5058 1.32243 11.6811 1.32859 11.8612ZM12.3997 12.9293H12.4883C12.5823 12.9293 12.6724 12.9666 12.7388 13.0331C12.8053 13.0995 12.8426 13.1896 12.8426 13.2836C12.8426 13.3775 12.8053 13.4677 12.7388 13.5341C12.6724 13.6005 12.5823 13.6379 12.4883 13.6379H12.3997C12.3058 13.6379 12.2156 13.6005 12.1492 13.5341C12.0828 13.4677 12.0454 13.3775 12.0454 13.2836C12.0454 13.1896 12.0828 13.0995 12.1492 13.0331C12.2156 12.9666 12.3058 12.9293 12.3997 12.9293ZM11.108 12.9293H11.2926C11.3866 12.9293 11.4767 12.9666 11.5431 13.0331C11.6096 13.0995 11.6469 13.1896 11.6469 13.2836C11.6469 13.3775 11.6096 13.4677 11.5431 13.5341C11.4767 13.6005 11.3866 13.6379 11.2926 13.6379H11.108C11.0141 13.6379 10.924 13.6005 10.8575 13.5341C10.7911 13.4677 10.7537 13.3775 10.7537 13.2836C10.7537 13.1896 10.7911 13.0995 10.8575 13.0331C10.924 12.9666 11.0141 12.9293 11.108 12.9293ZM9.81652 12.9293H10.0009C10.0949 12.9293 10.185 12.9666 10.2514 13.0331C10.3179 13.0995 10.3552 13.1896 10.3552 13.2836C10.3552 13.3775 10.3179 13.4677 10.2514 13.5341C10.185 13.6005 10.0949 13.6379 10.0009 13.6379H9.81652C9.72256 13.6379 9.63244 13.6005 9.566 13.5341C9.49956 13.4677 9.46223 13.3775 9.46223 13.2836C9.46223 13.1896 9.49956 13.0995 9.566 13.0331C9.63244 12.9666 9.72256 12.9293 9.81652 12.9293ZM9.65408 19.6607H9.74265C9.83661 19.6607 9.92673 19.6981 9.99317 19.7645C10.0596 19.8309 10.0969 19.9211 10.0969 20.015C10.0969 20.109 10.0596 20.1991 9.99317 20.2655C9.92673 20.332 9.83661 20.3693 9.74265 20.3693H9.65408C9.56012 20.3693 9.47001 20.332 9.40356 20.2655C9.33712 20.1991 9.2998 20.109 9.2998 20.015C9.2998 19.9211 9.33712 19.8309 9.40356 19.7645C9.47001 19.6981 9.56012 19.6607 9.65408 19.6607ZM8.52483 12.9293H8.7094C8.80337 12.9293 8.89348 12.9666 8.95992 13.0331C9.02636 13.0995 9.06369 13.1896 9.06369 13.2836C9.06369 13.3775 9.02636 13.4677 8.95992 13.5341C8.89348 13.6005 8.80337 13.6379 8.7094 13.6379H8.52483C8.43086 13.6379 8.34075 13.6005 8.27431 13.5341C8.20787 13.4677 8.17054 13.3775 8.17054 13.2836C8.17054 13.1896 8.20787 13.0995 8.27431 13.0331C8.34075 12.9666 8.43086 12.9293 8.52483 12.9293ZM8.47622 19.6607H8.64436C8.73832 19.6607 8.82844 19.6981 8.89488 19.7645C8.96132 19.8309 8.99865 19.9211 8.99865 20.015C8.99865 20.109 8.96132 20.1991 8.89488 20.2655C8.82844 20.332 8.73832 20.3693 8.64436 20.3693H8.47622C8.38226 20.3693 8.29214 20.332 8.2257 20.2655C8.15926 20.1991 8.12193 20.109 8.12193 20.015C8.12193 19.9211 8.15926 19.8309 8.2257 19.7645C8.29214 19.6981 8.38226 19.6607 8.47622 19.6607ZM7.4665 20.3693H7.29818C7.20422 20.3693 7.1141 20.332 7.04766 20.2655C6.98122 20.1991 6.94389 20.109 6.94389 20.015C6.94389 19.9211 6.98122 19.8309 7.04766 19.7645C7.1141 19.6981 7.20422 19.6607 7.29818 19.6607H7.4665C7.56046 19.6607 7.65057 19.6981 7.71701 19.7645C7.78346 19.8309 7.82078 19.9211 7.82078 20.015C7.82078 20.109 7.78346 20.1991 7.71701 20.2655C7.65057 20.332 7.56046 20.3693 7.4665 20.3693ZM7.23313 12.9293H7.41771C7.51168 12.9293 7.60179 12.9666 7.66823 13.0331C7.73467 13.0995 7.772 13.1896 7.772 13.2836C7.772 13.3775 7.73467 13.4677 7.66823 13.5341C7.60179 13.6005 7.51168 13.6379 7.41771 13.6379H7.23313C7.13917 13.6379 7.04906 13.6005 6.98262 13.5341C6.91617 13.4677 6.87885 13.3775 6.87885 13.2836C6.87885 13.1896 6.91617 13.0995 6.98262 13.0331C7.04906 12.9666 7.13917 12.9293 7.23313 12.9293ZM6.64273 20.015C6.64273 20.109 6.60541 20.1991 6.53897 20.2655C6.47253 20.332 6.38242 20.3693 6.28846 20.3693H6.19989C6.10593 20.3693 6.01581 20.332 5.94937 20.2655C5.88293 20.1991 5.8456 20.109 5.8456 20.015C5.8456 19.9211 5.88293 19.8309 5.94937 19.7645C6.01581 19.6981 6.10593 19.6607 6.19989 19.6607H6.28846C6.38242 19.6607 6.47253 19.6981 6.53896 19.7645C6.6054 19.8309 6.64273 19.9211 6.64273 20.015ZM5.94162 12.9293H6.12602C6.21998 12.9293 6.3101 12.9666 6.37654 13.0331C6.44298 13.0995 6.48031 13.1896 6.48031 13.2836C6.48031 13.3775 6.44298 13.4677 6.37654 13.5341C6.3101 13.6005 6.21998 13.6379 6.12602 13.6379H5.94162C5.84766 13.6379 5.75754 13.6005 5.6911 13.5341C5.62466 13.4677 5.58733 13.3775 5.58733 13.2836C5.58733 13.1896 5.62466 13.0995 5.6911 13.0331C5.75754 12.9666 5.84766 12.9293 5.94162 12.9293ZM4.64993 12.9293H4.83451C4.92847 12.9293 5.01858 12.9666 5.08503 13.0331C5.15147 13.0995 5.18879 13.1896 5.18879 13.2836C5.18879 13.3775 5.15147 13.4677 5.08503 13.5341C5.01858 13.6005 4.92847 13.6379 4.83451 13.6379H4.64993C4.55597 13.6379 4.46585 13.6005 4.39941 13.5341C4.33297 13.4677 4.29564 13.3775 4.29564 13.2836C4.29564 13.1896 4.33297 13.0995 4.39941 13.0331C4.46585 12.9666 4.55597 12.9293 4.64993 12.9293ZM3.45425 12.9293H3.54282C3.63678 12.9293 3.72689 12.9666 3.79333 13.0331C3.85978 13.0995 3.8971 13.1896 3.8971 13.2836C3.8971 13.3775 3.85978 13.4677 3.79333 13.5341C3.72689 13.6005 3.63678 13.6379 3.54282 13.6379H3.45425C3.36028 13.6379 3.27017 13.6005 3.20373 13.5341C3.13729 13.4677 3.09996 13.3775 3.09996 13.2836C3.09996 13.1896 3.13729 13.0995 3.20373 13.0331C3.27017 12.9666 3.36028 12.9293 3.45425 12.9293ZM6.16878 0.883545C6.07327 0.883585 5.97876 0.903036 5.89099 0.940716L0.433935 3.27374C0.259732 3.34896 0.122329 3.49 0.0516841 3.6661C-0.018961 3.84221 -0.0171191 4.0391 0.0568079 4.21386L2.68428 10.4492H3.45318L0.709762 3.93869C0.708695 3.93646 0.708381 3.93395 0.708869 3.93153C0.709356 3.92911 0.710619 3.92691 0.712465 3.92527L6.16904 1.59249L6.17138 1.59573L7.73995 5.3182C7.81658 5.31424 7.89368 5.31222 7.97127 5.31213C8.15514 5.31254 8.3388 5.32435 8.5212 5.3475L6.82433 1.32057C6.77021 1.19129 6.67914 1.08085 6.56252 1.00311C6.4459 0.925367 6.30894 0.883774 6.16878 0.883545Z" fill="url(#paint5_linear_1623_5189)"/>
<defs>
<linearGradient id="paint0_linear_1623_5189" x1="9.41322" y1="4.92709" x2="10.8333" y2="5.53309" gradientUnits="userSpaceOnUse">
<stop offset="0.324251" stop-color="#CA94D8"/>
<stop offset="0.545912" stop-color="#C02DD3"/>
<stop offset="1" stop-color="#D33D79"/>
</linearGradient>
<linearGradient id="paint1_linear_1623_5189" x1="12.4249" y1="6.16708" x2="13.845" y2="6.77308" gradientUnits="userSpaceOnUse">
<stop offset="0.324251" stop-color="#CA94D8"/>
<stop offset="0.545912" stop-color="#C02DD3"/>
<stop offset="1" stop-color="#D33D79"/>
</linearGradient>
<linearGradient id="paint2_linear_1623_5189" x1="4.98548" y1="3.1556" x2="6.40552" y2="3.76161" gradientUnits="userSpaceOnUse">
<stop offset="0.324251" stop-color="#CA94D8"/>
<stop offset="0.545912" stop-color="#C02DD3"/>
<stop offset="1" stop-color="#D33D79"/>
</linearGradient>
<linearGradient id="paint3_linear_1623_5189" x1="1.97376" y1="4.39559" x2="3.3938" y2="5.0016" gradientUnits="userSpaceOnUse">
<stop offset="0.324251" stop-color="#CA94D8"/>
<stop offset="0.545912" stop-color="#C02DD3"/>
<stop offset="1" stop-color="#D33D79"/>
</linearGradient>
<linearGradient id="paint4_linear_1623_5189" x1="0.79817" y1="4.72251" x2="12.4396" y2="13.0678" gradientUnits="userSpaceOnUse">
<stop offset="0.324251" stop-color="#CA94D8"/>
<stop offset="0.545912" stop-color="#C02DD3"/>
<stop offset="1" stop-color="#D33D79"/>
</linearGradient>
<linearGradient id="paint5_linear_1623_5189" x1="-7.31965" y1="-5.76219" x2="27.0082" y2="4.42386" gradientUnits="userSpaceOnUse">
<stop offset="0.324251" stop-color="#CA94D8"/>
<stop offset="0.545912" stop-color="#C02DD3"/>
<stop offset="1" stop-color="#D33D79"/>
</linearGradient>
</defs>
</svg>
