<svg width="20" height="24" viewBox="0 0 20 24" fill="none" xmlns="http://www.w3.org/2000/svg">
<path d="M12.4668 3.07717L13.0819 2.0135C13.1245 1.9399 13.1946 1.88623 13.2767 1.86429C13.3589 1.84235 13.4464 1.85395 13.52 1.89652C13.5936 1.9391 13.6472 2.00917 13.6692 2.09132C13.6911 2.17346 13.6795 2.26096 13.6369 2.33456L13.0218 3.39823C13.0007 3.43468 12.9727 3.46661 12.9393 3.49221C12.9058 3.51781 12.8677 3.53658 12.827 3.54744C12.7864 3.55831 12.7439 3.56105 12.7022 3.55552C12.6605 3.54999 12.6202 3.53629 12.5838 3.51521C12.5473 3.49413 12.5154 3.46608 12.4898 3.43265C12.4642 3.39923 12.4454 3.36109 12.4346 3.32042C12.4237 3.27974 12.421 3.23732 12.4265 3.19559C12.432 3.15385 12.4457 3.11361 12.4668 3.07717ZM14.8914 5.64629C14.9476 5.64627 15.0028 5.63155 15.0515 5.6036L16.0785 5.01054C16.1151 4.98958 16.1472 4.96159 16.173 4.92819C16.1988 4.89478 16.2177 4.85662 16.2287 4.81589C16.2397 4.77515 16.2425 4.73265 16.237 4.69082C16.2316 4.64899 16.2179 4.60865 16.1968 4.57212C16.1757 4.53559 16.1476 4.50358 16.1141 4.47794C16.0806 4.4523 16.0423 4.43352 16.0015 4.42269C15.9608 4.41185 15.9183 4.40918 15.8764 4.41481C15.8346 4.42045 15.7944 4.43429 15.7579 4.45553L14.7309 5.04814C14.6697 5.0834 14.6219 5.13788 14.5949 5.20311C14.5678 5.26835 14.5631 5.34068 14.5814 5.40888C14.5997 5.47708 14.64 5.53732 14.6961 5.58025C14.7521 5.62319 14.8208 5.6464 14.8914 5.64629ZM9.86287 2.80287C9.94791 2.80286 10.0294 2.76908 10.0896 2.70895C10.1497 2.64883 10.1835 2.56728 10.1835 2.48225V1.23786C10.1835 1.15282 10.1497 1.07127 10.0896 1.01114C10.0295 0.951016 9.94791 0.917236 9.86287 0.917236C9.77784 0.917236 9.69629 0.951016 9.63616 1.01114C9.57603 1.07127 9.54225 1.15282 9.54225 1.23786V2.48225C9.54227 2.56728 9.57605 2.64883 9.63618 2.70895C9.6963 2.76908 9.77785 2.80286 9.86287 2.80287ZM6.70393 3.39916C6.72489 3.43577 6.75288 3.46789 6.78628 3.49365C6.81969 3.51942 6.85785 3.53834 6.89858 3.54933C6.93932 3.56032 6.98182 3.56315 7.02365 3.55768C7.06548 3.5522 7.10582 3.53852 7.14235 3.51741C7.17888 3.49631 7.21089 3.4682 7.23653 3.4347C7.26218 3.4012 7.28095 3.36296 7.29178 3.32219C7.30262 3.28141 7.30529 3.2389 7.29966 3.19709C7.29402 3.15528 7.28019 3.11499 7.25894 3.07854L6.64383 2.0135C6.60129 1.9399 6.53124 1.88622 6.44912 1.86426C6.36699 1.8423 6.2795 1.85387 6.2059 1.89641C6.1323 1.93896 6.07862 2.009 6.05666 2.09113C6.0347 2.17325 6.04627 2.26074 6.08881 2.33434L6.70393 3.39916ZM3.64723 5.01054L4.67423 5.6036C4.71071 5.62466 4.75097 5.63832 4.79272 5.64381C4.83447 5.6493 4.8769 5.64652 4.91757 5.63561C4.95825 5.62471 4.99638 5.6059 5.02978 5.58026C5.06319 5.55462 5.09122 5.52266 5.11227 5.48618C5.13333 5.44971 5.14699 5.40945 5.15248 5.3677C5.15797 5.32594 5.15519 5.28352 5.14428 5.24284C5.13338 5.20217 5.11457 5.16404 5.08893 5.13063C5.06329 5.09722 5.03133 5.06919 4.99485 5.04814L3.96785 4.45557C3.9314 4.43433 3.89111 4.42049 3.8493 4.41486C3.80749 4.40922 3.76498 4.4119 3.7242 4.42273C3.68343 4.43356 3.6452 4.45234 3.61169 4.47798C3.57819 4.50363 3.55008 4.53563 3.52898 4.57216C3.50788 4.6087 3.49419 4.64903 3.48872 4.69087C3.48324 4.7327 3.48608 4.7752 3.49706 4.81593C3.50805 4.85667 3.52697 4.89483 3.55274 4.92823C3.57851 4.96164 3.61062 4.98958 3.64723 5.01054ZM8.30796 7.85436C8.17742 7.85436 8.05224 7.90622 7.95993 7.99852C7.86763 8.09082 7.81578 8.21601 7.81578 8.34654C7.81578 8.47708 7.86763 8.60226 7.95993 8.69457C8.05224 8.78687 8.17742 8.83872 8.30796 8.83872H8.80005V8.34654C8.79988 8.21607 8.74799 8.091 8.65574 7.99873C8.56349 7.90647 8.43843 7.85455 8.30796 7.85436ZM11.9105 8.34654C11.9105 8.21595 11.8586 8.09071 11.7662 7.99836C11.6739 7.90602 11.5487 7.85414 11.4181 7.85414C11.2875 7.85414 11.1622 7.90602 11.0699 7.99836C10.9775 8.09071 10.9257 8.21595 10.9257 8.34654V8.83872H11.4183C11.5488 8.83855 11.6738 8.78663 11.7661 8.69437C11.8584 8.60211 11.9103 8.47702 11.9105 8.34654ZM8.55564 15.3323H11.1701C11.173 15.181 11.1845 15.0301 11.2047 14.8802H8.52105C8.54123 15.0301 8.55278 15.181 8.55564 15.3323ZM9.44089 9.47947V14.2388H10.2849V9.47947H9.44089ZM8.90606 16.4257H10.8197C10.9123 16.4256 11.0011 16.3888 11.0666 16.3234C11.1321 16.258 11.169 16.1692 11.1692 16.0766V15.9735H8.55644V16.0768C8.55668 16.1693 8.59362 16.2581 8.65915 16.3235C8.72469 16.3889 8.81348 16.4256 8.90606 16.4257ZM9.43398 17.4843H10.2908C10.3462 17.4843 10.3992 17.4623 10.4383 17.4231C10.4775 17.384 10.4995 17.331 10.4995 17.2756V17.0669H9.22624V17.2759C9.2269 17.3309 9.24898 17.3834 9.28777 17.4224C9.32657 17.4613 9.37902 17.4836 9.43398 17.4844V17.4843ZM18.4231 11.117C18.3919 11.1037 18.3611 11.0904 18.3301 11.0771V21.0076C18.3299 21.0608 18.3166 21.1131 18.2912 21.1599C18.2658 21.2066 18.2292 21.2463 18.1847 21.2754C18.1402 21.3045 18.0891 21.3221 18.0361 21.3266C17.9831 21.3311 17.9298 21.3223 17.881 21.3011C15.0455 20.0595 12.47 20.0572 10.0072 21.2938C9.96256 21.3162 9.91328 21.3278 9.86332 21.3278C9.81335 21.3278 9.76408 21.3162 9.71939 21.2938C7.25669 20.0572 4.68119 20.0595 1.8456 21.3011C1.79683 21.3226 1.74349 21.3315 1.69041 21.3271C1.63733 21.3227 1.58618 21.3051 1.54159 21.276C1.49701 21.2468 1.4604 21.207 1.43507 21.1602C1.40975 21.1133 1.39651 21.0609 1.39656 21.0076V11.0766C1.36582 11.0899 1.33456 11.1037 1.30356 11.1175L0 11.6887V23.5909L3.04886 22.2561C5.21065 21.3081 7.06547 21.2925 8.88653 22.2074L9.86287 22.6969L10.8403 22.2071C12.6599 21.2929 14.5153 21.3081 16.6776 22.2561L19.7264 23.5909V11.6885L18.4231 11.117ZM6.06379 19.7303C7.26352 19.7519 8.4466 20.015 9.54248 20.5037V18.1252H9.4342C9.20913 18.1248 8.99339 18.0352 8.83429 17.876C8.67519 17.7168 8.5857 17.501 8.58544 17.2759V17.0125C8.39033 16.9456 8.22094 16.8195 8.1009 16.6518C7.98086 16.484 7.91614 16.283 7.91577 16.0768V15.4071C7.91577 14.193 7.2938 13.4491 6.57395 12.5876C5.84326 11.7134 5.02359 10.7313 4.89194 9.13375C3.96953 9.24565 3.01086 9.50848 2.03709 9.9167V20.5264C3.42018 19.9788 4.77192 19.7104 6.06357 19.7301L6.06379 19.7303ZM8.37376 14.239H8.80005V9.47947H8.30796C8.08381 9.47953 7.86468 9.4131 7.67829 9.28861C7.49189 9.16411 7.34661 8.98713 7.2608 8.78006C7.175 8.57298 7.15254 8.34511 7.19625 8.12527C7.23997 7.90542 7.3479 7.70348 7.5064 7.54499C7.6649 7.38649 7.86684 7.27856 8.08668 7.23484C8.30652 7.19113 8.53439 7.21359 8.74147 7.29939C8.94854 7.38519 9.12552 7.53048 9.25002 7.71687C9.37452 7.90327 9.44094 8.1224 9.44089 8.34654V8.83872H10.2849V8.34654C10.2848 8.12242 10.3512 7.90331 10.4757 7.71692C10.6002 7.53054 10.7771 7.38525 10.9842 7.29944C11.1912 7.21362 11.4191 7.19113 11.6389 7.23481C11.8587 7.27848 12.0607 7.38637 12.2192 7.54481C12.3777 7.70326 12.4857 7.90516 12.5294 8.12497C12.5732 8.34478 12.5508 8.57263 12.4651 8.77972C12.3794 8.9868 12.2341 9.16381 12.0478 9.28837C11.8615 9.41293 11.6424 9.47943 11.4183 9.47947H10.9257V14.2388H11.3523C11.6215 13.42 12.1467 12.7907 12.66 12.1765C13.4581 11.2211 14.2117 10.3193 14.2117 8.68045C14.2117 7.52709 13.7535 6.42097 12.938 5.60542C12.1224 4.78988 11.0163 4.33171 9.86296 4.33171C8.70961 4.33171 7.60349 4.78988 6.78794 5.60542C5.97239 6.42097 5.51422 7.52709 5.51422 8.68045C5.51422 10.3193 6.26786 11.2211 7.06595 12.1765C7.57956 12.7907 8.10429 13.42 8.37354 14.2388L8.37376 14.239ZM17.6885 20.5264V9.91661C16.7133 9.50839 15.7551 9.24605 14.8336 9.13366C14.702 10.7312 13.8823 11.7133 13.1516 12.5875C12.432 13.449 11.8098 14.1929 11.8098 15.407V16.0768C11.8094 16.283 11.7447 16.484 11.6247 16.6518C11.5046 16.8195 11.3352 16.9456 11.1401 17.0125V17.2759C11.1398 17.5012 11.0503 17.7171 10.891 17.8763C10.7318 18.0355 10.5159 18.1251 10.2907 18.1254H10.1835V20.5037C11.2794 20.015 12.4625 19.7519 13.6622 19.7303C14.9533 19.7118 16.3056 19.9788 17.6885 20.5264Z" fill="url(#paint0_linear_1623_5215)"/>
<defs>
<linearGradient id="paint0_linear_1623_5215" x1="-9.15869" y1="-5.7285" x2="31.9139" y2="9.52097" gradientUnits="userSpaceOnUse">
<stop offset="0.324251" stop-color="#CA94D8"/>
<stop offset="0.545912" stop-color="#C02DD3"/>
<stop offset="1" stop-color="#D33D79"/>
</linearGradient>
</defs>
</svg>
