<svg width="22" height="23" viewBox="0 0 22 23" fill="none" xmlns="http://www.w3.org/2000/svg">
<path d="M8.54297 7.57067L10.581 8.85007L12.6193 7.57067L10.581 6.2915L8.54297 7.57067Z" fill="url(#paint0_linear_1623_5198)"/>
<path d="M8.33008 10.5032L10.3394 11.7642V9.26839L8.33008 8.00708V10.5032Z" fill="url(#paint1_linear_1623_5198)"/>
<path d="M12.8299 8.00708L10.8203 9.26839V11.7642L12.8299 10.5032V8.00708Z" fill="url(#paint2_linear_1623_5198)"/>
<path d="M11.494 0.876872C11.2679 0.548338 10.9281 0.327868 10.5363 0.255503C10.1453 0.18338 9.74804 0.268288 9.42023 0.494788L8.23828 1.30913H11.7923L11.494 0.876872Z" fill="url(#paint3_linear_1623_5198)"/>
<path d="M0.262215 8.61468L3.27885 12.9922V4.72461L0.643817 6.54096C-0.0320666 7.00915 -0.20357 7.93952 0.262215 8.61468Z" fill="url(#paint4_linear_1623_5198)"/>
<path d="M6.13086 14.0476H15.0307V4.16089H6.13086V14.0476ZM7.84758 7.57118C7.84758 7.54971 7.85048 7.52897 7.85603 7.50871C7.85796 7.50171 7.86133 7.49568 7.86375 7.48893C7.86857 7.47614 7.87291 7.46336 7.87967 7.45154C7.88401 7.44406 7.8898 7.43755 7.8951 7.43055C7.9021 7.4209 7.90861 7.41102 7.91705 7.40257C7.92357 7.39582 7.93153 7.39075 7.93876 7.38472C7.94624 7.37869 7.95251 7.37194 7.96071 7.36663L10.4525 5.8026C10.5306 5.75339 10.6305 5.75339 10.7089 5.8026L13.2006 7.36663C13.2088 7.3717 13.2151 7.37869 13.2226 7.38448C13.23 7.39051 13.2378 7.39582 13.2445 7.40233C13.253 7.41077 13.2595 7.42066 13.2662 7.43007C13.2713 7.43731 13.2773 7.44358 13.2817 7.4513C13.2882 7.46288 13.2925 7.47566 13.2973 7.4882C13.2998 7.49496 13.3034 7.50123 13.3053 7.50847C13.3106 7.52849 13.3138 7.54947 13.3138 7.5707V10.6363C13.3138 10.7193 13.2711 10.7965 13.2006 10.8406L10.7089 12.4046C10.7016 12.4092 10.6937 12.4112 10.6862 12.4148C10.6787 12.4184 10.6715 12.4218 10.6638 12.4249C10.6367 12.4348 10.609 12.4418 10.5808 12.4418C10.5526 12.4418 10.5246 12.435 10.4978 12.4249C10.4901 12.422 10.4829 12.4186 10.4754 12.4148C10.4679 12.4112 10.4599 12.4092 10.4527 12.4046L7.96096 10.8406C7.89052 10.7965 7.84783 10.7193 7.84783 10.6363L7.84758 7.57118Z" fill="url(#paint5_linear_1623_5198)"/>
<path d="M20.8968 14.52L17.8828 10.147V18.4074L20.5152 16.5937C20.8437 16.3677 21.0642 16.0275 21.1363 15.6358C21.2084 15.2443 21.1233 14.848 20.8968 14.52Z" fill="url(#paint6_linear_1623_5198)"/>
<path d="M16.7891 5.55582C16.7891 6.64708 17.677 7.53523 18.7682 7.53523C19.8595 7.53523 20.7476 6.64732 20.7476 5.55582C20.7476 4.46433 19.8595 3.57642 18.7682 3.57642C17.677 3.57642 16.7891 4.46457 16.7891 5.55582ZM17.9069 5.46464C18.0012 5.37033 18.1536 5.37033 18.2479 5.46464L18.485 5.70176L19.2883 4.89827C19.3826 4.80396 19.5351 4.80396 19.6294 4.89827C19.7237 4.99259 19.7237 5.14504 19.6294 5.23935L18.6556 6.21338C18.6102 6.25872 18.5492 6.28405 18.485 6.28405C18.4209 6.28405 18.3596 6.25872 18.3145 6.21338L17.9069 5.80572C17.8128 5.71141 17.8128 5.55872 17.9069 5.46464Z" fill="url(#paint7_linear_1623_5198)"/>
<path d="M16.3075 5.5559C16.3075 4.70489 16.742 3.95351 17.4002 3.51112V3.28221C17.4002 2.46015 16.7316 1.7915 15.9095 1.7915H5.25243C4.43061 1.7915 3.76172 2.46015 3.76172 3.28221V19.852C3.76172 20.6752 4.43037 21.3451 5.25243 21.3451H15.9098C16.7316 21.3451 17.4005 20.6752 17.4005 19.852V7.60068C16.7417 7.15829 16.3075 6.40691 16.3075 5.5559ZM8.86799 19.2062C8.86799 19.3129 8.79804 19.4069 8.69577 19.4373C8.67285 19.4441 8.64969 19.4475 8.62678 19.4475C8.54694 19.4475 8.47047 19.4077 8.42488 19.3384L7.28924 17.6031V19.2062C7.28924 19.3394 7.18142 19.4475 7.04803 19.4475C6.91464 19.4475 6.80681 19.3394 6.80681 19.2062V16.7941C6.80681 16.6875 6.87677 16.5934 6.97904 16.563C7.08204 16.5329 7.19155 16.5731 7.24993 16.6622L8.38556 18.3974V16.7943C8.38556 16.6612 8.49339 16.5531 8.62678 16.5531C8.76017 16.5531 8.86799 16.6612 8.86799 16.7943V19.2062ZM11.2415 17.759C11.3749 17.759 11.4828 17.867 11.4828 18.0002C11.4828 18.1333 11.3749 18.2414 11.2415 18.2414H10.2752V19.2062C10.2752 19.3394 10.1674 19.4475 10.034 19.4475C9.90063 19.4475 9.79281 19.3394 9.79281 19.2062V16.7941C9.79281 16.6609 9.90063 16.5529 10.034 16.5529H11.2415C11.3749 16.5529 11.4828 16.6609 11.4828 16.7941C11.4828 16.9272 11.3749 17.0353 11.2415 17.0353H10.2752V17.759H11.2415ZM14.1132 17.0353H13.4971V19.2062C13.4971 19.3394 13.3893 19.4475 13.2559 19.4475C13.1225 19.4475 13.0147 19.3394 13.0147 19.2062V17.0353H12.3984C12.265 17.0353 12.1572 16.9272 12.1572 16.7941C12.1572 16.6609 12.265 16.5529 12.3984 16.5529H14.113C14.2464 16.5529 14.3542 16.6609 14.3542 16.7941C14.3542 16.9272 14.2466 17.0353 14.1132 17.0353ZM15.513 14.2886C15.513 14.4217 15.4052 14.5298 15.2718 14.5298H5.88947C5.75608 14.5298 5.64826 14.4217 5.64826 14.2886V3.9195C5.64826 3.78635 5.75608 3.67829 5.88947 3.67829H15.2718C15.4052 3.67829 15.513 3.78635 15.513 3.9195V14.2886Z" fill="url(#paint8_linear_1623_5198)"/>
<path d="M9.66533 22.2599C10.1326 22.9363 11.0634 23.108 11.7417 22.6417L12.922 21.8276H9.36719L9.66533 22.2599Z" fill="url(#paint9_linear_1623_5198)"/>
<defs>
<linearGradient id="paint0_linear_1623_5198" x1="6.65041" y1="5.54158" x2="13.2547" y2="10.0319" gradientUnits="userSpaceOnUse">
<stop offset="0.324251" stop-color="#CA94D8"/>
<stop offset="0.545912" stop-color="#C02DD3"/>
<stop offset="1" stop-color="#D33D79"/>
</linearGradient>
<linearGradient id="paint1_linear_1623_5198" x1="7.39718" y1="6.90584" x2="11.9218" y2="7.93849" gradientUnits="userSpaceOnUse">
<stop offset="0.324251" stop-color="#CA94D8"/>
<stop offset="0.545912" stop-color="#C02DD3"/>
<stop offset="1" stop-color="#D33D79"/>
</linearGradient>
<linearGradient id="paint2_linear_1623_5198" x1="9.8873" y1="6.90584" x2="14.4125" y2="7.93872" gradientUnits="userSpaceOnUse">
<stop offset="0.324251" stop-color="#CA94D8"/>
<stop offset="0.545912" stop-color="#C02DD3"/>
<stop offset="1" stop-color="#D33D79"/>
</linearGradient>
<linearGradient id="paint3_linear_1623_5198" x1="6.58818" y1="-0.0856902" x2="9.41643" y2="3.89111" gradientUnits="userSpaceOnUse">
<stop offset="0.324251" stop-color="#CA94D8"/>
<stop offset="0.545912" stop-color="#C02DD3"/>
<stop offset="1" stop-color="#D33D79"/>
</linearGradient>
<linearGradient id="paint4_linear_1623_5198" x1="-1.52232" y1="2.30134" x2="6.02938" y2="3.57943" gradientUnits="userSpaceOnUse">
<stop offset="0.324251" stop-color="#CA94D8"/>
<stop offset="0.545912" stop-color="#C02DD3"/>
<stop offset="1" stop-color="#D33D79"/>
</linearGradient>
<linearGradient id="paint5_linear_1623_5198" x1="1.99878" y1="1.26307" x2="20.3722" y2="8.32137" gradientUnits="userSpaceOnUse">
<stop offset="0.324251" stop-color="#CA94D8"/>
<stop offset="0.545912" stop-color="#C02DD3"/>
<stop offset="1" stop-color="#D33D79"/>
</linearGradient>
<linearGradient id="paint6_linear_1623_5198" x1="16.3606" y1="7.72582" x2="23.9112" y2="9.00471" gradientUnits="userSpaceOnUse">
<stop offset="0.324251" stop-color="#CA94D8"/>
<stop offset="0.545912" stop-color="#C02DD3"/>
<stop offset="1" stop-color="#D33D79"/>
</linearGradient>
<linearGradient id="paint7_linear_1623_5198" x1="14.9512" y1="2.41607" x2="22.8848" y2="5.80159" gradientUnits="userSpaceOnUse">
<stop offset="0.324251" stop-color="#CA94D8"/>
<stop offset="0.545912" stop-color="#C02DD3"/>
<stop offset="1" stop-color="#D33D79"/>
</linearGradient>
<linearGradient id="paint8_linear_1623_5198" x1="-2.57056" y1="-3.93972" x2="27.1115" y2="4.89554" gradientUnits="userSpaceOnUse">
<stop offset="0.324251" stop-color="#CA94D8"/>
<stop offset="0.545912" stop-color="#C02DD3"/>
<stop offset="1" stop-color="#D33D79"/>
</linearGradient>
<linearGradient id="paint9_linear_1623_5198" x1="7.71675" y1="21.5121" x2="10.5376" y2="25.4869" gradientUnits="userSpaceOnUse">
<stop offset="0.324251" stop-color="#CA94D8"/>
<stop offset="0.545912" stop-color="#C02DD3"/>
<stop offset="1" stop-color="#D33D79"/>
</linearGradient>
</defs>
</svg>
