<svg width="22" height="22" viewBox="0 0 22 22" fill="none" xmlns="http://www.w3.org/2000/svg">
<path d="M17.3084 6.09435C17.4247 5.49272 17.4066 4.87282 17.2553 4.27903C17.104 3.68523 16.8234 3.13222 16.4334 2.65959C16.0433 2.18696 15.5537 1.80641 14.9994 1.54516C14.4451 1.28391 13.8399 1.14844 13.2272 1.14844C12.6144 1.14844 12.0092 1.28391 11.4549 1.54516C10.9006 1.80641 10.411 2.18696 10.021 2.65959C9.63096 3.13222 9.35027 3.68523 9.19899 4.27903C9.04771 4.87282 9.02957 5.49272 9.14589 6.09435H17.3084Z" fill="#3F3A52"/>
<path d="M21.1647 15.1641V12.8967C21.1647 12.7965 21.1248 12.7004 21.054 12.6295C20.9831 12.5586 20.887 12.5188 20.7868 12.5188H18.5194C18.1185 12.5188 17.734 12.6781 17.4505 12.9615C17.1671 13.245 17.0078 13.6295 17.0078 14.0304C17.0078 14.4313 17.1671 14.8157 17.4505 15.0992C17.734 15.3827 18.1185 15.542 18.5194 15.542H20.7868C20.887 15.542 20.9831 15.5021 21.054 15.4313C21.1248 15.3604 21.1647 15.2643 21.1647 15.1641Z" fill="url(#paint0_linear_1623_5163)"/>
<path d="M10.4927 1.2593C9.7927 0.558721 8.86539 0.131368 7.87805 0.0543354C6.8907 -0.0226969 5.90833 0.255664 5.10817 0.8392C4.308 1.42274 3.74272 2.27302 3.51431 3.23667C3.2859 4.20031 3.40939 5.21386 3.86251 6.09446H8.37911C8.33822 5.84456 8.31661 5.59189 8.31449 5.33867C8.31311 4.53184 8.51125 3.73717 8.89128 3.02544C9.27131 2.31371 9.82144 1.70699 10.4927 1.2593Z" fill="#3F3A52"/>
<path d="M20.0298 6.09469V3.44943C20.0298 3.3492 19.99 3.25309 19.9191 3.18222C19.8482 3.11135 19.7521 3.07153 19.6519 3.07153H17.5859C17.9514 3.77137 18.1416 4.5494 18.1403 5.3389C18.1382 5.59212 18.1166 5.84479 18.0757 6.09469H20.0298Z" fill="url(#paint1_linear_1623_5163)"/>
<path d="M4.91204 10.2516C5.32945 10.2516 5.66783 9.91319 5.66783 9.49578C5.66783 9.07837 5.32945 8.73999 4.91204 8.73999C4.49463 8.73999 4.15625 9.07837 4.15625 9.49578C4.15625 9.91319 4.49463 10.2516 4.91204 10.2516Z" fill="url(#paint2_linear_1623_5163)"/>
<path d="M7.93743 14.786C8.35484 14.786 8.69322 14.4476 8.69322 14.0302C8.69322 13.6128 8.35484 13.2744 7.93743 13.2744C7.52002 13.2744 7.18164 13.6128 7.18164 14.0302C7.18164 14.4476 7.52002 14.786 7.93743 14.786Z" fill="url(#paint3_linear_1623_5163)"/>
<path d="M3.07499 16.9476C3.00363 16.8624 2.91447 16.7939 2.8138 16.7469C2.71313 16.6999 2.60339 16.6755 2.49228 16.6755H0.00195312V19.6987C0.00195313 20.0996 0.161208 20.484 0.444684 20.7675C0.728161 21.051 1.11264 21.2102 1.51353 21.2102H20.0304C20.1306 21.2102 20.2267 21.1704 20.2976 21.0996C20.3685 21.0287 20.4083 20.9326 20.4083 20.8323V16.2976H18.5188C17.9175 16.2976 17.3407 16.0587 16.9155 15.6335C16.4903 15.2083 16.2514 14.6316 16.2514 14.0302C16.2514 13.4289 16.4903 12.8522 16.9155 12.427C17.3407 12.0018 17.9175 11.7629 18.5188 11.7629H20.4083V7.22813C20.4083 7.12791 20.3685 7.03179 20.2976 6.96092C20.2267 6.89005 20.1306 6.85024 20.0304 6.85024H1.59289C1.00646 6.85012 0.440432 6.635 0.00195312 6.24561V11.385H2.49228C2.60365 11.3849 2.71365 11.3604 2.81452 11.3132C2.9154 11.266 3.0047 11.1972 3.07613 11.1118L3.68945 10.3741C3.46872 10.072 3.36591 9.69976 3.40033 9.32723C3.43475 8.9547 3.60404 8.60757 3.87638 8.35106C4.14872 8.09455 4.50536 7.94633 4.87928 7.93425C5.2532 7.92218 5.61866 8.04707 5.90698 8.28547C6.19531 8.52387 6.38664 8.85936 6.44503 9.22889C6.50342 9.59843 6.42484 9.97656 6.22407 10.2922C6.02329 10.6079 5.71414 10.8394 5.35471 10.9432C4.99528 11.047 4.61032 11.016 4.27216 10.8559L3.65582 11.5966C3.51358 11.767 3.33564 11.9041 3.13458 11.9981C2.93351 12.0921 2.71424 12.1408 2.49228 12.1408H0.00195312V13.6523H6.47983C6.5718 13.2961 6.79054 12.9857 7.09504 12.7792C7.39954 12.5727 7.7689 12.4843 8.13387 12.5307C8.49885 12.5771 8.83439 12.7549 9.0776 13.031C9.3208 13.3071 9.45499 13.6623 9.45499 14.0302C9.45499 14.3981 9.3208 14.7534 9.0776 15.0295C8.83439 15.3055 8.49885 15.4834 8.13387 15.5298C7.7689 15.5761 7.39954 15.4878 7.09504 15.2813C6.79054 15.0748 6.5718 14.7644 6.47983 14.4081H0.00195312V15.9197H2.49228C2.71403 15.9195 2.93312 15.968 3.134 16.062C3.33489 16.1559 3.51265 16.2928 3.65468 16.4631L4.27216 17.2046C4.47235 17.1069 4.69185 17.0552 4.91459 17.0534C5.25653 17.0511 5.58928 17.1641 5.85917 17.3741C6.12907 17.584 6.32037 17.8788 6.40225 18.2108C6.48412 18.5428 6.45178 18.8927 6.31045 19.2041C6.16913 19.5155 5.92704 19.7702 5.62324 19.9271C5.31944 20.0841 4.97163 20.1342 4.63589 20.0693C4.30015 20.0044 3.99606 19.8283 3.77264 19.5694C3.54923 19.3105 3.41952 18.9839 3.40442 18.6423C3.38933 18.3007 3.48974 17.9639 3.68945 17.6864L3.07499 16.9476Z" fill="url(#paint4_linear_1623_5163)"/>
<path d="M4.91204 19.3207C5.32945 19.3207 5.66783 18.9823 5.66783 18.5649C5.66783 18.1475 5.32945 17.8091 4.91204 17.8091C4.49463 17.8091 4.15625 18.1475 4.15625 18.5649C4.15625 18.9823 4.49463 19.3207 4.91204 19.3207Z" fill="url(#paint5_linear_1623_5163)"/>
<path d="M0.000363434 4.58689C-0.0007689 4.63216 0.000745292 4.67746 0.0048982 4.72256C0.0538159 5.10654 0.242783 5.45894 0.535551 5.71217C0.82832 5.9654 1.20427 6.10161 1.5913 6.09469H3.02125C2.62199 5.13805 2.53845 4.07894 2.7828 3.07153H1.51194C1.11154 3.07313 0.727985 3.23289 0.444854 3.51602C0.161722 3.79916 0.00195552 4.18271 0.000363434 4.58311V4.58689Z" fill="#3F3A52"/>
<defs>
<linearGradient id="paint0_linear_1623_5163" x1="15.0778" y1="11.6327" x2="22.4036" y2="15.9313" gradientUnits="userSpaceOnUse">
<stop offset="0.324251" stop-color="#CA94D8"/>
<stop offset="0.545912" stop-color="#C02DD3"/>
<stop offset="1" stop-color="#D33D79"/>
</linearGradient>
<linearGradient id="paint1_linear_1623_5163" x1="16.4513" y1="2.18544" x2="21.6253" y2="3.97035" gradientUnits="userSpaceOnUse">
<stop offset="0.324251" stop-color="#CA94D8"/>
<stop offset="0.545912" stop-color="#C02DD3"/>
<stop offset="1" stop-color="#D33D79"/>
</linearGradient>
<linearGradient id="paint2_linear_1623_5163" x1="3.45445" y1="8.29694" x2="6.48386" y2="9.58975" gradientUnits="userSpaceOnUse">
<stop offset="0.324251" stop-color="#CA94D8"/>
<stop offset="0.545912" stop-color="#C02DD3"/>
<stop offset="1" stop-color="#D33D79"/>
</linearGradient>
<linearGradient id="paint3_linear_1623_5163" x1="6.47984" y1="12.8314" x2="9.50925" y2="14.1242" gradientUnits="userSpaceOnUse">
<stop offset="0.324251" stop-color="#CA94D8"/>
<stop offset="0.545912" stop-color="#C02DD3"/>
<stop offset="1" stop-color="#D33D79"/>
</linearGradient>
<linearGradient id="paint4_linear_1623_5163" x1="-9.47241" y1="1.85942" x2="26.6425" y2="22.876" gradientUnits="userSpaceOnUse">
<stop offset="0.324251" stop-color="#CA94D8"/>
<stop offset="0.545912" stop-color="#C02DD3"/>
<stop offset="1" stop-color="#D33D79"/>
</linearGradient>
<linearGradient id="paint5_linear_1623_5163" x1="3.45445" y1="17.366" x2="6.48386" y2="18.6588" gradientUnits="userSpaceOnUse">
<stop offset="0.324251" stop-color="#CA94D8"/>
<stop offset="0.545912" stop-color="#C02DD3"/>
<stop offset="1" stop-color="#D33D79"/>
</linearGradient>
</defs>
</svg>
