<svg width="23" height="24" viewBox="0 0 23 24" fill="none" xmlns="http://www.w3.org/2000/svg">
<path d="M12.2812 6.07999C14.6605 6.48147 16.5387 8.36076 16.9411 10.7402H22.6734C22.214 5.21722 17.8038 0.806578 12.2812 0.348145V6.07999Z" fill="url(#paint0_linear_1623_5173)"/>
<path d="M17.0126 12.6287C16.5645 15.3051 14.2546 17.3523 11.4722 17.3523C10.1532 17.3523 8.94195 16.8894 7.98198 16.1204L3.7793 19.9324C5.79299 21.8417 8.49572 23.0208 11.4722 23.0208C17.3595 23.0208 22.195 18.4378 22.674 12.6287H17.0126Z" fill="url(#paint1_linear_1623_5173)"/>
<path d="M6.55553 14.5246C5.99719 13.6549 5.66842 12.6271 5.66842 11.5227C5.66842 8.74796 7.71567 6.44366 10.3921 5.9957V0.347168C4.58197 0.825984 0 5.65062 0 11.5227C0 14.0692 0.871047 16.4118 2.32027 18.2972L6.55553 14.5246Z" fill="#3F3A52"/>
<defs>
<linearGradient id="paint0_linear_1623_5173" x1="7.45634" y1="-2.69782" x2="28.2836" y2="6.19026" gradientUnits="userSpaceOnUse">
<stop offset="0.324251" stop-color="#CA94D8"/>
<stop offset="0.545912" stop-color="#C02DD3"/>
<stop offset="1" stop-color="#D33D79"/>
</linearGradient>
<linearGradient id="paint1_linear_1623_5173" x1="-4.99326" y1="9.5827" x2="22.9486" y2="31.2632" gradientUnits="userSpaceOnUse">
<stop offset="0.324251" stop-color="#CA94D8"/>
<stop offset="0.545912" stop-color="#C02DD3"/>
<stop offset="1" stop-color="#D33D79"/>
</linearGradient>
</defs>
</svg>
