<svg width="22" height="24" viewBox="0 0 22 24" fill="none" xmlns="http://www.w3.org/2000/svg">
<path fill-rule="evenodd" clip-rule="evenodd" d="M15.0374 18.733C15.8871 17.1148 16.3583 15.3248 16.4154 13.498H10.952V18.1756C12.3311 18.1991 13.7025 18.3863 15.0374 18.733ZM0.749423 10.2792C0.740838 10.3784 0.6932 10.4701 0.616988 10.5342C0.540776 10.5982 0.442234 10.6294 0.34304 10.6208C0.243846 10.6122 0.152125 10.5646 0.088055 10.4884C0.0239849 10.4122 -0.00718611 10.3136 0.00139926 10.2144C0.169994 8.35977 0.823301 6.58203 1.89579 5.05953C2.96829 3.53704 4.42226 2.32331 6.11187 1.54009L5.53348 1.44006C5.43507 1.42327 5.34737 1.36807 5.28965 1.28662C5.23194 1.20516 5.20895 1.10411 5.22574 1.00571C5.24253 0.907301 5.29773 0.819594 5.37918 0.761882C5.46064 0.70417 5.56168 0.68118 5.66009 0.69797L7.57546 1.02922C7.63729 1.03989 7.69549 1.06582 7.74476 1.10467C7.79404 1.14351 7.83283 1.19405 7.85764 1.25169C7.88244 1.30932 7.89246 1.37224 7.8868 1.43473C7.88113 1.49722 7.85996 1.55731 7.82519 1.60955L6.90056 3.09103C6.87474 3.13358 6.84073 3.17058 6.80051 3.1999C6.76029 3.22921 6.71466 3.25026 6.66625 3.26182C6.61784 3.27338 6.56762 3.27522 6.51849 3.26724C6.46937 3.25926 6.42231 3.24162 6.38005 3.21533C6.33779 3.18904 6.30117 3.15463 6.27229 3.11409C6.24342 3.07355 6.22288 3.02769 6.21185 2.97916C6.20082 2.93062 6.19953 2.88038 6.20805 2.83135C6.21657 2.78231 6.23473 2.73546 6.26148 2.69349L6.60668 2.14035C4.99267 2.85049 3.59824 3.97983 2.56823 5.41106C1.53822 6.84229 0.910206 8.5232 0.749423 10.2792ZM8.59776 6.99617H9.54063C9.60308 6.99629 9.66293 7.02115 9.70708 7.06531C9.75124 7.10947 9.7761 7.16932 9.77623 7.23177V11.8591C9.7761 11.9216 9.75124 11.9814 9.70708 12.0256C9.66293 12.0698 9.60308 12.0946 9.54063 12.0947H8.59776C8.53532 12.0946 8.47546 12.0698 8.43131 12.0256C8.38715 11.9814 8.36229 11.9216 8.36217 11.8591V7.23177C8.36229 7.16932 8.38715 7.10947 8.43131 7.06531C8.47546 7.02115 8.53532 6.99629 8.59776 6.99617ZM5.58592 9.38193C5.52347 9.38204 5.46361 9.4069 5.41945 9.45106C5.3753 9.49522 5.35044 9.55508 5.35033 9.61753V11.8592C5.35045 11.9216 5.37531 11.9815 5.41947 12.0257C5.46362 12.0698 5.52348 12.0947 5.58592 12.0948H6.52884C6.59128 12.0947 6.65113 12.0698 6.69529 12.0257C6.73945 11.9815 6.76431 11.9216 6.76443 11.8592V9.61748C6.76432 9.55503 6.73946 9.49517 6.6953 9.45101C6.65115 9.40685 6.59129 9.38199 6.52884 9.38188L5.58592 9.38193ZM14.6215 5.14116H15.5644C15.6268 5.14129 15.6867 5.16615 15.7309 5.21031C15.775 5.25446 15.7999 5.31431 15.8 5.37676V11.8591C15.7999 11.9216 15.775 11.9814 15.7309 12.0256C15.6867 12.0698 15.6268 12.0946 15.5644 12.0947H14.6215C14.559 12.0946 14.4992 12.0698 14.455 12.0256C14.4109 11.9814 14.386 11.9216 14.3859 11.8591V5.37685C14.386 5.31441 14.4109 5.25456 14.455 5.2104C14.4992 5.16624 14.559 5.14129 14.6215 5.14116ZM11.6096 7.96047H12.5525C12.615 7.9606 12.6748 7.98546 12.719 8.02961C12.7631 8.07377 12.788 8.13362 12.7881 8.19607V11.8591C12.788 11.9215 12.7631 11.9814 12.719 12.0255C12.6748 12.0697 12.615 12.0945 12.5525 12.0947H11.6096C11.5472 12.0945 11.4873 12.0697 11.4431 12.0255C11.399 11.9814 11.3741 11.9215 11.374 11.8591V8.19616C11.3741 8.13372 11.399 8.07386 11.4431 8.02971C11.4873 7.98555 11.5472 7.9606 11.6096 7.96047ZM13.6876 3.31245L13.837 3.31193L12.0074 4.97672L9.21795 3.77724L9.21739 3.77851C9.15643 3.75229 9.08961 3.74272 9.02375 3.75078C8.95789 3.75883 8.89534 3.78422 8.8425 3.82436L5.83062 6.11126C5.75134 6.1714 5.69921 6.26057 5.68568 6.35915C5.67215 6.45774 5.69833 6.55765 5.75848 6.63693C5.81862 6.7162 5.90779 6.76834 6.00637 6.78187C6.10495 6.7954 6.20487 6.76921 6.28414 6.70907L9.12075 4.55532L11.9326 5.76441C12.0018 5.79418 12.0784 5.8025 12.1524 5.78829C12.2264 5.77407 12.2944 5.73799 12.3477 5.68469L14.2231 3.97896C14.2081 4.0763 14.2319 4.17563 14.2892 4.25567C14.3466 4.33571 14.4331 4.39009 14.5301 4.40714C14.6271 4.42419 14.7269 4.40257 14.8081 4.3469C14.8894 4.29123 14.9456 4.20595 14.9647 4.10934L15.1819 3.00523C15.1925 2.95083 15.191 2.89477 15.1774 2.84105C15.1638 2.78733 15.1384 2.73728 15.1032 2.6945C15.068 2.65171 15.0237 2.61725 14.9736 2.59358C14.9235 2.56992 14.8688 2.55763 14.8134 2.55759L13.6881 2.56169C13.5892 2.5628 13.4948 2.60285 13.4253 2.67314C13.3557 2.74343 13.3168 2.83831 13.3168 2.93717C13.3168 3.03602 13.3557 3.1309 13.4253 3.20119C13.4948 3.27148 13.5887 3.31134 13.6876 3.31245ZM20.311 6.13426L20.211 6.71251C19.3594 4.87413 17.9996 3.31775 16.2922 2.22707C14.5848 1.1364 12.601 0.55695 10.575 0.557129C10.475 0.557129 10.3791 0.596844 10.3084 0.667537C10.2378 0.73823 10.198 0.834111 10.198 0.934086C10.198 1.03406 10.2378 1.12994 10.3084 1.20063C10.3791 1.27133 10.475 1.31104 10.575 1.31104C12.491 1.31063 14.3656 1.86798 15.9702 2.91506C17.5747 3.96213 18.8398 5.45366 19.6109 7.20759L19.0577 6.86235C19.0157 6.8356 18.9688 6.81744 18.9198 6.80892C18.8708 6.8004 18.8205 6.80169 18.772 6.81272C18.7235 6.82375 18.6776 6.84429 18.6371 6.87316C18.5965 6.90203 18.5621 6.93866 18.5358 6.98092C18.5095 7.02318 18.4919 7.07024 18.4839 7.11936C18.4759 7.16849 18.4778 7.21871 18.4893 7.26712C18.5009 7.31553 18.5219 7.36116 18.5513 7.40138C18.5806 7.4416 18.6176 7.47561 18.6601 7.50143L20.1417 8.42587C20.1939 8.46064 20.254 8.48181 20.3165 8.48748C20.379 8.49314 20.4419 8.48312 20.4996 8.45832C20.5572 8.43352 20.6077 8.39472 20.6466 8.34544C20.6854 8.29617 20.7114 8.23797 20.722 8.17614L21.0533 6.26077C21.0693 6.16271 21.0458 6.06231 20.9881 5.98145C20.9303 5.9006 20.843 5.84585 20.745 5.82914C20.6471 5.81243 20.5465 5.83512 20.4653 5.89226C20.384 5.94939 20.3284 6.03644 20.311 6.13426ZM4.7348 13.4982C4.79195 15.325 5.26311 17.115 6.11277 18.7332C7.44769 18.3865 8.81904 18.1995 10.198 18.176V13.4982H4.7348ZM6.49774 19.4109C7.43329 20.9384 8.69737 22.2383 10.1981 23.2161V18.9299C8.95062 18.9522 7.70949 19.1135 6.49774 19.4109ZM8.92369 23.2305C6.89952 22.9014 5.02135 21.9704 3.53377 20.5588C4.23606 20.1692 4.97759 19.855 5.74599 19.6214C6.56728 21.0148 7.6456 22.2393 8.92369 23.2305ZM5.37667 18.9489C4.54466 19.2115 3.74416 19.565 2.98968 20.0032C1.36391 18.217 0.424532 15.912 0.338682 13.4982H3.98348C4.03888 15.3958 4.51472 17.2574 5.37667 18.9489ZM17.1667 13.4982H20.8102C20.7248 15.9118 19.7859 18.2168 18.1606 20.0032C17.4061 19.5651 16.6056 19.2116 15.7736 18.9491C16.6355 17.2577 17.1113 15.3958 17.1667 13.4982ZM15.4044 19.6212C14.5831 21.0146 13.5048 22.2394 12.2266 23.2306C14.2509 22.9014 16.1291 21.9704 17.6167 20.5587C16.9144 20.169 16.1729 19.8547 15.4044 19.6212ZM10.9522 23.2161V18.9299C12.1996 18.9522 13.4406 19.1136 14.6523 19.4109C13.7168 20.9384 12.453 22.2383 10.9522 23.2161Z" fill="url(#paint0_linear_1623_5196)"/>
<defs>
<linearGradient id="paint0_linear_1623_5196" x1="-9.77701" y1="-6.08854" x2="33.3393" y2="11.0006" gradientUnits="userSpaceOnUse">
<stop offset="0.324251" stop-color="#CA94D8"/>
<stop offset="0.545912" stop-color="#C02DD3"/>
<stop offset="1" stop-color="#D33D79"/>
</linearGradient>
</defs>
</svg>
