<svg width="19" height="23" viewBox="0 0 19 23" fill="none" xmlns="http://www.w3.org/2000/svg">
<path d="M11.0206 15.3497C11.0206 15.567 10.8435 15.7434 10.627 15.7434C10.7419 15.7434 8.77922 15.7434 8.65876 15.7434V14.9561C8.57767 14.9561 10.486 14.9561 10.627 14.9561C10.8435 14.9561 11.0206 15.1324 11.0206 15.3497ZM9.83968 13.3815H8.65876V12.5942H9.83968C10.0562 12.5942 10.2333 12.7706 10.2333 12.9879C10.2333 13.2052 10.0562 13.3815 9.83968 13.3815Z" fill="url(#paint0_linear_1623_5222)"/>
<path d="M13.5656 5.90242H5.28974C3.69786 7.99186 0 10.4167 0 14.4113C0 17.8022 2.57677 22.0417 9.44737 22.0417C16.318 22.0417 18.8947 17.8022 18.8947 14.4113C18.8947 10.382 15.1339 8.03673 13.5656 5.90242ZM10.5102 17.318H10.2346V18.4989H9.44737V17.318H8.66009V18.4989H7.87281V17.318H7.47917C7.26188 17.318 7.08553 17.1416 7.08553 16.9243C7.08553 16.8031 7.08553 11.2197 7.08553 11.4134C7.08553 11.1961 7.26188 11.0197 7.47917 11.0197H7.87281V9.83882H8.66009V11.0197H9.44737V9.83882H10.2346V11.0599C11.3762 11.2929 12.1288 12.5061 11.6746 13.6894C12.2784 14.0712 12.665 14.768 12.587 15.5505C12.4839 16.5764 11.5415 17.318 10.5102 17.318ZM5.11732 3.14693H5.81407C5.4716 2.18803 4.77013 1.42594 4.43003 0.667C4.33319 0.450498 4.44263 0.193057 4.66857 0.11984C6.50609 -0.47062 9.15371 1.83454 13.7192 0.327682C13.9451 0.252891 14.1238 0.507969 13.9829 0.700066C13.4672 1.40232 13.1295 2.23369 12.9783 3.14693H13.7774C14.2128 3.14693 14.5647 3.49964 14.5647 3.93421C14.5647 4.36879 14.2128 4.7215 13.7774 4.7215H5.11732C4.68196 4.7215 4.33004 4.36879 4.33004 3.93421C4.33004 3.49964 4.68196 3.14693 5.11732 3.14693Z" fill="url(#paint1_linear_1623_5222)"/>
<defs>
<linearGradient id="paint0_linear_1623_5222" x1="7.55851" y1="11.6712" x2="12.6385" y2="13.2989" gradientUnits="userSpaceOnUse">
<stop offset="0.324251" stop-color="#CA94D8"/>
<stop offset="0.545912" stop-color="#C02DD3"/>
<stop offset="1" stop-color="#D33D79"/>
</linearGradient>
<linearGradient id="paint1_linear_1623_5222" x1="-8.77256" y1="-6.43365" x2="30.6992" y2="8.01968" gradientUnits="userSpaceOnUse">
<stop offset="0.324251" stop-color="#CA94D8"/>
<stop offset="0.545912" stop-color="#C02DD3"/>
<stop offset="1" stop-color="#D33D79"/>
</linearGradient>
</defs>
</svg>
