<?xml version="1.0" standalone="no"?>
<!DOCTYPE svg PUBLIC "-//W3C//DTD SVG 20010904//EN"
 "http://www.w3.org/TR/2001/REC-SVG-20010904/DTD/svg10.dtd">
<svg version="1.0" xmlns="http://www.w3.org/2000/svg"
 width="554.000000pt" height="554.000000pt" viewBox="0 0 554.000000 554.000000"
 preserveAspectRatio="xMidYMid meet">
<metadata>
Created by potrace 1.14, written by Peter Selinger 2001-2017
</metadata>
<g transform="translate(0.000000,554.000000) scale(0.100000,-0.100000)"
fill="#000000" stroke="none">
<path d="M2479 5455 c-2 -2 -33 -6 -69 -10 -139 -14 -183 -21 -315 -51 -60
-14 -117 -27 -125 -29 -93 -20 -351 -120 -490 -190 -161 -81 -394 -231 -491
-317 -15 -13 -49 -42 -75 -64 -62 -53 -194 -184 -248 -248 -22 -26 -51 -60
-64 -75 -39 -44 -157 -211 -209 -296 -187 -304 -317 -668 -369 -1035 -30 -211
-27 -553 7 -770 15 -96 15 -96 43 -215 83 -345 229 -663 439 -955 33 -47 63
-87 66 -90 4 -3 30 -34 60 -70 74 -89 257 -267 355 -347 200 -161 466 -316
701 -408 66 -26 125 -48 130 -50 6 -1 37 -10 70 -20 33 -11 63 -20 68 -21 4
-1 8 -2 10 -4 3 -2 11 -4 132 -30 129 -28 122 -27 180 -35 28 -4 61 -8 75 -11
148 -22 470 -22 640 1 14 2 45 6 70 9 25 3 56 8 70 11 14 3 41 8 60 11 56 9
218 51 302 78 407 133 758 347 1060 646 75 74 168 176 207 225 39 50 76 95 81
102 26 32 143 218 185 293 97 177 212 469 250 639 27 117 43 201 50 256 3 22
7 56 10 75 27 202 22 507 -10 710 -4 25 -8 54 -10 65 -30 211 -134 522 -252
754 -285 562 -747 997 -1333 1254 -111 49 -341 125 -424 141 -11 2 -52 11 -91
20 -38 8 -88 18 -110 21 -22 3 -53 8 -70 11 -16 3 -48 7 -70 10 -47 6 -491 15
-496 9z m451 -129 c30 -4 73 -9 95 -12 142 -17 401 -79 480 -114 11 -5 49 -19
85 -30 71 -23 325 -144 393 -187 23 -15 67 -42 97 -62 403 -256 751 -668 947
-1121 69 -159 156 -436 168 -535 1 -11 5 -33 8 -50 4 -16 9 -48 12 -70 3 -22
8 -65 12 -95 10 -71 10 -466 1 -547 -24 -209 -83 -450 -161 -653 -50 -134
-197 -419 -219 -428 -4 -2 -8 -8 -8 -12 0 -5 -21 -39 -46 -77 -267 -392 -679
-730 -1109 -909 -49 -20 -103 -43 -120 -50 -16 -7 -79 -26 -140 -43 -60 -17
-123 -35 -140 -41 -99 -31 -471 -77 -590 -72 -167 6 -275 12 -294 16 -13 3
-47 8 -75 10 -28 3 -62 8 -76 11 -14 3 -39 8 -56 10 -17 2 -82 18 -145 34
-669 173 -1235 601 -1582 1196 -59 102 -148 290 -176 375 -12 36 -26 74 -31
85 -18 41 -67 211 -75 260 -2 11 -6 31 -9 45 -20 88 -27 141 -43 300 -8 85 -9
344 0 440 29 345 139 707 308 1012 54 97 153 253 176 276 7 7 13 17 13 20 0 4
10 18 23 32 12 14 40 48 61 75 39 49 251 264 313 317 72 61 234 177 331 235
282 169 629 297 922 338 25 3 52 8 60 10 8 2 56 7 105 11 50 3 91 7 93 9 6 5
341 -3 392 -9z"/>
<path d="M1636 4463 c-1 -2 -56 -3 -122 -4 -65 -1 -125 -6 -131 -11 -10 -8
-13 -352 -13 -1658 l0 -1648 372 0 c311 0 374 -2 382 -14 43 -57 129 -35 142
36 3 21 -2 34 -25 56 -36 37 -73 39 -106 6 l-23 -23 -341 -2 -341 -1 2 1598 3
1597 30 2 c17 1 237 3 490 4 401 3 642 -3 751 -16 16 -3 59 -7 95 -10 35 -3
102 -12 149 -20 190 -33 207 -39 215 -74 14 -63 84 -87 130 -45 34 31 33 77
-1 111 -21 21 -31 24 -63 19 -20 -3 -53 -1 -72 5 -43 12 -165 39 -204 45 -16
2 -41 6 -55 8 -14 3 -61 8 -105 12 -44 3 -88 8 -98 10 -56 10 -328 18 -670 18
-214 1 -390 0 -391 -1z"/>
<path d="M1602 4253 c-21 -8 -43 -61 -36 -87 3 -14 14 -32 25 -42 18 -17 19
-46 19 -1064 l0 -1048 -21 -13 c-25 -17 -30 -78 -9 -104 41 -50 124 -31 136
31 6 34 -15 84 -36 84 -7 0 -10 373 -10 1049 0 1046 0 1050 20 1064 12 8 23
30 27 50 4 29 1 40 -20 61 -25 25 -62 32 -95 19z"/>
<path d="M1880 4223 c-39 -32 -40 -74 -4 -110 21 -21 32 -24 61 -20 20 4 43
14 53 25 16 17 35 18 261 16 219 -1 323 -6 414 -20 17 -2 46 -6 65 -8 69 -9
196 -36 265 -56 39 -12 77 -23 85 -25 68 -16 262 -94 339 -137 195 -108 386
-306 466 -483 42 -93 43 -97 59 -155 26 -95 28 -127 9 -146 -27 -26 -23 -92 6
-115 43 -35 104 -16 121 37 12 37 3 64 -29 86 -11 8 -23 36 -30 73 -74 376
-362 694 -759 841 -37 14 -74 28 -82 31 -8 3 -17 7 -20 8 -19 6 -97 29 -105
31 -5 1 -37 10 -70 19 -33 9 -75 18 -94 21 -18 2 -36 6 -40 9 -7 4 -17 6 -106
20 -142 22 -245 28 -497 29 -234 1 -237 2 -262 25 -35 33 -70 34 -106 4z"/>
<path d="M2463 3965 c-17 -7 -33 -20 -36 -29 -6 -14 -37 -16 -267 -16 l-260 0
-1 -47 c0 -27 0 -172 -1 -323 -1 -269 -1 -276 -23 -301 -28 -34 -23 -82 13
-109 33 -27 68 -25 97 5 33 33 33 78 -1 112 l-25 25 0 277 c0 152 0 281 0 288
1 9 59 12 232 12 214 -1 233 -2 252 -20 31 -28 81 -25 106 7 53 67 -8 152 -86
119z"/>
<path d="M3844 3969 c-81 -30 -60 -149 26 -149 34 0 39 -4 86 -65 75 -96 170
-281 215 -420 13 -38 24 -72 24 -75 1 -3 9 -39 18 -80 31 -138 40 -222 41
-365 0 -201 -26 -364 -90 -552 -131 -390 -394 -709 -721 -878 -73 -38 -89 -41
-155 -29 -31 5 -41 2 -62 -19 -48 -48 -15 -127 54 -127 36 0 61 17 72 51 3 8
48 36 99 61 147 71 233 133 365 263 111 110 203 230 274 360 154 280 225 557
223 880 -1 157 -16 276 -58 445 -39 159 -161 407 -262 535 -32 41 -48 70 -49
93 -3 55 -51 90 -100 71z"/>
<path d="M3210 3787 c-14 -7 -31 -24 -38 -39 -25 -54 28 -116 88 -103 25 5 40
1 73 -21 90 -58 193 -188 252 -318 34 -73 80 -215 89 -276 3 -19 8 -46 10 -60
16 -91 23 -290 12 -345 -2 -11 -7 -45 -11 -75 -10 -70 -49 -191 -82 -252 -19
-36 -32 -48 -49 -48 -40 0 -75 -49 -67 -93 6 -29 37 -56 70 -61 48 -8 92 47
79 98 -4 17 4 46 29 94 45 91 79 212 91 323 17 168 2 326 -50 549 -9 35 -71
188 -94 230 -63 113 -191 258 -261 295 -18 9 -31 23 -31 34 0 33 -11 51 -41
66 -34 18 -37 18 -69 2z"/>
<path d="M2135 3695 c-53 -52 -13 -133 62 -127 14 1 37 12 52 25 25 21 35 22
156 21 176 -2 311 -11 410 -29 183 -32 343 -116 436 -227 47 -57 50 -62 43
-103 -5 -38 -3 -47 19 -69 31 -31 75 -34 108 -7 47 38 19 129 -40 134 -13 1
-31 13 -40 27 -8 14 -21 31 -28 38 -7 7 -16 18 -20 25 -18 28 -121 110 -178
142 -164 92 -351 125 -725 129 -115 1 -127 3 -148 24 -30 30 -76 29 -107 -3z"/>
<path d="M3010 3065 c-12 -12 -22 -35 -23 -51 -2 -23 -37 -64 -166 -194 -147
-148 -167 -165 -198 -165 -33 -1 -47 11 -199 163 -90 90 -162 168 -159 172 9
15 -16 67 -39 80 -31 16 -82 5 -101 -23 -22 -31 -18 -70 9 -100 l24 -26 0
-450 0 -450 -24 -26 c-36 -39 -30 -91 14 -117 70 -41 144 30 107 102 -9 17
-20 30 -25 30 -6 0 -10 169 -10 462 l0 463 165 -165 c142 -141 164 -169 167
-198 4 -48 43 -77 90 -68 39 7 63 41 60 84 -1 23 25 54 162 190 90 90 166 160
169 155 2 -4 5 -84 5 -177 1 -155 -1 -170 -19 -185 -10 -9 -22 -30 -25 -48 -5
-27 -1 -37 24 -62 23 -23 36 -29 58 -25 31 5 74 46 74 70 0 21 -29 74 -40 74
-6 0 -10 71 -10 184 0 147 3 185 14 189 7 3 17 18 20 33 20 76 -72 134 -124
79z"/>
<path d="M3445 2748 c-33 -28 -37 -78 -10 -108 33 -37 -9 -217 -74 -318 -37
-58 -95 -122 -110 -122 -6 0 -11 -4 -11 -9 0 -5 -20 -19 -45 -31 -39 -19 -50
-20 -74 -10 -54 22 -111 -13 -111 -70 1 -62 75 -98 124 -59 14 11 26 28 26 38
0 11 18 26 52 42 68 31 175 138 215 214 40 76 71 169 79 236 5 41 13 60 35 80
75 70 -18 184 -96 117z"/>
<path d="M3974 2569 c-21 -11 -44 -48 -44 -70 0 -6 7 -26 15 -43 15 -31 14
-37 -16 -122 -60 -171 -159 -330 -292 -465 -103 -106 -135 -133 -222 -191
-189 -124 -346 -177 -635 -214 -30 -4 -280 -8 -554 -8 -444 -1 -502 1 -520 15
-47 36 -64 40 -95 24 -47 -24 -59 -60 -36 -105 24 -46 81 -55 118 -17 l23 22
480 0 c417 0 652 7 673 19 3 2 26 7 51 10 58 8 75 11 130 26 25 7 52 13 60 15
20 4 116 41 160 63 19 9 38 15 43 14 4 -1 7 3 7 8 0 6 5 10 12 10 31 0 247
158 330 243 149 150 270 344 332 533 20 59 34 85 51 94 13 7 29 26 36 42 11
26 10 35 -6 64 -10 19 -23 34 -29 34 -6 0 -20 2 -31 5 -11 2 -30 -1 -41 -6z"/>
<path d="M1885 2428 c-33 -29 -37 -79 -7 -111 20 -21 20 -32 20 -292 l0 -269
-24 -29 c-30 -36 -30 -68 -1 -102 44 -52 123 -27 131 42 3 24 -2 39 -21 59
l-25 27 0 269 0 269 26 24 c34 32 35 77 1 110 -30 31 -66 32 -100 3z"/>
<path d="M3224 1914 c-17 -16 -24 -32 -21 -45 4 -15 -5 -26 -36 -46 -48 -30
-169 -79 -215 -86 -17 -3 -34 -7 -39 -10 -24 -15 -200 -27 -388 -26 -237 0
-258 2 -283 27 -30 30 -76 29 -107 -3 -31 -30 -32 -66 -2 -101 31 -36 79 -35
117 1 16 15 33 24 39 21 10 -7 371 -8 451 -1 185 14 312 47 428 111 41 22 75
34 95 32 82 -5 126 74 72 127 -32 33 -78 33 -111 -1z"/>
<path d="M5180 326 l0 -236 25 0 c25 0 25 1 25 88 l0 88 50 1 51 2 70 -90 c54
-68 76 -89 95 -89 13 0 24 3 24 8 0 4 -29 43 -65 87 -35 44 -64 82 -65 85 0 3
13 11 29 18 85 38 94 187 14 242 -32 22 -49 25 -145 28 l-108 4 0 -236z m231
156 c36 -40 34 -101 -4 -139 -22 -22 -36 -27 -101 -31 l-76 -4 0 105 0 106 77
-3 c71 -4 79 -6 104 -34z"/>
</g>
</svg>
