<svg width="23" height="22" viewBox="0 0 23 22" fill="none" xmlns="http://www.w3.org/2000/svg">
<path d="M15.7386 20.3891C15.7386 20.4792 15.7028 20.5655 15.6391 20.6292C15.5754 20.6929 15.4891 20.7286 15.399 20.7286H7.25068C7.16064 20.7286 7.07428 20.6929 7.01061 20.6292C6.94694 20.5655 6.91117 20.4792 6.91117 20.3891C6.91117 20.2991 6.94694 20.2127 7.01061 20.1491C7.07428 20.0854 7.16064 20.0496 7.25068 20.0496H15.399C15.4891 20.0496 15.5754 20.0854 15.6391 20.1491C15.7028 20.2127 15.7386 20.2991 15.7386 20.3891ZM14.3431 20.0496H8.30657L9.47111 16.6545H13.1786L14.3431 20.0496ZM2.15796 13.2593V14.2779C2.15796 14.7281 2.33681 15.1599 2.65517 15.4782C2.97352 15.7966 3.40531 15.9754 3.85553 15.9754H18.7942C19.2444 15.9754 19.6762 15.7966 19.9946 15.4782C20.3129 15.1599 20.4918 14.7281 20.4918 14.2779V13.2593H2.15796ZM11.6644 14.9569H10.9853C10.8953 14.9569 10.8089 14.9211 10.7453 14.8575C10.6816 14.7938 10.6458 14.7074 10.6458 14.6174C10.6458 14.5273 10.6816 14.441 10.7453 14.3773C10.8089 14.3136 10.8953 14.2779 10.9853 14.2779H11.6644C11.7544 14.2779 11.8408 14.3136 11.9044 14.3773C11.9681 14.441 12.0039 14.5273 12.0039 14.6174C12.0039 14.7074 11.9681 14.7938 11.9044 14.8575C11.8408 14.9211 11.7544 14.9569 11.6644 14.9569ZM18.7942 1.71582H3.85553C3.40531 1.71582 2.97352 1.89467 2.65517 2.21303C2.33681 2.53139 2.15796 2.96317 2.15796 3.41339V12.5803H20.4918V3.41339C20.4918 2.96317 20.3129 2.53139 19.9946 2.21303C19.6762 1.89467 19.2444 1.71582 18.7942 1.71582ZM18.1152 9.52466C17.845 9.52466 17.5859 9.41735 17.3949 9.22634C17.2039 9.03532 17.0966 8.77625 17.0966 8.50612C17.0986 8.40703 17.1146 8.30873 17.1441 8.21413L13.5962 5.61345C13.427 5.72861 13.2271 5.79013 13.0224 5.79C12.9066 5.78956 12.7917 5.76887 12.6829 5.72889L9.81062 9.33114C9.91294 9.49007 9.96717 9.67516 9.9668 9.86418C9.9668 10.1343 9.85949 10.3934 9.66847 10.5844C9.47746 10.7754 9.21839 10.8827 8.94826 10.8827C8.67812 10.8827 8.41905 10.7754 8.22803 10.5844C8.03702 10.3934 7.92971 10.1343 7.92971 9.86418C7.93112 9.77445 7.94483 9.68535 7.97045 9.59935L5.12871 7.63356C4.95583 7.75873 4.748 7.82642 4.53456 7.82709C4.33311 7.82709 4.13619 7.76735 3.96869 7.65543C3.80119 7.54351 3.67064 7.38444 3.59355 7.19832C3.51646 7.01221 3.49629 6.80741 3.53559 6.60983C3.57489 6.41226 3.6719 6.23077 3.81434 6.08832C3.95679 5.94588 4.13828 5.84887 4.33585 5.80957C4.53343 5.77027 4.73823 5.79044 4.92434 5.86753C5.11046 5.94462 5.26953 6.07517 5.38145 6.24267C5.49337 6.41017 5.55311 6.60709 5.55311 6.80854C5.5517 6.89826 5.53799 6.98737 5.51237 7.07336L8.3541 9.03915C8.52699 8.91399 8.73482 8.84629 8.94826 8.84563C9.06412 8.84607 9.17902 8.86676 9.28777 8.90674L12.1669 5.30449C12.0621 5.1463 12.0055 4.96115 12.0039 4.77145C12.0039 4.50132 12.1112 4.24225 12.3022 4.05123C12.4932 3.86022 12.7523 3.75291 13.0224 3.75291C13.2926 3.75291 13.5516 3.86022 13.7427 4.05123C13.9337 4.24225 14.041 4.50132 14.041 4.77145C14.039 4.87054 14.023 4.96884 13.9934 5.06344L17.5414 7.66412C17.7106 7.54896 17.9105 7.48744 18.1152 7.48757C18.3853 7.48757 18.6444 7.59488 18.8354 7.7859C19.0264 7.97691 19.1337 8.23598 19.1337 8.50612C19.1337 8.77625 19.0264 9.03532 18.8354 9.22634C18.6444 9.41735 18.3853 9.52466 18.1152 9.52466Z" fill="#3F3A52"/>
<path d="M18.1151 8.84566C18.3027 8.84566 18.4547 8.69365 18.4547 8.50614C18.4547 8.31863 18.3027 8.16663 18.1151 8.16663C17.9276 8.16663 17.7756 8.31863 17.7756 8.50614C17.7756 8.69365 17.9276 8.84566 18.1151 8.84566Z" fill="#3F3A52"/>
<path d="M13.0226 5.11104C13.2101 5.11104 13.3621 4.95903 13.3621 4.77152C13.3621 4.58401 13.2101 4.43201 13.0226 4.43201C12.8351 4.43201 12.6831 4.58401 12.6831 4.77152C12.6831 4.95903 12.8351 5.11104 13.0226 5.11104Z" fill="#3F3A52"/>
<path d="M4.53458 7.14815C4.72209 7.14815 4.8741 6.99614 4.8741 6.80863C4.8741 6.62112 4.72209 6.46912 4.53458 6.46912C4.34707 6.46912 4.19507 6.62112 4.19507 6.80863C4.19507 6.99614 4.34707 7.14815 4.53458 7.14815Z" fill="#3F3A52"/>
<path d="M8.9484 10.2037C9.13591 10.2037 9.28792 10.0517 9.28792 9.86417C9.28792 9.67666 9.13591 9.52466 8.9484 9.52466C8.76089 9.52466 8.60889 9.67666 8.60889 9.86417C8.60889 10.0517 8.76089 10.2037 8.9484 10.2037Z" fill="#3F3A52"/>
</svg>
