<svg width="20" height="24" viewBox="0 0 20 24" fill="none" xmlns="http://www.w3.org/2000/svg">
<path fill-rule="evenodd" clip-rule="evenodd" d="M2.36187 11.2747V13.521C2.36187 13.5444 2.35019 13.56 2.33072 13.5755C2.31515 13.5872 2.29179 13.5911 2.27232 13.5833L0.761783 13.0344C0.742317 13.0266 0.726745 13.011 0.722851 12.9916C0.715065 12.9682 0.718958 12.9487 0.734531 12.9332L2.24507 11.2319C2.26454 11.2085 2.29179 11.2046 2.31904 11.2124C2.3424 11.2241 2.36187 11.2474 2.36187 11.2747ZM17.0351 11.2319L18.5457 12.9293C18.5612 12.9487 18.5651 12.9682 18.5613 12.9916C18.5574 13.011 18.5418 13.0266 18.5184 13.0344L17.0079 13.5833C16.9884 13.5872 16.969 13.5872 16.9495 13.5755C16.93 13.56 16.9222 13.5405 16.9222 13.521V11.2747C16.9222 11.2474 16.9378 11.2241 16.9651 11.2124C16.9884 11.2046 17.0196 11.2085 17.0351 11.2319ZM11.3862 16.0788L18.6313 13.4587C18.6508 13.4509 18.6742 13.4548 18.6897 13.4665C18.7092 13.4821 18.7209 13.4977 18.7209 13.521V21.6849C18.7209 21.7083 18.7053 21.7317 18.6819 21.7433C18.6586 21.7511 18.6352 21.7511 18.6158 21.7356L11.3706 16.1917C11.3511 16.1761 11.3395 16.1528 11.3434 16.1294C11.3472 16.1061 11.3628 16.0866 11.3862 16.0788ZM18.7092 22.3546C18.643 22.7595 18.2926 23.0709 17.8722 23.0709H1.41194C0.987585 23.0709 0.637202 22.7595 0.574912 22.3546C0.582698 22.3507 0.586591 22.3468 0.594378 22.339L9.60312 15.4481C9.62648 15.4326 9.65762 15.4326 9.68098 15.4481L18.6858 22.339C18.6936 22.3468 18.7014 22.3507 18.7092 22.3546ZM0.563232 21.6849V13.521C0.563232 13.5016 0.574912 13.4821 0.590484 13.4665C0.60995 13.4548 0.629416 13.4548 0.648882 13.4587L7.89403 16.0788C7.91739 16.0866 7.93296 16.1061 7.93685 16.1294C7.94075 16.1528 7.93296 16.1761 7.91349 16.1917L0.668347 21.7356C0.648882 21.7511 0.62163 21.7511 0.598271 21.7433C0.574912 21.7317 0.563232 21.7083 0.563232 21.6849Z" fill="#3F3A52"/>
<path fill-rule="evenodd" clip-rule="evenodd" d="M4.54582 0.397461H17.0389C17.0662 0.397461 17.0895 0.413034 17.1012 0.440286C17.1129 0.463644 17.1051 0.490896 17.0856 0.510362C16.708 0.872425 16.4978 1.35517 16.4978 1.88854V6.13207V13.7315C16.4978 13.7587 16.4822 13.7821 16.455 13.7899L10.8917 15.7949C10.8683 15.8026 10.8488 15.7987 10.8294 15.7832L9.73539 14.9384C9.68088 14.8955 9.60691 14.8916 9.54852 14.9345L8.45454 15.7832C8.43508 15.7987 8.41172 15.8026 8.39225 15.7949L2.82894 13.7899C2.80169 13.7821 2.78223 13.7587 2.78223 13.7315V2.15716C2.78223 1.18777 3.57643 0.397461 4.54582 0.397461ZM10.261 12.4234H9.01905C6.63255 12.4234 4.69765 10.4885 4.69765 8.102C4.69765 5.7155 6.63255 3.7806 9.01905 3.7806H10.261C12.6475 3.7806 14.5824 5.7155 14.5824 8.102C14.5824 10.4885 12.6475 12.4234 10.261 12.4234Z" fill="#3F3A52"/>
<path fill-rule="evenodd" clip-rule="evenodd" d="M18.4093 0.397461H18.4132C19.2308 0.397461 19.9004 1.06708 19.9004 1.88854V5.38069C19.9004 5.55977 19.7524 5.70771 19.5734 5.70771H16.9883C16.9533 5.70771 16.9221 5.67657 16.9221 5.64153V1.88854C16.9221 1.06708 17.5917 0.397461 18.4093 0.397461Z" fill="#3F3A52"/>
<path fill-rule="evenodd" clip-rule="evenodd" d="M12.963 10.9089C12.4413 11.4112 11.7795 11.7693 11.0437 11.9212C11.5265 11.6642 11.9547 11.3216 12.3051 10.9089H12.963Z" fill="#3F3A52"/>
<path fill-rule="evenodd" clip-rule="evenodd" d="M13.8467 9.63208C13.7182 9.93964 13.5469 10.2238 13.3445 10.4847H12.6243C12.7995 10.2199 12.9474 9.93575 13.0642 9.63208H13.8467Z" fill="#3F3A52"/>
<path fill-rule="evenodd" clip-rule="evenodd" d="M14.1543 8.31226C14.1387 8.62371 14.0842 8.92348 13.9985 9.20768H13.2004C13.2744 8.91959 13.3211 8.61981 13.3367 8.31226H14.1543Z" fill="#3F3A52"/>
<path fill-rule="evenodd" clip-rule="evenodd" d="M13.9985 6.99634C14.0842 7.28054 14.1387 7.58031 14.1543 7.88787H13.3367C13.3211 7.58031 13.2744 7.28443 13.2004 6.99634H13.9985Z" fill="#3F3A52"/>
<path fill-rule="evenodd" clip-rule="evenodd" d="M13.3445 5.71509C13.5469 5.97593 13.7182 6.26402 13.8467 6.57158H13.0642C12.9474 6.26791 12.7995 5.98371 12.6243 5.71509H13.3445Z" fill="#3F3A52"/>
<path fill-rule="evenodd" clip-rule="evenodd" d="M11.0437 4.28296C11.7795 4.43479 12.4413 4.79296 12.963 5.29518H12.3051C11.9547 4.8825 11.5265 4.53991 11.0437 4.28296Z" fill="#3F3A52"/>
<path fill-rule="evenodd" clip-rule="evenodd" d="M9.01911 4.20483C11.172 4.20483 12.9161 5.94896 12.9161 8.10187C12.9161 10.2548 11.172 11.9989 9.01911 11.9989C6.8662 11.9989 5.12207 10.2548 5.12207 8.10187C5.12207 5.94896 6.8662 4.20483 9.01911 4.20483ZM9.01911 4.65255C10.9229 4.65255 12.4684 6.19813 12.4684 8.10187C12.4684 10.0056 10.9229 11.5473 9.01911 11.5473C7.11536 11.5473 5.57368 10.0056 5.57368 8.10187C5.57368 6.19813 7.11536 4.65255 9.01911 4.65255Z" fill="#3F3A52"/>
<path fill-rule="evenodd" clip-rule="evenodd" d="M9.01913 5.07666C10.6893 5.07666 12.0441 6.43148 12.0441 8.10164C12.0441 9.7718 10.6893 11.1266 9.01913 11.1266C7.34897 11.1266 5.99805 9.7718 5.99805 8.10164C5.99805 6.43148 7.34897 5.07666 9.01913 5.07666ZM10.2688 6.84804C10.2494 6.83247 10.2416 6.8169 10.2416 6.79354C10.2416 6.77018 10.2494 6.75461 10.2688 6.73903C10.3 6.70789 10.3506 6.70789 10.3856 6.73903C10.4051 6.75461 10.4129 6.77018 10.4129 6.79354C10.4129 6.8169 10.4051 6.83247 10.3856 6.84804C10.3701 6.85972 10.3467 6.8714 10.3272 6.8714C10.3078 6.87529 10.2844 6.86751 10.2688 6.84804ZM10.0586 7.07384C10.0469 7.05438 10.0352 7.03881 10.0352 7.01545C10.0352 6.99598 10.0469 6.97652 10.0586 6.96094C10.0897 6.93369 10.1404 6.93369 10.1715 6.96094C10.1832 6.97652 10.191 6.99598 10.191 7.01545C10.191 7.03881 10.1832 7.05438 10.1715 7.07384C10.152 7.08552 10.1365 7.09331 10.1131 7.09331C10.0936 7.09331 10.0742 7.08552 10.0586 7.07384ZM9.8328 7.28797C9.81722 7.2724 9.80944 7.25293 9.80944 7.22957C9.80944 7.2101 9.81722 7.19064 9.8328 7.17507C9.86005 7.14781 9.91455 7.14781 9.9418 7.17507C9.95738 7.19064 9.96516 7.2101 9.96516 7.22957C9.96516 7.25293 9.95738 7.2685 9.9418 7.28797C9.92623 7.30354 9.91066 7.30743 9.8873 7.30743C9.86394 7.30743 9.84448 7.29965 9.8328 7.28797ZM9.61478 7.50209C9.59921 7.49041 9.58753 7.47095 9.58753 7.44759C9.58753 7.42423 9.59921 7.40865 9.61478 7.39308C9.64593 7.36583 9.70043 7.36583 9.73547 7.39308C9.75104 7.40476 9.75883 7.42423 9.75883 7.44759C9.75883 7.47095 9.75104 7.49041 9.73547 7.50209C9.7199 7.52156 9.69654 7.52545 9.67707 7.52545C9.65371 7.52545 9.63425 7.52156 9.61478 7.50209ZM9.40844 7.72011C9.38898 7.70843 9.38508 7.68896 9.38508 7.6656C9.38508 7.64224 9.39287 7.62667 9.40844 7.6111C9.4357 7.57995 9.48631 7.57995 9.51745 7.6111C9.53302 7.62278 9.54081 7.64224 9.54081 7.6656C9.54081 7.68896 9.52913 7.70843 9.51745 7.72011C9.50577 7.73957 9.48631 7.74347 9.46295 7.74347C9.44348 7.74736 9.42012 7.73957 9.40844 7.72011ZM9.15539 7.88362C9.15539 7.86026 9.16707 7.84469 9.17875 7.82911C9.20989 7.79797 9.2605 7.79797 9.29165 7.82911C9.30722 7.84469 9.31111 7.86026 9.31111 7.88362C9.31111 7.90698 9.30333 7.92255 9.29165 7.93812C9.27608 7.9537 9.25661 7.96148 9.23325 7.96148C9.21379 7.96148 9.19432 7.9537 9.17875 7.93812C9.16317 7.92644 9.15539 7.90698 9.15539 7.88362ZM8.7505 8.36248C8.73882 8.3508 8.72714 8.33133 8.72714 8.30797C8.72714 8.28461 8.73882 8.26904 8.7505 8.25347C8.78165 8.22622 8.83226 8.22622 8.85951 8.25347C8.87898 8.26904 8.88287 8.28461 8.88287 8.30797C8.88287 8.33133 8.87508 8.3469 8.85951 8.36248C8.84783 8.38194 8.82836 8.38583 8.80501 8.38583C8.78554 8.38973 8.76607 8.38194 8.7505 8.36248ZM8.52859 8.58049C8.50913 8.56881 8.50134 8.54935 8.50134 8.52599C8.50134 8.50263 8.50913 8.48706 8.52859 8.47148C8.55974 8.44034 8.61035 8.44034 8.64539 8.47148C8.66485 8.48706 8.67264 8.50263 8.67264 8.52599C8.67264 8.54935 8.66485 8.56492 8.64539 8.58049C8.62981 8.59996 8.60646 8.60385 8.58699 8.60385C8.56363 8.60774 8.54416 8.59996 8.52859 8.58049ZM8.31447 8.8024C8.30279 8.79072 8.29111 8.77126 8.29111 8.7479C8.29111 8.72454 8.30279 8.70507 8.31447 8.69339C8.34561 8.66225 8.39623 8.66225 8.42737 8.69339C8.43905 8.70507 8.44684 8.72454 8.44684 8.7479C8.44684 8.77126 8.43905 8.78683 8.42737 8.8024C8.40791 8.81797 8.39233 8.82576 8.36897 8.82576C8.34951 8.82576 8.33393 8.81408 8.31447 8.8024ZM8.09645 9.02042C8.08088 9.00874 8.07699 8.98927 8.07699 8.96591C8.07699 8.94255 8.08477 8.92698 8.09645 8.91141C8.1276 8.88026 8.17821 8.88026 8.20935 8.91141C8.22103 8.92698 8.23271 8.94255 8.23271 8.96591C8.23271 8.98927 8.22103 9.00874 8.20935 9.02042C8.19378 9.03599 8.17432 9.04378 8.15485 9.04378C8.13538 9.04378 8.11203 9.03599 8.09645 9.02042ZM7.87454 9.23843C7.85897 9.22675 7.84729 9.2034 7.84729 9.18393C7.84729 9.16057 7.85897 9.145 7.87454 9.12553C7.90569 9.09828 7.96019 9.09828 7.98744 9.12553C8.00302 9.145 8.0147 9.16057 8.0147 9.18393C8.0147 9.2034 8.00302 9.22675 7.98744 9.23843C7.97187 9.25011 7.94851 9.26179 7.92905 9.26179C7.90569 9.26179 7.88622 9.25401 7.87454 9.23843ZM7.66042 9.45645C7.64485 9.44088 7.63706 9.42141 7.63706 9.40195C7.63706 9.37859 7.64485 9.36301 7.66042 9.34355C7.68767 9.3163 7.74218 9.3163 7.76943 9.34355C7.785 9.36301 7.79279 9.37859 7.79279 9.40195C7.79279 9.42141 7.785 9.44088 7.76943 9.45645C7.75775 9.46813 7.73828 9.47981 7.71492 9.47981C7.69935 9.47981 7.67989 9.47202 7.66042 9.45645ZM7.76943 6.84804C7.785 6.83247 7.79279 6.8169 7.79279 6.79354C7.79279 6.77018 7.785 6.75461 7.76943 6.73903C7.74218 6.70789 7.68767 6.70789 7.66042 6.73903C7.64485 6.75461 7.63706 6.77018 7.63706 6.79354C7.63706 6.8169 7.64485 6.83247 7.66042 6.84804C7.6721 6.85972 7.69157 6.8714 7.71492 6.8714C7.73828 6.87529 7.75775 6.86751 7.76943 6.84804ZM7.98744 7.07384C8.00302 7.05438 8.0147 7.03881 8.0147 7.01545C8.0147 6.99598 8.00302 6.97652 7.98744 6.96094C7.9563 6.93369 7.9018 6.93369 7.86676 6.96094C7.85118 6.97652 7.8434 6.99598 7.8434 7.01545C7.8434 7.03881 7.85118 7.05438 7.86676 7.07384C7.88233 7.08552 7.90569 7.09331 7.92515 7.09331C7.94851 7.09331 7.97187 7.08552 7.98744 7.07384ZM8.20935 7.28797C8.22103 7.2724 8.23271 7.25293 8.23271 7.22957C8.23271 7.2101 8.22103 7.19064 8.20935 7.17507C8.17821 7.14781 8.1276 7.14781 8.09645 7.17507C8.08477 7.19064 8.07699 7.2101 8.07699 7.22957C8.07699 7.25293 8.08477 7.2685 8.09645 7.28797C8.11592 7.30354 8.13149 7.30743 8.15485 7.30743C8.17432 7.30743 8.19378 7.29965 8.20935 7.28797ZM8.42737 7.50209C8.43905 7.49041 8.44684 7.47095 8.44684 7.44759C8.44684 7.42423 8.43905 7.40865 8.42737 7.39308C8.39623 7.36583 8.34561 7.36583 8.31447 7.39308C8.30279 7.40476 8.29111 7.42423 8.29111 7.44759C8.29111 7.47095 8.30279 7.49041 8.31447 7.50209C8.33004 7.52156 8.34951 7.52545 8.36897 7.52545C8.38844 7.52545 8.40791 7.52156 8.42737 7.50209ZM8.64149 7.72011C8.65707 7.70843 8.66485 7.68896 8.66485 7.6656C8.66485 7.64224 8.65707 7.62667 8.64149 7.6111C8.61035 7.57995 8.55584 7.57995 8.52859 7.6111C8.50913 7.62278 8.50134 7.64224 8.50134 7.6656C8.50134 7.68896 8.50913 7.70843 8.52859 7.72011C8.54416 7.73957 8.56752 7.74347 8.58699 7.74347C8.60646 7.74736 8.62592 7.73957 8.64149 7.72011ZM8.88287 7.88362C8.88287 7.86026 8.87508 7.84469 8.85951 7.82911C8.83226 7.79797 8.78165 7.79797 8.7505 7.82911C8.73493 7.84469 8.72714 7.86026 8.72714 7.88362C8.72714 7.90698 8.73882 7.92255 8.7505 7.93812C8.76218 7.9537 8.78165 7.96148 8.80501 7.96148C8.82836 7.96148 8.84394 7.9537 8.85951 7.93812C8.87898 7.92644 8.88287 7.90698 8.88287 7.88362ZM9.07753 8.16003C9.0931 8.14446 9.10088 8.12889 9.10088 8.10553C9.10088 8.08217 9.0931 8.0666 9.07753 8.05102C9.05027 8.01988 8.99577 8.01988 8.96852 8.05102C8.95295 8.0666 8.94516 8.08217 8.94516 8.10553C8.94516 8.12889 8.95684 8.14446 8.96852 8.16003C8.9802 8.17171 8.99966 8.18339 9.02302 8.18339C9.04638 8.18339 9.06585 8.17171 9.07753 8.16003ZM9.29554 8.36248C9.31112 8.3508 9.32279 8.33133 9.32279 8.30797C9.32279 8.28461 9.31112 8.26904 9.29554 8.25347C9.2644 8.22622 9.21379 8.22622 9.18264 8.25347C9.16707 8.26904 9.15539 8.28461 9.15539 8.30797C9.15539 8.33133 9.16707 8.3469 9.18264 8.36248C9.19821 8.38194 9.22157 8.38583 9.24104 8.38583C9.25661 8.38973 9.27997 8.38194 9.29554 8.36248ZM9.51745 8.58049C9.52913 8.56881 9.54081 8.54935 9.54081 8.52599C9.54081 8.50263 9.52913 8.48706 9.51745 8.47148C9.48631 8.44034 9.4357 8.44034 9.40844 8.47148C9.39287 8.48706 9.38508 8.50263 9.38508 8.52599C9.38508 8.54935 9.39287 8.56492 9.40844 8.58049C9.42402 8.59996 9.43959 8.60385 9.46295 8.60385C9.47852 8.60774 9.50188 8.59996 9.51745 8.58049ZM9.73547 8.8024C9.74715 8.79072 9.75883 8.77126 9.75883 8.7479C9.75883 8.72454 9.74715 8.70507 9.73547 8.69339C9.70432 8.66225 9.65371 8.66225 9.62257 8.69339C9.61089 8.70507 9.6031 8.72454 9.6031 8.7479C9.6031 8.77126 9.61089 8.78683 9.62257 8.8024C9.64203 8.81797 9.6576 8.82576 9.68096 8.82576C9.70043 8.82576 9.7199 8.81408 9.73547 8.8024ZM9.93791 9.02042C9.95738 9.00874 9.96127 8.98927 9.96127 8.96591C9.96127 8.94255 9.95348 8.92698 9.93791 8.91141C9.91066 8.88026 9.85616 8.88026 9.8289 8.91141C9.81722 8.92698 9.80554 8.94255 9.80554 8.96591C9.80554 8.98927 9.81722 9.00874 9.8289 9.02042C9.84448 9.03599 9.86005 9.04378 9.88341 9.04378C9.90287 9.04378 9.92623 9.03599 9.93791 9.02042ZM10.1715 9.23843C10.1871 9.22675 10.191 9.2034 10.191 9.18393C10.191 9.16057 10.1832 9.145 10.1715 9.12553C10.1404 9.09828 10.0897 9.09828 10.0586 9.12553C10.043 9.145 10.0352 9.16057 10.0352 9.18393C10.0352 9.2034 10.0469 9.22675 10.0586 9.23843C10.0742 9.25011 10.0936 9.26179 10.1131 9.26179C10.1365 9.26179 10.1559 9.25401 10.1715 9.23843ZM10.3856 9.45645C10.4051 9.44088 10.4129 9.42141 10.4129 9.40195C10.4129 9.37859 10.4051 9.36301 10.3856 9.34355C10.3545 9.3163 10.3039 9.3163 10.2727 9.34355C10.2571 9.36301 10.2494 9.37859 10.2494 9.40195C10.2494 9.42141 10.2571 9.44088 10.2727 9.45645C10.2883 9.46813 10.3117 9.47981 10.3311 9.47981C10.3467 9.47981 10.3662 9.47202 10.3856 9.45645ZM8.28722 6.91033C8.50913 6.76239 8.7505 6.69621 9.01913 6.69232C9.28386 6.69232 9.52524 6.76239 9.75493 6.91033L10.2221 6.44315C9.85616 6.16285 9.45905 6.02269 9.01913 6.02269C8.5831 6.02269 8.17821 6.16285 7.82393 6.44315L8.28722 6.91033ZM7.82004 8.82965C7.66821 8.59996 7.59813 8.36248 7.59813 8.10164C7.59813 7.8369 7.66821 7.59553 7.82004 7.37362L7.35286 6.91033C7.08034 7.2685 6.94408 7.66171 6.94408 8.10553C6.94408 8.54156 7.08034 8.93866 7.35676 9.30462L7.82004 8.82965ZM9.75104 9.29294C9.52913 9.44088 9.28776 9.51874 9.02302 9.52263C8.75439 9.52263 8.50913 9.45256 8.28722 9.29683L7.82004 9.76012C8.17821 10.0443 8.5831 10.1845 9.02302 10.1806C9.46295 10.1767 9.85616 10.0326 10.2143 9.76012L9.75104 9.29294ZM10.2104 7.36583C10.3584 7.59553 10.4362 7.84079 10.4284 8.10942C10.4246 8.36637 10.3506 8.60385 10.2104 8.82187L10.6776 9.28515C10.954 8.93088 11.0942 8.53377 11.0942 8.09774C11.0981 7.65782 10.9579 7.25293 10.6776 6.89476L10.2104 7.36583ZM10.6971 9.44088C10.8762 9.44088 11.0241 9.58492 11.0241 9.7679C11.0241 9.94699 10.8762 10.0949 10.6971 10.0949C10.518 10.0949 10.3662 9.94699 10.3662 9.7679C10.3662 9.58492 10.5141 9.44088 10.6971 9.44088ZM7.35286 9.44088C7.52805 9.44088 7.67599 9.58492 7.67599 9.7679C7.67599 9.94699 7.52805 10.0949 7.35286 10.0949C7.17378 10.0949 7.02584 9.94699 7.02584 9.7679C7.02584 9.58492 7.17378 9.44088 7.35286 9.44088ZM10.701 6.09277C10.8801 6.09277 11.028 6.24071 11.028 6.42369C11.028 6.60277 10.8801 6.75071 10.701 6.75071C10.5219 6.75071 10.3778 6.60277 10.3778 6.42369C10.3778 6.24071 10.5219 6.09277 10.701 6.09277ZM7.34508 6.09277C7.52416 6.09277 7.6721 6.24071 7.6721 6.4198C7.6721 6.59888 7.52805 6.74293 7.34508 6.74293C7.16599 6.74293 7.01805 6.59888 7.01805 6.4198C7.01805 6.24071 7.1621 6.09277 7.34508 6.09277Z" fill="#3F3A52"/>
</svg>
