<svg width="23" height="23" viewBox="0 0 23 23" fill="none" xmlns="http://www.w3.org/2000/svg">
<g clip-path="url(#clip0_1357_5409)">
<path d="M13.5642 5.26251C13.7599 5.26251 13.9185 5.10389 13.9185 4.90823C13.9185 4.71257 13.7599 4.55396 13.5642 4.55396C13.3686 4.55396 13.21 4.71257 13.21 4.90823C13.21 5.10389 13.3686 5.26251 13.5642 5.26251Z" fill="#3F3A52"/>
<path d="M16.5757 6.5025C16.7714 6.5025 16.93 6.34388 16.93 6.14822C16.93 5.95256 16.7714 5.79395 16.5757 5.79395C16.3801 5.79395 16.2214 5.95256 16.2214 6.14822C16.2214 6.34388 16.3801 6.5025 16.5757 6.5025Z" fill="#3F3A52"/>
<path d="M9.13577 3.49102C9.33143 3.49102 9.49005 3.33241 9.49005 3.13675C9.49005 2.94109 9.33143 2.78247 9.13577 2.78247C8.94011 2.78247 8.78149 2.94109 8.78149 3.13675C8.78149 3.33241 8.94011 3.49102 9.13577 3.49102Z" fill="#3F3A52"/>
<path d="M6.12454 4.73101C6.3202 4.73101 6.47882 4.5724 6.47882 4.37674C6.47882 4.18108 6.3202 4.02246 6.12454 4.02246C5.92888 4.02246 5.77026 4.18108 5.77026 4.37674C5.77026 4.5724 5.92888 4.73101 6.12454 4.73101Z" fill="#3F3A52"/>
<path d="M7.71875 9.1596C7.71911 9.39744 7.74224 9.63471 7.78783 9.86815H11.9098C11.8266 9.74947 11.6601 9.68747 11.3607 9.5989C11.0171 9.49616 10.5902 9.37039 10.3528 8.95943C10.2516 8.78915 10.1985 8.59461 10.1991 8.39653C10.1997 8.19844 10.2541 8.00424 10.3563 7.8346C10.437 7.71009 10.5417 7.60289 10.6643 7.51926C10.7869 7.43562 10.9248 7.37723 11.0702 7.34747V7.03394C11.0702 6.93998 11.1075 6.84987 11.174 6.78343C11.2404 6.71699 11.3305 6.67966 11.4245 6.67966C11.5184 6.67966 11.6086 6.71699 11.675 6.78343C11.7414 6.84987 11.7788 6.93998 11.7788 7.03394V7.34393C11.9304 7.37913 12.0745 7.44154 12.2039 7.52815C12.2819 7.58054 12.3359 7.66175 12.354 7.75394C12.3721 7.84612 12.3528 7.94172 12.3004 8.01971C12.248 8.0977 12.1668 8.15168 12.0746 8.16979C11.9825 8.18789 11.8869 8.16863 11.8089 8.11625C11.7479 8.07561 11.6801 8.04621 11.6087 8.02945C11.3696 7.9834 11.0755 8.0206 10.9568 8.21191C10.9232 8.27191 10.9061 8.3398 10.9073 8.4086C10.9085 8.47741 10.9281 8.54464 10.9639 8.60338C11.0543 8.75926 11.2509 8.82658 11.5626 8.91869C11.9417 9.03206 12.4607 9.18616 12.6361 9.75655C12.6457 9.79322 12.6528 9.8305 12.6574 9.86815H15.0895C15.1883 9.35916 15.1796 8.83513 15.064 8.32969C14.9484 7.82426 14.7283 7.34858 14.418 6.93319C14.1077 6.5178 13.714 6.17187 13.2622 5.91761C12.8103 5.66335 12.3102 5.50638 11.7941 5.45677C11.278 5.40715 10.7572 5.46599 10.2652 5.62951C9.77315 5.79303 9.32074 6.05762 8.93699 6.40629C8.55324 6.75496 8.24663 7.18001 8.03683 7.65417C7.82703 8.12832 7.71869 8.6411 7.71875 9.1596Z" fill="#3F3A52"/>
<path d="M18.799 4.46437L13.3419 2.13134C13.2542 2.09366 13.1597 2.07421 13.0642 2.07417C12.924 2.0744 12.787 2.116 12.6704 2.19374C12.5538 2.27148 12.4627 2.38192 12.4086 2.5112L12.1079 3.22479L12.4931 4.13895L13.0646 2.78335L18.5213 5.11629C18.5228 5.11807 18.5238 5.12024 18.5241 5.12254C18.5244 5.12485 18.5241 5.1272 18.5232 5.12933L16.5262 9.86848H17.2951L19.1761 5.40449C19.2501 5.22974 19.2519 5.03284 19.1813 4.85673C19.1106 4.68062 18.9732 4.53958 18.799 4.46437ZM4.79612 11.2804V19.0631C4.79438 19.1902 4.82677 19.3155 4.88991 19.4259C4.95306 19.5363 5.04464 19.6277 5.15513 19.6906L11.0538 22.9012C11.1448 22.9506 11.2467 22.9764 11.3502 22.9764C11.4537 22.9764 11.5556 22.9506 11.6466 22.9012L17.5453 19.6906C17.6558 19.6277 17.7474 19.5363 17.8105 19.4259C17.8737 19.3155 17.9061 19.1902 17.9043 19.0631V11.2804C17.9105 11.1003 17.845 10.925 17.7221 10.7931C17.5992 10.6612 17.4291 10.5835 17.2489 10.5769H5.45153C5.2714 10.5835 5.10124 10.6612 4.97837 10.7931C4.85551 10.925 4.78996 11.1003 4.79612 11.2804ZM15.8673 12.3485H15.9558C16.0498 12.3485 16.1399 12.3858 16.2063 12.4523C16.2728 12.5187 16.3101 12.6088 16.3101 12.7028C16.3101 12.7967 16.2728 12.8868 16.2063 12.9533C16.1399 13.0197 16.0498 13.0571 15.9558 13.0571H15.8673C15.7733 13.0571 15.6832 13.0197 15.6167 12.9533C15.5503 12.8868 15.513 12.7967 15.513 12.7028C15.513 12.6088 15.5503 12.5187 15.6167 12.4523C15.6832 12.3858 15.7733 12.3485 15.8673 12.3485ZM14.5756 12.3485H14.7601C14.8541 12.3485 14.9442 12.3858 15.0107 12.4523C15.0771 12.5187 15.1144 12.6088 15.1144 12.7028C15.1144 12.7967 15.0771 12.8868 15.0107 12.9533C14.9442 13.0197 14.8541 13.0571 14.7601 13.0571H14.5756C14.4816 13.0571 14.3915 13.0197 14.325 12.9533C14.2586 12.8868 14.2213 12.7967 14.2213 12.7028C14.2213 12.6088 14.2586 12.5187 14.325 12.4523C14.3915 12.3858 14.4816 12.3485 14.5756 12.3485ZM13.284 12.3485H13.4684C13.5624 12.3485 13.6525 12.3858 13.719 12.4523C13.7854 12.5187 13.8227 12.6088 13.8227 12.7028C13.8227 12.7967 13.7854 12.8868 13.719 12.9533C13.6525 13.0197 13.5624 13.0571 13.4684 13.0571H13.284C13.1901 13.0571 13.1 13.0197 13.0335 12.9533C12.9671 12.8868 12.9298 12.7967 12.9298 12.7028C12.9298 12.6088 12.9671 12.5187 13.0335 12.4523C13.1 12.3858 13.1901 12.3485 13.284 12.3485ZM13.1216 19.0799H13.2102C13.3041 19.0799 13.3943 19.1172 13.4607 19.1837C13.5271 19.2501 13.5645 19.3402 13.5645 19.4342C13.5645 19.5282 13.5271 19.6183 13.4607 19.6847C13.3943 19.7512 13.3041 19.7885 13.2102 19.7885H13.1216C13.0276 19.7885 12.9375 19.7512 12.8711 19.6847C12.8047 19.6183 12.7673 19.5282 12.7673 19.4342C12.7673 19.3402 12.8047 19.2501 12.8711 19.1837C12.9375 19.1172 13.0276 19.0799 13.1216 19.0799ZM11.9924 12.3485H12.1769C12.2709 12.3485 12.361 12.3858 12.4275 12.4523C12.4939 12.5187 12.5312 12.6088 12.5312 12.7028C12.5312 12.7967 12.4939 12.8868 12.4275 12.9533C12.361 13.0197 12.2709 13.0571 12.1769 13.0571H11.9924C11.8984 13.0571 11.8083 13.0197 11.7418 12.9533C11.6754 12.8868 11.6381 12.7967 11.6381 12.7028C11.6381 12.6088 11.6754 12.5187 11.7418 12.4523C11.8083 12.3858 11.8984 12.3485 11.9924 12.3485ZM11.9437 19.0799H12.1119C12.2059 19.0799 12.296 19.1173 12.3624 19.1837C12.4289 19.2501 12.4662 19.3403 12.4662 19.4342C12.4662 19.5282 12.4289 19.6183 12.3624 19.6847C12.296 19.7512 12.2059 19.7885 12.1119 19.7885H11.9437C11.8498 19.7885 11.7597 19.7512 11.6932 19.6847C11.6268 19.6183 11.5895 19.5282 11.5895 19.4342C11.5895 19.3403 11.6268 19.2501 11.6932 19.1837C11.7597 19.1173 11.8498 19.0799 11.9437 19.0799ZM10.934 19.7885H10.7657C10.6717 19.7885 10.5816 19.7512 10.5152 19.6847C10.4487 19.6183 10.4114 19.5282 10.4114 19.4342C10.4114 19.3403 10.4487 19.2501 10.5152 19.1837C10.5816 19.1173 10.6717 19.0799 10.7657 19.0799H10.934C11.028 19.0799 11.1181 19.1173 11.1845 19.1837C11.251 19.2501 11.2883 19.3403 11.2883 19.4342C11.2883 19.5282 11.251 19.6183 11.1845 19.6847C11.1181 19.7512 11.028 19.7885 10.934 19.7885ZM10.7007 12.3485H10.8852C10.9792 12.3485 11.0693 12.3858 11.1358 12.4523C11.2022 12.5187 11.2395 12.6088 11.2395 12.7028C11.2395 12.7967 11.2022 12.8868 11.1358 12.9533C11.0693 13.0197 10.9792 13.0571 10.8852 13.0571H10.7007C10.6067 13.0571 10.5166 13.0197 10.4501 12.9533C10.3837 12.8868 10.3464 12.7967 10.3464 12.7028C10.3464 12.6088 10.3837 12.5187 10.4501 12.4523C10.5166 12.3858 10.6067 12.3485 10.7007 12.3485ZM10.1103 19.4342C10.1103 19.5282 10.0729 19.6183 10.0065 19.6847C9.94006 19.7512 9.84995 19.7885 9.75599 19.7885H9.66742C9.57345 19.7885 9.48334 19.7512 9.4169 19.6847C9.35046 19.6183 9.31313 19.5282 9.31313 19.4342C9.31313 19.3402 9.35046 19.2501 9.4169 19.1837C9.48334 19.1172 9.57345 19.0799 9.66742 19.0799H9.75599C9.84995 19.0799 9.94006 19.1173 10.0065 19.1837C10.0729 19.2501 10.1103 19.3402 10.1103 19.4342ZM9.40915 12.3485H9.59355C9.68751 12.3485 9.77763 12.3858 9.84407 12.4523C9.91051 12.5187 9.94784 12.6088 9.94784 12.7028C9.94784 12.7967 9.91051 12.8868 9.84407 12.9533C9.77763 13.0197 9.68751 13.0571 9.59355 13.0571H9.40915C9.31519 13.0571 9.22507 13.0197 9.15863 12.9533C9.09219 12.8868 9.05486 12.7967 9.05486 12.7028C9.05486 12.6088 9.09219 12.5187 9.15863 12.4523C9.22507 12.3858 9.31519 12.3485 9.40915 12.3485ZM8.11746 12.3485H8.30204C8.396 12.3485 8.48611 12.3858 8.55256 12.4523C8.619 12.5187 8.65632 12.6088 8.65632 12.7028C8.65632 12.7967 8.619 12.8868 8.55256 12.9533C8.48611 13.0197 8.396 13.0571 8.30204 13.0571H8.11746C8.0235 13.0571 7.93338 13.0197 7.86694 12.9533C7.8005 12.8868 7.76317 12.7967 7.76317 12.7028C7.76317 12.6088 7.8005 12.5187 7.86694 12.4523C7.93338 12.3858 8.0235 12.3485 8.11746 12.3485ZM6.92178 12.3485H7.01034C7.10431 12.3485 7.19442 12.3858 7.26086 12.4523C7.32731 12.5187 7.36463 12.6088 7.36463 12.7028C7.36463 12.7967 7.32731 12.8868 7.26086 12.9533C7.19442 13.0197 7.10431 13.0571 7.01034 13.0571H6.92178C6.82781 13.0571 6.7377 13.0197 6.67126 12.9533C6.60482 12.8868 6.56749 12.7967 6.56749 12.7028C6.56749 12.6088 6.60482 12.5187 6.67126 12.4523C6.7377 12.3858 6.82781 12.3485 6.92178 12.3485ZM9.63631 0.302734C9.5408 0.302774 9.44629 0.322225 9.35852 0.359906L3.90146 2.69293C3.72726 2.76815 3.58986 2.90919 3.51921 3.08529C3.44857 3.2614 3.45041 3.45829 3.52434 3.63305L6.15181 9.86839H6.92071L4.17729 3.35788C4.17622 3.35565 4.17591 3.35314 4.1764 3.35072C4.17689 3.3483 4.17815 3.3461 4.17999 3.34446L9.63657 1.01168L9.63891 1.01492L11.2075 4.73739C11.2841 4.73343 11.3612 4.73141 11.4388 4.73132C11.6227 4.73173 11.8063 4.74354 11.9887 4.76669L10.2919 0.739763C10.2377 0.610478 10.1467 0.500043 10.03 0.422299C9.91343 0.344556 9.77647 0.302963 9.63631 0.302734Z" fill="#3F3A52"/>
</g>
<defs>
<clipPath id="clip0_1357_5409">
<rect width="22.6737" height="22.6737" fill="white" transform="translate(0.0131836 0.302734)"/>
</clipPath>
</defs>
</svg>
