<svg width="21" height="24" viewBox="0 0 21 24" fill="none" xmlns="http://www.w3.org/2000/svg">
<path d="M13.0181 3.08364L13.6332 2.01997C13.6758 1.94637 13.7458 1.8927 13.828 1.87076C13.9101 1.84882 13.9976 1.86042 14.0712 1.90299C14.1448 1.94557 14.1985 2.01564 14.2204 2.09779C14.2424 2.17993 14.2308 2.26743 14.1882 2.34103L13.5731 3.4047C13.552 3.44115 13.524 3.47308 13.4905 3.49868C13.4571 3.52428 13.419 3.54305 13.3783 3.55391C13.3376 3.56478 13.2952 3.56752 13.2535 3.56199C13.2117 3.55646 13.1715 3.54276 13.1351 3.52168C13.0986 3.5006 13.0667 3.47255 13.0411 3.43912C13.0155 3.4057 12.9967 3.36756 12.9858 3.32689C12.975 3.28621 12.9722 3.24379 12.9778 3.20206C12.9833 3.16032 12.997 3.12008 13.0181 3.08364ZM15.4427 5.65276C15.4989 5.65274 15.5541 5.63802 15.6028 5.61007L16.6298 5.01701C16.6664 4.99605 16.6985 4.96806 16.7243 4.93466C16.75 4.90125 16.769 4.86309 16.78 4.82236C16.7909 4.78162 16.7938 4.73912 16.7883 4.69729C16.7828 4.65546 16.7691 4.61512 16.748 4.57859C16.7269 4.54206 16.6988 4.51005 16.6653 4.48441C16.6318 4.45877 16.5936 4.43999 16.5528 4.42916C16.512 4.41832 16.4695 4.41565 16.4277 4.42128C16.3859 4.42692 16.3456 4.44076 16.3092 4.462L15.2822 5.05461C15.221 5.08987 15.1732 5.14435 15.1461 5.20958C15.1191 5.27482 15.1144 5.34715 15.1327 5.41535C15.151 5.48355 15.1913 5.54379 15.2474 5.58672C15.3034 5.62965 15.3721 5.65287 15.4427 5.65276ZM10.4141 2.80934C10.4992 2.80933 10.5807 2.77555 10.6408 2.71542C10.701 2.6553 10.7348 2.57375 10.7348 2.48872V1.24433C10.7348 1.15929 10.701 1.07774 10.6409 1.01761C10.5807 0.957486 10.4992 0.923706 10.4141 0.923706C10.3291 0.923706 10.2476 0.957486 10.1874 1.01761C10.1273 1.07774 10.0935 1.15929 10.0935 1.24433V2.48872C10.0935 2.57375 10.1273 2.6553 10.1874 2.71542C10.2476 2.77555 10.3291 2.80933 10.4141 2.80934ZM7.2552 3.40563C7.27616 3.44224 7.30415 3.47435 7.33755 3.50012C7.37096 3.52589 7.40912 3.54481 7.44985 3.5558C7.49059 3.56679 7.53309 3.56962 7.57492 3.56415C7.61675 3.55867 7.65709 3.54499 7.69362 3.52388C7.73015 3.50278 7.76216 3.47467 7.7878 3.44117C7.81344 3.40767 7.83222 3.36943 7.84305 3.32866C7.85389 3.28788 7.85656 3.24537 7.85093 3.20356C7.84529 3.16175 7.83145 3.12146 7.81021 3.08501L7.1951 2.01997C7.15256 1.94637 7.08251 1.89269 7.00039 1.87073C6.91826 1.84877 6.83077 1.86034 6.75717 1.90288C6.68357 1.94543 6.62989 2.01547 6.60793 2.0976C6.58597 2.17972 6.59754 2.26721 6.64008 2.34081L7.2552 3.40563ZM4.1985 5.01701L5.2255 5.61007C5.26197 5.63112 5.30224 5.64479 5.34399 5.65028C5.38574 5.65577 5.42817 5.65299 5.46884 5.64208C5.50952 5.63118 5.54765 5.61237 5.58105 5.58673C5.61446 5.56109 5.64249 5.52912 5.66354 5.49265C5.6846 5.45618 5.69826 5.41592 5.70375 5.37417C5.70924 5.33241 5.70646 5.28999 5.69555 5.24931C5.68465 5.20864 5.66584 5.17051 5.6402 5.1371C5.61456 5.10369 5.58259 5.07566 5.54612 5.05461L4.51912 4.46204C4.48267 4.4408 4.44238 4.42696 4.40057 4.42133C4.35876 4.41569 4.31625 4.41837 4.27547 4.4292C4.2347 4.44003 4.19646 4.45881 4.16296 4.48445C4.12946 4.5101 4.10135 4.5421 4.08025 4.57863C4.05915 4.61516 4.04546 4.6555 4.03999 4.69734C4.03451 4.73917 4.03735 4.78167 4.04833 4.8224C4.05932 4.86313 4.07824 4.9013 4.10401 4.9347C4.12978 4.96811 4.16189 4.99605 4.1985 5.01701ZM8.85923 7.86083C8.72869 7.86083 8.60351 7.91269 8.5112 8.00499C8.4189 8.09729 8.36705 8.22248 8.36705 8.35301C8.36705 8.48355 8.4189 8.60873 8.5112 8.70104C8.60351 8.79334 8.72869 8.84519 8.85923 8.84519H9.35132V8.35301C9.35115 8.22254 9.29926 8.09747 9.20701 8.0052C9.11476 7.91294 8.98969 7.86102 8.85923 7.86083ZM12.4617 8.35301C12.4617 8.22242 12.4099 8.09718 12.3175 8.00483C12.2252 7.91249 12.0999 7.86061 11.9693 7.86061C11.8387 7.86061 11.7135 7.91249 11.6212 8.00483C11.5288 8.09718 11.4769 8.22242 11.4769 8.35301V8.84519H11.9696C12.1 8.84502 12.2251 8.7931 12.3174 8.70084C12.4096 8.60858 12.4616 8.48349 12.4617 8.35301ZM9.10691 15.3388H11.7214C11.7242 15.1875 11.7358 15.0365 11.756 14.8866H9.07232C9.0925 15.0365 9.10404 15.1875 9.10691 15.3388ZM9.99216 9.48594V14.2452H10.8361V9.48594H9.99216ZM9.45733 16.4322H11.371C11.4635 16.4321 11.5523 16.3953 11.6179 16.3299C11.6834 16.2644 11.7203 16.1757 11.7205 16.0831V15.98H9.10771V16.0832C9.10795 16.1758 9.14489 16.2645 9.21042 16.3299C9.27596 16.3953 9.36475 16.4321 9.45733 16.4322ZM9.98525 17.4908H10.8421C10.8974 17.4907 10.9505 17.4687 10.9896 17.4296C11.0287 17.3905 11.0507 17.3374 11.0508 17.2821V17.0734H9.77751V17.2824C9.77817 17.3374 9.80025 17.3899 9.83904 17.4288C9.87784 17.4678 9.93029 17.49 9.98525 17.4909V17.4908ZM18.9743 11.1235C18.9431 11.1102 18.9123 11.0969 18.8813 11.0836V21.0141C18.8812 21.0673 18.8678 21.1196 18.8424 21.1663C18.8171 21.2131 18.7805 21.2528 18.736 21.2819C18.6914 21.311 18.6404 21.3286 18.5874 21.3331C18.5344 21.3376 18.4811 21.3288 18.4323 21.3076C15.5967 20.066 13.0212 20.0637 10.5585 21.3003C10.5138 21.3227 10.4646 21.3343 10.4146 21.3343C10.3646 21.3343 10.3153 21.3227 10.2707 21.3003C7.80796 20.0637 5.23245 20.066 2.39687 21.3076C2.3481 21.329 2.29476 21.3379 2.24168 21.3336C2.1886 21.3292 2.13745 21.3116 2.09286 21.2825C2.04828 21.2533 2.01167 21.2135 1.98634 21.1667C1.96102 21.1198 1.94778 21.0674 1.94783 21.0141V11.0831C1.91709 11.0964 1.88583 11.1102 1.85483 11.1239L0.55127 11.6952V23.5974L3.60013 22.2626C5.76192 21.3145 7.61673 21.2989 9.4378 22.2139L10.4141 22.7034L11.3916 22.2135C13.2112 21.2994 15.0666 21.3146 17.2288 22.2626L20.2777 23.5974V11.695L18.9743 11.1235ZM6.61506 19.7368C7.81479 19.7584 8.99787 20.0214 10.0937 20.5102V18.1317H9.98547C9.7604 18.1313 9.54466 18.0417 9.38556 17.8825C9.22646 17.7233 9.13697 17.5075 9.13671 17.2824V17.0189C8.9416 16.952 8.77221 16.826 8.65217 16.6582C8.53213 16.4905 8.46741 16.2895 8.46704 16.0832V15.4136C8.46704 14.1995 7.84507 13.4555 7.12522 12.5941C6.39453 11.7198 5.57486 10.7378 5.44321 9.14021C4.5208 9.25212 3.56213 9.51495 2.58836 9.92317V20.5329C3.97145 19.9852 5.32319 19.7169 6.61484 19.7366L6.61506 19.7368ZM8.92503 14.2455H9.35132V9.48594H8.85923C8.63508 9.486 8.41595 9.41957 8.22956 9.29508C8.04316 9.17058 7.89788 8.9936 7.81207 8.78653C7.72627 8.57945 7.70381 8.35158 7.74752 8.13174C7.79124 7.91189 7.89917 7.70995 8.05767 7.55146C8.21617 7.39296 8.41811 7.28503 8.63795 7.24131C8.85779 7.1976 9.08566 7.22006 9.29274 7.30586C9.49981 7.39166 9.67679 7.53695 9.80129 7.72334C9.92579 7.90974 9.99221 8.12887 9.99216 8.35301V8.84519H10.8361V8.35301C10.8361 8.12889 10.9025 7.90978 11.027 7.72339C11.1514 7.53701 11.3284 7.39172 11.5354 7.30591C11.7425 7.22009 11.9703 7.1976 12.1902 7.24128C12.41 7.28495 12.6119 7.39284 12.7704 7.55128C12.929 7.70973 13.0369 7.91163 13.0807 8.13144C13.1245 8.35125 13.1021 8.5791 13.0164 8.78619C12.9306 8.99327 12.7854 9.17028 12.5991 9.29484C12.4128 9.4194 12.1937 9.4859 11.9696 9.48594H11.477V14.2452H11.9035C12.1728 13.4265 12.698 12.7971 13.2112 12.183C14.0093 11.2276 14.763 10.3258 14.763 8.68692C14.763 7.53356 14.3048 6.42744 13.4893 5.61189C12.6737 4.79635 11.5676 4.33818 10.4142 4.33818C9.26088 4.33818 8.15476 4.79635 7.33921 5.61189C6.52366 6.42744 6.06549 7.53356 6.06549 8.68692C6.06549 10.3258 6.81913 11.2276 7.61722 12.183C8.13083 12.7972 8.65556 13.4265 8.92481 14.2452L8.92503 14.2455ZM18.2398 20.5329V9.92308C17.2646 9.51486 16.3064 9.25252 15.3849 9.14013C15.2532 10.7377 14.4336 11.7197 13.7029 12.594C12.9832 13.4554 12.3611 14.1994 12.3611 15.4135V16.0832C12.3607 16.2895 12.296 16.4905 12.1759 16.6582C12.0559 16.826 11.8865 16.952 11.6914 17.0189V17.2824C11.6911 17.5076 11.6015 17.7235 11.4423 17.8828C11.283 18.042 11.0671 18.1316 10.8419 18.1319H10.7348V20.5102C11.8306 20.0214 13.0137 19.7584 14.2134 19.7368C15.5046 19.7183 16.8568 19.9852 18.2398 20.5329Z" fill="#3F3A52"/>
</svg>
