<svg width="23" height="23" viewBox="0 0 23 23" fill="none" xmlns="http://www.w3.org/2000/svg">
<path d="M9.52759 7.45299L11.5656 8.73239L13.6039 7.45299L11.5656 6.17383L9.52759 7.45299Z" fill="#3F3A52"/>
<path d="M9.31494 10.3855L11.3243 11.6466V9.15072L9.31494 7.8894V10.3855Z" fill="#3F3A52"/>
<path d="M13.8162 7.8894L11.8066 9.15072V11.6466L13.8162 10.3855V7.8894Z" fill="#3F3A52"/>
<path d="M12.4786 0.759197C12.2526 0.430662 11.9127 0.210192 11.521 0.137827C11.1299 0.0657043 10.7327 0.150612 10.4049 0.377112L9.2229 1.19145H12.777L12.4786 0.759197Z" fill="#3F3A52"/>
<path d="M1.24781 8.497L4.26444 12.8746V4.60693L1.62941 6.42328C0.953529 6.89148 0.782026 7.82184 1.24781 8.497Z" fill="#3F3A52"/>
<path d="M7.11572 13.9299H16.0156V4.04321H7.11572V13.9299ZM8.83245 7.45351C8.83245 7.43204 8.83534 7.41129 8.84089 7.39103C8.84282 7.38404 8.8462 7.37801 8.84861 7.37125C8.85343 7.35847 8.85777 7.34568 8.86453 7.33386C8.86887 7.32639 8.87466 7.31987 8.87997 7.31288C8.88696 7.30323 8.89348 7.29334 8.90192 7.2849C8.90843 7.27814 8.91639 7.27308 8.92363 7.26705C8.9311 7.26102 8.93738 7.25426 8.94558 7.24896L11.4373 5.68492C11.5155 5.63571 11.6153 5.63571 11.6937 5.68492L14.1855 7.24896C14.1937 7.25402 14.2 7.26102 14.2074 7.26681C14.2149 7.27284 14.2226 7.27814 14.2294 7.28466C14.2378 7.2931 14.2443 7.30299 14.2511 7.3124C14.2562 7.31963 14.2622 7.3259 14.2665 7.33362C14.273 7.3452 14.2774 7.35799 14.2822 7.37053C14.2846 7.37728 14.2882 7.38355 14.2902 7.39079C14.2955 7.41081 14.2986 7.4318 14.2986 7.45302V10.5186C14.2986 10.6016 14.2559 10.6788 14.1855 10.7229L11.6937 12.287C11.6865 12.2915 11.6785 12.2935 11.6711 12.2971C11.6636 12.3007 11.6563 12.3041 11.6486 12.3072C11.6216 12.3171 11.5939 12.3241 11.5657 12.3241C11.5374 12.3241 11.5094 12.3174 11.4827 12.3072C11.475 12.3043 11.4677 12.301 11.4602 12.2971C11.4528 12.2935 11.4448 12.2915 11.4376 12.287L8.94582 10.7229C8.87538 10.6788 8.83269 10.6016 8.83269 10.5186L8.83245 7.45351Z" fill="#3F3A52"/>
<path d="M21.8819 14.4023L18.8679 10.0293V18.2897L21.5003 16.476C21.8288 16.25 22.0493 15.9099 22.1214 15.5181C22.1935 15.1266 22.1084 14.7303 21.8819 14.4023Z" fill="#3F3A52"/>
<path d="M17.7749 5.43815C17.7749 6.5294 18.6628 7.41756 19.7541 7.41756C20.8453 7.41756 21.7335 6.52964 21.7335 5.43815C21.7335 4.34665 20.8453 3.45874 19.7541 3.45874C18.6628 3.45874 17.7749 4.34689 17.7749 5.43815ZM18.8927 5.34697C18.987 5.25265 19.1395 5.25265 19.2338 5.34697L19.4709 5.58408L20.2741 4.7806C20.3684 4.68628 20.5209 4.68628 20.6152 4.7806C20.7095 4.87491 20.7095 5.02736 20.6152 5.12167L19.6414 6.0957C19.5961 6.14105 19.535 6.16638 19.4709 6.16638C19.4067 6.16638 19.3455 6.14105 19.3003 6.0957L18.8927 5.68805C18.7986 5.59373 18.7986 5.44104 18.8927 5.34697Z" fill="#3F3A52"/>
<path d="M17.2926 5.43822C17.2926 4.58722 17.7271 3.83584 18.3853 3.39345V3.16454C18.3853 2.34248 17.7167 1.67383 16.8946 1.67383H6.23753C5.41571 1.67383 4.74683 2.34248 4.74683 3.16454V19.7343C4.74683 20.5576 5.41547 21.2274 6.23753 21.2274H16.8949C17.7167 21.2274 18.3856 20.5576 18.3856 19.7343V7.483C17.7268 7.04061 17.2926 6.28923 17.2926 5.43822ZM9.8531 19.0886C9.8531 19.1952 9.78315 19.2893 9.68087 19.3196C9.65796 19.3264 9.6348 19.3298 9.61189 19.3298C9.53204 19.3298 9.45558 19.29 9.40999 19.2208L8.27435 17.4855V19.0886C8.27435 19.2217 8.16653 19.3298 8.03314 19.3298C7.89974 19.3298 7.79192 19.2217 7.79192 19.0886V16.6764C7.79192 16.5698 7.86187 16.4757 7.96415 16.4453C8.06715 16.4152 8.17666 16.4555 8.23503 16.5445L9.37067 18.2798V16.6767C9.37067 16.5435 9.47849 16.4354 9.61189 16.4354C9.74528 16.4354 9.8531 16.5435 9.8531 16.6767V19.0886ZM12.2267 17.6413C12.36 17.6413 12.4679 17.7493 12.4679 17.8825C12.4679 18.0156 12.36 18.1237 12.2267 18.1237H11.2603V19.0886C11.2603 19.2217 11.1525 19.3298 11.0191 19.3298C10.8857 19.3298 10.7779 19.2217 10.7779 19.0886V16.6764C10.7779 16.5433 10.8857 16.4352 11.0191 16.4352H12.2267C12.36 16.4352 12.4679 16.5433 12.4679 16.6764C12.4679 16.8096 12.36 16.9176 12.2267 16.9176H11.2603V17.6413H12.2267ZM15.0983 16.9176H14.4823V19.0886C14.4823 19.2217 14.3744 19.3298 14.241 19.3298C14.1076 19.3298 13.9998 19.2217 13.9998 19.0886V16.9176H13.3835C13.2501 16.9176 13.1423 16.8096 13.1423 16.6764C13.1423 16.5433 13.2501 16.4352 13.3835 16.4352H15.0981C15.2315 16.4352 15.3393 16.5433 15.3393 16.6764C15.3393 16.8096 15.2317 16.9176 15.0983 16.9176ZM16.4981 14.1709C16.4981 14.3041 16.3903 14.4121 16.2569 14.4121H6.87458C6.74119 14.4121 6.63337 14.3041 6.63337 14.1709V3.80182C6.63337 3.66867 6.74119 3.56061 6.87458 3.56061H16.2569C16.3903 3.56061 16.4981 3.66867 16.4981 3.80182V14.1709Z" fill="#3F3A52"/>
<path d="M10.6512 22.1422C11.1184 22.8186 12.0492 22.9903 12.7275 22.5241L13.9078 21.71H10.353L10.6512 22.1422Z" fill="#3F3A52"/>
</svg>
