<svg width="22" height="22" viewBox="0 0 22 22" fill="none" xmlns="http://www.w3.org/2000/svg">
<path d="M17.9683 6.54479C18.0846 5.94316 18.0665 5.32326 17.9152 4.72947C17.764 4.13567 17.4833 3.58266 17.0933 3.11003C16.7033 2.6374 16.2136 2.25684 15.6593 1.9956C15.105 1.73435 14.4998 1.59888 13.8871 1.59888C13.2743 1.59888 12.6691 1.73435 12.1148 1.9956C11.5605 2.25684 11.0709 2.6374 10.6809 3.11003C10.2909 3.58266 10.0102 4.13567 9.8589 4.72947C9.70762 5.32326 9.68949 5.94316 9.8058 6.54479H17.9683Z" fill="#3F3A52"/>
<path d="M21.8231 15.6145V13.3471C21.8231 13.2469 21.7833 13.1508 21.7124 13.0799C21.6416 13.0091 21.5454 12.9692 21.4452 12.9692H19.1778C18.7769 12.9692 18.3925 13.1285 18.109 13.412C17.8255 13.6954 17.6663 14.0799 17.6663 14.4808C17.6663 14.8817 17.8255 15.2662 18.109 15.5497C18.3925 15.8331 18.7769 15.9924 19.1778 15.9924H21.4452C21.5454 15.9924 21.6416 15.9526 21.7124 15.8817C21.7833 15.8108 21.8231 15.7147 21.8231 15.6145Z" fill="#3F3A52"/>
<path d="M11.1521 1.70974C10.4521 1.00916 9.52481 0.581807 8.53747 0.504775C7.55013 0.427743 6.56776 0.706103 5.76759 1.28964C4.96742 1.87317 4.40214 2.72346 4.17373 3.68711C3.94532 4.65075 4.06882 5.6643 4.52194 6.5449H9.03854C8.99764 6.295 8.97604 6.04233 8.97392 5.78911C8.97253 4.98227 9.17068 4.18761 9.55071 3.47588C9.93074 2.76415 10.4809 2.15743 11.1521 1.70974Z" fill="#3F3A52"/>
<path d="M20.6895 6.54513V3.89987C20.6895 3.79964 20.6496 3.70352 20.5788 3.63266C20.5079 3.56179 20.4118 3.52197 20.3116 3.52197H18.2456C18.611 4.22181 18.8013 4.99984 18.8 5.78934C18.7979 6.04256 18.7763 6.29523 18.7354 6.54513H20.6895Z" fill="#3F3A52"/>
<path d="M5.5722 10.702C5.98961 10.702 6.32799 10.3636 6.32799 9.94622C6.32799 9.52881 5.98961 9.19043 5.5722 9.19043C5.15478 9.19043 4.81641 9.52881 4.81641 9.94622C4.81641 10.3636 5.15478 10.702 5.5722 10.702Z" fill="#3F3A52"/>
<path d="M8.59637 15.2364C9.01378 15.2364 9.35216 14.8981 9.35216 14.4806C9.35216 14.0632 9.01378 13.7249 8.59637 13.7249C8.17895 13.7249 7.84058 14.0632 7.84058 14.4806C7.84058 14.8981 8.17895 15.2364 8.59637 15.2364Z" fill="#3F3A52"/>
<path d="M3.73417 17.398C3.66281 17.3129 3.57365 17.2444 3.47298 17.1974C3.37231 17.1504 3.26256 17.126 3.15146 17.1259H0.661133V20.1491C0.661133 20.55 0.820388 20.9345 1.10386 21.2179C1.38734 21.5014 1.77182 21.6607 2.17271 21.6607H20.6896C20.7898 21.6607 20.8859 21.6209 20.9568 21.55C21.0276 21.4791 21.0675 21.383 21.0675 21.2828V16.748H19.178C18.5766 16.748 17.9999 16.5092 17.5747 16.0839C17.1495 15.6587 16.9106 15.082 16.9106 14.4807C16.9106 13.8793 17.1495 13.3026 17.5747 12.8774C17.9999 12.4522 18.5766 12.2133 19.178 12.2133H21.0675V7.67857C21.0675 7.57835 21.0276 7.48223 20.9568 7.41136C20.8859 7.34049 20.7898 7.30068 20.6896 7.30068H2.25207C1.66564 7.30056 1.09961 7.08544 0.661133 6.69604V11.8354H3.15146C3.26283 11.8353 3.37283 11.8108 3.4737 11.7636C3.57458 11.7164 3.66388 11.6476 3.73531 11.5622L4.34863 10.8245C4.1279 10.5225 4.02509 10.1502 4.05951 9.77767C4.09393 9.40514 4.26322 9.058 4.53556 8.8015C4.8079 8.54499 5.16454 8.39677 5.53846 8.38469C5.91238 8.37262 6.27784 8.49751 6.56616 8.73591C6.85449 8.97431 7.04582 9.3098 7.10421 9.67933C7.1626 10.0489 7.08402 10.427 6.88325 10.7427C6.68247 11.0584 6.37332 11.2899 6.01389 11.3936C5.65446 11.4974 5.2695 11.4664 4.93134 11.3064L4.315 12.047C4.17276 12.2174 3.99482 12.3545 3.79376 12.4485C3.59269 12.5426 3.37342 12.5913 3.15146 12.5912H0.661133V14.1028H7.13901C7.23098 13.7466 7.44972 13.4361 7.75422 13.2296C8.05872 13.0231 8.42808 12.9348 8.79305 12.9811C9.15803 13.0275 9.49357 13.2054 9.73678 13.4814C9.97998 13.7575 10.1142 14.1128 10.1142 14.4807C10.1142 14.8486 9.97998 15.2039 9.73678 15.4799C9.49357 15.756 9.15803 15.9339 8.79305 15.9802C8.42808 16.0266 8.05872 15.9382 7.75422 15.7317C7.44972 15.5252 7.23098 15.2148 7.13901 14.8586H0.661133V16.3702H3.15146C3.37321 16.3699 3.5923 16.4185 3.79318 16.5124C3.99407 16.6063 4.17183 16.7433 4.31386 16.9136L4.93134 17.655C5.13153 17.5573 5.35103 17.5057 5.57377 17.5038C5.91571 17.5016 6.24846 17.6145 6.51835 17.8245C6.78825 18.0345 6.97955 18.3292 7.06143 18.6612C7.1433 18.9932 7.11096 19.3431 6.96963 19.6545C6.82831 19.9659 6.58622 20.2206 6.28242 20.3776C5.97862 20.5345 5.63081 20.5846 5.29507 20.5197C4.95933 20.4548 4.65524 20.2787 4.43182 20.0198C4.20841 19.761 4.0787 19.4344 4.0636 19.0927C4.04851 18.7511 4.14892 18.4144 4.34863 18.1368L3.73417 17.398Z" fill="#3F3A52"/>
<path d="M5.5722 19.7711C5.98961 19.7711 6.32799 19.4327 6.32799 19.0153C6.32799 18.5979 5.98961 18.2595 5.5722 18.2595C5.15478 18.2595 4.81641 18.5979 4.81641 19.0153C4.81641 19.4327 5.15478 19.7711 5.5722 19.7711Z" fill="#3F3A52"/>
<path d="M0.659543 5.03733C0.658411 5.0826 0.659925 5.1279 0.664078 5.17299C0.712996 5.55698 0.901962 5.90938 1.19473 6.16261C1.4875 6.41583 1.86345 6.55205 2.25048 6.54513H3.68043C3.28117 5.58849 3.19763 4.52938 3.44198 3.52197H2.17112C1.77072 3.52356 1.38716 3.68333 1.10403 3.96646C0.820902 4.24959 0.661135 4.63315 0.659543 5.03355V5.03733Z" fill="#3F3A52"/>
</svg>
