<svg width="24" height="24" viewBox="0 0 24 24" fill="none" xmlns="http://www.w3.org/2000/svg">
<path d="M12.8447 6.4147C15.224 6.81619 17.1022 8.69548 17.5046 11.075H23.2368C22.7775 5.55194 18.3673 1.14129 12.8447 0.682861V6.4147Z" fill="#3F3A52"/>
<path d="M17.5754 12.9634C17.1273 15.6398 14.8173 17.6871 12.0349 17.6871C10.7159 17.6871 9.5047 17.2241 8.54473 16.4551L4.34204 20.2671C6.35573 22.1765 9.05846 23.3555 12.0349 23.3555C17.9223 23.3555 22.7577 18.7726 23.2368 12.9634H17.5754Z" fill="#3F3A52"/>
<path d="M7.11876 14.8593C6.56042 13.9896 6.23165 12.9618 6.23165 11.8574C6.23165 9.08268 8.2789 6.77838 10.9553 6.33042V0.681885C5.14521 1.1607 0.563232 5.98534 0.563232 11.8574C0.563232 14.4039 1.43428 16.7465 2.88351 18.6319L7.11876 14.8593Z" fill="#252134"/>
</svg>
