<svg width="23" height="23" viewBox="0 0 23 23" fill="none" xmlns="http://www.w3.org/2000/svg">
<path d="M11.3368 0C5.08552 0 0 5.08552 0 11.3368C0 17.5882 5.08552 22.6737 11.3368 22.6737C17.5882 22.6737 22.6737 17.5882 22.6737 11.3368C22.6737 5.08552 17.5882 0 11.3368 0Z" fill="#3F3A52"/>
<path d="M11.3366 2.83423C6.64812 2.83423 2.83398 6.64837 2.83398 11.3369C2.83398 16.0254 6.64812 19.8395 11.3366 19.8395C16.0251 19.8395 19.8392 16.0254 19.8392 11.3369C19.8392 6.64837 16.0251 2.83423 11.3366 2.83423Z" fill="#252134"/>
<path d="M11.3364 14.1711C9.77379 14.1711 8.50218 12.8995 8.50218 11.3369C8.50218 10.9004 8.60893 10.4923 8.7856 10.1229L5.66797 5.66846L10.1215 8.78703C10.4918 8.61037 10.8999 8.50267 11.3364 8.50267C12.899 8.50267 14.1706 9.77428 14.1706 11.3369C14.1706 12.8995 12.899 14.1711 11.3364 14.1711Z" fill="#3F3A52"/>
</svg>
