<svg width="22" height="23" viewBox="0 0 22 23" fill="none" xmlns="http://www.w3.org/2000/svg">
<path fill-rule="evenodd" clip-rule="evenodd" d="M15.8018 18.3839C16.6515 16.7657 17.1227 14.9757 17.1798 13.1489H11.7165V17.8265C13.0955 17.85 14.4669 18.0372 15.8018 18.3839ZM1.51383 9.93006C1.50524 10.0293 1.4576 10.121 1.38139 10.185C1.30518 10.2491 1.20664 10.2803 1.10744 10.2717C1.00825 10.2631 0.916529 10.2155 0.852459 10.1393C0.788389 10.0631 0.757218 9.96451 0.765804 9.86532C0.934399 8.01065 1.58771 6.23291 2.6602 4.71041C3.73269 3.18792 5.18666 1.97419 6.87628 1.19097L6.29788 1.09094C6.19948 1.07415 6.11177 1.01895 6.05406 0.937496C5.99635 0.85604 5.97336 0.754994 5.99015 0.656587C6.00694 0.55818 6.06213 0.470473 6.14359 0.412761C6.22504 0.355049 6.32609 0.332059 6.42449 0.348848L8.33986 0.680099C8.40169 0.690765 8.45989 0.716698 8.50916 0.755546C8.55844 0.794394 8.59724 0.844927 8.62204 0.902565C8.64685 0.960202 8.65687 1.02312 8.6512 1.08561C8.64554 1.1481 8.62436 1.20819 8.58959 1.26042L7.66497 2.74191C7.63914 2.78446 7.60514 2.82146 7.56492 2.85078C7.5247 2.88009 7.47906 2.90114 7.43065 2.9127C7.38225 2.92426 7.33202 2.9261 7.2829 2.91812C7.23377 2.91014 7.18672 2.8925 7.14446 2.86621C7.1022 2.83992 7.06557 2.80551 7.0367 2.76497C7.00783 2.72443 6.98728 2.67857 6.97625 2.63003C6.96523 2.5815 6.96393 2.53126 6.97245 2.48223C6.98097 2.43319 6.99913 2.38633 7.02588 2.34436L7.37108 1.79123C5.75707 2.50137 4.36264 3.63071 3.33263 5.06194C2.30262 6.49317 1.67461 8.17408 1.51383 9.93006ZM9.36217 6.64705H10.305C10.3675 6.64717 10.4273 6.67203 10.4715 6.71619C10.5156 6.76035 10.5405 6.8202 10.5406 6.88264V11.51C10.5405 11.5725 10.5156 11.6323 10.4715 11.6765C10.4273 11.7206 10.3675 11.7455 10.305 11.7456H9.36217C9.29972 11.7455 9.23987 11.7206 9.19571 11.6765C9.15156 11.6323 9.12669 11.5725 9.12657 11.51V6.88264C9.12669 6.8202 9.15156 6.76035 9.19571 6.71619C9.23987 6.67203 9.29972 6.64717 9.36217 6.64705ZM6.35033 9.03281C6.28788 9.03292 6.22802 9.05778 6.18386 9.10194C6.1397 9.1461 6.11484 9.20596 6.11473 9.26841V11.5101C6.11486 11.5725 6.13972 11.6324 6.18387 11.6765C6.22803 11.7207 6.28788 11.7456 6.35033 11.7457H7.29324C7.35569 11.7456 7.41554 11.7207 7.4597 11.6765C7.50385 11.6324 7.52871 11.5725 7.52884 11.5101V9.26836C7.52873 9.20591 7.50387 9.14605 7.45971 9.10189C7.41555 9.05773 7.35569 9.03287 7.29324 9.03276L6.35033 9.03281ZM15.3859 4.79204H16.3288C16.3913 4.79217 16.4511 4.81703 16.4953 4.86118C16.5394 4.90534 16.5643 4.96519 16.5644 5.02764V11.51C16.5643 11.5725 16.5394 11.6323 16.4953 11.6765C16.4511 11.7206 16.3913 11.7455 16.3288 11.7456H15.3859C15.3234 11.7455 15.2636 11.7206 15.2194 11.6765C15.1753 11.6323 15.1504 11.5725 15.1503 11.51V5.02773C15.1504 4.96529 15.1753 4.90543 15.2194 4.86128C15.2636 4.81712 15.3234 4.79217 15.3859 4.79204ZM12.374 7.61135H13.3169C13.3794 7.61147 13.4392 7.63634 13.4834 7.68049C13.5275 7.72465 13.5524 7.7845 13.5525 7.84695V11.5099C13.5524 11.5724 13.5275 11.6322 13.4834 11.6764C13.4392 11.7205 13.3794 11.7454 13.3169 11.7455H12.374C12.3116 11.7454 12.2517 11.7205 12.2076 11.6764C12.1634 11.6322 12.1385 11.5724 12.1384 11.5099V7.84704C12.1385 7.7846 12.1634 7.72474 12.2076 7.68059C12.2517 7.63643 12.3116 7.61147 12.374 7.61135ZM14.452 2.96333L14.6014 2.96281L12.7718 4.62759L9.98236 3.42812L9.98179 3.42939C9.92084 3.40317 9.85402 3.3936 9.78815 3.40165C9.72229 3.40971 9.65975 3.4351 9.60691 3.47524L6.59502 5.76214C6.51575 5.82228 6.46361 5.91145 6.45008 6.01003C6.43655 6.10861 6.46274 6.20853 6.52288 6.28781C6.58302 6.36708 6.67219 6.41922 6.77077 6.43275C6.86935 6.44627 6.96927 6.42009 7.04855 6.35995L9.88515 4.2062L12.697 5.41529C12.7662 5.44506 12.8428 5.45338 12.9168 5.43917C12.9908 5.42495 13.0589 5.38886 13.1121 5.33557L14.9875 3.62984C14.9725 3.72718 14.9963 3.82651 15.0536 3.90655C15.111 3.98659 15.1975 4.04097 15.2945 4.05802C15.3915 4.07507 15.4913 4.05345 15.5726 3.99778C15.6538 3.94211 15.71 3.85683 15.7291 3.76022L15.9463 2.65611C15.9569 2.60171 15.9554 2.54565 15.9418 2.49193C15.9282 2.4382 15.9028 2.38816 15.8676 2.34538C15.8324 2.30259 15.7881 2.26813 15.738 2.24446C15.6879 2.22079 15.6332 2.2085 15.5778 2.20847L14.4525 2.21257C14.3536 2.21368 14.2592 2.25373 14.1897 2.32402C14.1202 2.39431 14.0812 2.48918 14.0812 2.58804C14.0812 2.6869 14.1202 2.78177 14.1897 2.85207C14.2592 2.92236 14.3531 2.96222 14.452 2.96333ZM21.0754 5.78513L20.9754 6.36339C20.1238 4.52501 18.764 2.96863 17.0566 1.87795C15.3492 0.787275 13.3654 0.207829 11.3394 0.208008C11.2394 0.208008 11.1435 0.247723 11.0729 0.318416C11.0022 0.389109 10.9624 0.48499 10.9624 0.584965C10.9624 0.68494 11.0022 0.780821 11.0729 0.851514C11.1435 0.922207 11.2394 0.961922 11.3394 0.961922C13.2554 0.961512 15.13 1.51886 16.7346 2.56593C18.3391 3.61301 19.6042 5.10454 20.3753 6.85847L19.8221 6.51323C19.7801 6.48648 19.7332 6.46832 19.6842 6.4598C19.6352 6.45128 19.5849 6.45257 19.5364 6.4636C19.4879 6.47463 19.442 6.49517 19.4015 6.52404C19.3609 6.55291 19.3265 6.58954 19.3002 6.6318C19.2739 6.67406 19.2563 6.72112 19.2483 6.77024C19.2403 6.81937 19.2422 6.86959 19.2537 6.918C19.2653 6.96641 19.2863 7.01204 19.3157 7.05226C19.345 7.09248 19.382 7.12649 19.4245 7.15231L20.9061 8.07675C20.9583 8.11152 21.0184 8.13269 21.0809 8.13836C21.1434 8.14402 21.2063 8.134 21.264 8.1092C21.3216 8.08439 21.3721 8.0456 21.411 7.99632C21.4498 7.94704 21.4758 7.88885 21.4864 7.82702L21.8177 5.91165C21.8337 5.81359 21.8102 5.71319 21.7525 5.63233C21.6948 5.55148 21.6074 5.49673 21.5095 5.48002C21.4115 5.46331 21.3109 5.486 21.2297 5.54313C21.1484 5.60027 21.0928 5.68732 21.0754 5.78513ZM5.49921 13.1491C5.55635 14.9759 6.02752 16.7659 6.87717 18.3841C8.2121 18.0374 9.58344 17.8504 10.9624 17.8269V13.1491H5.49921ZM7.26214 19.0618C8.19769 20.5893 9.46178 21.8891 10.9625 22.8669V18.5808C9.71503 18.6031 8.4739 18.7644 7.26214 19.0618ZM9.6881 22.8814C7.66393 22.5523 5.78576 21.6213 4.29817 20.2097C5.00046 19.8201 5.74199 19.5059 6.51039 19.2723C7.33168 20.6657 8.41 21.8902 9.6881 22.8814ZM6.14107 18.5997C5.30906 18.8623 4.50856 19.2159 3.75408 19.654C2.12831 17.8679 1.18894 15.5628 1.10309 13.1491H4.74788C4.80329 15.0467 5.27912 16.9083 6.14107 18.5997ZM17.9311 13.1491H21.5746C21.4892 15.5627 20.5503 17.8677 18.925 19.654C18.1705 19.216 17.37 18.8625 16.538 18.6C17.3999 16.9086 17.8757 15.0467 17.9311 13.1491ZM16.1688 19.2721C15.3475 20.6655 14.2692 21.8903 12.991 22.8815C15.0153 22.5523 16.8935 21.6212 18.3811 20.2095C17.6788 19.8199 16.9373 19.5056 16.1688 19.2721ZM11.7166 22.8669V18.5808C12.964 18.6031 14.205 18.7645 15.4167 19.0618C14.4812 20.5893 13.2174 21.8891 11.7166 22.8669Z" fill="#3F3A52"/>
</svg>
