<svg width="20" height="23" viewBox="0 0 20 23" fill="none" xmlns="http://www.w3.org/2000/svg">
<path d="M11.5833 15.9161C11.5833 16.1334 11.4062 16.3098 11.1897 16.3098C11.3047 16.3098 9.34196 16.3098 9.22151 16.3098V15.5225C9.14042 15.5225 11.0488 15.5225 11.1897 15.5225C11.4062 15.5225 11.5833 15.6988 11.5833 15.9161ZM10.4024 13.9479H9.22151V13.1606H10.4024C10.6189 13.1606 10.7961 13.337 10.7961 13.5543C10.7961 13.7716 10.6189 13.9479 10.4024 13.9479Z" fill="#3F3A52"/>
<path d="M14.1289 6.46882H5.85297C4.26109 8.55827 0.563232 10.9831 0.563232 14.9778C0.563232 18.3686 3.14 22.6081 10.0106 22.6081C16.8812 22.6081 19.458 18.3686 19.458 14.9778C19.458 10.9485 15.6971 8.60314 14.1289 6.46882ZM11.0734 17.8844H10.7979V19.0653H10.0106V17.8844H9.22332V19.0653H8.43604V17.8844H8.0424C7.82511 17.8844 7.64876 17.708 7.64876 17.4908C7.64876 17.3695 7.64876 11.7861 7.64876 11.9798C7.64876 11.7625 7.82511 11.5861 8.0424 11.5861H8.43604V10.4052H9.22332V11.5861H10.0106V10.4052H10.7979V11.6263C11.9394 11.8593 12.6921 13.0725 12.2378 14.2558C12.8417 14.6376 13.2282 15.3344 13.1503 16.1169C13.0471 17.1428 12.1048 17.8844 11.0734 17.8844ZM5.68056 3.71334H6.3773C6.03483 2.75443 5.33337 1.99234 4.99326 1.23341C4.89643 1.0169 5.00586 0.759463 5.23181 0.686246C7.06932 0.0957859 9.71695 2.40094 14.2824 0.894088C14.5083 0.819297 14.687 1.07438 14.5461 1.26647C14.0305 1.96873 13.6927 2.80009 13.5416 3.71334H14.3406C14.776 3.71334 15.1279 4.06604 15.1279 4.50062C15.1279 4.9352 14.776 5.2879 14.3406 5.2879H5.68056C5.24519 5.2879 4.89328 4.9352 4.89328 4.50062C4.89328 4.06604 5.24519 3.71334 5.68056 3.71334Z" fill="#252134"/>
</svg>
